<svg width="182" height="182" viewBox="0 0 182 182" fill="none" xmlns="http://www.w3.org/2000/svg">
<path d="M94.0508 30.7912C88.6506 14.2927 71.7825 6.81084 55.9439 9.11875C57.5467 25.078 68.0491 39.7701 84.2007 42.0705C93.6925 43.4281 97.0563 39.9738 94.0508 30.795V30.7912ZM119.788 47.8553C106.575 47.8553 96.2644 50.563 90.9095 58.6859C85.5545 50.563 75.2444 47.8553 62.0305 47.8553C-16.2196 47.8553 21.2726 172.414 69.4821 172.414C80.1958 172.414 85.5507 167.059 90.9095 167.059C96.2644 167.059 101.619 172.414 112.333 172.414C157.865 172.414 198.038 47.8553 119.788 47.8553V47.8553Z" fill="#C3DDFF"/>
</svg>
