<svg width="1867" height="1334" viewBox="0 0 1867 1334" fill="none" xmlns="http://www.w3.org/2000/svg">
<g clip-path="url(#clip0_829_305)">
<path d="M0 1079.97H933.31V-0.000366211H0V1079.97Z" fill="#66CAE0"/>
<path d="M330.663 337.894C336.506 337.894 341.526 335.754 345.806 331.228L346.135 336.906H349.838V276.829H345.394V300.449C341.279 296.745 336.588 294.935 331.074 294.935C319.882 294.935 313.874 302.424 313.874 316.497C313.874 330.323 319.717 337.894 330.663 337.894ZM331.404 333.944C322.762 333.944 318.401 327.936 318.401 316.414C318.401 304.81 322.927 298.885 331.897 298.885C337.329 298.885 341.609 301.025 345.394 305.469V326.702C341.444 331.639 336.918 333.944 331.404 333.944ZM374.93 337.894C381.349 337.894 386.781 335.343 391.143 330.57L391.472 336.906H395.34V310.9C395.34 299.708 390.402 294.935 378.634 294.935C372.873 294.935 368.264 296.087 364.231 298.473V302.917C368.429 300.202 372.626 298.885 378.222 298.885C387.357 298.885 390.896 302.424 390.896 311.394V313.698C386.287 313.04 381.267 312.793 378.634 312.793C367.194 312.793 361.516 317.073 361.516 325.549C361.516 333.368 366.289 337.894 374.93 337.894ZM375.671 333.944C369.416 333.944 366.042 330.981 366.042 325.549C366.042 319.459 370.157 316.579 378.881 316.579C381.432 316.579 386.37 316.908 390.896 317.566V325.961C386.617 331.31 381.596 333.944 375.671 333.944ZM409.25 286.211H414.27V280.203H409.25V286.211ZM409.497 336.906H413.941V295.922H409.497V336.906ZM440.628 337.894C451.656 337.894 457.17 333.779 457.17 325.714C457.17 319.459 453.796 316.167 445.319 314.439L439.312 313.205C432.481 311.806 430.588 310.077 430.588 306.539C430.588 301.518 434.538 298.885 441.945 298.885C446.801 298.885 451.492 300.037 455.031 302.341V297.733C451.739 295.84 446.801 294.935 441.945 294.935C431.74 294.935 426.144 298.967 426.144 306.868C426.144 312.875 429.518 315.756 437.501 317.402L443.591 318.636C450.422 320.035 452.808 321.764 452.808 325.961C452.808 331.31 448.858 333.944 440.793 333.944C434.621 333.944 429.189 332.462 425.156 329.5V334.026C428.695 336.577 434.538 337.894 440.628 337.894ZM461.674 295.922L477.146 334.849C477.393 335.425 477.475 335.754 477.475 336.248C477.475 336.989 477.393 337.236 475.253 342.832C473.443 347.523 471.632 349.169 468.093 349.169C467.024 349.169 465.789 349.004 464.884 348.675V352.543C465.871 352.955 467.106 353.119 468.587 353.119C473.937 353.119 476.735 350.568 479.368 343.902L498.132 295.922H493.523L480.109 330.57L466.447 295.922H461.674ZM520.334 337.894C526.177 337.894 531.197 335.754 535.477 331.228L535.806 336.906H539.509V276.829H535.065V300.449C530.95 296.745 526.259 294.935 520.745 294.935C509.553 294.935 503.545 302.424 503.545 316.497C503.545 330.323 509.388 337.894 520.334 337.894ZM521.075 333.944C512.433 333.944 508.072 327.936 508.072 316.414C508.072 304.81 512.598 298.885 521.568 298.885C527 298.885 531.28 301.025 535.065 305.469V326.702C531.115 331.639 526.589 333.944 521.075 333.944ZM572.913 337.894C578.345 337.894 582.625 336.824 586.163 334.767V330.405C582.46 332.709 578.427 333.944 573.078 333.944C561.885 333.944 556.536 328.594 556.371 317.32H588.303C588.468 316.003 588.55 314.933 588.55 313.534C588.55 301.354 582.625 294.935 570.856 294.935C558.429 294.935 551.927 302.177 551.927 316.414C551.927 330.981 558.84 337.894 572.913 337.894ZM556.454 313.369C557.112 303.658 561.885 298.885 571.103 298.885C580.073 298.885 584.188 303.494 584.27 313.369H556.454ZM619.137 337.894C630.33 337.894 636.337 330.323 636.337 316.332C636.337 302.506 630.494 294.935 619.549 294.935C613.87 294.935 609.014 296.91 604.817 301.107V276.829H600.373V336.906H603.83L604.324 331.886C608.521 335.919 613.294 337.894 619.137 337.894ZM618.314 333.944C612.882 333.944 608.603 331.804 604.817 327.278V306.127C608.768 301.189 613.294 298.885 618.808 298.885C627.449 298.885 631.811 304.81 631.811 316.332C631.811 328.018 627.285 333.944 618.314 333.944ZM660.79 337.894C663.259 337.894 665.317 337.565 667.209 336.906V332.792C665.481 333.615 663.588 333.944 661.366 333.944C656.017 333.944 654.124 331.886 654.124 326.455V299.626H667.127V295.922H654.124V283.824H650.338L649.762 295.922H641.368V299.626H649.68V326.948C649.68 334.602 653.054 337.894 660.79 337.894Z" fill="#B7E7EC"/>
<path d="M521.342 373.946C522.924 373.946 524.231 373.419 525.378 372.272L525.561 373.671H527.786V366.47C527.786 363.145 526.295 361.792 522.58 361.792C520.906 361.792 519.553 362.067 518.315 362.686V365.14C519.622 364.36 520.677 364.039 522.213 364.039C524.392 364.039 525.126 364.727 525.126 366.653V366.768C524.071 366.631 522.993 366.585 522.351 366.585C519.117 366.585 517.512 367.846 517.512 370.346C517.512 372.616 518.842 373.946 521.342 373.946ZM522.076 371.745C520.883 371.745 520.195 371.24 520.195 370.208C520.195 369.061 521.021 368.511 522.764 368.511C523.314 368.511 524.254 368.58 525.126 368.672V370.185C524.254 371.263 523.245 371.745 522.076 371.745ZM540.785 373.946C542.321 373.946 543.514 373.442 544.615 372.272L544.821 373.671H546.954V356.93H544.294V362.984C543.307 362.159 542.23 361.792 540.9 361.792C537.712 361.792 536.061 363.924 536.061 367.892C536.061 371.813 537.666 373.946 540.785 373.946ZM541.45 371.699C539.615 371.699 538.767 370.483 538.767 367.892C538.767 365.255 539.638 364.039 541.519 364.039C542.642 364.039 543.468 364.475 544.294 365.53V370.139C543.445 371.24 542.574 371.699 541.45 371.699ZM556.118 373.946C557.678 373.946 558.962 373.671 559.994 373.121V370.804C558.847 371.401 557.838 371.699 556.394 371.699C553.871 371.699 552.656 370.758 552.495 368.672H560.545C560.636 368.029 560.659 367.502 560.659 367.112C560.659 363.58 558.916 361.792 555.385 361.792C551.67 361.792 549.789 363.764 549.789 367.8C549.789 372.02 551.83 373.946 556.118 373.946ZM552.518 366.676C552.724 364.796 553.642 363.993 555.453 363.993C557.265 363.993 558.022 364.842 558.137 366.676H552.518ZM569.429 373.946C572.617 373.946 574.268 371.813 574.268 367.846C574.268 363.924 572.663 361.792 569.544 361.792C568.168 361.792 567.067 362.205 566.058 363.145V356.93H563.398V373.671H565.393L565.668 372.433C566.769 373.487 567.939 373.946 569.429 373.946ZM568.833 371.699C567.709 371.699 566.861 371.263 566.058 370.231V365.576C566.907 364.498 567.778 364.039 568.879 364.039C570.714 364.039 571.562 365.255 571.562 367.869C571.562 370.483 570.691 371.699 568.833 371.699ZM581.259 373.946C582.015 373.946 582.749 373.854 583.277 373.671V371.469C582.841 371.653 582.359 371.745 581.809 371.745C580.548 371.745 580.089 371.309 580.089 370.093V364.177H583.3V362.067H580.089V358.833H577.727L577.475 362.067H575.388V364.177H577.429V370.483C577.429 372.937 578.621 373.946 581.259 373.946ZM594.746 373.946C598.094 373.946 599.677 372.731 599.677 370.208C599.677 368.35 598.828 367.387 596.351 366.837L594.884 366.516C593.37 366.195 593.026 365.943 593.026 365.278C593.026 364.36 593.691 363.97 595.228 363.97C596.65 363.97 597.842 364.314 598.966 364.888V362.503C598.117 362.067 596.718 361.792 595.228 361.792C592.04 361.792 590.458 362.984 590.458 365.461C590.458 367.273 591.306 368.236 593.645 368.74L595.159 369.061C596.604 369.36 597.108 369.635 597.108 370.437C597.108 371.355 596.466 371.767 594.792 371.767C593.049 371.767 591.604 371.355 590.297 370.598V372.983C591.306 373.579 592.957 373.946 594.746 373.946ZM607.345 373.946C611.129 373.946 613.055 371.882 613.055 367.869C613.055 363.856 611.129 361.792 607.345 361.792C603.538 361.792 601.612 363.856 601.612 367.869C601.612 371.882 603.538 373.946 607.345 373.946ZM607.322 371.699C605.258 371.699 604.318 370.483 604.318 367.892C604.318 365.255 605.258 364.039 607.322 364.039C609.386 364.039 610.349 365.255 610.349 367.892C610.349 370.483 609.386 371.699 607.322 371.699ZM615.893 373.671H618.553V356.93H615.893V373.671ZM625.79 373.946C627.349 373.946 628.588 373.442 629.826 372.272L630.032 373.671H632.165V362.067H629.505V370.116C628.633 371.102 627.762 371.584 626.57 371.584C625.102 371.584 624.483 370.85 624.483 369.13V362.067H621.822V369.543C621.822 372.478 623.13 373.946 625.79 373.946ZM639.957 373.946C640.713 373.946 641.447 373.854 641.975 373.671V371.469C641.539 371.653 641.057 371.745 640.507 371.745C639.246 371.745 638.787 371.309 638.787 370.093V364.177H641.998V362.067H638.787V358.833H636.425L636.173 362.067H634.086V364.177H636.127V370.483C636.127 372.937 637.319 373.946 639.957 373.946ZM644.086 359.934H646.907V357.435H644.086V359.934ZM644.178 373.671H646.838V362.067H644.178V373.671ZM655.405 373.946C659.189 373.946 661.115 371.882 661.115 367.869C661.115 363.856 659.189 361.792 655.405 361.792C651.598 361.792 649.672 363.856 649.672 367.869C649.672 371.882 651.598 373.946 655.405 373.946ZM655.382 371.699C653.318 371.699 652.378 370.483 652.378 367.892C652.378 365.255 653.318 364.039 655.382 364.039C657.446 364.039 658.409 365.255 658.409 367.892C658.409 370.483 657.446 371.699 655.382 371.699ZM663.953 373.671H666.613V365.621C667.462 364.612 668.287 364.154 669.48 364.154C670.947 364.154 671.521 364.888 671.521 366.631V373.671H674.181V366.195C674.181 363.259 672.897 361.792 670.259 361.792C668.769 361.792 667.53 362.25 666.292 363.443L666.086 362.067H663.953V373.671ZM681.08 373.946C684.428 373.946 686.011 372.731 686.011 370.208C686.011 368.35 685.162 367.387 682.685 366.837L681.218 366.516C679.704 366.195 679.36 365.943 679.36 365.278C679.36 364.36 680.025 363.97 681.562 363.97C682.983 363.97 684.176 364.314 685.3 364.888V362.503C684.451 362.067 683.052 361.792 681.562 361.792C678.374 361.792 676.792 362.984 676.792 365.461C676.792 367.273 677.64 368.236 679.979 368.74L681.493 369.061C682.938 369.36 683.442 369.635 683.442 370.437C683.442 371.355 682.8 371.767 681.126 371.767C679.383 371.767 677.938 371.355 676.631 370.598V372.983C677.64 373.579 679.291 373.946 681.08 373.946ZM699.255 373.946C703.039 373.946 704.965 371.882 704.965 367.869C704.965 363.856 703.039 361.792 699.255 361.792C695.448 361.792 693.522 363.856 693.522 367.869C693.522 371.882 695.448 373.946 699.255 373.946ZM699.232 371.699C697.168 371.699 696.228 370.483 696.228 367.892C696.228 365.255 697.168 364.039 699.232 364.039C701.296 364.039 702.259 365.255 702.259 367.892C702.259 370.483 701.296 371.699 699.232 371.699ZM707.803 373.671H710.463V366.103C711.266 364.865 712.366 364.383 713.605 364.383C713.995 364.383 714.293 364.429 714.568 364.475V361.883C714.316 361.815 714.018 361.792 713.742 361.792C712.298 361.792 711.151 362.411 710.188 363.879L709.935 362.067H707.803V373.671ZM720.601 378.189C724.706 378.189 726.541 376.423 726.541 372.41V362.067H724.569L724.271 363.328C723.17 362.273 721.977 361.792 720.51 361.792C717.368 361.792 715.671 363.947 715.671 367.617C715.671 371.217 717.299 373.396 720.418 373.396C721.771 373.396 722.872 372.983 723.881 372.043V372.799C723.881 375.07 722.849 375.987 720.372 375.987C718.973 375.987 717.781 375.712 716.588 375.093V377.455C717.712 377.936 719.065 378.189 720.601 378.189ZM721.083 371.148C719.294 371.148 718.377 369.979 718.377 367.617C718.377 365.255 719.317 364.039 721.152 364.039C722.298 364.039 723.078 364.498 723.881 365.484V369.635C723.055 370.69 722.184 371.148 721.083 371.148ZM732.977 373.946C734.56 373.946 735.867 373.419 737.013 372.272L737.197 373.671H739.421V366.47C739.421 363.145 737.931 361.792 734.216 361.792C732.541 361.792 731.188 362.067 729.95 362.686V365.14C731.257 364.36 732.312 364.039 733.849 364.039C736.027 364.039 736.761 364.727 736.761 366.653V366.768C735.706 366.631 734.628 366.585 733.986 366.585C730.753 366.585 729.147 367.846 729.147 370.346C729.147 372.616 730.478 373.946 732.977 373.946ZM733.711 371.745C732.519 371.745 731.831 371.24 731.831 370.208C731.831 369.061 732.656 368.511 734.399 368.511C734.949 368.511 735.89 368.58 736.761 368.672V370.185C735.89 371.263 734.881 371.745 733.711 371.745ZM742.672 373.671H745.332V365.621C746.181 364.612 747.006 364.154 748.199 364.154C749.667 364.154 750.24 364.888 750.24 366.631V373.671H752.9V366.195C752.9 363.259 751.616 361.792 748.979 361.792C747.488 361.792 746.25 362.25 745.011 363.443L744.805 362.067H742.672V373.671ZM756.085 359.934H758.906V357.435H756.085V359.934ZM756.177 373.671H758.837V362.067H756.177V373.671ZM761.35 373.671H770.913V371.492H764.79L770.821 363.97V362.067H761.717V364.246H767.381L761.35 371.79V373.671ZM776.469 373.946C778.051 373.946 779.358 373.419 780.505 372.272L780.688 373.671H782.913V366.47C782.913 363.145 781.422 361.792 777.707 361.792C776.033 361.792 774.68 362.067 773.442 362.686V365.14C774.749 364.36 775.804 364.039 777.34 364.039C779.519 364.039 780.253 364.727 780.253 366.653V366.768C779.198 366.631 778.12 366.585 777.478 366.585C774.244 366.585 772.639 367.846 772.639 370.346C772.639 372.616 773.969 373.946 776.469 373.946ZM777.203 371.745C776.01 371.745 775.322 371.24 775.322 370.208C775.322 369.061 776.148 368.511 777.891 368.511C778.441 368.511 779.381 368.58 780.253 368.672V370.185C779.381 371.263 778.372 371.745 777.203 371.745ZM790.475 373.946C791.232 373.946 791.966 373.854 792.493 373.671V371.469C792.058 371.653 791.576 371.745 791.026 371.745C789.764 371.745 789.306 371.309 789.306 370.093V364.177H792.516V362.067H789.306V358.833H786.944L786.691 362.067H784.604V364.177H786.645V370.483C786.645 372.937 787.838 373.946 790.475 373.946ZM794.605 359.934H797.425V357.435H794.605V359.934ZM794.696 373.671H797.357V362.067H794.696V373.671ZM805.924 373.946C809.708 373.946 811.634 371.882 811.634 367.869C811.634 363.856 809.708 361.792 805.924 361.792C802.117 361.792 800.191 363.856 800.191 367.869C800.191 371.882 802.117 373.946 805.924 373.946ZM805.901 371.699C803.837 371.699 802.897 370.483 802.897 367.892C802.897 365.255 803.837 364.039 805.901 364.039C807.965 364.039 808.928 365.255 808.928 367.892C808.928 370.483 807.965 371.699 805.901 371.699ZM814.471 373.671H817.132V365.621C817.98 364.612 818.806 364.154 819.998 364.154C821.466 364.154 822.039 364.888 822.039 366.631V373.671H824.699V366.195C824.699 363.259 823.415 361.792 820.778 361.792C819.287 361.792 818.049 362.25 816.811 363.443L816.604 362.067H814.471V373.671Z" fill="white"/>
<path d="M229.954 280.406C224.872 300.71 209.291 321.603 209.291 321.603C209.291 321.603 205.391 295.833 210.474 275.529C215.556 255.226 223.708 247.078 227.697 248.076C231.685 249.075 235.037 260.103 229.954 280.406Z" fill="#E4F6F8"/>
<path d="M205.448 275.619C211.359 295.698 208.516 321.605 208.516 321.605C208.516 321.605 192.092 301.368 186.183 281.29C180.273 261.212 183.17 250.056 187.115 248.895C191.059 247.733 199.538 255.541 205.448 275.619Z" fill="#E4F6F8"/>
<path d="M180.688 284.86C196.66 298.387 208.522 321.593 208.522 321.593C208.522 321.593 183.68 313.711 167.709 300.184C151.737 286.657 148.028 275.744 150.685 272.606C153.344 269.468 164.717 271.332 180.688 284.86Z" fill="#E4F6F8"/>
<path d="M165.196 305.885C185.954 308.565 208.521 321.602 208.521 321.602C208.521 321.602 183.383 328.482 162.625 325.802C141.867 323.124 132.823 315.977 133.35 311.899C133.876 307.821 144.438 303.205 165.196 305.885Z" fill="#E4F6F8"/>
<path d="M163.729 332.458C182.507 323.214 208.52 321.601 208.52 321.601C208.52 321.601 191.376 341.231 172.598 350.475C153.82 359.72 142.335 358.765 140.519 355.076C138.701 351.387 144.951 341.702 163.729 332.458Z" fill="#E4F6F8"/>
<path d="M177.062 355.284C187.672 337.242 208.518 321.6 208.518 321.6C208.518 321.6 204.983 347.422 194.374 365.464C183.765 383.506 173.644 389.021 170.1 386.935C166.555 384.851 166.453 373.326 177.062 355.284Z" fill="#B9E8EC"/>
<path d="M200.408 366.964C199.512 346.053 208.515 321.595 208.515 321.595C208.515 321.595 219.576 345.194 220.472 366.104C221.368 387.016 215.868 397.143 211.759 397.319C207.651 397.495 201.304 387.876 200.408 366.964Z" fill="#B9E8EC"/>
<path d="M225.301 364.817C213.929 347.246 209.292 321.598 209.292 321.598C209.292 321.598 230.789 336.335 242.161 353.907C253.532 371.478 253.924 382.997 250.472 385.231C247.02 387.465 236.673 382.389 225.301 364.817Z" fill="#B9E8EC"/>
<path d="M246.354 348.978C227.213 340.51 209.28 321.599 209.28 321.599C209.28 321.599 235.337 322.145 254.478 330.612C273.619 339.079 280.26 348.501 278.596 352.26C276.932 356.022 265.495 357.446 246.354 348.978Z" fill="#B9E8EC"/>
<path d="M255.314 323.832C234.689 327.397 209.28 321.6 209.28 321.6C209.28 321.6 231.268 307.608 251.893 304.043C272.517 300.478 283.266 304.636 283.966 308.688C284.668 312.74 275.939 320.267 255.314 323.832Z" fill="#B9E8EC"/>
<path d="M249.141 298.459C233.764 312.657 209.28 321.596 209.28 321.596C209.28 321.596 220.14 297.903 235.517 283.705C250.895 269.505 262.179 267.157 264.968 270.178C267.757 273.2 264.518 284.261 249.141 298.459Z" fill="#B9E8EC"/>
<path d="M218.088 278.78C218.088 299.71 208.047 323.761 208.047 323.761C208.047 323.761 198.006 299.71 198.006 278.78C198.006 257.85 203.935 247.966 208.047 247.966C212.159 247.966 218.088 257.85 218.088 278.78Z" fill="white"/>
<path d="M192.049 280.539C203.42 298.111 208.057 323.758 208.057 323.758C208.057 323.758 186.561 309.021 175.189 291.45C163.817 273.878 163.425 262.36 166.877 260.125C170.329 257.892 180.677 262.968 192.049 280.539Z" fill="white"/>
<path d="M170.982 296.366C190.123 304.834 208.056 323.745 208.056 323.745C208.056 323.745 181.999 323.198 162.858 314.732C143.717 306.264 137.076 296.843 138.74 293.083C140.404 289.322 151.841 287.898 170.982 296.366Z" fill="white"/>
<path d="M162.023 321.512C182.647 317.947 208.056 323.744 208.056 323.744C208.056 323.744 186.069 337.735 165.444 341.301C144.819 344.866 134.07 340.707 133.37 336.655C132.669 332.604 141.398 325.077 162.023 321.512Z" fill="white"/>
<path d="M168.195 346.884C183.572 332.686 208.056 323.748 208.056 323.748C208.056 323.748 197.196 347.44 181.819 361.639C166.441 375.838 155.157 378.186 152.368 375.165C149.579 372.144 152.819 361.083 168.195 346.884Z" fill="white"/>
<path d="M187.381 364.951C192.464 344.647 208.045 323.754 208.045 323.754C208.045 323.754 211.945 349.524 206.862 369.828C201.78 390.131 193.628 398.279 189.639 397.281C185.651 396.282 182.299 385.254 187.381 364.951Z" fill="white"/>
<path d="M211.888 369.737C205.977 349.659 208.82 323.752 208.82 323.752C208.82 323.752 225.244 343.988 231.153 364.067C237.063 384.145 234.166 395.301 230.221 396.462C226.277 397.623 217.798 389.815 211.888 369.737Z" fill="white"/>
<path d="M236.647 360.484C220.676 346.956 208.813 323.75 208.813 323.75C208.813 323.75 233.656 331.633 249.627 345.159C265.599 358.687 269.308 369.6 266.651 372.737C263.992 375.876 252.619 374.012 236.647 360.484Z" fill="white"/>
<path d="M252.14 339.471C231.382 336.791 208.814 323.754 208.814 323.754C208.814 323.754 233.952 316.874 254.711 319.554C275.469 322.233 284.513 329.379 283.986 333.458C283.459 337.535 272.898 342.151 252.14 339.471Z" fill="white"/>
<path d="M253.607 312.899C234.829 322.143 208.816 323.756 208.816 323.756C208.816 323.756 225.96 304.126 244.738 294.882C263.516 285.637 275.001 286.591 276.817 290.281C278.635 293.97 272.385 303.655 253.607 312.899Z" fill="white"/>
<path d="M240.287 290.073C229.678 308.115 208.832 323.757 208.832 323.757C208.832 323.757 212.367 297.935 222.976 279.893C233.585 261.851 243.706 256.336 247.25 258.421C250.795 260.505 250.896 272.03 240.287 290.073Z" fill="white"/>
<path d="M222.701 322.658C222.701 330.41 216.417 336.694 208.665 336.694C200.913 336.694 194.628 330.41 194.628 322.658C194.628 314.907 200.913 308.623 208.665 308.623C216.417 308.623 222.701 314.907 222.701 322.658Z" fill="#F7F128"/>
<path d="M1270.59 337.894C1276.43 337.894 1281.45 335.755 1285.73 331.228L1286.06 336.907H1289.76V276.829H1285.32V300.449C1281.2 296.745 1276.51 294.935 1271 294.935C1259.81 294.935 1253.8 302.424 1253.8 316.497C1253.8 330.323 1259.64 337.894 1270.59 337.894ZM1271.33 333.944C1262.69 333.944 1258.32 327.936 1258.32 316.415C1258.32 304.811 1262.85 298.885 1271.82 298.885C1277.25 298.885 1281.53 301.025 1285.32 305.469V326.702C1281.37 331.64 1276.84 333.944 1271.33 333.944ZM1314.85 337.894C1321.27 337.894 1326.7 335.343 1331.07 330.57L1331.4 336.907H1335.26V310.901C1335.26 299.708 1330.33 294.935 1318.56 294.935C1312.8 294.935 1308.19 296.087 1304.16 298.474V302.918C1308.35 300.202 1312.55 298.885 1318.15 298.885C1327.28 298.885 1330.82 302.424 1330.82 311.394V313.699C1326.21 313.04 1321.19 312.793 1318.56 312.793C1307.12 312.793 1301.44 317.073 1301.44 325.55C1301.44 333.368 1306.21 337.894 1314.85 337.894ZM1315.59 333.944C1309.34 333.944 1305.97 330.981 1305.97 325.55C1305.97 319.46 1310.08 316.579 1318.8 316.579C1321.36 316.579 1326.29 316.908 1330.82 317.567V325.961C1326.54 331.31 1321.52 333.944 1315.59 333.944ZM1349.17 286.211H1354.19V280.203H1349.17V286.211ZM1349.42 336.907H1353.86V295.922H1349.42V336.907ZM1380.55 337.894C1391.58 337.894 1397.09 333.779 1397.09 325.714C1397.09 319.46 1393.72 316.168 1385.24 314.439L1379.24 313.205C1372.4 311.806 1370.51 310.078 1370.51 306.539C1370.51 301.519 1374.46 298.885 1381.87 298.885C1386.72 298.885 1391.42 300.037 1394.95 302.342V297.733C1391.66 295.84 1386.72 294.935 1381.87 294.935C1371.66 294.935 1366.07 298.967 1366.07 306.868C1366.07 312.876 1369.44 315.756 1377.42 317.402L1383.51 318.637C1390.35 320.036 1392.73 321.764 1392.73 325.961C1392.73 331.31 1388.78 333.944 1380.72 333.944C1374.54 333.944 1369.11 332.463 1365.08 329.5V334.026C1368.62 336.578 1374.46 337.894 1380.55 337.894ZM1401.6 295.922L1417.07 334.849C1417.32 335.425 1417.4 335.755 1417.4 336.248C1417.4 336.989 1417.32 337.236 1415.18 342.832C1413.37 347.523 1411.56 349.169 1408.02 349.169C1406.95 349.169 1405.71 349.005 1404.81 348.675V352.543C1405.8 352.955 1407.03 353.119 1408.51 353.119C1413.86 353.119 1416.66 350.568 1419.29 343.902L1438.06 295.922H1433.45L1420.03 330.57L1406.37 295.922H1401.6ZM1460.26 337.894C1466.1 337.894 1471.12 335.755 1475.4 331.228L1475.73 336.907H1479.43V276.829H1474.99V300.449C1470.87 296.745 1466.18 294.935 1460.67 294.935C1449.48 294.935 1443.47 302.424 1443.47 316.497C1443.47 330.323 1449.31 337.894 1460.26 337.894ZM1461 333.944C1452.36 333.944 1448 327.936 1448 316.415C1448 304.811 1452.52 298.885 1461.49 298.885C1466.92 298.885 1471.2 301.025 1474.99 305.469V326.702C1471.04 331.64 1466.51 333.944 1461 333.944ZM1512.84 337.894C1518.27 337.894 1522.55 336.824 1526.09 334.767V330.405C1522.38 332.71 1518.35 333.944 1513 333.944C1501.81 333.944 1496.46 328.595 1496.3 317.32H1528.23C1528.39 316.003 1528.47 314.933 1528.47 313.534C1528.47 301.354 1522.55 294.935 1510.78 294.935C1498.35 294.935 1491.85 302.177 1491.85 316.415C1491.85 330.981 1498.76 337.894 1512.84 337.894ZM1496.38 313.37C1497.04 303.658 1501.81 298.885 1511.03 298.885C1520 298.885 1524.11 303.494 1524.19 313.37H1496.38ZM1559.06 337.894C1570.25 337.894 1576.26 330.323 1576.26 316.332C1576.26 302.506 1570.42 294.935 1559.47 294.935C1553.79 294.935 1548.94 296.91 1544.74 301.107V276.829H1540.3V336.907H1543.75L1544.25 331.887C1548.44 335.919 1553.22 337.894 1559.06 337.894ZM1558.24 333.944C1552.81 333.944 1548.53 331.804 1544.74 327.278V306.127C1548.69 301.189 1553.22 298.885 1558.73 298.885C1567.37 298.885 1571.73 304.811 1571.73 316.332C1571.73 328.019 1567.21 333.944 1558.24 333.944ZM1600.71 337.894C1603.18 337.894 1605.24 337.565 1607.13 336.907V332.792C1605.41 333.615 1603.51 333.944 1601.29 333.944C1595.94 333.944 1594.05 331.887 1594.05 326.455V299.626H1607.05V295.922H1594.05V283.825H1590.26L1589.69 295.922H1581.29V299.626H1589.6V326.949C1589.6 334.602 1592.98 337.894 1600.71 337.894Z" fill="#B7E7EC"/>
<path d="M1461.33 373.946C1462.91 373.946 1464.22 373.419 1465.37 372.272L1465.55 373.671H1467.78V366.47C1467.78 363.145 1466.29 361.792 1462.57 361.792C1460.9 361.792 1459.54 362.067 1458.3 362.686V365.14C1459.61 364.36 1460.67 364.039 1462.2 364.039C1464.38 364.039 1465.12 364.727 1465.12 366.653V366.768C1464.06 366.631 1462.98 366.585 1462.34 366.585C1459.11 366.585 1457.5 367.846 1457.5 370.346C1457.5 372.616 1458.83 373.946 1461.33 373.946ZM1462.07 371.745C1460.87 371.745 1460.18 371.24 1460.18 370.208C1460.18 369.061 1461.01 368.511 1462.75 368.511C1463.3 368.511 1464.24 368.58 1465.12 368.672V370.185C1464.24 371.263 1463.24 371.745 1462.07 371.745ZM1480.77 373.946C1482.31 373.946 1483.5 373.442 1484.6 372.272L1484.81 373.671H1486.94V356.93H1484.28V362.984C1483.3 362.159 1482.22 361.792 1480.89 361.792C1477.7 361.792 1476.05 363.924 1476.05 367.892C1476.05 371.813 1477.66 373.946 1480.77 373.946ZM1481.44 371.699C1479.61 371.699 1478.76 370.483 1478.76 367.892C1478.76 365.255 1479.63 364.039 1481.51 364.039C1482.63 364.039 1483.46 364.475 1484.28 365.53V370.139C1483.43 371.24 1482.56 371.699 1481.44 371.699ZM1496.11 373.946C1497.67 373.946 1498.95 373.671 1499.98 373.121V370.804C1498.84 371.401 1497.83 371.699 1496.38 371.699C1493.86 371.699 1492.65 370.758 1492.48 368.672H1500.53C1500.63 368.029 1500.65 367.502 1500.65 367.112C1500.65 363.58 1498.91 361.792 1495.37 361.792C1491.66 361.792 1489.78 363.764 1489.78 367.8C1489.78 372.02 1491.82 373.946 1496.11 373.946ZM1492.51 366.676C1492.71 364.796 1493.63 363.993 1495.44 363.993C1497.25 363.993 1498.01 364.842 1498.13 366.676H1492.51ZM1509.42 373.946C1512.61 373.946 1514.26 371.813 1514.26 367.846C1514.26 363.924 1512.65 361.792 1509.53 361.792C1508.16 361.792 1507.06 362.205 1506.05 363.145V356.93H1503.39V373.671H1505.38L1505.66 372.433C1506.76 373.487 1507.93 373.946 1509.42 373.946ZM1508.82 371.699C1507.7 371.699 1506.85 371.263 1506.05 370.231V365.576C1506.9 364.498 1507.77 364.039 1508.87 364.039C1510.7 364.039 1511.55 365.255 1511.55 367.869C1511.55 370.483 1510.68 371.699 1508.82 371.699ZM1521.25 373.946C1522.01 373.946 1522.74 373.854 1523.27 373.671V371.469C1522.83 371.653 1522.35 371.745 1521.8 371.745C1520.54 371.745 1520.08 371.309 1520.08 370.093V364.177H1523.29V362.067H1520.08V358.833H1517.72L1517.46 362.067H1515.38V364.177H1517.42V370.483C1517.42 372.937 1518.61 373.946 1521.25 373.946ZM1534.74 373.946C1538.08 373.946 1539.67 372.731 1539.67 370.208C1539.67 368.35 1538.82 367.387 1536.34 366.837L1534.87 366.516C1533.36 366.195 1533.02 365.943 1533.02 365.278C1533.02 364.36 1533.68 363.97 1535.22 363.97C1536.64 363.97 1537.83 364.314 1538.96 364.888V362.503C1538.11 362.067 1536.71 361.792 1535.22 361.792C1532.03 361.792 1530.45 362.984 1530.45 365.461C1530.45 367.273 1531.3 368.236 1533.64 368.74L1535.15 369.061C1536.59 369.36 1537.1 369.635 1537.1 370.437C1537.1 371.355 1536.46 371.767 1534.78 371.767C1533.04 371.767 1531.59 371.355 1530.29 370.598V372.983C1531.3 373.579 1532.95 373.946 1534.74 373.946ZM1547.33 373.946C1551.12 373.946 1553.04 371.882 1553.04 367.869C1553.04 363.856 1551.12 361.792 1547.33 361.792C1543.53 361.792 1541.6 363.856 1541.6 367.869C1541.6 371.882 1543.53 373.946 1547.33 373.946ZM1547.31 371.699C1545.25 371.699 1544.31 370.483 1544.31 367.892C1544.31 365.255 1545.25 364.039 1547.31 364.039C1549.38 364.039 1550.34 365.255 1550.34 367.892C1550.34 370.483 1549.38 371.699 1547.31 371.699ZM1555.88 373.671H1558.54V356.93H1555.88V373.671ZM1565.78 373.946C1567.34 373.946 1568.58 373.442 1569.82 372.272L1570.02 373.671H1572.15V362.067H1569.49V370.116C1568.62 371.102 1567.75 371.584 1566.56 371.584C1565.09 371.584 1564.47 370.85 1564.47 369.13V362.067H1561.81V369.543C1561.81 372.478 1563.12 373.946 1565.78 373.946ZM1579.95 373.946C1580.7 373.946 1581.44 373.854 1581.96 373.671V371.469C1581.53 371.653 1581.05 371.745 1580.5 371.745C1579.24 371.745 1578.78 371.309 1578.78 370.093V364.177H1581.99V362.067H1578.78V358.833H1576.41L1576.16 362.067H1574.08V364.177H1576.12V370.483C1576.12 372.937 1577.31 373.946 1579.95 373.946ZM1584.08 359.934H1586.9V357.435H1584.08V359.934ZM1584.17 373.671H1586.83V362.067H1584.17V373.671ZM1595.39 373.946C1599.18 373.946 1601.11 371.882 1601.11 367.869C1601.11 363.856 1599.18 361.792 1595.39 361.792C1591.59 361.792 1589.66 363.856 1589.66 367.869C1589.66 371.882 1591.59 373.946 1595.39 373.946ZM1595.37 371.699C1593.31 371.699 1592.37 370.483 1592.37 367.892C1592.37 365.255 1593.31 364.039 1595.37 364.039C1597.44 364.039 1598.4 365.255 1598.4 367.892C1598.4 370.483 1597.44 371.699 1595.37 371.699ZM1603.94 373.671H1606.6V365.621C1607.45 364.612 1608.28 364.154 1609.47 364.154C1610.94 364.154 1611.51 364.888 1611.51 366.631V373.671H1614.17V366.195C1614.17 363.259 1612.89 361.792 1610.25 361.792C1608.76 361.792 1607.52 362.25 1606.28 363.443L1606.08 362.067H1603.94V373.671ZM1621.07 373.946C1624.42 373.946 1626 372.731 1626 370.208C1626 368.35 1625.15 367.387 1622.68 366.837L1621.21 366.516C1619.69 366.195 1619.35 365.943 1619.35 365.278C1619.35 364.36 1620.01 363.97 1621.55 363.97C1622.97 363.97 1624.17 364.314 1625.29 364.888V362.503C1624.44 362.067 1623.04 361.792 1621.55 361.792C1618.36 361.792 1616.78 362.984 1616.78 365.461C1616.78 367.273 1617.63 368.236 1619.97 368.74L1621.48 369.061C1622.93 369.36 1623.43 369.635 1623.43 370.437C1623.43 371.355 1622.79 371.767 1621.12 371.767C1619.37 371.767 1617.93 371.355 1616.62 370.598V372.983C1617.63 373.579 1619.28 373.946 1621.07 373.946ZM1639.24 373.946C1643.03 373.946 1644.96 371.882 1644.96 367.869C1644.96 363.856 1643.03 361.792 1639.24 361.792C1635.44 361.792 1633.51 363.856 1633.51 367.869C1633.51 371.882 1635.44 373.946 1639.24 373.946ZM1639.22 371.699C1637.16 371.699 1636.22 370.483 1636.22 367.892C1636.22 365.255 1637.16 364.039 1639.22 364.039C1641.29 364.039 1642.25 365.255 1642.25 367.892C1642.25 370.483 1641.29 371.699 1639.22 371.699ZM1647.79 373.671H1650.45V366.103C1651.26 364.865 1652.36 364.383 1653.59 364.383C1653.98 364.383 1654.28 364.429 1654.56 364.475V361.883C1654.31 361.815 1654.01 361.792 1653.73 361.792C1652.29 361.792 1651.14 362.411 1650.18 363.879L1649.93 362.067H1647.79V373.671ZM1660.59 378.189C1664.7 378.189 1666.53 376.423 1666.53 372.41V362.067H1664.56L1664.26 363.328C1663.16 362.273 1661.97 361.792 1660.5 361.792C1657.36 361.792 1655.66 363.947 1655.66 367.617C1655.66 371.217 1657.29 373.396 1660.41 373.396C1661.76 373.396 1662.86 372.983 1663.87 372.043V372.799C1663.87 375.07 1662.84 375.987 1660.36 375.987C1658.96 375.987 1657.77 375.712 1656.58 375.093V377.455C1657.7 377.936 1659.05 378.189 1660.59 378.189ZM1661.07 371.148C1659.28 371.148 1658.37 369.979 1658.37 367.617C1658.37 365.255 1659.31 364.039 1661.14 364.039C1662.29 364.039 1663.07 364.498 1663.87 365.484V369.635C1663.04 370.69 1662.17 371.148 1661.07 371.148ZM1672.97 373.946C1674.55 373.946 1675.86 373.419 1677 372.272L1677.19 373.671H1679.41V366.47C1679.41 363.145 1677.92 361.792 1674.21 361.792C1672.53 361.792 1671.18 362.067 1669.94 362.686V365.14C1671.25 364.36 1672.3 364.039 1673.84 364.039C1676.02 364.039 1676.75 364.727 1676.75 366.653V366.768C1675.7 366.631 1674.62 366.585 1673.98 366.585C1670.74 366.585 1669.14 367.846 1669.14 370.346C1669.14 372.616 1670.47 373.946 1672.97 373.946ZM1673.7 371.745C1672.51 371.745 1671.82 371.24 1671.82 370.208C1671.82 369.061 1672.65 368.511 1674.39 368.511C1674.94 368.511 1675.88 368.58 1676.75 368.672V370.185C1675.88 371.263 1674.87 371.745 1673.7 371.745ZM1682.66 373.671H1685.32V365.621C1686.17 364.612 1687 364.154 1688.19 364.154C1689.66 364.154 1690.23 364.888 1690.23 366.631V373.671H1692.89V366.195C1692.89 363.259 1691.61 361.792 1688.97 361.792C1687.48 361.792 1686.24 362.25 1685 363.443L1684.79 362.067H1682.66V373.671ZM1696.07 359.934H1698.9V357.435H1696.07V359.934ZM1696.17 373.671H1698.83V362.067H1696.17V373.671ZM1701.34 373.671H1710.9V371.492H1704.78L1710.81 363.97V362.067H1701.71V364.246H1707.37L1701.34 371.79V373.671ZM1716.46 373.946C1718.04 373.946 1719.35 373.419 1720.49 372.272L1720.68 373.671H1722.9V366.47C1722.9 363.145 1721.41 361.792 1717.7 361.792C1716.02 361.792 1714.67 362.067 1713.43 362.686V365.14C1714.74 364.36 1715.79 364.039 1717.33 364.039C1719.51 364.039 1720.24 364.727 1720.24 366.653V366.768C1719.19 366.631 1718.11 366.585 1717.47 366.585C1714.23 366.585 1712.63 367.846 1712.63 370.346C1712.63 372.616 1713.96 373.946 1716.46 373.946ZM1717.19 371.745C1716 371.745 1715.31 371.24 1715.31 370.208C1715.31 369.061 1716.14 368.511 1717.88 368.511C1718.43 368.511 1719.37 368.58 1720.24 368.672V370.185C1719.37 371.263 1718.36 371.745 1717.19 371.745ZM1730.46 373.946C1731.22 373.946 1731.96 373.854 1732.48 373.671V371.469C1732.05 371.653 1731.57 371.745 1731.02 371.745C1729.75 371.745 1729.3 371.309 1729.3 370.093V364.177H1732.51V362.067H1729.3V358.833H1726.93L1726.68 362.067H1724.59V364.177H1726.64V370.483C1726.64 372.937 1727.83 373.946 1730.46 373.946ZM1734.59 359.934H1737.42V357.435H1734.59V359.934ZM1734.69 373.671H1737.35V362.067H1734.69V373.671ZM1745.91 373.946C1749.7 373.946 1751.62 371.882 1751.62 367.869C1751.62 363.856 1749.7 361.792 1745.91 361.792C1742.11 361.792 1740.18 363.856 1740.18 367.869C1740.18 371.882 1742.11 373.946 1745.91 373.946ZM1745.89 371.699C1743.83 371.699 1742.89 370.483 1742.89 367.892C1742.89 365.255 1743.83 364.039 1745.89 364.039C1747.95 364.039 1748.92 365.255 1748.92 367.892C1748.92 370.483 1747.95 371.699 1745.89 371.699ZM1754.46 373.671H1757.12V365.621C1757.97 364.612 1758.8 364.154 1759.99 364.154C1761.46 364.154 1762.03 364.888 1762.03 366.631V373.671H1764.69V366.195C1764.69 363.259 1763.4 361.792 1760.77 361.792C1759.28 361.792 1758.04 362.25 1756.8 363.443L1756.59 362.067H1754.46V373.671Z" fill="#66CAE0"/>
<path d="M1169.89 280.406C1164.81 300.71 1149.23 321.603 1149.23 321.603C1149.23 321.603 1145.33 295.833 1150.41 275.529C1155.49 255.226 1163.64 247.078 1167.63 248.076C1171.62 249.075 1174.97 260.103 1169.89 280.406Z" fill="#E4D824"/>
<path d="M1145.37 275.619C1151.28 295.698 1148.44 321.605 1148.44 321.605C1148.44 321.605 1132.02 301.368 1126.11 281.29C1120.2 261.212 1123.09 250.056 1127.04 248.895C1130.98 247.733 1139.46 255.541 1145.37 275.619Z" fill="#E4D824"/>
<path d="M1120.61 284.86C1136.58 298.387 1148.45 321.593 1148.45 321.593C1148.45 321.593 1123.6 313.711 1107.63 300.184C1091.66 286.657 1087.95 275.744 1090.61 272.606C1093.27 269.468 1104.64 271.332 1120.61 284.86Z" fill="#E4D824"/>
<path d="M1105.13 305.885C1125.89 308.565 1148.46 321.602 1148.46 321.602C1148.46 321.602 1123.32 328.482 1102.56 325.802C1081.8 323.124 1072.76 315.977 1073.29 311.899C1073.81 307.821 1084.37 303.205 1105.13 305.885Z" fill="#E4D824"/>
<path d="M1103.67 332.458C1122.44 323.214 1148.46 321.601 1148.46 321.601C1148.46 321.601 1131.31 341.231 1112.53 350.475C1093.76 359.72 1082.27 358.765 1080.45 355.076C1078.64 351.387 1084.89 341.702 1103.67 332.458Z" fill="#E4D824"/>
<path d="M1116.99 355.284C1127.59 337.242 1148.44 321.6 1148.44 321.6C1148.44 321.6 1144.91 347.422 1134.3 365.464C1123.69 383.506 1113.57 389.021 1110.02 386.935C1106.48 384.851 1106.38 373.326 1116.99 355.284Z" fill="#DBC51C"/>
<path d="M1140.34 366.964C1139.45 346.052 1148.45 321.594 1148.45 321.594C1148.45 321.594 1159.51 345.194 1160.41 366.104C1161.3 387.015 1155.8 397.143 1151.7 397.319C1147.59 397.495 1141.24 387.875 1140.34 366.964Z" fill="#DBC51C"/>
<path d="M1165.22 364.817C1153.85 347.246 1149.22 321.598 1149.22 321.598C1149.22 321.598 1170.71 336.335 1182.08 353.907C1193.46 371.478 1193.85 382.997 1190.4 385.231C1186.94 387.465 1176.6 382.389 1165.22 364.817Z" fill="#DBC51C"/>
<path d="M1186.29 348.978C1167.15 340.51 1149.22 321.598 1149.22 321.598C1149.22 321.598 1175.27 322.145 1194.41 330.611C1213.56 339.079 1220.2 348.5 1218.53 352.26C1216.87 356.021 1205.43 357.445 1186.29 348.978Z" fill="#DBC51C"/>
<path d="M1195.25 323.832C1174.63 327.397 1149.22 321.6 1149.22 321.6C1149.22 321.6 1171.21 307.608 1191.83 304.043C1212.45 300.478 1223.2 304.636 1223.9 308.688C1224.6 312.74 1215.88 320.266 1195.25 323.832Z" fill="#DBC51C"/>
<path d="M1189.08 298.459C1173.7 312.657 1149.22 321.596 1149.22 321.596C1149.22 321.596 1160.08 297.903 1175.45 283.705C1190.83 269.505 1202.12 267.157 1204.9 270.178C1207.69 273.2 1204.46 284.261 1189.08 298.459Z" fill="#DBC51C"/>
<path d="M1158.02 278.779C1158.02 299.71 1147.98 323.761 1147.98 323.761C1147.98 323.761 1137.94 299.71 1137.94 278.779C1137.94 257.849 1143.87 247.966 1147.98 247.966C1152.1 247.966 1158.02 257.849 1158.02 278.779Z" fill="#F7F128"/>
<path d="M1131.97 280.539C1143.34 298.111 1147.98 323.758 1147.98 323.758C1147.98 323.758 1126.48 309.021 1115.11 291.45C1103.74 273.878 1103.35 262.36 1106.8 260.125C1110.25 257.892 1120.6 262.968 1131.97 280.539Z" fill="#F7F128"/>
<path d="M1110.92 296.366C1130.06 304.834 1147.99 323.745 1147.99 323.745C1147.99 323.745 1121.94 323.198 1102.8 314.732C1083.65 306.264 1077.01 296.843 1078.68 293.083C1080.34 289.322 1091.78 287.898 1110.92 296.366Z" fill="#F7F128"/>
<path d="M1101.95 321.512C1122.57 317.947 1147.98 323.744 1147.98 323.744C1147.98 323.744 1125.99 337.735 1105.37 341.301C1084.74 344.866 1073.99 340.707 1073.29 336.655C1072.59 332.604 1081.32 325.077 1101.95 321.512Z" fill="#F7F128"/>
<path d="M1108.13 346.884C1123.51 332.686 1147.99 323.748 1147.99 323.748C1147.99 323.748 1137.13 347.44 1121.76 361.639C1106.38 375.838 1095.09 378.186 1092.3 375.165C1089.52 372.144 1092.75 361.083 1108.13 346.884Z" fill="#F7F128"/>
<path d="M1127.32 364.951C1132.4 344.647 1147.98 323.754 1147.98 323.754C1147.98 323.754 1151.88 349.524 1146.8 369.828C1141.72 390.131 1133.56 398.279 1129.58 397.281C1125.59 396.282 1122.24 385.254 1127.32 364.951Z" fill="#F7F128"/>
<path d="M1151.82 369.737C1145.91 349.659 1148.76 323.752 1148.76 323.752C1148.76 323.752 1165.18 343.988 1171.09 364.067C1177 384.145 1174.1 395.301 1170.16 396.462C1166.21 397.623 1157.73 389.815 1151.82 369.737Z" fill="#F7F128"/>
<path d="M1176.58 360.484C1160.61 346.956 1148.75 323.75 1148.75 323.75C1148.75 323.75 1173.59 331.633 1189.56 345.159C1205.54 358.687 1209.24 369.6 1206.59 372.737C1203.93 375.876 1192.56 374.012 1176.58 360.484Z" fill="#F7F128"/>
<path d="M1192.08 339.471C1171.32 336.791 1148.75 323.754 1148.75 323.754C1148.75 323.754 1173.89 316.874 1194.65 319.554C1215.41 322.233 1224.45 329.379 1223.92 333.458C1223.4 337.535 1212.84 342.151 1192.08 339.471Z" fill="#F7F128"/>
<path d="M1193.54 312.899C1174.77 322.142 1148.75 323.756 1148.75 323.756C1148.75 323.756 1165.9 304.125 1184.67 294.882C1203.45 285.637 1214.94 286.591 1216.75 290.28C1218.57 293.97 1212.32 303.655 1193.54 312.899Z" fill="#F7F128"/>
<path d="M1180.21 290.072C1169.6 308.115 1148.76 323.757 1148.76 323.757C1148.76 323.757 1152.29 297.935 1162.9 279.893C1173.51 261.85 1183.63 256.336 1187.17 258.421C1190.72 260.505 1190.82 272.03 1180.21 290.072Z" fill="#F7F128"/>
<path d="M1162.64 322.658C1162.64 330.41 1156.35 336.694 1148.6 336.694C1140.85 336.694 1134.56 330.41 1134.56 322.658C1134.56 314.906 1140.85 308.623 1148.6 308.623C1156.35 308.623 1162.64 314.906 1162.64 322.658Z" fill="#EF8F26"/>
<path d="M1599.96 1066.64H1866.62V1333.3H1599.96V1066.64Z" fill="#66CAE0"/>
<path d="M799.98 1066.64H1066.64V1333.3H799.98V1066.64Z" fill="#F7F128"/>
<path d="M0 1066.64H266.66V1333.3H0V1066.64Z" fill="#EF8F26"/>
<path d="M533.32 1066.64H799.98V1333.3H533.32V1066.64Z" fill="#DBC51C"/>
<path d="M266.66 1066.64H533.32V1333.3H266.66V1066.64Z" fill="#E4D824"/>
<path d="M1333.3 1066.64H1599.96V1333.3H1333.3V1066.64Z" fill="#B9E8EC"/>
<path d="M1066.64 1066.64H1333.3V1333.3H1066.64V1066.64Z" fill="#E4F6F8"/>
<path d="M1270.59 762.897C1276.43 762.897 1281.45 760.757 1285.73 756.231L1286.06 761.909H1289.76V701.832H1285.32V725.451C1281.2 721.748 1276.51 719.937 1271 719.937C1259.81 719.937 1253.8 727.426 1253.8 741.499C1253.8 755.325 1259.64 762.897 1270.59 762.897ZM1271.33 758.946C1262.69 758.946 1258.32 752.939 1258.32 741.417C1258.32 729.813 1262.85 723.888 1271.82 723.888C1277.25 723.888 1281.53 726.027 1285.32 730.471V751.704C1281.37 756.642 1276.84 758.946 1271.33 758.946ZM1314.85 762.897C1321.27 762.897 1326.7 760.346 1331.07 755.572L1331.4 761.909H1335.26V735.903C1335.26 724.711 1330.33 719.937 1318.56 719.937C1312.8 719.937 1308.19 721.089 1304.16 723.476V727.92C1308.35 725.204 1312.55 723.888 1318.15 723.888C1327.28 723.888 1330.82 727.426 1330.82 736.397V738.701C1326.21 738.043 1321.19 737.796 1318.56 737.796C1307.12 737.796 1301.44 742.075 1301.44 750.552C1301.44 758.37 1306.21 762.897 1314.85 762.897ZM1315.59 758.946C1309.34 758.946 1305.97 755.984 1305.97 750.552C1305.97 744.462 1310.08 741.582 1318.8 741.582C1321.36 741.582 1326.29 741.911 1330.82 742.569V750.964C1326.54 756.313 1321.52 758.946 1315.59 758.946ZM1349.17 711.214H1354.19V705.206H1349.17V711.214ZM1349.42 761.909H1353.86V720.925H1349.42V761.909ZM1380.55 762.897C1391.58 762.897 1397.09 758.782 1397.09 750.717C1397.09 744.462 1393.72 741.17 1385.24 739.442L1379.24 738.207C1372.4 736.808 1370.51 735.08 1370.51 731.541C1370.51 726.521 1374.46 723.888 1381.87 723.888C1386.72 723.888 1391.42 725.04 1394.95 727.344V722.735C1391.66 720.843 1386.72 719.937 1381.87 719.937C1371.66 719.937 1366.07 723.97 1366.07 731.87C1366.07 737.878 1369.44 740.759 1377.42 742.405L1383.51 743.639C1390.35 745.038 1392.73 746.766 1392.73 750.964C1392.73 756.313 1388.78 758.946 1380.72 758.946C1374.54 758.946 1369.11 757.465 1365.08 754.502V759.029C1368.62 761.58 1374.46 762.897 1380.55 762.897ZM1401.6 720.925L1417.07 759.852C1417.32 760.428 1417.4 760.757 1417.4 761.251C1417.4 761.991 1417.32 762.238 1415.18 767.835C1413.37 772.526 1411.56 774.172 1408.02 774.172C1406.95 774.172 1405.71 774.007 1404.81 773.678V777.546C1405.8 777.957 1407.03 778.122 1408.51 778.122C1413.86 778.122 1416.66 775.571 1419.29 768.905L1438.06 720.925H1433.45L1420.03 755.572L1406.37 720.925H1401.6ZM1460.26 762.897C1466.1 762.897 1471.12 760.757 1475.4 756.231L1475.73 761.909H1479.43V701.832H1474.99V725.451C1470.87 721.748 1466.18 719.937 1460.67 719.937C1449.48 719.937 1443.47 727.426 1443.47 741.499C1443.47 755.325 1449.31 762.897 1460.26 762.897ZM1461 758.946C1452.36 758.946 1448 752.939 1448 741.417C1448 729.813 1452.52 723.888 1461.49 723.888C1466.92 723.888 1471.2 726.027 1474.99 730.471V751.704C1471.04 756.642 1466.51 758.946 1461 758.946ZM1512.84 762.897C1518.27 762.897 1522.55 761.827 1526.09 759.769V755.408C1522.38 757.712 1518.35 758.946 1513 758.946C1501.81 758.946 1496.46 753.597 1496.3 742.322H1528.23C1528.39 741.006 1528.47 739.936 1528.47 738.537C1528.47 726.356 1522.55 719.937 1510.78 719.937C1498.35 719.937 1491.85 727.179 1491.85 741.417C1491.85 755.984 1498.76 762.897 1512.84 762.897ZM1496.38 738.372C1497.04 728.661 1501.81 723.888 1511.03 723.888C1520 723.888 1524.11 728.496 1524.19 738.372H1496.38ZM1559.06 762.897C1570.25 762.897 1576.26 755.325 1576.26 741.335C1576.26 727.509 1570.42 719.937 1559.47 719.937C1553.79 719.937 1548.94 721.912 1544.74 726.11V701.832H1540.3V761.909H1543.75L1544.25 756.889C1548.44 760.922 1553.22 762.897 1559.06 762.897ZM1558.24 758.946C1552.81 758.946 1548.53 756.807 1544.74 752.28V731.13C1548.69 726.192 1553.22 723.888 1558.73 723.888C1567.37 723.888 1571.73 729.813 1571.73 741.335C1571.73 753.021 1567.21 758.946 1558.24 758.946ZM1600.71 762.897C1603.18 762.897 1605.24 762.568 1607.13 761.909V757.794C1605.41 758.617 1603.51 758.946 1601.29 758.946C1595.94 758.946 1594.05 756.889 1594.05 751.457V724.628H1607.05V720.925H1594.05V708.827H1590.26L1589.69 720.925H1581.29V724.628H1589.6V751.951C1589.6 759.605 1592.98 762.897 1600.71 762.897Z" fill="#3B3839"/>
<path d="M1461.33 798.962C1462.91 798.962 1464.22 798.435 1465.37 797.288L1465.55 798.687H1467.78V791.486C1467.78 788.161 1466.29 786.808 1462.57 786.808C1460.9 786.808 1459.54 787.083 1458.3 787.702V790.156C1459.61 789.376 1460.67 789.055 1462.2 789.055C1464.38 789.055 1465.12 789.743 1465.12 791.67V791.784C1464.06 791.647 1462.98 791.601 1462.34 791.601C1459.11 791.601 1457.5 792.862 1457.5 795.362C1457.5 797.632 1458.83 798.962 1461.33 798.962ZM1462.07 796.761C1460.87 796.761 1460.18 796.256 1460.18 795.224C1460.18 794.078 1461.01 793.527 1462.75 793.527C1463.3 793.527 1464.24 793.596 1465.12 793.688V795.201C1464.24 796.279 1463.24 796.761 1462.07 796.761ZM1480.77 798.962C1482.31 798.962 1483.5 798.458 1484.6 797.288L1484.81 798.687H1486.94V781.946H1484.28V788C1483.3 787.175 1482.22 786.808 1480.89 786.808C1477.7 786.808 1476.05 788.941 1476.05 792.908C1476.05 796.829 1477.66 798.962 1480.77 798.962ZM1481.44 796.715C1479.61 796.715 1478.76 795.499 1478.76 792.908C1478.76 790.271 1479.63 789.055 1481.51 789.055C1482.63 789.055 1483.46 789.491 1484.28 790.546V795.155C1483.43 796.256 1482.56 796.715 1481.44 796.715ZM1496.11 798.962C1497.67 798.962 1498.95 798.687 1499.98 798.137V795.82C1498.84 796.417 1497.83 796.715 1496.38 796.715C1493.86 796.715 1492.65 795.775 1492.48 793.688H1500.53C1500.63 793.046 1500.65 792.518 1500.65 792.128C1500.65 788.597 1498.91 786.808 1495.37 786.808C1491.66 786.808 1489.78 788.78 1489.78 792.816C1489.78 797.036 1491.82 798.962 1496.11 798.962ZM1492.51 791.693C1492.71 789.812 1493.63 789.009 1495.44 789.009C1497.25 789.009 1498.01 789.858 1498.13 791.693H1492.51ZM1509.42 798.962C1512.61 798.962 1514.26 796.829 1514.26 792.862C1514.26 788.941 1512.65 786.808 1509.53 786.808C1508.16 786.808 1507.06 787.221 1506.05 788.161V781.946H1503.39V798.687H1505.38L1505.66 797.449C1506.76 798.504 1507.93 798.962 1509.42 798.962ZM1508.82 796.715C1507.7 796.715 1506.85 796.279 1506.05 795.247V790.592C1506.9 789.514 1507.77 789.055 1508.87 789.055C1510.7 789.055 1511.55 790.271 1511.55 792.885C1511.55 795.499 1510.68 796.715 1508.82 796.715ZM1521.25 798.962C1522.01 798.962 1522.74 798.87 1523.27 798.687V796.485C1522.83 796.669 1522.35 796.761 1521.8 796.761C1520.54 796.761 1520.08 796.325 1520.08 795.11V789.193H1523.29V787.083H1520.08V783.85H1517.72L1517.46 787.083H1515.38V789.193H1517.42V795.499C1517.42 797.953 1518.61 798.962 1521.25 798.962ZM1534.74 798.962C1538.08 798.962 1539.67 797.747 1539.67 795.224C1539.67 793.367 1538.82 792.403 1536.34 791.853L1534.87 791.532C1533.36 791.211 1533.02 790.959 1533.02 790.294C1533.02 789.376 1533.68 788.986 1535.22 788.986C1536.64 788.986 1537.83 789.33 1538.96 789.904V787.519C1538.11 787.083 1536.71 786.808 1535.22 786.808C1532.03 786.808 1530.45 788 1530.45 790.477C1530.45 792.289 1531.3 793.252 1533.64 793.756L1535.15 794.078C1536.59 794.376 1537.1 794.651 1537.1 795.453C1537.1 796.371 1536.46 796.784 1534.78 796.784C1533.04 796.784 1531.59 796.371 1530.29 795.614V797.999C1531.3 798.595 1532.95 798.962 1534.74 798.962ZM1547.33 798.962C1551.12 798.962 1553.04 796.898 1553.04 792.885C1553.04 788.872 1551.12 786.808 1547.33 786.808C1543.53 786.808 1541.6 788.872 1541.6 792.885C1541.6 796.898 1543.53 798.962 1547.33 798.962ZM1547.31 796.715C1545.25 796.715 1544.31 795.499 1544.31 792.908C1544.31 790.271 1545.25 789.055 1547.31 789.055C1549.38 789.055 1550.34 790.271 1550.34 792.908C1550.34 795.499 1549.38 796.715 1547.31 796.715ZM1555.88 798.687H1558.54V781.946H1555.88V798.687ZM1565.78 798.962C1567.34 798.962 1568.58 798.458 1569.82 797.288L1570.02 798.687H1572.15V787.083H1569.49V795.132C1568.62 796.119 1567.75 796.6 1566.56 796.6C1565.09 796.6 1564.47 795.866 1564.47 794.146V787.083H1561.81V794.559C1561.81 797.495 1563.12 798.962 1565.78 798.962ZM1579.95 798.962C1580.7 798.962 1581.44 798.87 1581.96 798.687V796.485C1581.53 796.669 1581.05 796.761 1580.5 796.761C1579.24 796.761 1578.78 796.325 1578.78 795.11V789.193H1581.99V787.083H1578.78V783.85H1576.41L1576.16 787.083H1574.08V789.193H1576.12V795.499C1576.12 797.953 1577.31 798.962 1579.95 798.962ZM1584.08 784.95H1586.9V782.451H1584.08V784.95ZM1584.17 798.687H1586.83V787.083H1584.17V798.687ZM1595.39 798.962C1599.18 798.962 1601.11 796.898 1601.11 792.885C1601.11 788.872 1599.18 786.808 1595.39 786.808C1591.59 786.808 1589.66 788.872 1589.66 792.885C1589.66 796.898 1591.59 798.962 1595.39 798.962ZM1595.37 796.715C1593.31 796.715 1592.37 795.499 1592.37 792.908C1592.37 790.271 1593.31 789.055 1595.37 789.055C1597.44 789.055 1598.4 790.271 1598.4 792.908C1598.4 795.499 1597.44 796.715 1595.37 796.715ZM1603.94 798.687H1606.6V790.638C1607.45 789.629 1608.28 789.17 1609.47 789.17C1610.94 789.17 1611.51 789.904 1611.51 791.647V798.687H1614.17V791.211C1614.17 788.276 1612.89 786.808 1610.25 786.808C1608.76 786.808 1607.52 787.266 1606.28 788.459L1606.08 787.083H1603.94V798.687ZM1621.07 798.962C1624.42 798.962 1626 797.747 1626 795.224C1626 793.367 1625.15 792.403 1622.68 791.853L1621.21 791.532C1619.69 791.211 1619.35 790.959 1619.35 790.294C1619.35 789.376 1620.01 788.986 1621.55 788.986C1622.97 788.986 1624.17 789.33 1625.29 789.904V787.519C1624.44 787.083 1623.04 786.808 1621.55 786.808C1618.36 786.808 1616.78 788 1616.78 790.477C1616.78 792.289 1617.63 793.252 1619.97 793.756L1621.48 794.078C1622.93 794.376 1623.43 794.651 1623.43 795.453C1623.43 796.371 1622.79 796.784 1621.12 796.784C1619.37 796.784 1617.93 796.371 1616.62 795.614V797.999C1617.63 798.595 1619.28 798.962 1621.07 798.962ZM1639.24 798.962C1643.03 798.962 1644.96 796.898 1644.96 792.885C1644.96 788.872 1643.03 786.808 1639.24 786.808C1635.44 786.808 1633.51 788.872 1633.51 792.885C1633.51 796.898 1635.44 798.962 1639.24 798.962ZM1639.22 796.715C1637.16 796.715 1636.22 795.499 1636.22 792.908C1636.22 790.271 1637.16 789.055 1639.22 789.055C1641.29 789.055 1642.25 790.271 1642.25 792.908C1642.25 795.499 1641.29 796.715 1639.22 796.715ZM1647.79 798.687H1650.45V791.119C1651.26 789.881 1652.36 789.399 1653.59 789.399C1653.98 789.399 1654.28 789.445 1654.56 789.491V786.9C1654.31 786.831 1654.01 786.808 1653.73 786.808C1652.29 786.808 1651.14 787.427 1650.18 788.895L1649.93 787.083H1647.79V798.687ZM1660.59 803.205C1664.7 803.205 1666.53 801.439 1666.53 797.426V787.083H1664.56L1664.26 788.344C1663.16 787.289 1661.97 786.808 1660.5 786.808C1657.36 786.808 1655.66 788.964 1655.66 792.633C1655.66 796.233 1657.29 798.412 1660.41 798.412C1661.76 798.412 1662.86 797.999 1663.87 797.059V797.816C1663.87 800.086 1662.84 801.003 1660.36 801.003C1658.96 801.003 1657.77 800.728 1656.58 800.109V802.471C1657.7 802.953 1659.05 803.205 1660.59 803.205ZM1661.07 796.164C1659.28 796.164 1658.37 794.995 1658.37 792.633C1658.37 790.271 1659.31 789.055 1661.14 789.055C1662.29 789.055 1663.07 789.514 1663.87 790.5V794.651C1663.04 795.706 1662.17 796.164 1661.07 796.164ZM1672.97 798.962C1674.55 798.962 1675.86 798.435 1677 797.288L1677.19 798.687H1679.41V791.486C1679.41 788.161 1677.92 786.808 1674.21 786.808C1672.53 786.808 1671.18 787.083 1669.94 787.702V790.156C1671.25 789.376 1672.3 789.055 1673.84 789.055C1676.02 789.055 1676.75 789.743 1676.75 791.67V791.784C1675.7 791.647 1674.62 791.601 1673.98 791.601C1670.74 791.601 1669.14 792.862 1669.14 795.362C1669.14 797.632 1670.47 798.962 1672.97 798.962ZM1673.7 796.761C1672.51 796.761 1671.82 796.256 1671.82 795.224C1671.82 794.078 1672.65 793.527 1674.39 793.527C1674.94 793.527 1675.88 793.596 1676.75 793.688V795.201C1675.88 796.279 1674.87 796.761 1673.7 796.761ZM1682.66 798.687H1685.32V790.638C1686.17 789.629 1687 789.17 1688.19 789.17C1689.66 789.17 1690.23 789.904 1690.23 791.647V798.687H1692.89V791.211C1692.89 788.276 1691.61 786.808 1688.97 786.808C1687.48 786.808 1686.24 787.266 1685 788.459L1684.79 787.083H1682.66V798.687ZM1696.07 784.95H1698.9V782.451H1696.07V784.95ZM1696.17 798.687H1698.83V787.083H1696.17V798.687ZM1701.34 798.687H1710.9V796.508H1704.78L1710.81 788.986V787.083H1701.71V789.262H1707.37L1701.34 796.807V798.687ZM1716.46 798.962C1718.04 798.962 1719.35 798.435 1720.49 797.288L1720.68 798.687H1722.9V791.486C1722.9 788.161 1721.41 786.808 1717.7 786.808C1716.02 786.808 1714.67 787.083 1713.43 787.702V790.156C1714.74 789.376 1715.79 789.055 1717.33 789.055C1719.51 789.055 1720.24 789.743 1720.24 791.67V791.784C1719.19 791.647 1718.11 791.601 1717.47 791.601C1714.23 791.601 1712.63 792.862 1712.63 795.362C1712.63 797.632 1713.96 798.962 1716.46 798.962ZM1717.19 796.761C1716 796.761 1715.31 796.256 1715.31 795.224C1715.31 794.078 1716.14 793.527 1717.88 793.527C1718.43 793.527 1719.37 793.596 1720.24 793.688V795.201C1719.37 796.279 1718.36 796.761 1717.19 796.761ZM1730.46 798.962C1731.22 798.962 1731.96 798.87 1732.48 798.687V796.485C1732.05 796.669 1731.57 796.761 1731.02 796.761C1729.75 796.761 1729.3 796.325 1729.3 795.11V789.193H1732.51V787.083H1729.3V783.85H1726.93L1726.68 787.083H1724.59V789.193H1726.64V795.499C1726.64 797.953 1727.83 798.962 1730.46 798.962ZM1734.59 784.95H1737.42V782.451H1734.59V784.95ZM1734.69 798.687H1737.35V787.083H1734.69V798.687ZM1745.91 798.962C1749.7 798.962 1751.62 796.898 1751.62 792.885C1751.62 788.872 1749.7 786.808 1745.91 786.808C1742.11 786.808 1740.18 788.872 1740.18 792.885C1740.18 796.898 1742.11 798.962 1745.91 798.962ZM1745.89 796.715C1743.83 796.715 1742.89 795.499 1742.89 792.908C1742.89 790.271 1743.83 789.055 1745.89 789.055C1747.95 789.055 1748.92 790.271 1748.92 792.908C1748.92 795.499 1747.95 796.715 1745.89 796.715ZM1754.46 798.687H1757.12V790.638C1757.97 789.629 1758.8 789.17 1759.99 789.17C1761.46 789.17 1762.03 789.904 1762.03 791.647V798.687H1764.69V791.211C1764.69 788.276 1763.4 786.808 1760.77 786.808C1759.28 786.808 1758.04 787.266 1756.8 788.459L1756.59 787.083H1754.46V798.687Z" fill="#3B3839"/>
<path d="M1148.5 670.303C1145.01 670.303 1141.8 673.588 1139.46 679.554C1137.79 683.812 1135.8 691.472 1135.8 703.784C1135.8 704.46 1135.81 705.145 1135.83 705.842C1135.47 705.246 1135.1 704.665 1134.73 704.097C1124.18 687.784 1114.65 681.971 1109.25 681.971C1107.96 681.971 1106.82 682.281 1105.88 682.893C1102.94 684.791 1102.03 689.293 1103.31 695.573C1104.22 700.057 1106.71 707.57 1113.4 717.906C1113.85 718.602 1114.32 719.302 1114.81 720.007C1114.04 719.633 1113.27 719.277 1112.52 718.942C1100.41 713.585 1092.24 712.461 1087.53 712.461C1081.88 712.459 1078.06 714.079 1076.76 717.019C1075.34 720.213 1077.05 724.479 1081.56 729.032C1084.78 732.284 1090.98 737.204 1102.23 742.185C1103.19 742.609 1104.19 743.021 1105.21 743.42C1104.12 743.56 1103.05 743.719 1102.02 743.897C1089.89 745.995 1082.68 749.262 1078.77 751.634C1073.29 754.957 1070.6 758.682 1071.19 762.122C1072.07 767.187 1079.85 770.333 1091.5 770.333C1096.01 770.333 1101.01 769.865 1106.35 768.941C1107.02 768.826 1107.69 768.699 1108.37 768.561C1107.85 769.018 1107.34 769.475 1106.84 769.934C1097.8 778.286 1093.52 784.946 1091.52 789.063C1088.73 794.829 1088.49 799.417 1090.86 801.982C1091.71 802.902 1093.35 804 1096.34 804C1103.27 804 1113.64 798.245 1124.08 788.607C1124.69 788.044 1125.3 787.459 1125.92 786.852C1125.68 787.682 1125.46 788.499 1125.25 789.305C1122.26 801.249 1122.34 809.164 1122.92 813.7C1123.75 820.055 1126.06 824.022 1129.45 824.87C1129.88 824.977 1130.32 825.031 1130.78 825.031C1136.6 825.031 1144.74 815.959 1149.85 795.704C1155.69 815.415 1164.11 824.245 1169.87 824.245C1170.41 824.245 1170.94 824.17 1171.43 824.023C1174.78 823.038 1176.94 818.979 1177.5 812.596C1177.9 808.038 1177.65 800.128 1174.17 788.317C1173.92 787.472 1173.65 786.616 1173.36 785.748C1174.04 786.366 1174.71 786.959 1175.38 787.528C1190.52 800.347 1199.88 801.73 1203.21 801.73C1206.53 801.73 1208.27 800.501 1209.14 799.471C1211.4 796.805 1210.97 792.231 1207.93 786.59C1205.76 782.563 1201.2 776.091 1191.81 768.134C1191.29 767.698 1190.76 767.262 1190.22 766.827C1190.91 766.937 1191.59 767.035 1192.26 767.121C1196.46 767.663 1200.46 767.939 1204.16 767.939C1217.37 767.939 1226.37 764.354 1227.09 758.805C1227.53 755.341 1224.69 751.734 1219.07 748.649C1215.06 746.447 1207.72 743.491 1195.51 741.915C1194.52 741.788 1193.51 741.679 1192.47 741.589C1193.42 741.169 1194.35 740.739 1195.24 740.299C1206.29 734.86 1212.28 729.691 1215.36 726.311C1219.68 721.575 1221.21 717.243 1219.67 714.11C1218.35 711.442 1214.87 709.973 1209.86 709.973C1203.05 709.971 1193.87 712.643 1184.02 717.495C1183.22 717.886 1182.42 718.299 1181.62 718.737C1182.11 717.961 1182.58 717.191 1183.03 716.429C1189.27 705.817 1191.44 698.204 1192.16 693.687C1193.16 687.357 1192.06 682.897 1189.05 681.127C1188.16 680.607 1187.13 680.343 1185.97 680.343C1179.19 680.342 1169.48 689.387 1161.21 703.4C1161.17 691.312 1159.2 683.768 1157.55 679.554C1155.21 673.588 1152 670.303 1148.5 670.303ZM1148.5 672.97C1152.62 672.97 1158.55 682.853 1158.55 703.784C1158.55 708.457 1158.04 713.283 1157.27 717.965C1158.98 713.47 1161.02 708.985 1163.42 704.898C1172.64 689.229 1181.48 683.008 1185.97 683.009C1186.65 683.009 1187.23 683.152 1187.7 683.425C1191.24 685.509 1191.34 697.036 1180.73 715.078C1177.69 720.254 1173.8 725.23 1169.81 729.699C1174.56 726.047 1179.81 722.539 1185.2 719.889C1195.97 714.585 1204.34 712.638 1209.86 712.639C1213.97 712.639 1216.5 713.715 1217.28 715.287C1219.09 718.977 1212.84 728.662 1194.06 737.905C1188.49 740.649 1182.28 742.717 1176.3 744.273C1179.09 744.065 1181.95 743.941 1184.82 743.941C1188.3 743.941 1191.79 744.124 1195.17 744.56C1215.93 747.239 1224.97 754.385 1224.44 758.464C1224.03 761.699 1217.29 765.273 1204.16 765.273C1200.74 765.273 1196.88 765.03 1192.6 764.477C1187 763.754 1181.27 762.275 1175.89 760.505C1180.83 763.289 1185.78 766.521 1190.09 770.169C1206.06 783.696 1209.77 794.609 1207.11 797.747C1206.4 798.583 1205.08 799.064 1203.21 799.064C1198.06 799.064 1188.82 795.417 1177.11 785.494C1172.53 781.619 1168.3 776.951 1164.58 772.262C1167.37 777.559 1169.92 783.32 1171.61 789.071C1177.52 809.149 1174.63 820.305 1170.68 821.466C1170.43 821.539 1170.16 821.578 1169.87 821.578C1165.66 821.578 1157.88 813.534 1152.35 794.741C1151 790.177 1150.12 785.315 1149.54 780.522C1149.16 785.33 1148.48 790.22 1147.32 794.831C1142.51 814.036 1134.96 822.365 1130.78 822.365C1130.54 822.365 1130.31 822.337 1130.1 822.283C1126.11 821.285 1122.76 810.257 1127.84 789.953C1129.27 784.227 1131.54 778.454 1134.06 773.117C1130.59 777.886 1126.61 782.644 1122.27 786.648C1110.66 797.367 1101.39 801.332 1096.34 801.332C1094.7 801.332 1093.51 800.915 1092.82 800.175C1090.03 797.153 1093.27 786.092 1108.65 771.894C1112.8 768.065 1117.61 764.622 1122.42 761.63C1117.12 763.63 1111.46 765.351 1105.9 766.314C1100.39 767.265 1095.59 767.666 1091.5 767.666C1080.25 767.666 1074.34 764.638 1073.82 761.669C1073.12 757.617 1081.85 750.09 1102.47 746.525C1107.32 745.687 1112.43 745.368 1117.41 745.368C1118.81 745.368 1120.21 745.393 1121.59 745.44C1115.47 744.125 1109.08 742.297 1103.31 739.747C1084.17 731.279 1077.53 721.858 1079.2 718.098C1079.96 716.363 1082.81 715.126 1087.53 715.127C1093.04 715.127 1101.12 716.818 1111.44 721.381C1116.83 723.766 1122.12 726.978 1126.95 730.364C1122.85 726.131 1118.84 721.406 1115.64 716.457C1104.26 698.885 1103.87 687.367 1107.32 685.132C1107.83 684.808 1108.47 684.637 1109.25 684.637C1113.81 684.637 1122.78 690.528 1132.5 705.546C1135.56 710.285 1138.14 715.61 1140.26 720.862C1139.2 715.297 1138.46 709.427 1138.46 703.784C1138.46 682.853 1144.39 672.97 1148.5 672.97Z" fill="#3B3839"/>
<path d="M1167.48 672.997C1164.7 672.997 1160.42 676.69 1156.46 684.815C1157.72 689.62 1158.55 695.92 1158.55 703.777C1158.55 708.45 1158.05 713.277 1157.27 717.959C1158.99 713.465 1161.03 708.98 1163.43 704.893C1166.65 699.42 1169.82 695.117 1172.78 691.812C1173.76 680.176 1171.14 673.825 1168.16 673.078C1167.94 673.023 1167.72 672.997 1167.48 672.997ZM1167.48 675.663H1167.51C1168.47 675.973 1170.92 680.278 1170.19 690.717C1167.11 694.257 1164.1 698.517 1161.22 703.393C1161.2 696.483 1160.55 690.343 1159.28 685.123C1162.93 677.999 1166.35 675.663 1167.48 675.663Z" fill="#3B3839"/>
<path d="M1087.24 730.475C1078.62 731.47 1074.14 734.292 1073.81 736.905C1073.38 740.2 1079.21 745.493 1092.41 748.82C1095.38 747.956 1098.73 747.173 1102.48 746.525C1107.32 745.688 1112.43 745.369 1117.41 745.369C1118.82 745.369 1120.21 745.395 1121.59 745.441C1115.47 744.127 1109.08 742.299 1103.31 739.747C1096.37 736.676 1091.09 733.482 1087.24 730.475ZM1086.49 733.258C1090.76 736.451 1096.05 739.451 1102.23 742.185C1103.19 742.611 1104.19 743.023 1105.21 743.421C1104.12 743.56 1103.05 743.72 1102.02 743.899C1098.63 744.484 1095.39 745.211 1092.37 746.057C1080.06 742.825 1076.39 738.267 1076.45 737.251C1076.6 736.507 1079.27 734.264 1086.49 733.258Z" fill="#3B3839"/>
<path d="M1095.04 696.303C1093.18 696.303 1091.85 696.781 1091.15 697.616C1089.04 700.097 1090.95 707.446 1099.72 717.095C1103.23 718.085 1107.13 719.469 1111.44 721.377C1116.83 723.761 1122.13 726.974 1126.95 730.36C1122.85 726.127 1118.85 721.402 1115.64 716.453C1111.63 710.257 1109.01 704.833 1107.42 700.284C1102.18 697.472 1097.95 696.303 1095.04 696.303ZM1095.04 698.969C1096.56 698.969 1099.85 699.397 1105.26 702.165C1107.09 707.086 1109.83 712.374 1113.4 717.902C1113.85 718.598 1114.33 719.298 1114.82 720.003C1114.05 719.629 1113.28 719.273 1112.52 718.938C1108.64 717.221 1104.83 715.813 1101.19 714.745C1093.16 705.71 1092.6 700.126 1093.18 699.342C1093.27 699.245 1093.82 698.969 1095.04 698.969Z" fill="#3B3839"/>
<path d="M1201.93 694.036C1198.78 694.036 1193.99 695.581 1188.02 699.332C1186.59 703.789 1184.27 709.058 1180.73 715.071C1177.69 720.247 1173.8 725.224 1169.81 729.692C1174.56 726.04 1179.81 722.534 1185.19 719.882C1189.91 717.561 1194.16 715.883 1197.92 714.73C1206.07 704.86 1207.61 697.552 1205.42 695.187C1204.74 694.451 1203.56 694.036 1201.93 694.036ZM1201.93 696.703C1202.93 696.703 1203.39 696.921 1203.46 696.992C1204.16 697.863 1203.7 703.314 1196.36 712.425C1192.46 713.673 1188.31 715.374 1184.02 717.49C1183.22 717.879 1182.42 718.293 1181.61 718.73C1182.11 717.955 1182.58 717.186 1183.03 716.423C1186.2 711.037 1188.62 705.885 1190.25 701.09C1196.77 697.143 1200.57 696.703 1201.93 696.703Z" fill="#3B3839"/>
<path d="M1209.97 727.808C1206.23 731.02 1201.01 734.495 1194.07 737.909C1188.5 740.653 1182.29 742.721 1176.31 744.277C1179.09 744.07 1181.96 743.946 1184.83 743.946C1188.31 743.946 1191.8 744.128 1195.17 744.564C1199.16 745.078 1202.71 745.761 1205.85 746.552C1219.25 742.657 1225 737.019 1224.43 733.703C1223.97 731.032 1219.11 728.33 1209.97 727.808ZM1210.86 730.541C1219.29 731.201 1221.68 733.679 1221.8 734.153C1221.91 735.201 1218.32 740.015 1205.79 743.789C1202.59 743.016 1199.14 742.387 1195.52 741.919C1194.53 741.792 1193.51 741.683 1192.47 741.593C1193.43 741.173 1194.35 740.743 1195.25 740.303C1201.45 737.251 1206.69 733.971 1210.86 730.541Z" fill="#3B3839"/>
<path d="M1128.37 673.783C1128.09 673.783 1127.82 673.821 1127.57 673.894C1124.5 674.798 1122.08 681.784 1123.94 694.292C1126.65 697.263 1129.54 700.971 1132.49 705.54C1135.56 710.278 1138.13 715.602 1140.26 720.854C1139.2 715.289 1138.46 709.421 1138.46 703.777C1138.46 696.603 1139.17 690.759 1140.25 686.134C1135.86 677.62 1131.27 673.783 1128.37 673.783ZM1128.37 676.45C1129.35 676.45 1133.04 678.324 1137.43 686.506C1136.34 691.555 1135.8 697.359 1135.8 703.777C1135.8 704.452 1135.8 705.138 1135.83 705.836C1135.46 705.24 1135.1 704.657 1134.73 704.09C1132.06 699.953 1129.28 696.263 1126.46 693.109C1124.9 681.683 1127.29 676.836 1128.31 676.454C1128.31 676.454 1128.33 676.45 1128.37 676.45Z" fill="#3B3839"/>
<path d="M1175.89 760.501C1180.83 763.283 1185.78 766.517 1190.08 770.165C1193.43 772.998 1196.21 775.707 1198.53 778.263C1203.43 779.646 1207.52 780.222 1210.74 780.222C1215.45 780.222 1218.29 778.994 1219.05 777.264C1220.11 774.868 1217.78 770.171 1211.01 764.889C1208.94 765.127 1206.63 765.262 1204.08 765.262C1200.69 765.262 1196.86 765.022 1192.6 764.473C1187 763.75 1181.27 762.271 1175.89 760.501V760.501ZM1190.22 766.823C1190.91 766.933 1191.59 767.03 1192.26 767.117C1196.43 767.655 1200.41 767.929 1204.08 767.929C1206.22 767.929 1208.27 767.837 1210.2 767.654C1215.77 772.215 1216.87 775.483 1216.62 776.182C1216.47 776.455 1214.97 777.555 1210.74 777.555C1207.72 777.555 1204.01 776.982 1199.98 775.896C1197.55 773.281 1194.81 770.671 1191.81 768.13C1191.29 767.694 1190.76 767.258 1190.22 766.823Z" fill="#3B3839"/>
<path d="M1164.58 772.26C1167.37 777.558 1169.92 783.319 1171.62 789.068C1172.93 793.519 1173.78 797.504 1174.31 801.065C1180.53 807.863 1185.84 810.726 1189.01 810.726C1189.78 810.726 1190.43 810.557 1190.93 810.233C1193.16 808.786 1193.76 803.429 1190.84 795.077C1186.82 792.92 1182.2 789.803 1177.11 785.492C1172.54 781.617 1168.3 776.95 1164.58 772.26ZM1173.37 785.745C1174.04 786.364 1174.71 786.957 1175.39 787.527C1179.94 791.384 1184.4 794.538 1188.65 796.916C1190.97 804.054 1190.09 807.527 1189.48 807.991C1189.45 808.01 1189.3 808.059 1189.01 808.059C1186.91 808.059 1182.5 805.896 1176.82 799.853C1176.24 796.17 1175.35 792.293 1174.17 788.316C1173.93 787.471 1173.66 786.613 1173.37 785.745Z" fill="#3B3839"/>
<path d="M1134.06 773.114C1130.59 777.883 1126.61 782.642 1122.28 786.646C1117.89 790.698 1113.85 793.755 1110.23 796.027C1107.38 804.944 1108.19 810.549 1110.55 811.94C1111.02 812.212 1111.6 812.354 1112.27 812.354C1115.2 812.354 1119.97 809.711 1125.48 803.547C1125.82 799.613 1126.56 795.08 1127.84 789.951C1129.28 784.225 1131.55 778.453 1134.06 773.114ZM1125.92 786.85C1125.68 787.679 1125.46 788.498 1125.26 789.304C1124.1 793.938 1123.31 798.342 1122.91 802.413C1117.62 808.136 1113.76 809.688 1112.27 809.688C1112.05 809.688 1111.93 809.652 1111.91 809.643C1111.49 809.352 1109.98 806.136 1112.49 797.75C1116.28 795.291 1120.17 792.219 1124.08 788.606C1124.7 788.042 1125.31 787.456 1125.92 786.85Z" fill="#3B3839"/>
<path d="M1149.54 780.514C1149.17 785.322 1148.48 790.212 1147.32 794.823C1146.04 799.967 1144.55 804.324 1142.99 807.956C1145.39 817.687 1149.26 822.325 1152.11 822.325C1152.14 822.325 1152.18 822.323 1152.22 822.322C1154.62 822.219 1157.49 818.677 1159.29 811.585C1156.87 807.404 1154.45 801.855 1152.35 794.733C1151.01 790.17 1150.12 785.307 1149.54 780.514ZM1149.85 795.696C1151.71 801.94 1153.92 807.401 1156.43 811.949C1154.83 817.599 1152.72 819.583 1152.11 819.658C1151.24 819.635 1148.07 816.744 1145.79 808.166C1147.34 804.44 1148.7 800.251 1149.85 795.696Z" fill="#3B3839"/>
<path d="M1122.43 761.634C1117.12 763.633 1111.47 765.355 1105.9 766.317C1100.43 767.265 1095.66 767.658 1091.59 767.658C1090.43 767.658 1089.34 767.626 1088.29 767.566C1081.91 773.046 1079.83 777.756 1080.98 780.083C1081.75 781.655 1084.29 782.731 1088.39 782.731C1091.5 782.731 1095.5 782.115 1100.33 780.634C1102.59 777.899 1105.32 774.978 1108.66 771.897C1112.8 768.069 1117.61 764.626 1122.43 761.634ZM1108.38 768.563C1107.86 769.022 1107.34 769.479 1106.85 769.938C1103.86 772.693 1101.16 775.506 1098.8 778.31C1094.87 779.459 1091.29 780.064 1088.39 780.064C1084.78 780.064 1083.51 779.147 1083.37 778.908C1083.09 778.23 1084.02 774.983 1089.24 770.281C1090.01 770.31 1090.8 770.325 1091.59 770.325C1096.1 770.325 1101.06 769.859 1106.36 768.945C1107.02 768.83 1107.7 768.703 1108.38 768.563Z" fill="#3B3839"/>
<path d="M1163.16 747.661C1163.16 755.413 1156.87 761.697 1149.12 761.697C1141.37 761.697 1135.08 755.413 1135.08 747.661C1135.08 739.909 1141.37 733.625 1149.12 733.625C1156.87 733.625 1163.16 739.909 1163.16 747.661Z" fill="#3B3839"/>
<path d="M330.13 762.897C335.973 762.897 340.993 760.757 345.273 756.231L345.602 761.909H349.305V701.832H344.861V725.451C340.746 721.748 336.055 719.937 330.541 719.937C319.349 719.937 313.341 727.426 313.341 741.499C313.341 755.325 319.184 762.897 330.13 762.897ZM330.87 758.946C322.229 758.946 317.867 752.939 317.867 741.417C317.867 729.813 322.394 723.888 331.364 723.888C336.796 723.888 341.075 726.027 344.861 730.471V751.704C340.911 756.642 336.384 758.946 330.87 758.946ZM374.397 762.897C380.816 762.897 386.248 760.346 390.61 755.572L390.939 761.909H394.807V735.903C394.807 724.711 389.869 719.937 378.1 719.937C372.34 719.937 367.731 721.089 363.698 723.476V727.92C367.895 725.204 372.093 723.888 377.689 723.888C386.824 723.888 390.363 727.426 390.363 736.397V738.701C385.754 738.043 380.734 737.796 378.1 737.796C366.661 737.796 360.982 742.075 360.982 750.552C360.982 758.37 365.756 762.897 374.397 762.897ZM375.138 758.946C368.883 758.946 365.509 755.984 365.509 750.552C365.509 744.462 369.624 741.582 378.347 741.582C380.899 741.582 385.836 741.911 390.363 742.569V750.964C386.083 756.313 381.063 758.946 375.138 758.946ZM408.717 711.214H413.737V705.206H408.717V711.214ZM408.963 761.909H413.408V720.925H408.963V761.909ZM440.095 762.897C451.123 762.897 456.637 758.782 456.637 750.717C456.637 744.462 453.263 741.17 444.786 739.442L438.778 738.207C431.948 736.808 430.055 735.08 430.055 731.541C430.055 726.521 434.005 723.888 441.412 723.888C446.268 723.888 450.959 725.04 454.497 727.344V722.735C451.205 720.843 446.268 719.937 441.412 719.937C431.207 719.937 425.611 723.97 425.611 731.87C425.611 737.878 428.985 740.759 436.968 742.405L443.058 743.639C449.889 745.038 452.275 746.766 452.275 750.964C452.275 756.313 448.325 758.946 440.26 758.946C434.087 758.946 428.656 757.465 424.623 754.502V759.029C428.162 761.58 434.005 762.897 440.095 762.897ZM461.141 720.925L476.613 759.852C476.86 760.428 476.942 760.757 476.942 761.251C476.942 761.991 476.86 762.238 474.72 767.835C472.91 772.526 471.099 774.172 467.56 774.172C466.49 774.172 465.256 774.007 464.351 773.678V777.546C465.338 777.957 466.573 778.122 468.054 778.122C473.403 778.122 476.201 775.571 478.835 768.905L497.599 720.925H492.99L479.576 755.572L465.914 720.925H461.141ZM519.801 762.897C525.644 762.897 530.664 760.757 534.944 756.231L535.273 761.909H538.976V701.832H534.532V725.451C530.417 721.748 525.726 719.937 520.212 719.937C509.02 719.937 503.012 727.426 503.012 741.499C503.012 755.325 508.855 762.897 519.801 762.897ZM520.541 758.946C511.9 758.946 507.538 752.939 507.538 741.417C507.538 729.813 512.065 723.888 521.035 723.888C526.467 723.888 530.746 726.027 534.532 730.471V751.704C530.582 756.642 526.055 758.946 520.541 758.946ZM572.38 762.897C577.812 762.897 582.091 761.827 585.63 759.769V755.408C581.927 757.712 577.894 758.946 572.545 758.946C561.352 758.946 556.003 753.597 555.838 742.322H587.77C587.934 741.006 588.017 739.936 588.017 738.537C588.017 726.356 582.091 719.937 570.323 719.937C557.896 719.937 551.394 727.179 551.394 741.417C551.394 755.984 558.307 762.897 572.38 762.897ZM555.921 738.372C556.579 728.661 561.352 723.888 570.57 723.888C579.54 723.888 583.655 728.496 583.737 738.372H555.921ZM618.604 762.897C629.796 762.897 635.804 755.325 635.804 741.335C635.804 727.509 629.961 719.937 619.015 719.937C613.337 719.937 608.481 721.912 604.284 726.11V701.832H599.84V761.909H603.297L603.79 756.889C607.987 760.922 612.761 762.897 618.604 762.897ZM617.781 758.946C612.349 758.946 608.07 756.807 604.284 752.28V731.13C608.234 726.192 612.761 723.888 618.275 723.888C626.916 723.888 631.278 729.813 631.278 741.335C631.278 753.021 626.751 758.946 617.781 758.946ZM660.257 762.897C662.726 762.897 664.783 762.568 666.676 761.909V757.794C664.948 758.617 663.055 758.946 660.833 758.946C655.484 758.946 653.591 756.889 653.591 751.457V724.628H666.594V720.925H653.591V708.827H649.805L649.229 720.925H640.835V724.628H649.147V751.951C649.147 759.605 652.521 762.897 660.257 762.897Z" fill="white"/>
<path d="M520.821 798.962C522.404 798.962 523.711 798.435 524.857 797.288L525.041 798.687H527.265V791.486C527.265 788.161 525.775 786.808 522.06 786.808C520.386 786.808 519.033 787.083 517.794 787.702V790.156C519.101 789.376 520.156 789.055 521.693 789.055C523.871 789.055 524.605 789.743 524.605 791.67V791.784C523.55 791.647 522.472 791.601 521.83 791.601C518.597 791.601 516.992 792.862 516.992 795.362C516.992 797.632 518.322 798.962 520.821 798.962ZM521.555 796.761C520.363 796.761 519.675 796.256 519.675 795.224C519.675 794.078 520.5 793.527 522.243 793.527C522.794 793.527 523.734 793.596 524.605 793.688V795.201C523.734 796.279 522.725 796.761 521.555 796.761ZM540.264 798.962C541.801 798.962 542.993 798.458 544.094 797.288L544.301 798.687H546.433V781.946H543.773V788C542.787 787.175 541.709 786.808 540.379 786.808C537.191 786.808 535.54 788.941 535.54 792.908C535.54 796.829 537.146 798.962 540.264 798.962ZM540.929 796.715C539.095 796.715 538.246 795.499 538.246 792.908C538.246 790.271 539.118 789.055 540.998 789.055C542.122 789.055 542.948 789.491 543.773 790.546V795.155C542.925 796.256 542.053 796.715 540.929 796.715ZM555.598 798.962C557.157 798.962 558.442 798.687 559.474 798.137V795.82C558.327 796.417 557.318 796.715 555.873 796.715C553.351 796.715 552.135 795.775 551.975 793.688H560.024C560.116 793.046 560.139 792.518 560.139 792.128C560.139 788.597 558.396 786.808 554.864 786.808C551.149 786.808 549.269 788.78 549.269 792.816C549.269 797.036 551.31 798.962 555.598 798.962ZM551.998 791.693C552.204 789.812 553.121 789.009 554.933 789.009C556.745 789.009 557.501 789.858 557.616 791.693H551.998ZM568.909 798.962C572.096 798.962 573.748 796.829 573.748 792.862C573.748 788.941 572.142 786.808 569.023 786.808C567.648 786.808 566.547 787.221 565.538 788.161V781.946H562.878V798.687H564.873L565.148 797.449C566.249 798.504 567.418 798.962 568.909 798.962ZM568.313 796.715C567.189 796.715 566.34 796.279 565.538 795.247V790.592C566.386 789.514 567.258 789.055 568.358 789.055C570.193 789.055 571.042 790.271 571.042 792.885C571.042 795.499 570.17 796.715 568.313 796.715ZM580.738 798.962C581.495 798.962 582.229 798.87 582.756 798.687V796.485C582.32 796.669 581.839 796.761 581.288 796.761C580.027 796.761 579.568 796.325 579.568 795.11V789.193H582.779V787.083H579.568V783.85H577.206L576.954 787.083H574.867V789.193H576.908V795.499C576.908 797.953 578.101 798.962 580.738 798.962ZM594.226 798.962C597.574 798.962 599.156 797.747 599.156 795.224C599.156 793.367 598.308 792.403 595.831 791.853L594.363 791.532C592.85 791.211 592.506 790.959 592.506 790.294C592.506 789.376 593.171 788.986 594.707 788.986C596.129 788.986 597.322 789.33 598.445 789.904V787.519C597.597 787.083 596.198 786.808 594.707 786.808C591.52 786.808 589.937 788 589.937 790.477C589.937 792.289 590.786 793.252 593.125 793.756L594.638 794.078C596.083 794.376 596.588 794.651 596.588 795.453C596.588 796.371 595.946 796.784 594.272 796.784C592.529 796.784 591.084 796.371 589.777 795.614V797.999C590.786 798.595 592.437 798.962 594.226 798.962ZM606.824 798.962C610.608 798.962 612.535 796.898 612.535 792.885C612.535 788.872 610.608 786.808 606.824 786.808C603.018 786.808 601.091 788.872 601.091 792.885C601.091 796.898 603.018 798.962 606.824 798.962ZM606.801 796.715C604.737 796.715 603.797 795.499 603.797 792.908C603.797 790.271 604.737 789.055 606.801 789.055C608.865 789.055 609.829 790.271 609.829 792.908C609.829 795.499 608.865 796.715 606.801 796.715ZM615.372 798.687H618.032V781.946H615.372V798.687ZM625.269 798.962C626.829 798.962 628.067 798.458 629.305 797.288L629.512 798.687H631.645V787.083H628.984V795.132C628.113 796.119 627.242 796.6 626.049 796.6C624.581 796.6 623.962 795.866 623.962 794.146V787.083H621.302V794.559C621.302 797.495 622.609 798.962 625.269 798.962ZM639.436 798.962C640.193 798.962 640.927 798.87 641.454 798.687V796.485C641.018 796.669 640.537 796.761 639.986 796.761C638.725 796.761 638.266 796.325 638.266 795.11V789.193H641.477V787.083H638.266V783.85H635.904L635.652 787.083H633.565V789.193H635.606V795.499C635.606 797.953 636.799 798.962 639.436 798.962ZM643.566 784.95H646.386V782.451H643.566V784.95ZM643.657 798.687H646.317V787.083H643.657V798.687ZM654.885 798.962C658.669 798.962 660.595 796.898 660.595 792.885C660.595 788.872 658.669 786.808 654.885 786.808C651.078 786.808 649.151 788.872 649.151 792.885C649.151 796.898 651.078 798.962 654.885 798.962ZM654.862 796.715C652.798 796.715 651.858 795.499 651.858 792.908C651.858 790.271 652.798 789.055 654.862 789.055C656.926 789.055 657.889 790.271 657.889 792.908C657.889 795.499 656.926 796.715 654.862 796.715ZM663.432 798.687H666.092V790.638C666.941 789.629 667.767 789.17 668.959 789.17C670.427 789.17 671 789.904 671 791.647V798.687H673.66V791.211C673.66 788.276 672.376 786.808 669.739 786.808C668.248 786.808 667.01 787.266 665.771 788.459L665.565 787.083H663.432V798.687ZM680.559 798.962C683.908 798.962 685.49 797.747 685.49 795.224C685.49 793.367 684.642 792.403 682.165 791.853L680.697 791.532C679.184 791.211 678.84 790.959 678.84 790.294C678.84 789.376 679.505 788.986 681.041 788.986C682.463 788.986 683.655 789.33 684.779 789.904V787.519C683.931 787.083 682.532 786.808 681.041 786.808C677.853 786.808 676.271 788 676.271 790.477C676.271 792.289 677.12 793.252 679.459 793.756L680.972 794.078C682.417 794.376 682.922 794.651 682.922 795.453C682.922 796.371 682.279 796.784 680.605 796.784C678.862 796.784 677.418 796.371 676.111 795.614V797.999C677.12 798.595 678.771 798.962 680.559 798.962ZM698.735 798.962C702.518 798.962 704.445 796.898 704.445 792.885C704.445 788.872 702.518 786.808 698.735 786.808C694.928 786.808 693.001 788.872 693.001 792.885C693.001 796.898 694.928 798.962 698.735 798.962ZM698.712 796.715C696.648 796.715 695.707 795.499 695.707 792.908C695.707 790.271 696.648 789.055 698.712 789.055C700.776 789.055 701.739 790.271 701.739 792.908C701.739 795.499 700.776 796.715 698.712 796.715ZM707.282 798.687H709.942V791.119C710.745 789.881 711.846 789.399 713.084 789.399C713.474 789.399 713.772 789.445 714.047 789.491V786.9C713.795 786.831 713.497 786.808 713.222 786.808C711.777 786.808 710.63 787.427 709.667 788.895L709.415 787.083H707.282V798.687ZM720.081 803.205C724.186 803.205 726.02 801.439 726.02 797.426V787.083H724.048L723.75 788.344C722.649 787.289 721.457 786.808 719.989 786.808C716.847 786.808 715.15 788.964 715.15 792.633C715.15 796.233 716.779 798.412 719.897 798.412C721.25 798.412 722.351 797.999 723.36 797.059V797.816C723.36 800.086 722.328 801.003 719.852 801.003C718.453 801.003 717.26 800.728 716.068 800.109V802.471C717.191 802.953 718.544 803.205 720.081 803.205ZM720.562 796.164C718.774 796.164 717.856 794.995 717.856 792.633C717.856 790.271 718.797 789.055 720.631 789.055C721.778 789.055 722.558 789.514 723.36 790.5V794.651C722.535 795.706 721.663 796.164 720.562 796.164ZM732.457 798.962C734.039 798.962 735.346 798.435 736.493 797.288L736.676 798.687H738.901V791.486C738.901 788.161 737.41 786.808 733.695 786.808C732.021 786.808 730.668 787.083 729.43 787.702V790.156C730.737 789.376 731.792 789.055 733.328 789.055C735.507 789.055 736.241 789.743 736.241 791.67V791.784C735.186 791.647 734.108 791.601 733.466 791.601C730.232 791.601 728.627 792.862 728.627 795.362C728.627 797.632 729.957 798.962 732.457 798.962ZM733.191 796.761C731.998 796.761 731.31 796.256 731.31 795.224C731.31 794.078 732.136 793.527 733.878 793.527C734.429 793.527 735.369 793.596 736.241 793.688V795.201C735.369 796.279 734.36 796.761 733.191 796.761ZM742.152 798.687H744.812V790.638C745.66 789.629 746.486 789.17 747.678 789.17C749.146 789.17 749.719 789.904 749.719 791.647V798.687H752.38V791.211C752.38 788.276 751.095 786.808 748.458 786.808C746.968 786.808 745.729 787.266 744.491 788.459L744.284 787.083H742.152V798.687ZM755.564 784.95H758.385V782.451H755.564V784.95ZM755.656 798.687H758.316V787.083H755.656V798.687ZM760.829 798.687H770.392V796.508H764.269L770.3 788.986V787.083H761.196V789.262H766.86L760.829 796.807V798.687ZM775.948 798.962C777.531 798.962 778.838 798.435 779.984 797.288L780.168 798.687H782.392V791.486C782.392 788.161 780.902 786.808 777.187 786.808C775.513 786.808 774.16 787.083 772.921 787.702V790.156C774.228 789.376 775.283 789.055 776.82 789.055C778.998 789.055 779.732 789.743 779.732 791.67V791.784C778.677 791.647 777.599 791.601 776.957 791.601C773.724 791.601 772.119 792.862 772.119 795.362C772.119 797.632 773.449 798.962 775.948 798.962ZM776.682 796.761C775.49 796.761 774.802 796.256 774.802 795.224C774.802 794.078 775.627 793.527 777.37 793.527C777.921 793.527 778.861 793.596 779.732 793.688V795.201C778.861 796.279 777.852 796.761 776.682 796.761ZM789.955 798.962C790.711 798.962 791.445 798.87 791.973 798.687V796.485C791.537 796.669 791.055 796.761 790.505 796.761C789.244 796.761 788.785 796.325 788.785 795.11V789.193H791.996V787.083H788.785V783.85H786.423L786.171 787.083H784.084V789.193H786.125V795.499C786.125 797.953 787.317 798.962 789.955 798.962ZM794.084 784.95H796.905V782.451H794.084V784.95ZM794.176 798.687H796.836V787.083H794.176V798.687ZM805.403 798.962C809.187 798.962 811.114 796.898 811.114 792.885C811.114 788.872 809.187 786.808 805.403 786.808C801.596 786.808 799.67 788.872 799.67 792.885C799.67 796.898 801.596 798.962 805.403 798.962ZM805.38 796.715C803.316 796.715 802.376 795.499 802.376 792.908C802.376 790.271 803.316 789.055 805.38 789.055C807.444 789.055 808.407 790.271 808.407 792.908C808.407 795.499 807.444 796.715 805.38 796.715ZM813.951 798.687H816.611V790.638C817.46 789.629 818.285 789.17 819.478 789.17C820.945 789.17 821.519 789.904 821.519 791.647V798.687H824.179V791.211C824.179 788.276 822.895 786.808 820.257 786.808C818.767 786.808 817.528 787.266 816.29 788.459L816.084 787.083H813.951V798.687Z" fill="white"/>
<path d="M208.048 670.303C204.556 670.303 201.345 673.588 199.003 679.554C197.333 683.812 195.341 691.472 195.341 703.784C195.341 704.46 195.351 705.145 195.371 705.842C195.01 705.246 194.646 704.665 194.278 704.097C183.721 687.784 174.191 681.971 168.792 681.971C167.501 681.971 166.367 682.281 165.42 682.893C162.488 684.791 161.576 689.293 162.852 695.573C163.763 700.057 166.252 707.57 172.941 717.906C173.392 718.602 173.864 719.302 174.356 720.007C173.583 719.633 172.817 719.277 172.06 718.942C159.951 713.585 151.787 712.461 147.071 712.461C141.426 712.459 137.602 714.079 136.301 717.019C134.889 720.213 136.593 724.479 141.102 729.032C144.319 732.284 150.519 737.204 161.779 742.185C162.738 742.609 163.729 743.021 164.753 743.42C163.663 743.56 162.599 743.719 161.566 743.897C149.434 745.995 142.225 749.262 138.313 751.634C132.834 754.957 130.144 758.682 130.738 762.122C131.614 767.187 139.393 770.333 151.039 770.333C155.554 770.333 160.552 769.865 165.895 768.941C166.56 768.826 167.235 768.699 167.917 768.561C167.392 769.018 166.881 769.475 166.384 769.934C157.339 778.286 153.063 784.946 151.067 789.063C148.273 794.829 148.038 799.417 150.407 801.982C151.256 802.902 152.895 804 155.883 804C162.816 804 173.188 798.245 183.626 788.607C184.236 788.044 184.848 787.459 185.46 786.852C185.22 787.682 185 788.499 184.797 789.305C181.808 801.249 181.88 809.164 182.466 813.7C183.289 820.055 185.608 824.022 188.994 824.87C189.421 824.977 189.869 825.031 190.325 825.031C196.142 825.031 204.282 815.959 209.395 795.704C215.239 815.415 223.652 824.245 229.415 824.245C229.955 824.245 230.481 824.17 230.978 824.023C234.328 823.038 236.481 818.979 237.042 812.596C237.444 808.038 237.192 800.128 233.714 788.317C233.466 787.472 233.196 786.616 232.905 785.748C233.581 786.366 234.254 786.959 234.926 787.528C250.061 800.347 259.427 801.73 262.751 801.73C266.076 801.73 267.815 800.501 268.688 799.471C270.944 796.805 270.514 792.231 267.475 786.59C265.306 782.563 260.747 776.091 251.353 768.134C250.838 767.698 250.307 767.262 249.762 766.827C250.451 766.937 251.13 767.035 251.801 767.121C256.003 767.663 260.007 767.939 263.702 767.939C276.915 767.939 285.916 764.354 286.632 758.805C287.078 755.341 284.232 751.734 278.616 748.649C274.607 746.447 267.264 743.491 255.054 741.915C254.067 741.788 253.053 741.679 252.013 741.589C252.967 741.169 253.893 740.739 254.787 740.299C265.832 734.86 271.825 729.691 274.908 726.311C279.225 721.575 280.755 717.243 279.212 714.11C277.899 711.442 274.416 709.973 269.407 709.973C262.598 709.971 253.418 712.643 243.562 717.495C242.769 717.886 241.969 718.299 241.161 718.737C241.657 717.961 242.129 717.191 242.578 716.429C248.818 705.817 250.983 698.204 251.702 693.687C252.707 687.357 251.603 682.897 248.593 681.127C247.707 680.607 246.673 680.343 245.515 680.343C238.734 680.342 229.025 689.387 220.756 703.4C220.715 691.312 218.747 683.768 217.093 679.554C214.752 673.588 211.54 670.303 208.048 670.303ZM208.048 672.97C212.16 672.97 218.089 682.853 218.089 703.784C218.089 708.457 217.587 713.283 216.81 717.965C218.528 713.47 220.564 708.985 222.968 704.898C232.181 689.229 241.026 683.008 245.515 683.009C246.195 683.009 246.775 683.152 247.242 683.425C250.786 685.509 250.887 697.036 240.278 715.078C237.236 720.254 233.348 725.23 229.353 729.699C234.104 726.047 239.353 722.539 244.739 719.889C255.513 714.585 263.883 712.638 269.407 712.639C273.512 712.639 276.045 713.715 276.82 715.287C278.636 718.977 272.387 728.662 253.609 737.905C248.035 740.649 241.826 742.717 235.848 744.273C238.633 744.065 241.497 743.941 244.369 743.941C247.847 743.941 251.338 744.124 254.713 744.56C275.471 747.239 284.513 754.385 283.988 758.464C283.569 761.699 276.836 765.273 263.702 765.273C260.283 765.273 256.429 765.03 252.142 764.477C246.543 763.754 240.818 762.275 235.434 760.505C240.37 763.289 245.322 766.521 249.63 770.169C265.6 783.696 269.311 794.609 266.654 797.747C265.946 798.583 264.619 799.064 262.751 799.064C257.608 799.064 248.366 795.417 236.65 785.494C232.076 781.619 227.843 776.951 224.124 772.262C226.909 777.559 229.464 783.32 231.157 789.071C237.066 809.149 234.17 820.305 230.225 821.466C229.972 821.539 229.703 821.578 229.415 821.578C225.205 821.578 217.423 813.534 211.892 794.741C210.548 790.177 209.66 785.315 209.086 780.522C208.707 785.33 208.019 790.22 206.866 794.831C202.058 814.036 194.503 822.365 190.325 822.365C190.086 822.365 189.858 822.337 189.642 822.283C185.653 821.285 182.301 810.257 187.384 789.953C188.818 784.227 191.086 778.454 193.605 773.117C190.13 777.886 186.153 782.644 181.817 786.648C170.208 797.367 160.932 801.332 155.883 801.332C154.244 801.332 153.05 800.915 152.366 800.175C149.577 797.153 152.816 786.092 168.193 771.894C172.34 768.065 177.149 764.622 181.962 761.63C176.66 763.63 171.003 765.351 165.44 766.314C159.935 767.265 155.135 767.666 151.039 767.666C139.795 767.666 133.88 764.638 133.366 761.669C132.666 757.617 141.395 750.09 162.019 746.525C166.864 745.687 171.969 745.368 176.949 745.368C178.358 745.368 179.758 745.393 181.138 745.44C175.017 744.125 168.624 742.297 162.858 739.747C143.717 731.279 137.076 721.858 138.739 718.098C139.506 716.363 142.35 715.126 147.071 715.127C152.587 715.127 160.667 716.818 170.981 721.381C176.372 723.766 181.668 726.978 186.493 730.364C182.389 726.131 178.382 721.406 175.18 716.457C163.808 698.885 163.416 687.367 166.868 685.132C167.371 684.808 168.017 684.637 168.792 684.637C173.349 684.637 182.321 690.528 192.039 705.546C195.106 710.285 197.679 715.61 199.807 720.862C198.741 715.297 198.007 709.427 198.007 703.784C198.007 682.853 203.936 672.97 208.048 672.97Z" fill="white"/>
<path d="M227.021 672.997C224.241 672.997 219.967 676.69 216 684.815C217.261 689.62 218.097 695.92 218.097 703.777C218.097 708.45 217.596 713.277 216.817 717.959C218.536 713.465 220.573 708.98 222.976 704.893C226.193 699.42 229.362 695.117 232.321 691.812C233.306 680.176 230.684 673.825 227.702 673.078C227.488 673.023 227.26 672.997 227.021 672.997ZM227.021 675.663H227.052C228.014 675.973 230.466 680.278 229.73 690.717C226.654 694.257 223.641 698.517 220.764 703.393C220.741 696.483 220.089 690.343 218.828 685.123C222.476 677.999 225.896 675.663 227.021 675.663Z" fill="white"/>
<path d="M146.783 730.475C138.166 731.47 133.687 734.292 133.35 736.905C132.924 740.2 138.754 745.493 151.951 748.82C154.928 747.956 158.272 747.173 162.02 746.525C166.864 745.688 171.97 745.369 176.95 745.369C178.359 745.369 179.758 745.395 181.138 745.441C175.018 744.127 168.625 742.299 162.857 739.747C155.915 736.676 150.636 733.482 146.783 730.475ZM146.033 733.258C150.305 736.451 155.596 739.451 161.778 742.185C162.738 742.611 163.73 743.023 164.754 743.421C163.662 743.56 162.598 743.72 161.565 743.899C158.174 744.484 154.932 745.211 151.913 746.057C139.608 742.825 135.93 738.267 135.994 737.251C136.144 736.507 138.818 734.264 146.033 733.258Z" fill="white"/>
<path d="M154.583 696.303C152.721 696.303 151.397 696.781 150.69 697.616C148.589 700.097 150.497 707.446 159.266 717.095C162.774 718.085 166.674 719.469 170.988 721.377C176.379 723.761 181.673 726.974 186.498 730.36C182.396 726.127 178.389 721.402 175.185 716.453C171.176 710.257 168.555 704.833 166.963 700.284C161.719 697.472 157.494 696.303 154.583 696.303ZM154.583 698.969C156.102 698.969 159.395 699.397 164.807 702.165C166.635 707.086 169.371 712.374 172.947 717.902C173.397 718.598 173.869 719.298 174.361 720.003C173.589 719.629 172.824 719.273 172.067 718.938C168.185 717.221 164.379 715.813 160.738 714.745C152.707 705.71 152.149 700.126 152.722 699.342C152.815 699.245 153.359 698.969 154.583 698.969Z" fill="white"/>
<path d="M261.474 694.036C258.329 694.036 253.535 695.581 247.563 699.332C246.137 703.789 243.813 709.058 240.277 715.071C237.233 720.247 233.346 725.224 229.351 729.692C234.102 726.04 239.352 722.534 244.738 719.882C249.454 717.561 253.709 715.883 257.467 714.73C265.61 704.86 267.152 697.552 264.968 695.187C264.288 694.451 263.102 694.036 261.474 694.036ZM261.474 696.703C262.471 696.703 262.93 696.921 263.007 696.992C263.702 697.863 263.246 703.314 255.906 712.425C252.006 713.673 247.857 715.374 243.56 717.49C242.768 717.879 241.966 718.293 241.158 718.73C241.654 717.955 242.128 717.186 242.576 716.423C245.742 711.037 248.167 705.885 249.791 701.09C256.318 697.143 260.112 696.703 261.474 696.703Z" fill="white"/>
<path d="M269.514 727.808C265.771 731.02 260.554 734.495 253.614 737.909C248.041 740.653 241.832 742.721 235.854 744.277C238.639 744.07 241.503 743.946 244.375 743.946C247.853 743.946 251.342 744.128 254.718 744.564C258.706 745.078 262.254 745.761 265.393 746.552C278.798 742.657 284.548 737.019 283.976 733.703C283.514 731.032 278.658 728.33 269.514 727.808ZM270.406 730.541C278.83 731.201 281.228 733.679 281.347 734.153C281.458 735.201 277.866 740.015 265.33 743.789C262.133 743.016 258.682 742.387 255.06 741.919C254.073 741.792 253.058 741.683 252.018 741.593C252.973 741.173 253.897 740.743 254.793 740.303C260.992 737.251 266.238 733.971 270.406 730.541Z" fill="white"/>
<path d="M187.916 673.783C187.631 673.783 187.361 673.821 187.111 673.894C184.04 674.798 181.624 681.784 183.483 694.292C186.197 697.263 189.081 700.971 192.038 705.54C195.105 710.278 197.677 715.602 199.806 720.854C198.74 715.289 198.006 709.421 198.006 703.777C198.006 696.603 198.712 690.759 199.793 686.134C195.406 677.62 190.813 673.783 187.916 673.783ZM187.916 676.45C188.892 676.45 192.584 678.324 196.977 686.506C195.889 691.555 195.34 697.359 195.34 703.777C195.34 704.452 195.349 705.138 195.369 705.836C195.009 705.24 194.644 704.657 194.277 704.09C191.6 699.953 188.82 696.263 186.008 693.109C184.448 681.683 186.837 676.836 187.859 676.454C187.859 676.454 187.877 676.45 187.916 676.45Z" fill="white"/>
<path d="M235.435 760.501C240.37 763.283 245.322 766.517 249.629 770.165C252.974 772.998 255.753 775.707 258.075 778.263C262.975 779.646 267.068 780.222 270.288 780.222C274.992 780.222 277.832 778.994 278.596 777.264C279.656 774.868 277.324 770.171 270.554 764.889C268.483 765.127 266.175 765.262 263.629 765.262C260.23 765.262 256.405 765.022 252.141 764.473C246.544 763.75 240.817 762.271 235.435 760.501V760.501ZM249.762 766.823C250.45 766.933 251.13 767.03 251.799 767.117C255.971 767.655 259.951 767.929 263.629 767.929C265.762 767.929 267.812 767.837 269.743 767.654C275.31 772.215 276.411 775.483 276.16 776.182C276.015 776.455 274.516 777.555 270.288 777.555C267.259 777.555 263.55 776.982 259.523 775.896C257.098 773.281 254.353 770.671 251.353 768.13C250.837 767.694 250.308 767.258 249.762 766.823Z" fill="white"/>
<path d="M224.128 772.26C226.912 777.558 229.468 783.319 231.161 789.068C232.47 793.519 233.328 797.504 233.856 801.065C240.07 807.863 245.383 810.726 248.555 810.726C249.327 810.726 249.971 810.557 250.471 810.233C252.706 808.786 253.307 803.429 250.383 795.077C246.361 792.92 241.743 789.803 236.654 785.492C232.08 781.617 227.845 776.95 224.128 772.26V772.26ZM232.908 785.745C233.584 786.364 234.258 786.957 234.93 787.527C239.485 791.384 243.941 794.538 248.191 796.916C250.515 804.054 249.638 807.527 249.026 807.991C248.993 808.01 248.842 808.059 248.555 808.059C246.457 808.059 242.039 805.896 236.368 799.853C235.78 796.17 234.889 792.293 233.718 788.316C233.47 787.471 233.2 786.613 232.908 785.745Z" fill="white"/>
<path d="M193.609 773.114C190.133 777.883 186.157 782.642 181.821 786.646C177.434 790.698 173.395 793.755 169.776 796.027C166.924 804.944 167.735 810.549 170.099 811.94C170.563 812.212 171.142 812.354 171.819 812.354C174.74 812.354 179.511 809.711 185.028 803.547C185.361 799.613 186.104 795.08 187.388 789.951C188.821 784.225 191.09 778.453 193.609 773.114ZM185.463 786.85C185.224 787.679 185.003 788.498 184.801 789.304C183.641 793.938 182.853 798.342 182.453 802.413C177.16 808.136 173.3 809.688 171.819 809.688C171.595 809.688 171.474 809.652 171.454 809.643C171.034 809.352 169.524 806.136 172.034 797.75C175.82 795.291 179.716 792.219 183.629 788.606C184.24 788.042 184.852 787.456 185.463 786.85Z" fill="white"/>
<path d="M209.088 780.514C208.71 785.322 208.022 790.212 206.868 794.823C205.581 799.967 204.095 804.324 202.531 807.956C204.935 817.687 208.802 822.325 211.65 822.325C211.686 822.325 211.723 822.323 211.76 822.322C214.166 822.219 217.039 818.677 218.835 811.585C216.41 807.404 213.991 801.855 211.895 794.733C210.551 790.17 209.663 785.307 209.088 780.514ZM209.398 795.696C211.25 801.94 213.46 807.401 215.978 811.949C214.371 817.599 212.266 819.583 211.65 819.658C210.78 819.635 207.61 816.744 205.337 808.166C206.883 804.44 208.248 800.251 209.398 795.696Z" fill="white"/>
<path d="M181.969 761.634C176.667 763.633 171.009 765.355 165.448 766.317C159.97 767.265 155.206 767.658 151.133 767.658C149.978 767.658 148.879 767.626 147.835 767.566C141.45 773.046 139.378 777.756 140.524 780.083C141.298 781.655 143.83 782.731 147.935 782.731C151.041 782.731 155.047 782.115 159.875 780.634C162.131 777.899 164.864 774.978 168.201 771.897C172.348 768.069 177.157 764.626 181.969 761.634ZM167.925 768.563C167.399 769.022 166.888 769.479 166.392 769.938C163.408 772.693 160.703 775.506 158.34 778.31C154.414 779.459 150.83 780.064 147.935 780.064C144.321 780.064 143.055 779.147 142.918 778.908C142.638 778.23 143.566 774.983 148.786 770.281C149.554 770.31 150.339 770.325 151.133 770.325C155.639 770.325 160.608 769.859 165.902 768.945C166.568 768.83 167.243 768.703 167.925 768.563Z" fill="white"/>
<path d="M222.702 747.661C222.702 755.413 216.418 761.697 208.666 761.697C200.914 761.697 194.629 755.413 194.629 747.661C194.629 739.909 200.914 733.625 208.666 733.625C216.418 733.625 222.702 739.909 222.702 747.661Z" fill="white"/>
</g>
<defs>
<clipPath id="clip0_829_305">
<rect width="1866.7" height="1333.3" fill="white"/>
</clipPath>
</defs>
</svg>
