<svg width="166" height="80" viewBox="0 0 166 80" fill="none" xmlns="http://www.w3.org/2000/svg">
<path d="M55.3901 11.6373C63.7542 5.173 74.054 1.68668 84.6431 1.73568C102.56 1.73568 109.112 13.0887 131.044 13.0887C152.977 13.0887 165.261 1.73568 165.261 1.73568" stroke="#AAE3EC" stroke-width="1.47773" stroke-linecap="round" stroke-linejoin="round"/>
<path d="M165.261 12.5221C165.261 12.5221 152.987 23.8652 131.054 23.8652C109.122 23.8652 102.56 12.5221 84.643 12.5221C76.2357 12.5406 67.9769 14.7294 60.6733 18.8746" stroke="#AAE3EC" stroke-width="1.47773" stroke-linecap="round" stroke-linejoin="round"/>
<path d="M63.7993 28.0107C70.3087 24.9166 77.4295 23.3068 84.6429 23.2985C102.56 23.2985 109.112 34.6516 131.044 34.6516C152.977 34.6516 165.251 23.2985 165.251 23.2985" stroke="#AAE3EC" stroke-width="1.47773" stroke-linecap="round" stroke-linejoin="round"/>
<path d="M59.1752 42.3362L58.3163 44.3245C57.4374 46.4023 56.179 46.8596 53.9618 45.935C51.7446 45.0105 51.1953 43.7877 52.0642 41.7099L52.9331 39.7714L59.1752 42.3362ZM53.053 42.0976C52.4637 43.4894 52.8133 44.1555 54.4412 44.8415C56.0692 45.5274 56.7883 45.2988 57.3775 43.907L57.747 43.0421L53.4225 41.2327L53.053 42.0976Z" fill="#AAE3EC"/>
<path d="M54.2017 51.3531L53.3628 52.3472L46.5015 49.9713L47.3304 48.9771L48.8685 49.5438L50.7061 47.3766L49.9371 45.9649L50.7261 45.0304L54.2017 51.3531ZM49.9371 49.9414L52.8534 51.025L51.2854 48.3508L49.9371 49.9414Z" fill="#AAE3EC"/>
<path d="M49.7471 55.7671L48.7484 56.4928L44.6436 51.1245L45.6423 50.3987L49.7471 55.7671Z" fill="#AAE3EC"/>
<path d="M43.8148 52.3572L44.3142 53.3513C43.5106 53.2495 42.6946 53.3842 41.9672 53.739C41.1282 54.1367 40.8386 54.6138 41.1382 55.2302C41.328 55.6279 41.6176 55.767 42.5864 55.5483L43.3454 55.3694C44.5938 55.0811 45.253 55.4191 45.6825 56.3039C46.2717 57.5068 45.8023 58.5009 44.3142 59.2167C43.7184 59.5329 43.0518 59.6937 42.3766 59.6839L41.8873 58.6898C42.5509 58.7549 43.2194 58.6308 43.8148 58.3319C44.6138 57.9541 44.8934 57.4869 44.6238 56.9202C44.444 56.5524 44.1444 56.4033 43.2755 56.6021L42.5165 56.7811C41.2181 57.0893 40.519 56.7811 40.0696 55.7869C39.4603 54.5343 39.9697 53.5501 41.5077 52.8045C42.22 52.4447 43.019 52.2898 43.8148 52.3572Z" fill="#AAE3EC"/>
<path d="M37.3629 57.3577L40.4689 60.7875L39.0907 61.0559L36.9534 58.66L35.8448 61.6424L34.5664 61.891L36.1744 57.5665L35.645 54.8226L36.8335 54.594L37.3629 57.3577Z" fill="#AAE3EC"/>
<path d="M28.5937 61.7418L26.4365 61.2646C24.2292 60.7874 23.5401 59.6243 24.0595 57.2881C24.5788 54.9518 25.6674 54.1963 27.8846 54.6834L30.0419 55.1507L28.5937 61.7418ZM27.7148 55.6776C26.2367 55.3495 25.6375 55.8167 25.2579 57.5267C24.8784 59.2366 25.2579 59.9126 26.7161 60.2307L27.6449 60.4295L28.6437 55.8764L27.7148 55.6776Z" fill="#AAE3EC"/>
<path d="M20.2247 59.3062L15.9102 56.8507L16.4295 55.946L19.6954 57.8051L20.5643 56.284L17.7978 54.6835L18.3171 53.7788L21.0936 55.3595L21.9725 53.7689L18.6467 51.88L19.166 50.9753L23.5405 53.4607L20.2247 59.3062Z" fill="#AAE3EC"/>
<path d="M13.3332 54.8027L11.4156 52.8145C10.307 51.6414 10.2271 50.7665 11.106 49.9514C11.3057 49.7136 11.582 49.5521 11.8878 49.4941C12.1937 49.4361 12.5103 49.4853 12.7838 49.6332C12.5876 49.3132 12.5188 48.9318 12.5909 48.5638C12.663 48.1959 12.8707 47.8681 13.1734 47.645C14.1721 46.7602 15.051 46.8795 16.1696 48.0526L18.2669 50.2695L13.3332 54.8027ZM13.6028 50.9952C12.9436 50.2993 12.5242 50.2098 12.0448 50.6572C11.5654 51.1046 11.6353 51.5022 12.2545 52.1484L13.2533 53.2221L14.5516 52.0092L13.6028 50.9952ZM15.5104 48.7783C14.8912 48.1221 14.5117 48.0227 13.9723 48.4999C13.433 48.9771 13.5229 49.4145 14.2021 50.1303L15.3106 51.3034L16.6789 50.0209L15.5104 48.7783Z" fill="#AAE3EC"/>
<path d="M8.3295 46.7303L9.26831 48.5496L8.3295 49.0367L5.89258 44.2947L6.83139 43.8076L7.78019 45.6269L12.8638 43.0123L13.4131 44.076L8.3295 46.7303Z" fill="#AAE3EC"/>
<path d="M5.49316 24.3424L6.412 22.3541C7.3608 20.2962 8.63918 19.8886 10.8264 20.8828C13.0136 21.8769 13.523 23.1196 12.5742 25.1675L11.6554 27.1558L5.49316 24.3424ZM11.5954 24.7798C12.2246 23.4079 11.9051 22.7319 10.3071 21.9962C8.7091 21.2605 7.99001 21.4594 7.34083 22.871L6.99127 23.6862L11.2459 25.6745L11.5954 24.7798Z" fill="#AAE3EC"/>
<path d="M10.7666 15.4946L11.6455 14.5004L18.4169 17.1051L17.558 18.0992L16.0399 17.4828L14.1323 19.5904L14.9114 21.0319L14.0924 21.9366L10.7666 15.4946ZM14.9813 17.0554L12.1249 15.9121L13.603 18.636L14.9813 17.0554Z" fill="#AAE3EC"/>
<path d="M15.3706 11.2297L16.3693 10.5338L20.2944 16.0413L19.2956 16.7372L15.3706 11.2297Z" fill="#AAE3EC"/>
<path d="M21.1832 14.8285L20.7138 13.7747C21.5128 13.9039 22.3324 13.7967 23.0708 13.4665C23.9197 13.0987 24.2293 12.6314 23.9497 12.0051C23.7699 11.6075 23.4803 11.4484 22.5115 11.6373L21.7525 11.7864C20.504 12.035 19.8449 11.6671 19.4454 10.7923C18.8961 9.56951 19.4454 8.58531 20.9035 7.92918C21.5227 7.62362 22.211 7.48318 22.901 7.52158L23.3604 8.51572C22.7002 8.42823 22.0286 8.52817 21.4229 8.80402C20.6139 9.16191 20.3143 9.61921 20.564 10.1859C20.7338 10.5636 21.0234 10.7227 21.9023 10.5537L22.6613 10.4046C23.9697 10.1362 24.6588 10.5239 25.0783 11.4584C25.6475 12.7309 25.0783 13.6952 23.5402 14.3811C22.8136 14.7512 21.9957 14.9064 21.1832 14.8285Z" fill="#AAE3EC"/>
<path d="M27.7848 10.0367L24.7886 6.50756L26.1768 6.28885L28.2342 8.7742L29.4327 5.79178L30.7211 5.59296L28.9633 9.8578L29.4027 12.6215L28.2142 12.8104L27.7848 10.0367Z" fill="#AAE3EC"/>
<path d="M36.6938 5.9707L38.8411 6.50754C41.0383 7.06425 41.6775 8.23734 41.0882 10.5537C40.499 12.87 39.3704 13.5957 37.1732 13.049L35.0259 12.5022L36.6938 5.9707ZM37.3729 12.025C38.8411 12.3928 39.4603 11.9554 39.8897 10.2554C40.3192 8.55546 39.9497 7.85956 38.5314 7.48179L37.6126 7.25314L36.4541 11.7765L37.3729 12.025Z" fill="#AAE3EC"/>
<path d="M44.9432 8.65491L49.1778 11.2496L48.6285 12.1344L45.4225 10.1461L44.5037 11.6373L47.2303 13.3075L46.681 14.1923L43.9444 12.5519L42.9457 14.1425L46.2016 16.1308L45.6523 17.0156L41.3677 14.3911L44.9432 8.65491Z" fill="#AAE3EC"/>
<path d="M51.7245 13.387L53.5721 15.4846C54.6408 16.6875 54.6907 17.5723 53.7918 18.3576C53.585 18.5896 53.3038 18.7432 52.9961 18.7921C52.6884 18.841 52.3731 18.7824 52.104 18.6261C52.2932 18.9541 52.3509 19.3412 52.2657 19.7098C52.1806 20.0785 51.9587 20.4015 51.6446 20.6143C50.6458 21.4693 49.737 21.3202 48.6484 20.1073L46.6509 17.8208L51.7245 13.387ZM49.3375 19.3518C49.9367 20.0278 50.3362 20.1372 50.8655 19.6799C51.3949 19.2225 51.3449 18.7851 50.6958 18.0395L49.6271 16.8267L48.2089 18.0693L49.3375 19.3518ZM51.335 17.1945C51.9741 17.9202 52.3337 18.0196 52.883 17.5822C53.4323 17.1448 53.3125 16.7571 52.7232 16.0811L51.7245 14.9776L50.3862 16.1507L51.335 17.1945Z" fill="#AAE3EC"/>
<path d="M56.4686 21.6582L55.5898 19.8091L56.5885 19.3618L58.8756 24.1436L57.8769 24.5909L56.988 22.7319L51.8245 25.1775L51.3052 24.0938L56.4686 21.6582Z" fill="#AAE3EC"/>
<path d="M32.1593 16.3395C35.6181 16.3395 38.9992 17.3605 41.875 19.2732C44.7509 21.186 46.9924 23.9046 48.316 27.0854C49.6396 30.2662 49.9859 33.7662 49.3112 37.1429C48.6364 40.5196 46.9708 43.6213 44.5251 46.0557C42.0794 48.4902 38.9633 50.1481 35.571 50.8198C32.1787 51.4914 28.6625 51.1467 25.467 49.8292C22.2715 48.5117 19.5403 46.2805 17.6187 43.4179C15.6971 40.5553 14.6714 37.1897 14.6714 33.7469C14.6767 29.1318 16.5209 24.7072 19.7993 21.4439C23.0778 18.1805 27.5229 16.3448 32.1593 16.3395ZM32.1593 15.6039C28.5539 15.6019 25.029 16.6643 22.0302 18.6567C19.0315 20.6491 16.6938 23.4819 15.3127 26.797C13.9316 30.112 13.5692 33.7603 14.2714 37.2803C14.9735 40.8004 16.7087 44.0341 19.2574 46.5724C21.8061 49.1107 25.0538 50.8397 28.5897 51.5405C32.1257 52.2414 35.791 51.8827 39.1222 50.5098C42.4533 49.1369 45.3005 46.8115 47.3038 43.8276C49.307 40.8438 50.3763 37.3357 50.3763 33.7469C50.3763 28.9368 48.4573 24.3235 45.0412 20.9214C41.6252 17.5192 36.9917 15.6065 32.1593 15.6039Z" fill="#AAE3EC"/>
<path d="M32.1593 3.20698C38.2275 3.20698 44.1594 4.99811 49.2049 8.35388C54.2504 11.7096 58.1829 16.4793 60.5051 22.0598C62.8272 27.6402 63.4348 33.7807 62.251 39.7049C61.0671 45.6291 58.145 51.0708 53.8542 55.3418C49.5634 59.6129 44.0965 62.5216 38.1449 63.6999C32.1934 64.8783 26.0244 64.2735 20.4181 61.9621C14.8119 59.6506 10.0201 55.7362 6.64886 50.7139C3.27756 45.6917 1.47814 39.7871 1.47814 33.7469C1.48871 25.6504 4.72458 17.8886 10.4761 12.1635C16.2277 6.43847 24.0254 3.2175 32.1593 3.20698ZM32.1593 1.73566C25.7988 1.73566 19.5811 3.61308 14.2926 7.13052C9.004 10.648 4.88206 15.6474 2.448 21.4967C0.0139342 27.346 -0.622928 33.7824 0.617947 39.9919C1.85882 46.2015 4.9217 51.9054 9.41926 56.3822C13.9168 60.8591 19.6471 63.9078 25.8854 65.143C32.1237 66.3782 38.5898 65.7442 44.4662 63.3214C50.3425 60.8985 55.3651 56.7956 58.8988 51.5313C62.4325 46.2671 64.3186 40.0781 64.3186 33.7469C64.3186 29.5431 63.4868 25.3805 61.8707 21.4967C60.2545 17.6129 57.8857 14.084 54.8994 11.1115C51.9131 8.13901 48.3679 5.78108 44.4662 4.17237C40.5644 2.56365 36.3826 1.73566 32.1593 1.73566Z" fill="#AAE3EC"/>
<path d="M64.3188 38.5486C70.689 35.6133 77.6236 34.0903 84.6431 34.0849C102.56 34.0849 109.112 45.438 131.044 45.438C152.977 45.438 165.251 34.0849 165.251 34.0849" stroke="#AAE3EC" stroke-width="1.47773" stroke-linecap="round" stroke-linejoin="round"/>
<path d="M55.3901 54.763C63.749 48.2844 74.0493 44.784 84.6431 44.8216C102.56 44.8216 109.112 56.1746 131.044 56.1746C152.977 56.1746 165.251 44.8216 165.251 44.8216" stroke="#AAE3EC" stroke-width="1.47773" stroke-linecap="round" stroke-linejoin="round"/>
<path d="M142.18 28.3586H58.5659C57.6062 28.3586 56.8281 29.1331 56.8281 30.0884V76.5345C56.8281 77.4899 57.6062 78.2643 58.5659 78.2643H142.18C143.14 78.2643 143.918 77.4899 143.918 76.5345V30.0884C143.918 29.1331 143.14 28.3586 142.18 28.3586Z" fill="white"/>
<path d="M142.18 29.0943C142.445 29.0943 142.699 29.199 142.886 29.3855C143.073 29.5719 143.179 29.8248 143.179 30.0884V76.5544C143.179 76.8181 143.073 77.0709 142.886 77.2574C142.699 77.4438 142.445 77.5486 142.18 77.5486H58.5657C58.3009 77.5486 58.0468 77.4438 57.8595 77.2574C57.6722 77.0709 57.567 76.8181 57.567 76.5544V30.0884C57.567 29.8248 57.6722 29.5719 57.8595 29.3855C58.0468 29.199 58.3009 29.0943 58.5657 29.0943H142.18ZM142.18 27.623H58.5657C57.9088 27.623 57.2788 27.8827 56.8143 28.3451C56.3498 28.8075 56.0889 29.4346 56.0889 30.0884V76.5544C56.0889 77.2083 56.3498 77.8354 56.8143 78.2978C57.2788 78.7601 57.9088 79.0199 58.5657 79.0199H142.18C142.837 79.0199 143.467 78.7601 143.931 78.2978C144.396 77.8354 144.657 77.2083 144.657 76.5544V30.0884C144.657 29.4346 144.396 28.8075 143.931 28.3451C143.467 27.8827 142.837 27.623 142.18 27.623Z" fill="#C8C6C5"/>
<path d="M138.654 33.8065H128.298V44.1157H138.654V33.8065Z" fill="#00C6E1"/>
<path d="M94.5902 49.5636H63.2998V57.4471H94.5902V49.5636Z" fill="#DCF3F7"/>
<path d="M103.809 61.2348H63.2998V69.1183H103.809V61.2348Z" fill="#DCF3F7"/>
<path d="M35.9543 27.9908H25.4775V24.9289H39.9492V27.5932L30.5212 44.404H26.5262L35.9543 27.9908Z" fill="#AAE3EC"/>
</svg>
