<svg width="91" height="84" viewBox="0 0 91 84" fill="none" xmlns="http://www.w3.org/2000/svg">
<path d="M87.9928 33.6159L45.4967 1.94244L2.02686 33.6159H87.9928Z" fill="#AAE3EC"/>
<path d="M87.4466 33.1897H2.55366C2.00491 33.1897 1.56006 33.6334 1.56006 34.1807V81.453C1.56006 82.0004 2.00491 82.4441 2.55366 82.4441H87.4466C87.9953 82.4441 88.4402 82.0004 88.4402 81.453V34.1807C88.4402 33.6334 87.9953 33.1897 87.4466 33.1897Z" fill="white"/>
<path d="M2.43433 33.3185L45.3776 58.2529L87.6551 33.3582L87.2378 33.051H2.80196L2.43433 33.3185Z" fill="#AAE3EC"/>
<path d="M45.3775 55.478L13.1353 36.6385V9.35535H78.4444V35.6276L45.3775 55.478Z" fill="white"/>
<path d="M35.1236 17.2836H20.3389V23.8046H35.1236V17.2836Z" fill="#00C6E1"/>
<path d="M35.1236 27.4714H20.3389V29.6418H35.1236V27.4714Z" fill="#00C6E1"/>
<path d="M45.3775 55.4781L20.3389 40.8504V35.043L71.3203 35.0529V39.899L45.3775 55.4781Z" fill="#DCF3F7"/>
<path d="M45.4968 1.98207L55.4328 9.395H78.4445V26.5002L87.7445 33.6159C87.9594 33.7911 88.1324 34.0119 88.251 34.2622C88.3696 34.5124 88.4308 34.7859 88.4301 35.0628V80.5611C88.4301 81.0579 88.2323 81.5343 87.8801 81.8856C87.5279 82.2368 87.0503 82.4342 86.5522 82.4342H3.44778C2.94973 82.4342 2.47208 82.2368 2.11991 81.8856C1.76773 81.5343 1.56988 81.0579 1.56988 80.5611V35.0628C1.5716 34.7843 1.63587 34.5098 1.75795 34.2594C1.88003 34.009 2.05683 33.7891 2.27534 33.6159L13.1453 25.529V9.35536H35.3224L45.4968 1.98207ZM45.4968 0L44.5628 0.683813L34.7759 7.79943H11.5754V24.7758L1.33142 32.3672C0.918324 32.6857 0.583634 33.0941 0.35289 33.5612C0.122146 34.0284 0.00144566 34.542 0 35.0628L0 80.5611C0 81.4732 0.363247 82.3479 1.00983 82.9928C1.65642 83.6377 2.53337 84 3.44778 84H86.5621C87.4766 84 88.3535 83.6377 89.0001 82.9928C89.6467 82.3479 90.0099 81.4732 90.0099 80.5611V35.0628C90.0084 34.5527 89.8925 34.0495 89.6708 33.5899C89.449 33.1304 89.1269 32.7261 88.7282 32.4068L80.0044 25.7669V7.79943H55.9693L46.4407 0.693723L45.5067 0H45.4968Z" fill="#C8C6C5"/>
</svg>
