<svg width="480" height="109" viewBox="0 0 480 109" fill="none" xmlns="http://www.w3.org/2000/svg">
<path d="M133.6 58.5C134.2 58.5 134.7 59 134.7 59.6V106.6C134.7 107.1 134.3 107.6 133.6 107.6H120.3C119.7 107.6 119.3 107.1 119.3 106.6V90.7H109.3V106.6C109.3 107.1 108.9 107.6 108.2 107.6H95C94.5 107.6 94 107.1 94 106.6V59.6C94 59 94.5 58.5 95 58.5H108.3C108.9 58.5 109.4 59 109.4 59.6V78.2H119.4V59.6C119.4 59 119.8 58.5 120.4 58.5H133.6Z" fill="#E93E51"/>
<path d="M174.9 103.6C175 104.1 174.9 104.4 174.4 104.7C170.6 107.2 165.2 108.7 159.7 108.7C147.1 108.7 138.7 100.5 138.7 88.2C138.7 75.8 146.9 67.6 159.3 67.6C171.1 67.6 178.1 75.2 178.1 88.1C178.1 89.2 178 90.2 177.8 91.3C177.7 91.9 177.4 92.2 176.7 92.2H153.9C153.9 92.2 153.9 96.7 159.9 96.7C163.5 96.7 167.6 95.8 170.8 94.4C171.3 94.2 171.7 94.5 171.9 95L174.9 103.6ZM163.9 84.6C163.9 81.5 162 79.4 159.1 79.4C155.9 79.4 153.8 81.5 153.8 84.6H163.9Z" fill="#E93E51"/>
<path d="M184.5 72.9C184.3 72.4 184.4 71.9 184.9 71.5C189 68.9 194.6 67.4 200.3 67.4C212.6 67.4 218.3 73.9 218.3 88V106.4C218.3 107 217.8 107.5 217.2 107.5H208.2C207.6 107.5 207.1 107 207.1 106.4L206.6 104.5C204.3 107 199.6 108.6 194.4 108.6C186.2 108.6 180.8 103.3 180.9 95.5C181 88.5 186.4 83.9 194.4 83.9C198.5 83.9 202.2 85.4 203.6 87.7V84.7C203.6 81.6 201.4 79.7 198.1 79.7C195.3 79.7 191.9 80.6 189.6 82C189.2 82.2 188.8 81.9 188.5 81.4L184.5 72.9ZM203.7 94.8C202.5 93.6 201.3 93 199.8 93C198 93 196.8 94 196.8 95.6C196.8 97.2 198 98.2 199.8 98.2C201.3 98.2 202.5 97.6 203.7 96.4V94.8Z" fill="#E93E51"/>
<path d="M237 56C237.6 56 238.1 56.5 238.1 57V106.5C238.1 107.1 237.6 107.6 237 107.6H224.5C223.9 107.6 223.4 107.1 223.4 106.5V57C223.4 56.5 223.9 56 224.5 56H237Z" fill="#E93E51"/>
<path d="M266.4 68.5C267 68.5 267.5 68.9 267.5 69.5L266.7 76.4C266.6 77 266.2 77.5 265.6 77.5H261V106.6C261 107.2 260.5 107.7 259.9 107.7H247.4C246.8 107.7 246.3 107.2 246.3 106.6V77.4H242.2C241.7 77.4 241.2 77 241.2 76.4V69.5C241.2 68.9 241.7 68.4 242.2 68.4H246.3V60.6C246.3 60.1 246.8 59.7 247.4 59.6L259.9 58.4C260.5 58.3 261 58.9 261 59.4V68.4H266.4V68.5Z" fill="#E93E51"/>
<path d="M284.3 56C284.9 56 285.4 56.5 285.4 57.1V71.5C287.3 69 290.7 67.5 294.6 67.5C303.1 67.5 308.2 72.3 308.2 80.6V106.6C308.2 107.2 307.7 107.7 307.1 107.7H294.6C294 107.7 293.5 107.2 293.6 106.6V84.2C293.6 81.4 292.3 79.7 290.1 79.7C286 79.7 285.4 83.7 285.4 83.7V106.5C285.4 107.1 284.9 107.6 284.3 107.6H271.8C271.2 107.6 270.7 107.1 270.7 106.5V57.1C270.7 56.5 271.2 56 271.8 56H284.3Z" fill="#E93E51"/>
<path d="M55.2 2.5C55.8 2.5 56.2 3 56.2 3.6V50.6C56.2 51.1 55.8 51.6 55.2 51.6H42C41.4 51.6 40.9 51.1 40.9 50.6V29.7L33.7 50.5C33.5 51.1 32.6 51.6 31.9 51.6H24.1C23.5 51.6 22.5 51.1 22.3 50.5L15.1 29.7V50.6C15.1 51.1 14.6 51.6 14 51.6H1C0.4 51.6 0 51.1 0 50.6V3.6C0 3 0.4 2.5 1 2.5H15.9C16.8 2.5 17.9 3.1 18.3 3.9L28.1 31.1L37.9 3.9C38.3 3.1 39.4 2.5 40.3 2.5H55.2Z" fill="#E93E51"/>
<path d="M96.3001 47.6C96.4001 48.1 96.3001 48.4 95.8001 48.7C92.0001 51.2 86.6001 52.7 81.1001 52.7C68.5001 52.7 60.1001 44.5 60.1001 32.2C60.1001 19.8 68.3001 11.6 80.7001 11.6C92.5001 11.6 99.5001 19.2 99.5001 32.1C99.5001 33.2 99.4001 34.2 99.2001 35.3C99.1001 35.9 98.8001 36.2 98.1001 36.2H75.4001C75.4001 36.2 75.4001 40.7 81.4001 40.7C85.0001 40.7 89.1001 39.8 92.3001 38.4C92.8001 38.2 93.2001 38.5 93.4001 39L96.3001 47.6ZM85.4001 28.6C85.4001 25.5 83.5001 23.4 80.6001 23.4C77.4001 23.4 75.3001 25.5 75.3001 28.6H85.4001Z" fill="#E93E51"/>
<path d="M114.5 15.4C116.8 12.9 121.6 11.4 125.9 11.4C135.6 11.4 140.8 15.9 140.8 27V50.5C140.8 51.1 140.3 51.6 139.7 51.6H127.2C126.6 51.6 126.1 51.1 126.2 50.5V29.2C126.2 26.4 124.9 24.7 122.7 24.7C118.6 24.7 118 28.7 118 28.7V50.5C118 51.1 117.5 51.6 116.9 51.6H104.4C103.8 51.6 103.3 51.1 103.3 50.5V13.5C103.3 12.9 103.7 12.5 104.3 12.5H112.3C112.8 12.5 113.2 12.7 113.4 13.2L114.5 15.4Z" fill="#E93E51"/>
<path d="M168.8 12.4C169.4 12.4 169.9 12.8 169.9 13.4L169.1 20.3C169 20.9 168.6 21.4 168 21.4H163.4V50.5C163.4 51.1 162.9 51.6 162.3 51.6H149.8C149.2 51.6 148.7 51.1 148.7 50.5V21.4H144.6C144.1 21.4 143.6 21 143.6 20.4V13.5C143.6 12.9 144.1 12.4 144.6 12.4H148.7V4.70001C148.7 4.20001 149.2 3.80001 149.8 3.70001L162.3 2.50001C162.9 2.40001 163.4 3.00001 163.4 3.50001V12.5H168.8V12.4Z" fill="#E93E51"/>
<path d="M173.6 16.9C173.4 16.4 173.5 15.9 174 15.5C178.1 12.9 183.7 11.4 189.4 11.4C201.7 11.4 207.4 17.9 207.4 32V50.4C207.4 51 206.9 51.5 206.3 51.5H197.3C196.7 51.5 196.2 51 196.2 50.4L195.7 48.5C193.4 51 188.7 52.6 183.5 52.6C175.3 52.6 169.9 47.3 170 39.5C170.1 32.5 175.5 27.9 183.5 27.9C187.6 27.9 191.3 29.4 192.7 31.7V28.7C192.7 25.6 190.5 23.7 187.2 23.7C184.4 23.7 181 24.6 178.7 26C178.3 26.2 177.9 25.9 177.6 25.4L173.6 16.9ZM192.7 38.8C191.5 37.6 190.3 37 188.8 37C187 37 185.8 38 185.8 39.6C185.8 41.2 187 42.2 188.8 42.2C190.3 42.2 191.5 41.6 192.7 40.4V38.8Z" fill="#E93E51"/>
<path d="M226 0C226.6 0 227.1 0.5 227.1 1V50.5C227.1 51.1 226.6 51.6 226 51.6H213.5C212.9 51.6 212.4 51.1 212.4 50.5V1C212.4 0.5 212.9 0 213.5 0H226Z" fill="#E93E51"/>
<path d="M415.5 106.2C415.6 106.6 415.3 107.1 414.7 107.1H400.6C400 107.1 399.4 106.7 399.3 106.2L398.3 98.7H384.9L381.6 106.2C381.2 106.8 380.6 107.1 380 107.1H365.9C365.3 107.1 365.1 106.6 365.4 106.2L388.9 59C389.2 58.6 390 58.1 390.8 58.1H405.3C406 58.1 406.7 58.6 406.9 59L415.5 106.2ZM395.4 75.1L389.4 88.6H397.1L395.4 75.1Z" fill="#1A4586"/>
<path d="M446.7 94.3C447.2 94.3 447.6 94.7 447.5 95.3L444.8 106.1C444.6 106.6 444.1 107.1 443.5 107.1H417.8C417.2 107.1 416.8 106.6 416.9 106.1L424.3 59.1C424.4 58.5 425 58 425.5 58H438.1C438.7 58 439.1 58.5 439 59.1L433.4 94.3H446.7Z" fill="#1A4586"/>
<path d="M478.6 94.3C479.1 94.3 479.5 94.7 479.4 95.3L476.7 106.1C476.5 106.6 476 107.1 475.4 107.1H449.7C449.1 107.1 448.7 106.6 448.8 106.1L456.2 59.1C456.3 58.5 456.9 58 457.4 58H470C470.6 58 471 58.5 470.9 59.1L465.3 94.3H478.6Z" fill="#1A4586"/>
<path d="M330.9 58.5C331.1 58.5 331.3 58.7 331.3 58.9V62.8C331.3 63 331.1 63.2 330.9 63.2H324.4V65.5H329.5C329.7 65.5 329.9 65.7 329.8 65.8L329.4 69.4C329.4 69.6 329.2 69.7 329 69.7H324.3V75.8C324.3 76 324.1 76.2 323.9 76.2H319.4C319.2 76.2 319 76 319 75.8V58.9C319 58.7 319.2 58.5 319.4 58.5H330.9Z" fill="#1A4586"/>
<path d="M341.2 76.5C335.7 76.5 332.1 72.8 332.1 67.3C332.1 61.7 335.7 58.1 341.2 58.1C346.7 58.1 350.3 61.8 350.3 67.3C350.3 72.8 346.7 76.5 341.2 76.5ZM341.2 63.2C339.1 63.2 337.7 64.8 337.7 67.3C337.7 69.7 339.1 71.4 341.2 71.4C343.3 71.4 344.7 69.8 344.7 67.3C344.7 64.9 343.3 63.2 341.2 63.2Z" fill="#1A4586"/>
<path d="M366.5 75.7C366.6 75.9 366.4 76.1 366.2 76.1H360.7C360.4 76.1 360.2 75.9 360.1 75.7L357.4 70.1H357.1V75.7C357.1 75.9 356.9 76.1 356.7 76.1H352.2C352 76.1 351.8 75.9 351.8 75.7V58.8C351.8 58.6 352 58.4 352.2 58.4H359C362.9 58.4 365.6 60.7 365.6 64.2C365.6 66.2 364.4 68.3 362.5 69.1L366.5 75.7ZM358.7 65.8C359.6 65.8 360.2 65.3 360.2 64.4C360.2 63.5 359.6 63 358.7 63H357.2V65.7H358.7V65.8Z" fill="#1A4586"/>
</svg>
