<svg width="1200" height="170" viewBox="0 0 1200 170" fill="none" xmlns="http://www.w3.org/2000/svg">
<path d="M1.9233e-06 6.71529L9.858 39.697L20.0571 25.018L29.9151 40.4217L40.1014 25.8335L50.2877 14.1451L59.4883 18.9479L69.6746 34.2609L79.518 2.99998L89.7043 22.3911L99.5623 13.2389L109.748 26.7396L119.934 26.287L129.792 30.1828L139.992 3.09069L149.849 28.3714L160.035 27.9179L170.222 29.4581L179.422 19.582L189.595 31.7239L199.452 25.9242L209.638 29.2767L219.496 35.9825L229.683 33.7167L239.869 33.2641L249.726 27.1931L259.912 29.5488L269.784 42.4154L279.97 57.5471L290.156 58.0006L299.685 67.4232L309.858 58.5439L319.715 81.4681L329.901 65.3396L339.759 93.8813L349.945 83.6423L360.131 109.285L369.989 95.0595L380.175 145.348L390.046 111.641L400.233 126.138L410.419 135.834L419.619 163.651L429.792 147.976L439.649 160.117L449.835 168L459.693 153.684L469.88 160.298L480.066 150.15L489.923 159.211L500.109 139.277L509.981 152.596L520.167 144.985L530.353 156.312L539.553 119.071L549.726 128.313L559.584 102.852L569.77 129.491L579.627 125.232L589.814 143.988L600 136.649L609.858 131.666L620.043 126.229L629.915 119.887L640.101 144.894L650.288 133.025L659.488 112.094L669.661 116.353L679.518 124.87L689.704 109.285L699.562 119.887L709.748 118.708L719.934 106.657L729.792 116.534L739.978 114.903L749.849 113.182L760.035 109.376L770.222 95.3316L779.751 93.4286L789.923 108.56L799.781 96.3276L809.967 105.571L819.825 110.373L830.011 94.5162L840.197 116.262L850.055 107.02L860.241 98.412L870.112 103.486L880.299 98.9554L890.485 84.1866L899.685 110.01L909.858 91.7977L919.715 85.9989L929.901 99.0461L939.759 91.5256L949.945 77.5722L960.131 77.2094L969.989 94.6967L980.175 80.3805L990.046 86.8143L1000.23 81.8309L1010.42 72.9508L1019.62 68.7828L1029.79 64.6149L1039.65 63.2552L1049.84 61.8964L1059.69 45.3153L1069.88 64.4335L1080.07 40.0598L1089.92 35.9825L1100.11 43.2309L1109.98 23.9313L1120.17 46.1308L1130.35 44.5897L1139.55 37.6134L1149.73 42.5062L1159.58 40.1505L1169.77 29.0961L1179.63 39.697L1189.81 38.2475L1200 41.1465" stroke="#C46D71" stroke-width="2"/>
</svg>
