<svg width="1200" height="152" viewBox="0 0 1200 152" fill="none" xmlns="http://www.w3.org/2000/svg">
<path d="M1.58541e-06 17.0506L9.858 45.3265L20.0571 52.8484L29.9151 46.867L40.1014 49.1323L50.2877 34.9041L59.4883 38.8007L69.6746 46.4134L79.518 3.99998L89.7043 31.551L99.5623 32.4573L109.748 46.7762L119.934 43.0602L129.792 35.0856L139.992 17.1413L149.849 30.0105L160.035 41.9733L170.222 29.7383L179.422 32.4573L189.595 33.6349L199.452 39.0729L209.638 39.5265L219.496 34.27L229.683 36.8982L239.869 41.7012L249.726 36.6261L259.912 33.5451L269.784 43.9665L279.97 49.1323L290.156 42.6982L299.685 59.1918L309.858 36.4446L319.715 67.258L329.901 50.7636L339.759 73.058L349.945 59.7361L360.131 68.7078L369.989 51.6699L380.175 74.8707L390.046 57.2893L400.233 54.9323L410.419 69.2521L419.619 82.8462L429.792 73.3302L439.649 123.628L449.835 121.181L459.693 113.84L469.88 132.781L480.066 128.431L489.923 137.675L500.109 142.297L509.981 136.95L520.167 147.1L530.353 145.741L539.553 133.688L549.726 147.282L559.584 146.466L569.77 117.012L579.627 111.121L589.814 136.044L600 133.053L609.858 148.55L620.043 138.4L629.915 127.797L640.101 150L650.288 146.556L659.488 131.603L669.661 141.662L679.518 132.962L689.704 124.897L699.562 129.338L709.748 128.068L719.934 124.172L729.792 127.797L739.978 127.253L749.849 133.597L760.035 137.675L770.222 117.193L779.751 113.931L789.923 111.755L799.781 104.778L809.967 108.856L819.825 124.081L830.011 103.236L840.197 129.156L850.055 120.456L860.241 113.84L870.112 129.519L880.299 107.859L890.485 114.474L899.685 115.834L909.858 102.602L919.715 103.69L929.901 111.755L939.759 107.315L949.945 96.6208L960.131 90.5487L969.989 110.396L980.175 106.228L990.046 97.1651L1000.23 91.1837L1010.42 90.0052L1019.62 87.015L1029.79 86.7428L1039.65 84.8394L1049.84 86.6521L1059.69 69.6142L1069.88 82.4833L1080.07 58.9205L1089.92 51.9421L1100.11 77.1361L1109.98 52.3948L1120.17 58.4669L1130.35 62.183L1139.55 37.5324L1149.73 52.9391L1159.58 61.6387L1169.77 51.9421L1179.63 61.9108L1189.81 53.7547L1200 58.0142" stroke="#EAC25D" stroke-width="2"/>
</svg>
