<svg width="1200" height="326" viewBox="0 0 1200 326" fill="none" xmlns="http://www.w3.org/2000/svg">
<path d="M2.25469e-06 134.925L9.858 134.653L20.0571 124.568L29.9151 132.926L40.1014 130.291L50.2877 127.566L59.4883 106.76L69.6746 110.576L79.518 116.3L89.7043 125.476L99.5623 148.19L109.748 118.208L119.934 110.303L129.792 114.301L139.992 99.0366L149.849 105.397L160.035 101.944L170.222 111.848L179.422 95.8568L189.595 107.032L199.452 107.304L209.638 97.4922L219.496 116.482L229.683 109.395L239.869 111.848L249.726 130.291L259.912 130.291L269.784 126.203L279.97 135.289L290.156 152.007L299.685 154.46L309.858 169.179L319.715 155.55L329.901 185.533L339.759 177.174L349.945 193.347L360.131 227.327L369.989 221.603L380.175 241.047L390.046 241.955L400.233 267.941L410.419 265.124L419.619 292.472L429.792 312.643L439.649 299.741L449.835 302.013L459.693 324L469.88 310.553L480.066 297.833L489.923 303.102L500.109 299.196L509.981 292.745L520.167 273.12L530.353 286.294L539.553 278.026L549.726 237.594L559.584 255.493L569.77 271.121L579.627 252.858L589.814 258.31L600 266.215L609.858 244.045L620.043 239.866L629.915 254.675L640.101 253.949L650.288 240.502L659.488 234.414L669.661 237.413L679.518 243.5L689.704 228.781L699.562 208.52L709.748 233.869L719.934 195.8L729.792 208.066L739.978 226.873L749.849 198.525L760.035 187.078L770.222 199.434L779.751 170.36L789.923 189.44L799.781 183.171L809.967 175.085L819.825 193.075L830.011 188.531L840.197 190.621L850.055 180.173L860.241 179.082L870.112 188.259L880.299 176.447L890.485 153.46L899.685 165.453L909.858 170.088L919.715 171.087L929.901 167.907L939.759 171.087L949.945 165.272L960.131 159.639L969.989 148.645L980.175 148.918L990.046 157.64L1000.23 164.091L1010.42 141.013L1019.62 136.47L1029.79 117.662L1039.65 100.309L1049.84 91.0417L1059.69 89.5874L1069.88 71.5065L1080.07 93.9486L1089.92 78.4118L1100.11 75.0501L1109.98 75.8678L1120.17 67.8729L1130.35 51.6093L1139.55 54.7891L1149.73 34.3461L1159.58 32.2569L1169.77 35.3457L1179.63 4.00001L1189.81 30.4396L1200 16.9019" stroke="#7DB393" stroke-width="2"/>
</svg>
