<svg width="506" height="45" viewBox="0 0 506 45" fill="none" xmlns="http://www.w3.org/2000/svg">
<path d="M410.419 2.14771L410.252 43.9458H398.616L382.658 24.7814L382.492 43.7806H368.695L368.861 1.9825H380.497L396.455 21.1468L396.622 2.14771H410.419Z" fill="#68B7F4"/>
<path d="M446.49 29.0769V44.2762H432.361V28.9117L416.569 2.31293H431.53L440.007 16.8514L448.817 2.47814H462.614L446.49 29.0769Z" fill="#68B7F4"/>
<path d="M474.583 42.4589C471.092 40.6416 468.266 37.9982 466.271 34.694C464.277 31.3898 463.279 27.59 463.279 23.2946C463.279 18.9991 464.277 15.3645 466.438 11.8951C468.432 8.5909 471.258 5.94754 474.915 4.13024C478.572 2.31293 482.562 1.32167 486.884 1.32167C491.039 1.32167 494.696 2.14772 497.855 3.4694C501.013 4.95628 503.673 6.9388 505.834 9.74737L496.857 17.6774C494.198 14.3732 491.206 12.7211 487.715 12.7211C484.723 12.7211 482.396 13.7124 480.567 15.5297C478.739 17.347 477.907 19.9904 477.907 23.1294C477.907 26.2683 478.739 28.9117 480.567 30.729C482.396 32.7115 484.723 33.5376 487.715 33.5376C491.206 33.5376 494.364 31.8855 497.024 28.7465L506 36.6766C503.839 39.3199 501.179 41.4676 498.021 42.7893C494.863 44.2762 491.206 44.937 487.05 44.937C482.063 45.2675 478.074 44.2762 474.583 42.4589Z" fill="#68B7F4"/>
<path d="M67.3226 0.660849L53.3594 42.4589H42.887L33.7444 13.8776L24.1031 42.1285H13.6307L0 0.330429H10.1399L19.4487 29.7378L29.5887 0.330429H38.565L48.0401 30.0682L58.0138 0.495639L67.3226 0.660849Z" fill="white"/>
<path d="M84.4442 40.4764C80.9534 38.6591 78.1275 36.0157 76.299 32.7115C74.3042 29.4073 73.3068 25.7727 73.3068 21.6425C73.3068 17.5122 74.3042 13.8776 76.299 10.5734C78.2937 7.26923 81.1196 4.79108 84.6104 2.80857C88.1012 0.826049 92.0907 0 96.4126 0C100.735 0 104.724 0.991258 108.215 2.80857C111.706 4.62587 114.365 7.26923 116.36 10.5734C118.355 13.8776 119.352 17.5122 119.352 21.6425C119.352 25.7727 118.355 29.4073 116.36 32.7115C114.365 36.0157 111.539 38.4939 108.049 40.4764C104.558 42.2937 100.568 43.2849 96.2464 43.2849C91.7582 43.2849 87.935 42.2937 84.4442 40.4764ZM103.062 33.3724C105.057 32.2159 106.719 30.729 107.882 28.5813C109.046 26.5988 109.545 24.2858 109.711 21.6425C109.877 18.9991 109.212 16.6862 108.049 14.7037C106.885 12.7211 105.389 11.0691 103.394 9.91258C101.399 8.75611 99.0723 8.26049 96.5788 8.09528C94.0854 8.09528 91.9244 8.59091 89.7635 9.74737C87.7687 10.9038 86.1064 12.3907 84.9428 14.5385C83.7792 16.521 83.2806 18.8339 83.1143 21.4773C83.1143 24.1206 83.613 26.4336 84.7766 28.4161C85.9402 30.3986 87.4363 32.0507 89.431 33.2072C91.4258 34.3636 93.753 34.8592 96.0802 34.8592C98.7398 35.0245 100.901 34.5288 103.062 33.3724Z" fill="white"/>
<path d="M157.086 42.7893L148.941 31.0594H148.442H139.965V42.7893H130.157L130.323 0.991257H148.608C152.265 0.991257 155.59 1.6521 158.25 2.80856C160.909 4.13024 163.07 5.78234 164.566 8.09527C166.062 10.4082 166.727 13.0516 166.727 16.1905C166.727 19.3295 165.896 21.9729 164.4 24.2858C162.904 26.5988 160.743 28.2509 157.917 29.4073L167.226 42.9545L157.086 42.7893ZM154.759 10.7386C153.263 9.41695 150.936 8.75611 148.11 8.75611H140.131V23.2946H148.11C151.102 23.2946 153.263 22.6337 154.759 21.4773C156.255 20.1556 157.086 18.3383 157.086 16.0253C156.92 13.8776 156.255 12.0603 154.759 10.7386Z" fill="white"/>
<path d="M195.485 26.5988L189.833 32.3811V42.9545H180.192L180.358 1.15648H189.999L189.833 20.6512L208.617 1.15648H219.422L201.802 19.8252L220.253 43.1197H208.949L195.485 26.5988Z" fill="white"/>
<path d="M231.723 1.32167H241.53L241.364 43.1197H231.556L231.723 1.32167Z" fill="white"/>
<path d="M295.555 1.6521L295.388 43.4502H287.409L266.464 18.0079L266.298 43.4502H256.657L256.823 1.6521H264.968L285.747 27.0944L286.079 1.6521H295.555Z" fill="white"/>
<path d="M338.608 22.1381H347.584V39.1547C345.257 40.8068 342.597 42.1285 339.605 43.1197C336.613 44.111 333.621 44.4414 330.463 44.4414C326.141 44.4414 322.151 43.4502 318.66 41.6329C315.17 39.8156 312.51 37.1722 310.515 33.868C308.52 30.5638 307.523 26.9292 307.523 22.6337C307.523 18.3383 308.52 14.7037 310.515 11.5647C312.51 8.2605 315.336 5.78235 318.827 3.96504C322.317 2.14774 326.307 1.15648 330.795 1.15648C334.452 1.15648 337.777 1.81732 340.769 2.97379C343.761 4.29546 346.254 5.94756 348.249 8.42571L341.932 14.208C338.94 11.0691 335.283 9.41697 331.127 9.41697C328.468 9.41697 325.974 9.91259 323.98 11.0691C321.819 12.2255 320.323 13.7124 319.159 15.6949C317.995 17.6775 317.33 19.9904 317.33 22.6337C317.33 25.2771 317.829 27.59 318.993 29.5725C320.156 31.5551 321.819 33.2072 323.813 34.3636C325.808 35.5201 328.302 36.0157 330.795 36.1809C333.621 36.1809 336.114 35.6853 338.442 34.3636L338.608 22.1381Z" fill="white"/>
</svg>
