<svg width="505" height="84" viewBox="0 0 505 84" fill="none" xmlns="http://www.w3.org/2000/svg">
<path d="M63.0898 64.4C63.0898 65.8 61.9632 67.2 60.2733 67.2H24.222C22.8137 67.2 21.4055 66.08 21.4055 64.4V40.04C21.4055 38.64 22.5321 37.24 24.222 37.24H55.7669V30.24C55.7669 23.52 52.3871 20.44 44.7825 20.44C29.2917 20.44 29.2917 25.2 29.2917 28.28V31.08C29.2917 31.92 28.7284 32.76 27.3201 32.2L22.8137 30.52C21.9688 30.24 21.9688 29.68 21.9688 28.56V28C21.9688 12.88 38.5862 12.88 44.7825 12.88C56.3302 12.88 63.0898 19.04 63.0898 29.96V64.4ZM42.2476 0C18.8706 0 0 18.76 0 42C0 65.24 18.8706 84 42.2476 84C65.6246 84 84.4953 65.24 84.4953 42C84.4953 18.76 65.6246 0 42.2476 0ZM54.3586 44.8H30.1366C29.2917 44.8 28.7284 45.36 28.7284 46.2V58.52C28.7284 59.36 29.2917 59.92 30.1366 59.92H54.3586C55.2036 59.92 55.7669 59.36 55.7669 58.52V46.2C55.7669 45.36 55.2036 44.8 54.3586 44.8Z" fill="#FBB720"/>
<path d="M130.968 44.24L125.053 30.24L119.138 44.24H130.968ZM120.828 18.76H129.559L148.148 62.44H138.009L134.066 52.64H115.758L111.815 62.44H101.958L120.828 18.76Z" fill="#112E51"/>
<path d="M148.148 40.6C148.148 28.28 157.443 18.2 170.962 18.2C179.13 18.2 184.2 21 188.143 24.92L181.946 31.92C178.567 28.84 175.187 27.16 170.68 27.16C163.357 27.16 158.006 33.32 158.006 40.6C158.006 48.16 163.076 54.32 170.68 54.32C175.75 54.32 178.567 52.36 182.228 49.28L188.424 55.44C183.918 60.2 178.848 63.28 170.68 63.28C157.724 63 148.148 53.2 148.148 40.6Z" fill="#112E51"/>
<path d="M192.368 40.6C192.368 28.28 201.662 18.2 215.181 18.2C223.349 18.2 228.419 21 232.362 24.92L226.166 31.92C222.786 28.84 219.406 27.16 214.9 27.16C207.577 27.16 202.225 33.32 202.225 40.6C202.225 48.16 207.295 54.32 214.9 54.32C219.969 54.32 222.786 52.36 226.447 49.28L232.644 55.44C228.137 60.2 223.067 63.28 214.9 63.28C201.944 63 192.368 53.2 192.368 40.6Z" fill="#112E51"/>
<path d="M240.248 19.04H272.92V27.44H249.824V36.12H270.103V44.52H249.824V53.76H273.483V62.16H240.248V19.04Z" fill="#112E51"/>
<path d="M280.243 56L285.876 49.28C289.819 52.36 293.762 54.6 298.832 54.6C302.775 54.6 305.028 52.92 305.028 50.4C305.028 47.88 303.62 46.76 296.297 44.8C287.566 42.56 281.933 40.04 281.933 31.64C281.933 23.8 288.41 18.48 297.142 18.48C303.62 18.48 308.971 20.44 313.196 24.08L308.126 31.36C304.183 28.84 300.521 27.16 296.86 27.16C293.199 27.16 291.227 28.84 291.227 30.8C291.227 33.6 293.199 34.44 300.521 36.4C309.253 38.64 314.322 41.72 314.322 49.28C314.322 57.96 307.844 62.72 298.268 62.72C292.072 62.72 285.312 60.48 280.243 56Z" fill="#112E51"/>
<path d="M320.519 56L326.152 49.28C330.095 52.36 334.038 54.6 339.108 54.6C343.051 54.6 345.304 52.92 345.304 50.4C345.304 47.88 343.896 46.76 336.573 44.8C327.842 42.56 322.209 40.04 322.209 31.64C322.209 23.8 328.687 18.48 337.418 18.48C343.896 18.48 349.247 20.44 353.472 24.08L348.402 31.36C344.459 28.84 340.798 27.16 337.136 27.16C333.475 27.16 331.503 28.84 331.503 30.8C331.503 33.6 333.475 34.44 340.798 36.4C349.529 38.64 354.598 41.72 354.598 49.28C354.598 57.96 348.12 62.72 338.544 62.72C332.348 62.72 325.87 60.48 320.519 56Z" fill="#112E51"/>
<path d="M378.539 19.04H387.552L407.83 45.64V19.04H417.407V62.16H409.239L388.115 34.72V62.16H378.539V19.04Z" fill="#112E51"/>
<path d="M439.094 45.08L422.195 19.04H433.461L443.882 36.4L454.585 19.04H465.287L448.67 45.08V62.16H439.094V45.08Z" fill="#112E51"/>
<path d="M464.724 40.6C464.724 28.28 474.018 18.2 487.538 18.2C495.706 18.2 500.775 21 504.718 24.92L498.522 31.92C495.142 28.84 491.762 27.16 487.256 27.16C479.933 27.16 474.582 33.32 474.582 40.6C474.582 48.16 479.651 54.32 487.256 54.32C492.326 54.32 495.142 52.36 498.804 49.28L505 55.44C500.494 60.2 495.424 63.28 487.256 63.28C474.3 63 464.724 53.2 464.724 40.6Z" fill="#112E51"/>
<path d="M63.0898 64.4C63.0898 65.8 61.9632 67.2 60.2733 67.2H24.222C22.8137 67.2 21.4055 66.08 21.4055 64.4V40.04C21.4055 38.64 22.5321 37.24 24.222 37.24H55.7669V30.24C55.7669 23.52 52.3871 20.44 44.7825 20.44C29.2917 20.44 29.2917 25.2 29.2917 28.28V31.08C29.2917 31.92 28.7284 32.76 27.3201 32.2L22.8137 30.52C21.9688 30.24 21.9688 29.68 21.9688 28.56V28C21.9688 12.88 38.5862 12.88 44.7825 12.88C56.3302 12.88 63.0898 19.04 63.0898 29.96V64.4ZM42.2476 0C18.8706 0 0 18.76 0 42C0 65.24 18.8706 84 42.2476 84C65.6246 84 84.4953 65.24 84.4953 42C84.4953 18.76 65.6246 0 42.2476 0ZM54.3586 44.8H30.1366C29.2917 44.8 28.7284 45.36 28.7284 46.2V58.52C28.7284 59.36 29.2917 59.92 30.1366 59.92H54.3586C55.2036 59.92 55.7669 59.36 55.7669 58.52V46.2C55.7669 45.36 55.2036 44.8 54.3586 44.8Z" fill="#FBB720"/>
<path d="M130.968 44.24L125.053 30.24L119.138 44.24H130.968ZM120.828 18.76H129.559L148.148 62.44H138.009L134.066 52.64H115.758L111.815 62.44H101.958L120.828 18.76Z" fill="#112E51"/>
<path d="M148.148 40.6C148.148 28.28 157.443 18.2 170.962 18.2C179.13 18.2 184.2 21 188.143 24.92L181.946 31.92C178.567 28.84 175.187 27.16 170.68 27.16C163.357 27.16 158.006 33.32 158.006 40.6C158.006 48.16 163.076 54.32 170.68 54.32C175.75 54.32 178.567 52.36 182.228 49.28L188.424 55.44C183.918 60.2 178.848 63.28 170.68 63.28C157.724 63 148.148 53.2 148.148 40.6Z" fill="#112E51"/>
<path d="M192.368 40.6C192.368 28.28 201.662 18.2 215.181 18.2C223.349 18.2 228.419 21 232.362 24.92L226.166 31.92C222.786 28.84 219.406 27.16 214.9 27.16C207.577 27.16 202.225 33.32 202.225 40.6C202.225 48.16 207.295 54.32 214.9 54.32C219.969 54.32 222.786 52.36 226.447 49.28L232.644 55.44C228.137 60.2 223.067 63.28 214.9 63.28C201.944 63 192.368 53.2 192.368 40.6Z" fill="#112E51"/>
<path d="M240.248 19.04H272.92V27.44H249.824V36.12H270.103V44.52H249.824V53.76H273.483V62.16H240.248V19.04Z" fill="#112E51"/>
<path d="M280.243 56L285.876 49.28C289.819 52.36 293.762 54.6 298.832 54.6C302.775 54.6 305.028 52.92 305.028 50.4C305.028 47.88 303.62 46.76 296.297 44.8C287.566 42.56 281.933 40.04 281.933 31.64C281.933 23.8 288.41 18.48 297.142 18.48C303.62 18.48 308.971 20.44 313.196 24.08L308.126 31.36C304.183 28.84 300.521 27.16 296.86 27.16C293.199 27.16 291.227 28.84 291.227 30.8C291.227 33.6 293.199 34.44 300.521 36.4C309.253 38.64 314.322 41.72 314.322 49.28C314.322 57.96 307.844 62.72 298.268 62.72C292.072 62.72 285.312 60.48 280.243 56Z" fill="#112E51"/>
<path d="M320.519 56L326.152 49.28C330.095 52.36 334.038 54.6 339.108 54.6C343.051 54.6 345.304 52.92 345.304 50.4C345.304 47.88 343.896 46.76 336.573 44.8C327.842 42.56 322.209 40.04 322.209 31.64C322.209 23.8 328.687 18.48 337.418 18.48C343.896 18.48 349.247 20.44 353.472 24.08L348.402 31.36C344.459 28.84 340.798 27.16 337.136 27.16C333.475 27.16 331.503 28.84 331.503 30.8C331.503 33.6 333.475 34.44 340.798 36.4C349.529 38.64 354.598 41.72 354.598 49.28C354.598 57.96 348.12 62.72 338.544 62.72C332.348 62.72 325.87 60.48 320.519 56Z" fill="#112E51"/>
<path d="M378.539 19.04H387.552L407.83 45.64V19.04H417.407V62.16H409.239L388.115 34.72V62.16H378.539V19.04Z" fill="#112E51"/>
<path d="M439.094 45.08L422.195 19.04H433.461L443.882 36.4L454.585 19.04H465.287L448.67 45.08V62.16H439.094V45.08Z" fill="#112E51"/>
<path d="M464.724 40.6C464.724 28.28 474.018 18.2 487.538 18.2C495.706 18.2 500.775 21 504.718 24.92L498.522 31.92C495.142 28.84 491.762 27.16 487.256 27.16C479.933 27.16 474.582 33.32 474.582 40.6C474.582 48.16 479.651 54.32 487.256 54.32C492.326 54.32 495.142 52.36 498.804 49.28L505 55.44C500.494 60.2 495.424 63.28 487.256 63.28C474.3 63 464.724 53.2 464.724 40.6Z" fill="#112E51"/>
</svg>
