<svg width="1866.7" height="1333.3" version="1.1" viewBox="0 0 1866.7 1333.3" xml:space="preserve" xmlns="http://www.w3.org/2000/svg"><defs><clipPath id="clipPath6447"><path d="m0 1e3h1400v-1e3h-1400z"/></clipPath><clipPath id="clipPath6557"><path d="m0 1e3h1400v-1e3h-1400z"/></clipPath><clipPath id="clipPath6679"><path d="m0 1e3h1400v-1e3h-1400z"/></clipPath><clipPath id="clipPath6747"><path d="m0 1e3h1400v-1e3h-1400z"/></clipPath></defs><g transform="matrix(1.3333 0 0 -1.3333 0 1333.3)"><g><path d="m0 190h700v810h-700z" fill="#66cae0"/><text transform="matrix(1 0 0 -1 231.77 744.84)" fill="#b7e7ec" font-family="'Siro Light'" font-size="61.725px" font-weight="300"><tspan x="0 35.677052 69.687523 86.847076 119.56133" y="0">daisy</tspan><tspan x="150.97935 186.6564 221.59274 259.12155" y="0">debt</tspan></text><text transform="matrix(1 0 0 -1 387.49 719.04)" fill="#ffffff" font-family="'Siro SemiBold'" font-size="17.2px" font-weight="600"><tspan x="0 9.4941788 13.74248 23.701048 33.418823 44.392166 50.790421 55.038719 63.363327 73.425095 78.034584 88.767136 96.025368 100.63486 110.69662 120.84439 129.1002 133.3485 143.23827 149.73972 160.02509 169.51926 179.64983 184.9473 193.27191 203.28207 209.68033 214.28981 224.35158" y="0">a debt solutions organization</tspan></text></g><g clip-path="url(#clipPath6447)"><g transform="translate(172.47 789.69)"><path d="m0 0c-3.812-15.228-15.498-30.898-15.498-30.898s-2.925 19.328 0.887 34.556 9.926 21.339 12.918 20.59c2.991-0.749 5.505-9.02 1.693-24.248" fill="#e4f6f8"/></g><g transform="translate(154.09 793.28)"><path d="m0 0c4.433-15.059 2.301-34.49 2.301-34.49s-12.318 15.178-16.75 30.237c-4.433 15.059-2.26 23.426 0.699 24.297 2.958 0.871 9.317-4.985 13.75-20.044" fill="#e4f6f8"/></g><g transform="translate(135.52 786.35)"><path d="m0 0c11.979-10.146 20.876-27.551 20.876-27.551s-18.632 5.912-30.611 16.057c-11.979 10.146-14.761 18.331-12.768 20.684 1.994 2.354 10.524 0.956 22.503-9.19" fill="#e4f6f8"/></g><g transform="translate(123.9 770.58)"><path d="m0 0c15.569-2.01 32.495-11.788 32.495-11.788s-18.854-5.16-34.423-3.15c-15.569 2.009-22.352 7.369-21.957 10.428 0.395 3.058 8.316 6.52 23.885 4.51" fill="#e4f6f8"/></g><g transform="translate(122.8 750.65)"><path d="m0 0c14.084 6.933 33.594 8.143 33.594 8.143s-12.858-14.723-26.942-21.656c-14.084-6.934-22.698-6.218-24.06-3.451-1.363 2.767 3.324 10.031 17.408 16.964" fill="#e4f6f8"/></g><g transform="translate(132.8 733.53)"><path d="m0 0c7.957 13.532 23.592 25.264 23.592 25.264s-2.651-19.367-10.608-32.899-15.548-17.668-18.206-16.104c-2.659 1.563-2.735 10.207 5.222 23.739" fill="#b9e8ec"/></g><g transform="translate(150.31 724.77)"><path d="m0 0c-0.672 15.684 6.08 34.028 6.08 34.028s8.296-17.7 8.968-33.383c0.672-15.684-3.453-23.28-6.535-23.412-3.081-0.132-7.841 7.083-8.513 22.767" fill="#b9e8ec"/></g><g transform="translate(168.98 726.38)"><path d="m0 0c-8.529 13.179-12.007 32.415-12.007 32.415s16.123-11.053 24.652-24.232 8.823-21.818 6.234-23.494c-2.589-1.675-10.35 2.132-18.879 15.311" fill="#b9e8ec"/></g><g transform="translate(184.77 738.26)"><path d="m0 0c-14.356 6.351-27.806 20.535-27.806 20.535s19.543-0.41 33.899-6.76c14.356-6.351 19.337-13.417 18.089-16.237-1.248-2.821-9.826-3.889-24.182 2.462" fill="#b9e8ec"/></g><g transform="translate(191.49 757.12)"><path d="m0 0c-15.469-2.674-34.526 1.674-34.526 1.674s16.491 10.494 31.96 13.168 23.531-0.445 24.056-3.484c0.526-3.039-6.021-8.684-21.49-11.358" fill="#b9e8ec"/></g><g transform="translate(186.86 776.15)"><path d="m0 0c-11.533-10.649-29.896-17.353-29.896-17.353s8.145 17.77 19.678 28.419c11.534 10.65 19.997 12.411 22.089 10.145s-0.338-10.562-11.871-21.211" fill="#b9e8ec"/></g><g transform="translate(163.57 790.91)"><path d="m0 0c0-15.698-7.531-33.737-7.531-33.737s-7.531 18.039-7.531 33.737 4.447 23.111 7.531 23.111 7.531-7.413 7.531-23.111" fill="#fff"/></g><g transform="translate(144.04 789.59)"><path d="m0 0c8.529-13.179 12.007-32.415 12.007-32.415s-16.123 11.053-24.652 24.232-8.823 21.818-6.234 23.494c2.589 1.675 10.35-2.132 18.879-15.311" fill="#fff"/></g><g transform="translate(128.24 777.72)"><path d="m0 0c14.356-6.351 27.806-20.535 27.806-20.535s-19.543 0.41-33.899 6.76c-14.356 6.351-19.337 13.417-18.089 16.237 1.248 2.821 9.826 3.889 24.182-2.462" fill="#fff"/></g><g transform="translate(121.52 758.86)"><path d="m0 0c15.469 2.674 34.526-1.674 34.526-1.674s-16.491-10.494-31.96-13.168-23.531 0.445-24.056 3.484c-0.526 3.039 6.021 8.684 21.49 11.358" fill="#fff"/></g><g transform="translate(126.15 739.83)"><path d="m0 0c11.533 10.649 29.896 17.353 29.896 17.353s-8.145-17.77-19.678-28.419c-11.534-10.65-19.997-12.411-22.089-10.145s0.338 10.562 11.871 21.211" fill="#fff"/></g><g transform="translate(140.54 726.28)"><path d="m0 0c3.812 15.228 15.498 30.898 15.498 30.898s2.925-19.328-0.887-34.556-9.926-21.339-12.918-20.59c-2.991 0.749-5.505 9.02-1.693 24.248" fill="#fff"/></g><g transform="translate(158.92 722.69)"><path d="m0 0c-4.433 15.059-2.301 34.49-2.301 34.49s12.318-15.178 16.75-30.237c4.433-15.059 2.26-23.426-0.699-24.297-2.958-0.871-9.317 4.985-13.75 20.044" fill="#fff"/></g><g transform="translate(177.49 729.63)"><path d="m0 0c-11.979 10.146-20.876 27.551-20.876 27.551s18.632-5.912 30.611-16.057c11.979-10.146 14.761-18.331 12.768-20.684-1.994-2.354-10.524-0.956-22.503 9.19" fill="#fff"/></g><g transform="translate(189.11 745.39)"><path d="m0 0c-15.569 2.01-32.495 11.788-32.495 11.788s18.854 5.16 34.423 3.15c15.569-2.009 22.352-7.369 21.957-10.428-0.395-3.058-8.316-6.52-23.885-4.51" fill="#fff"/></g><g transform="translate(190.21 765.32)"><path d="m0 0c-14.084-6.933-33.594-8.143-33.594-8.143s12.858 14.723 26.942 21.656c14.084 6.934 22.698 6.218 24.06 3.451 1.363-2.767-3.324-10.031-17.408-16.964" fill="#fff"/></g><g transform="translate(180.22 782.44)"><path d="m0 0c-7.957-13.532-23.592-25.264-23.592-25.264s2.651 19.367 10.608 32.899 15.548 17.668 18.206 16.104c2.659-1.563 2.735-10.207-5.222-23.739" fill="#fff"/></g><g transform="translate(167.03 758)"><path d="m0 0c0-5.814-4.713-10.527-10.527-10.527s-10.528 4.713-10.528 10.527 4.714 10.527 10.528 10.527 10.527-4.713 10.527-10.527" fill="#f7f128"/></g></g><text transform="matrix(1 0 0 -1 936.73 744.84)" fill="#b7e7ec" font-family="'Siro Light'" font-size="61.725px" font-weight="300"><tspan x="0 35.677052 69.687523 86.847076 119.56133" y="0">daisy</tspan><tspan x="150.97935 186.6564 221.59274 259.12155" y="0">debt</tspan></text><text transform="matrix(1 0 0 -1 1092.5 719.04)" fill="#66cae0" font-family="'Siro SemiBold'" font-size="17.2px" font-weight="600"><tspan x="0 9.4941788 13.74248 23.701048 33.418823 44.392166 50.790421 55.038719 63.363327 73.425095 78.034584 88.767136 96.025368 100.63486 110.69662 120.84439 129.1002 133.3485 143.23827 149.73972 160.02509 169.51926 179.64983 184.9473 193.27191 203.28207 209.68033 214.28981 224.35158" y="0">a debt solutions organization</tspan></text><g clip-path="url(#clipPath6557)"><g transform="translate(877.44 789.69)"><path d="m0 0c-3.812-15.228-15.498-30.898-15.498-30.898s-2.925 19.328 0.887 34.556 9.926 21.339 12.918 20.59c2.991-0.749 5.505-9.02 1.693-24.248" fill="#e4d824"/></g><g transform="translate(859.05 793.28)"><path d="m0 0c4.433-15.059 2.301-34.49 2.301-34.49s-12.318 15.178-16.75 30.237c-4.433 15.059-2.26 23.426 0.699 24.297 2.958 0.871 9.317-4.985 13.75-20.044" fill="#e4d824"/></g><g transform="translate(840.48 786.35)"><path d="m0 0c11.979-10.146 20.876-27.551 20.876-27.551s-18.632 5.912-30.611 16.057c-11.979 10.146-14.761 18.331-12.768 20.684 1.994 2.354 10.524 0.956 22.503-9.19" fill="#e4d824"/></g><g transform="translate(828.87 770.58)"><path d="m0 0c15.569-2.01 32.495-11.788 32.495-11.788s-18.854-5.16-34.423-3.15c-15.569 2.009-22.352 7.369-21.957 10.428 0.395 3.058 8.316 6.52 23.885 4.51" fill="#e4d824"/></g><g transform="translate(827.77 750.65)"><path d="m0 0c14.084 6.933 33.594 8.143 33.594 8.143s-12.858-14.723-26.942-21.656c-14.084-6.934-22.698-6.218-24.061-3.451-1.362 2.767 3.325 10.031 17.409 16.964" fill="#e4d824"/></g><g transform="translate(837.76 733.53)"><path d="m0 0c7.957 13.532 23.592 25.264 23.592 25.264s-2.651-19.367-10.608-32.899-15.548-17.668-18.206-16.104c-2.659 1.563-2.735 10.207 5.222 23.739" fill="#dbc51c"/></g><g transform="translate(855.28 724.77)"><path d="m0 0c-0.672 15.684 6.08 34.028 6.08 34.028s8.296-17.7 8.968-33.383c0.672-15.684-3.453-23.28-6.535-23.412-3.081-0.132-7.841 7.083-8.513 22.767" fill="#dbc51c"/></g><g transform="translate(873.94 726.38)"><path d="m0 0c-8.529 13.179-12.007 32.415-12.007 32.415s16.123-11.053 24.652-24.232 8.823-21.818 6.234-23.494c-2.589-1.675-10.35 2.132-18.879 15.311" fill="#dbc51c"/></g><g transform="translate(889.74 738.26)"><path d="m0 0c-14.356 6.351-27.806 20.535-27.806 20.535s19.543-0.41 33.899-6.76c14.356-6.351 19.337-13.417 18.089-16.237-1.248-2.821-9.826-3.889-24.182 2.462" fill="#dbc51c"/></g><g transform="translate(896.46 757.12)"><path d="m0 0c-15.469-2.674-34.526 1.674-34.526 1.674s16.492 10.494 31.96 13.168c15.469 2.674 23.531-0.445 24.056-3.484 0.526-3.039-6.021-8.684-21.49-11.358" fill="#dbc51c"/></g><g transform="translate(891.83 776.15)"><path d="m0 0c-11.533-10.649-29.896-17.353-29.896-17.353s8.145 17.77 19.678 28.419c11.534 10.65 19.997 12.411 22.089 10.145s-0.337-10.562-11.871-21.211" fill="#dbc51c"/></g><g transform="translate(868.54 790.91)"><path d="m0 0c0-15.698-7.531-33.737-7.531-33.737s-7.531 18.039-7.531 33.737 4.447 23.111 7.531 23.111 7.531-7.413 7.531-23.111" fill="#f7f128"/></g><g transform="translate(849 789.59)"><path d="m0 0c8.529-13.179 12.007-32.415 12.007-32.415s-16.123 11.053-24.652 24.232-8.823 21.818-6.234 23.494c2.589 1.675 10.35-2.132 18.879-15.311" fill="#f7f128"/></g><g transform="translate(833.21 777.72)"><path d="m0 0c14.356-6.351 27.806-20.535 27.806-20.535s-19.543 0.41-33.899 6.76c-14.356 6.351-19.337 13.417-18.089 16.237 1.248 2.821 9.826 3.889 24.182-2.462" fill="#f7f128"/></g><g transform="translate(826.48 758.86)"><path d="m0 0c15.469 2.674 34.526-1.674 34.526-1.674s-16.492-10.494-31.96-13.168c-15.469-2.674-23.531 0.445-24.056 3.484-0.526 3.039 6.021 8.684 21.49 11.358" fill="#f7f128"/></g><g transform="translate(831.12 739.83)"><path d="m0 0c11.533 10.649 29.896 17.353 29.896 17.353s-8.145-17.77-19.678-28.419c-11.534-10.65-19.997-12.411-22.089-10.145s0.337 10.562 11.871 21.211" fill="#f7f128"/></g><g transform="translate(845.51 726.28)"><path d="m0 0c3.812 15.228 15.498 30.898 15.498 30.898s2.925-19.328-0.887-34.556-9.926-21.339-12.918-20.59c-2.991 0.749-5.505 9.02-1.693 24.248" fill="#f7f128"/></g><g transform="translate(863.89 722.69)"><path d="m0 0c-4.433 15.059-2.301 34.49-2.301 34.49s12.318-15.178 16.75-30.237c4.433-15.059 2.26-23.426-0.699-24.297-2.958-0.871-9.317 4.985-13.75 20.044" fill="#f7f128"/></g><g transform="translate(882.46 729.63)"><path d="m0 0c-11.979 10.146-20.876 27.551-20.876 27.551s18.632-5.912 30.611-16.057c11.979-10.146 14.761-18.331 12.768-20.684-1.994-2.354-10.524-0.956-22.503 9.19" fill="#f7f128"/></g><g transform="translate(894.08 745.39)"><path d="m0 0c-15.569 2.01-32.495 11.788-32.495 11.788s18.854 5.16 34.423 3.15c15.569-2.009 22.352-7.369 21.957-10.428-0.395-3.058-8.316-6.52-23.885-4.51" fill="#f7f128"/></g><g transform="translate(895.18 765.32)"><path d="m0 0c-14.084-6.933-33.594-8.143-33.594-8.143s12.858 14.723 26.942 21.656c14.084 6.934 22.698 6.218 24.061 3.451 1.362-2.767-3.325-10.031-17.409-16.964" fill="#f7f128"/></g><g transform="translate(885.18 782.44)"><path d="m0 0c-7.957-13.532-23.592-25.264-23.592-25.264s2.651 19.367 10.608 32.899 15.548 17.668 18.206 16.104c2.659-1.563 2.735-10.207-5.222-23.739" fill="#f7f128"/></g><g transform="translate(872 758)"><path d="m0 0c0-5.814-4.713-10.527-10.527-10.527s-10.528 4.713-10.528 10.527 4.714 10.527 10.528 10.527 10.527-4.713 10.527-10.527" fill="#ef8f26"/></g><g><path d="m1200 200h200v-200h-200z" fill="#66cae0"/><path d="m600 200h200v-200h-200z" fill="#f7f128"/><path d="m0 200h200v-200h-200z" fill="#ef8f26"/><path d="m400 200h200v-200h-200z" fill="#dbc51c"/><path d="m200 200h200v-200h-200z" fill="#e4d824"/><path d="m1e3 200h200v-200h-200z" fill="#b9e8ec"/><path d="m800 200h200v-200h-200z" fill="#e4f6f8"/></g></g><text transform="matrix(1 0 0 -1 936.73 426.08)" fill="#3b3839" font-family="'Siro Light'" font-size="61.725px" font-weight="300"><tspan x="0 35.677052 69.687523 86.847076 119.56133 150.97935 186.6564 221.59274 259.12155" y="0">daisydebt</tspan></text><text transform="matrix(1 0 0 -1 1092.5 400.27)" fill="#3b3839" font-family="'Siro SemiBold'" font-size="17.2px" font-weight="600"><tspan x="0 9.4941788 13.74248 23.701048 33.418823 44.392166 50.790421 55.038719 63.363327 73.425095 78.034584 88.767136 96.025368 100.63486 110.69662 120.84439 129.1002 133.3485 143.23827 149.73972 160.02509 169.51926 179.64983 184.9473 193.27191 203.28207 209.68033 214.28981 224.35158" y="0">a debt solutions organization</tspan></text><g clip-path="url(#clipPath6679)"><g transform="translate(861.4 497.26)"><path d="m0 0c-2.619 0-5.028-2.464-6.784-6.938-1.253-3.194-2.747-8.939-2.747-18.173 0-0.507 8e-3 -1.021 0.023-1.544-0.271 0.447-0.544 0.883-0.82 1.309-7.918 12.235-15.066 16.595-19.115 16.595-0.968 0-1.819-0.233-2.529-0.692-2.199-1.423-2.883-4.8-1.926-9.51 0.683-3.363 2.55-8.998 7.567-16.75 0.338-0.522 0.692-1.047 1.061-1.576-0.58 0.281-1.154 0.548-1.722 0.799-9.082 4.018-15.205 4.861-18.742 4.861-4.234 1e-3 -7.102-1.214-8.078-3.419-1.059-2.395 0.219-5.595 3.601-9.01 2.413-2.439 7.063-6.129 15.508-9.865 0.719-0.318 1.463-0.627 2.231-0.926-0.818-0.105-1.616-0.224-2.391-0.358-9.099-1.573-14.506-4.024-17.44-5.803-4.109-2.492-6.127-5.286-5.681-7.866 0.657-3.799 6.491-6.158 15.226-6.158 3.386 0 7.135 0.351 11.142 1.044 0.499 0.086 1.005 0.181 1.517 0.285-0.394-0.343-0.777-0.686-1.15-1.03-6.784-6.264-9.991-11.259-11.488-14.347-2.096-4.325-2.272-7.766-0.495-9.69 0.637-0.69 1.866-1.513 4.107-1.513 5.2 0 12.979 4.316 20.808 11.545 0.457 0.422 0.916 0.861 1.375 1.316-0.18-0.622-0.345-1.235-0.497-1.84-2.242-8.958-2.188-14.894-1.748-18.296 0.617-4.767 2.356-7.742 4.896-8.378 0.32-0.08 0.656-0.121 0.998-0.121 4.363 0 10.468 6.804 14.303 21.996 4.383-14.784 10.693-21.406 15.015-21.406 0.405 0 0.8 0.056 1.173 0.166 2.512 0.739 4.127 3.783 4.548 8.571 0.301 3.418 0.112 9.351-2.496 18.209-0.186 0.634-0.389 1.276-0.607 1.927 0.507-0.463 1.012-0.908 1.516-1.335 11.351-9.614 18.376-10.652 20.869-10.652 2.494 0 3.798 0.922 4.453 1.695 1.692 1.999 1.369 5.43-0.91 9.661-1.627 3.02-5.046 7.874-12.092 13.842-0.386 0.327-0.784 0.654-1.193 0.98 0.517-0.082 1.026-0.156 1.529-0.22 3.152-0.407 6.155-0.614 8.926-0.614 9.91 0 16.661 2.689 17.198 6.851 0.335 2.598-1.8 5.303-6.012 7.617-3.007 1.652-8.514 3.869-17.672 5.051-0.74 0.095-1.501 0.177-2.281 0.244 0.716 0.315 1.41 0.638 2.081 0.968 8.284 4.079 12.779 7.956 15.091 10.491 3.238 3.552 4.385 6.801 3.228 9.151-0.985 2.001-3.597 3.103-7.354 3.103-5.107 1e-3 -11.992-2.003-19.384-5.642-0.595-0.293-1.195-0.603-1.801-0.931 0.372 0.582 0.726 1.159 1.063 1.731 4.68 7.959 6.304 13.669 6.843 17.057 0.754 4.747-0.074 8.092-2.332 9.42-0.664 0.39-1.44 0.588-2.308 0.588-5.086 1e-3 -12.368-6.783-18.57-17.293-0.031 9.066-1.507 14.724-2.747 17.885-1.756 4.474-4.165 6.938-6.784 6.938m0-2c3.084 0 7.531-7.413 7.531-23.111 0-3.505-0.377-7.125-0.96-10.636 1.289 3.371 2.816 6.735 4.619 9.8 6.91 11.752 13.544 16.418 16.911 16.417 0.51 0 0.945-0.107 1.295-0.312 2.658-1.563 2.734-10.208-5.223-23.74-2.282-3.882-5.198-7.614-8.194-10.966 3.563 2.739 7.5 5.37 11.54 7.358 8.08 3.978 14.358 5.438 18.501 5.437 3.079 0 4.979-0.807 5.56-1.986 1.362-2.767-3.325-10.031-17.409-16.964-4.18-2.058-8.837-3.609-13.321-4.776 2.089 0.156 4.237 0.249 6.391 0.249 2.609 0 5.227-0.137 7.758-0.464 15.569-2.009 22.351-7.369 21.957-10.428-0.314-2.427-5.364-5.107-15.215-5.107-2.564 0-5.455 0.182-8.67 0.597-4.199 0.542-8.493 1.651-12.531 2.979 3.702-2.088 7.416-4.512 10.647-7.248 11.978-10.146 14.761-18.331 12.768-20.684-0.531-0.627-1.526-0.988-2.927-0.988-3.857 0-10.789 2.735-19.576 10.178-3.431 2.906-6.606 6.407-9.395 9.924 2.089-3.973 4.005-8.294 5.275-12.607 4.432-15.059 2.26-23.426-0.699-24.297-0.19-0.055-0.392-0.084-0.608-0.084-3.157 0-8.994 6.033-13.142 20.128-1.008 3.423-1.674 7.07-2.105 10.665-0.284-3.606-0.8-7.274-1.665-10.732-3.606-14.404-9.272-20.651-12.406-20.651-0.179 0-0.35 0.021-0.512 0.061-2.992 0.749-5.506 9.02-1.694 24.248 1.076 4.295 2.777 8.625 4.666 12.628-2.606-3.577-5.589-7.146-8.841-10.149-8.707-8.039-15.664-11.013-19.451-11.013-1.229 0-2.125 0.313-2.638 0.868-2.092 2.266 0.338 10.562 11.871 21.211 3.11 2.872 6.717 5.454 10.327 7.698-3.977-1.5-8.22-2.791-12.392-3.513-4.129-0.713-7.729-1.014-10.801-1.014-8.433 0-12.87 2.271-13.255 4.498-0.525 3.039 6.022 8.684 21.49 11.358 3.634 0.629 7.463 0.868 11.198 0.868 1.057 0 2.107-0.019 3.142-0.054-4.591 0.986-9.386 2.357-13.711 4.27-14.356 6.351-19.337 13.417-18.089 16.237 0.575 1.301 2.708 2.229 6.249 2.228 4.137 0 10.197-1.268 17.933-4.69 4.043-1.789 8.015-4.198 11.634-6.738-3.078 3.175-6.083 6.719-8.485 10.431-8.529 13.179-8.823 21.818-6.234 23.494 0.377 0.243 0.862 0.371 1.443 0.371 3.418 0 10.147-4.418 17.436-15.682 2.3-3.554 4.23-7.548 5.826-11.487-0.8 4.174-1.35 8.576-1.35 12.809 0 15.698 4.447 23.111 7.531 23.111" fill="#3b3839"/></g><g transform="translate(875.63 495.24)"><path d="m0 0c-2.085 0-5.291-2.77-8.266-8.864 0.946-3.604 1.573-8.329 1.573-14.222 0-3.505-0.376-7.125-0.96-10.637 1.289 3.371 2.817 6.735 4.619 9.8 2.413 4.105 4.79 7.332 7.009 9.811 0.739 8.727-1.228 13.491-3.464 14.051-0.161 0.041-0.332 0.061-0.511 0.061m0-2h0.023c0.722-0.232 2.561-3.461 2.009-11.291-2.307-2.655-4.567-5.85-6.725-9.507-0.017 5.183-0.506 9.788-1.452 13.703 2.736 5.343 5.301 7.095 6.145 7.095" fill="#3b3839"/></g><g transform="translate(815.45 452.13)"><path d="m0 0c-6.463-0.746-9.822-2.863-10.075-4.823-0.319-2.471 4.053-6.441 13.951-8.936 2.233 0.648 4.741 1.235 7.552 1.721 3.633 0.628 7.463 0.867 11.198 0.867 1.057 0 2.106-0.019 3.141-0.054-4.59 0.986-9.385 2.357-13.711 4.271-5.207 2.303-9.166 4.699-12.056 6.954m-0.562-2.087c3.204-2.395 7.172-4.645 11.809-6.696 0.72-0.319 1.464-0.628 2.232-0.927-0.819-0.104-1.617-0.224-2.392-0.358-2.543-0.439-4.975-0.984-7.239-1.619-9.229 2.424-11.988 5.843-11.94 6.605 0.113 0.558 2.118 2.24 7.53 2.995" fill="#3b3839"/></g><g transform="translate(821.3 477.76)"><path d="m0 0c-1.397 0-2.39-0.359-2.92-0.985-1.576-1.861-0.145-7.373 6.432-14.61 2.631-0.742 5.556-1.78 8.792-3.211 4.043-1.788 8.014-4.198 11.633-6.738-3.077 3.175-6.082 6.719-8.484 10.431-3.008 4.647-4.974 8.715-6.168 12.127-3.933 2.109-7.102 2.986-9.285 2.986m0-2c1.139 0 3.609-0.321 7.668-2.397 1.371-3.691 3.423-7.657 6.105-11.803 0.338-0.522 0.692-1.047 1.061-1.576-0.579 0.281-1.153 0.548-1.721 0.799-2.911 1.288-5.766 2.344-8.497 3.145-6.023 6.776-6.442 10.964-6.012 11.552 0.07 0.073 0.478 0.28 1.396 0.28" fill="#3b3839"/></g><g transform="translate(901.47 479.46)"><path d="m0 0c-2.359 0-5.954-1.159-10.433-3.972-1.07-3.343-2.813-7.295-5.465-11.805-2.283-3.882-5.198-7.615-8.195-10.966 3.564 2.739 7.501 5.369 11.541 7.358 3.537 1.741 6.728 2.999 9.547 3.864 6.107 7.403 7.264 12.884 5.626 14.658-0.51 0.552-1.4 0.863-2.621 0.863m0-2c0.748 0 1.092-0.164 1.15-0.217 0.521-0.653 0.179-4.742-5.326-11.575-2.925-0.936-6.037-2.212-9.26-3.799-0.594-0.292-1.194-0.602-1.801-0.93 0.372 0.581 0.727 1.158 1.063 1.73 2.375 4.04 4.194 7.904 5.412 11.5 4.895 2.961 7.741 3.291 8.762 3.291" fill="#3b3839"/></g><g transform="translate(907.5 454.13)"><path d="m0 0c-2.807-2.409-6.72-5.015-11.925-7.576-4.18-2.058-8.837-3.609-13.321-4.776 2.089 0.155 4.237 0.248 6.391 0.248 2.609 0 5.226-0.136 7.758-0.463 2.991-0.386 5.652-0.898 8.006-1.491 10.054 2.921 14.367 7.15 13.938 9.637-0.347 2.003-3.989 4.03-10.847 4.421m0.669-2.05c6.318-0.495 8.117-2.353 8.206-2.709 0.083-0.786-2.611-4.396-12.013-7.227-2.398 0.58-4.986 1.052-7.703 1.403-0.74 0.095-1.501 0.177-2.281 0.244 0.716 0.315 1.409 0.638 2.081 0.968 4.649 2.289 8.584 4.749 11.71 7.321" fill="#3b3839"/></g><g transform="translate(846.3 494.65)"><path d="m0 0c-0.214 0-0.416-0.028-0.604-0.083-2.303-0.678-4.115-5.918-2.721-15.299 2.036-2.228 4.199-5.009 6.417-8.436 2.3-3.554 4.229-7.547 5.826-11.486-0.8 4.174-1.35 8.575-1.35 12.808 0 5.381 0.529 9.764 1.34 13.233-3.29 6.385-6.735 9.263-8.908 9.263m0-2c0.732 0 3.501-1.406 6.796-7.542-0.816-3.787-1.228-8.14-1.228-12.954 0-0.506 7e-3 -1.021 0.023-1.544-0.271 0.447-0.545 0.884-0.82 1.309-2.008 3.103-4.093 5.871-6.202 8.236-1.17 8.57 0.622 12.205 1.388 12.492 0 0 0.014 3e-3 0.043 3e-3" fill="#3b3839"/></g><g transform="translate(881.94 429.61)"><path d="m0 0c3.702-2.087 7.416-4.512 10.646-7.248 2.509-2.125 4.593-4.157 6.335-6.074 3.675-1.037 6.745-1.469 9.16-1.469 3.528 0 5.658 0.921 6.231 2.218 0.795 1.797-0.954 5.32-6.032 9.282-1.553-0.179-3.284-0.28-5.194-0.28-2.549 0-5.418 0.18-8.616 0.592-4.198 0.542-8.493 1.651-12.53 2.979m10.746-4.742c0.516-0.082 1.026-0.155 1.528-0.22 3.129-0.404 6.114-0.609 8.872-0.609 1.6 0 3.138 0.069 4.586 0.206 4.175-3.421 5.001-5.872 4.813-6.396-0.109-0.205-1.233-1.03-4.404-1.03-2.272 0-5.054 0.43-8.074 1.244-1.819 1.962-3.878 3.919-6.128 5.825-0.387 0.327-0.784 0.654-1.193 0.98" fill="#3b3839"/></g><g transform="translate(873.46 420.79)"><path d="m0 0c2.088-3.973 4.005-8.294 5.275-12.606 0.982-3.338 1.625-6.327 2.021-8.998 4.661-5.099 8.646-7.246 11.024-7.246 0.58 0 1.063 0.127 1.438 0.37 1.676 1.085 2.127 5.103-0.066 11.367-3.017 1.618-6.48 3.956-10.297 7.189-3.431 2.906-6.607 6.407-9.395 9.924m6.586-10.114c0.506-0.464 1.012-0.909 1.516-1.336 3.416-2.893 6.758-5.259 9.946-7.042 1.743-5.354 1.085-7.959 0.626-8.307-0.025-0.014-0.138-0.051-0.354-0.051-1.573 0-4.886 1.623-9.14 6.155-0.441 2.762-1.109 5.67-1.987 8.653-0.186 0.634-0.389 1.277-0.607 1.928" fill="#3b3839"/></g><g transform="translate(850.57 420.15)"><path d="m0 0c-2.607-3.577-5.589-7.146-8.841-10.149-3.291-3.039-6.32-5.332-9.034-7.036-2.139-6.688-1.531-10.892 0.242-11.935 0.348-0.204 0.782-0.311 1.29-0.311 2.191 0 5.77 1.983 9.907 6.606 0.25 2.95 0.807 6.35 1.77 10.197 1.075 4.295 2.777 8.624 4.666 12.628m-6.11-10.302c-0.179-0.622-0.345-1.236-0.496-1.841-0.87-3.475-1.461-6.778-1.761-9.832-3.97-4.292-6.865-5.456-7.976-5.456-0.168 0-0.259 0.027-0.274 0.034-0.315 0.218-1.447 2.63 0.435 8.92 2.84 1.844 5.762 4.148 8.697 6.858 0.458 0.423 0.917 0.862 1.375 1.317" fill="#3b3839"/></g><g transform="translate(862.18 414.6)"><path d="m0 0c-0.284-3.606-0.8-7.274-1.665-10.732-0.966-3.858-2.08-7.126-3.253-9.85 1.803-7.299 4.703-10.777 6.839-10.777 0.027 0 0.055 1e-3 0.083 2e-3 1.804 0.077 3.959 2.734 5.306 8.053-1.819 3.136-3.633 7.298-5.205 12.639-1.008 3.423-1.674 7.07-2.105 10.665m0.232-11.387c1.389-4.683 3.047-8.779 4.935-12.19-1.205-4.238-2.784-5.726-3.246-5.782-0.652 0.017-3.03 2.186-4.735 8.619 1.16 2.795 2.184 5.937 3.046 9.353" fill="#3b3839"/></g><g transform="translate(841.84 428.76)"><path d="m0 0c-3.977-1.499-8.22-2.791-12.391-3.512-4.109-0.711-7.682-1.006-10.737-1.006-0.866 0-1.69 0.024-2.473 0.069-4.789-4.11-6.343-7.643-5.484-9.388 0.581-1.179 2.48-1.986 5.559-1.986 2.329 0 5.334 0.462 8.955 1.573 1.692 2.051 3.742 4.242 6.245 6.553 3.11 2.871 6.717 5.453 10.326 7.697m-10.533-5.197c-0.394-0.344-0.778-0.687-1.15-1.031-2.238-2.066-4.267-4.176-6.039-6.279-2.945-0.862-5.633-1.316-7.804-1.316-2.711 0-3.66 0.688-3.763 0.867-0.21 0.509 0.486 2.944 4.401 6.471 0.576-0.022 1.165-0.033 1.76-0.033 3.38 0 7.107 0.349 11.077 1.035 0.5 0.086 1.006 0.181 1.518 0.286" fill="#3b3839"/></g><g transform="translate(872.39 439.24)"><path d="m0 0c0-5.814-4.713-10.527-10.527-10.527s-10.528 4.713-10.528 10.527 4.714 10.527 10.528 10.527 10.527-4.713 10.527-10.527" fill="#3b3839"/></g></g><text transform="matrix(1 0 0 -1 231.37 426.08)" fill="#ffffff" font-family="'Siro Light'" font-size="61.725px" font-weight="300"><tspan x="0 35.677052 69.687523 86.847076 119.56133 150.97935 186.6564 221.59274 259.12155" y="0">daisydebt</tspan></text><text transform="matrix(1 0 0 -1 387.1 400.27)" fill="#ffffff" font-family="'Siro SemiBold'" font-size="17.2px" font-weight="600"><tspan x="0 9.4941788 13.74248 23.701048 33.418823 44.392166 50.790421 55.038719 63.363327 73.425095 78.034584 88.767136 96.025368 100.63486 110.69662 120.84439 129.1002 133.3485 143.23827 149.73972 160.02509 169.51926 179.64983 184.9473 193.27191 203.28207 209.68033 214.28981 224.35158" y="0">a debt solutions organization</tspan></text><g clip-path="url(#clipPath6747)"><g transform="translate(156.04 497.26)"><path d="m0 0c-2.619 0-5.028-2.464-6.784-6.938-1.253-3.194-2.747-8.939-2.747-18.173 0-0.507 8e-3 -1.021 0.023-1.544-0.271 0.447-0.544 0.883-0.82 1.309-7.918 12.235-15.066 16.595-19.115 16.595-0.968 0-1.819-0.233-2.529-0.692-2.199-1.423-2.883-4.8-1.926-9.51 0.683-3.363 2.55-8.998 7.567-16.75 0.338-0.522 0.692-1.047 1.061-1.576-0.58 0.281-1.154 0.548-1.722 0.799-9.082 4.018-15.205 4.861-18.742 4.861-4.234 1e-3 -7.102-1.214-8.078-3.419-1.059-2.395 0.219-5.595 3.601-9.01 2.413-2.439 7.063-6.129 15.508-9.865 0.719-0.318 1.463-0.627 2.231-0.926-0.818-0.105-1.616-0.224-2.391-0.358-9.099-1.573-14.506-4.024-17.44-5.803-4.109-2.492-6.127-5.286-5.681-7.866 0.657-3.799 6.491-6.158 15.226-6.158 3.386 0 7.135 0.351 11.142 1.044 0.499 0.086 1.005 0.181 1.517 0.285-0.394-0.343-0.777-0.686-1.15-1.03-6.784-6.264-9.991-11.259-11.488-14.347-2.096-4.325-2.272-7.766-0.495-9.69 0.637-0.69 1.866-1.513 4.107-1.513 5.2 0 12.979 4.316 20.808 11.545 0.457 0.422 0.916 0.861 1.375 1.316-0.18-0.622-0.345-1.235-0.497-1.84-2.242-8.958-2.188-14.894-1.748-18.296 0.617-4.767 2.356-7.742 4.896-8.378 0.32-0.08 0.656-0.121 0.998-0.121 4.363 0 10.468 6.804 14.303 21.996 4.383-14.784 10.693-21.406 15.015-21.406 0.405 0 0.8 0.056 1.173 0.166 2.512 0.739 4.127 3.783 4.548 8.571 0.301 3.418 0.112 9.351-2.496 18.209-0.186 0.634-0.389 1.276-0.607 1.927 0.507-0.463 1.012-0.908 1.516-1.335 11.351-9.614 18.376-10.652 20.869-10.652 2.494 0 3.798 0.922 4.453 1.695 1.692 1.999 1.369 5.43-0.91 9.661-1.627 3.02-5.046 7.874-12.092 13.842-0.386 0.327-0.784 0.654-1.193 0.98 0.517-0.082 1.026-0.156 1.529-0.22 3.152-0.407 6.155-0.614 8.926-0.614 9.91 0 16.661 2.689 17.198 6.851 0.335 2.598-1.8 5.303-6.012 7.617-3.007 1.652-8.514 3.869-17.672 5.051-0.74 0.095-1.501 0.177-2.281 0.244 0.716 0.315 1.41 0.638 2.081 0.968 8.284 4.079 12.779 7.956 15.091 10.491 3.238 3.552 4.385 6.801 3.228 9.151-0.985 2.001-3.597 3.103-7.354 3.103-5.107 1e-3 -11.992-2.003-19.384-5.642-0.595-0.293-1.195-0.603-1.801-0.931 0.372 0.582 0.726 1.159 1.063 1.731 4.68 7.959 6.304 13.669 6.843 17.057 0.754 4.747-0.074 8.092-2.332 9.42-0.664 0.39-1.44 0.588-2.308 0.588-5.086 1e-3 -12.368-6.783-18.57-17.293-0.031 9.066-1.507 14.724-2.747 17.885-1.756 4.474-4.165 6.938-6.784 6.938m0-2c3.084 0 7.531-7.413 7.531-23.111 0-3.505-0.377-7.125-0.96-10.636 1.289 3.371 2.816 6.735 4.619 9.8 6.91 11.752 13.544 16.418 16.911 16.417 0.51 0 0.945-0.107 1.295-0.312 2.658-1.563 2.734-10.208-5.223-23.74-2.282-3.882-5.198-7.614-8.194-10.966 3.563 2.739 7.5 5.37 11.54 7.358 8.08 3.978 14.358 5.438 18.501 5.437 3.079 0 4.979-0.807 5.56-1.986 1.362-2.767-3.325-10.031-17.409-16.964-4.18-2.058-8.837-3.609-13.321-4.776 2.089 0.156 4.237 0.249 6.391 0.249 2.609 0 5.227-0.137 7.758-0.464 15.569-2.009 22.351-7.369 21.957-10.428-0.314-2.427-5.364-5.107-15.215-5.107-2.564 0-5.455 0.182-8.67 0.597-4.199 0.542-8.493 1.651-12.531 2.979 3.702-2.088 7.416-4.512 10.647-7.248 11.978-10.146 14.761-18.331 12.768-20.684-0.531-0.627-1.526-0.988-2.927-0.988-3.857 0-10.789 2.735-19.576 10.178-3.431 2.906-6.606 6.407-9.395 9.924 2.089-3.973 4.005-8.294 5.275-12.607 4.432-15.059 2.26-23.426-0.699-24.297-0.19-0.055-0.392-0.084-0.608-0.084-3.157 0-8.994 6.033-13.142 20.128-1.008 3.423-1.674 7.07-2.105 10.665-0.284-3.606-0.8-7.274-1.665-10.732-3.606-14.404-9.272-20.651-12.406-20.651-0.179 0-0.35 0.021-0.512 0.061-2.992 0.749-5.506 9.02-1.694 24.248 1.076 4.295 2.777 8.625 4.666 12.628-2.606-3.577-5.589-7.146-8.841-10.149-8.707-8.039-15.664-11.013-19.451-11.013-1.229 0-2.125 0.313-2.638 0.868-2.092 2.266 0.338 10.562 11.871 21.211 3.11 2.872 6.717 5.454 10.327 7.698-3.977-1.5-8.22-2.791-12.392-3.513-4.129-0.713-7.729-1.014-10.801-1.014-8.433 0-12.87 2.271-13.255 4.498-0.525 3.039 6.022 8.684 21.49 11.358 3.634 0.629 7.463 0.868 11.198 0.868 1.057 0 2.107-0.019 3.142-0.054-4.591 0.986-9.386 2.357-13.711 4.27-14.356 6.351-19.337 13.417-18.089 16.237 0.575 1.301 2.708 2.229 6.249 2.228 4.137 0 10.197-1.268 17.933-4.69 4.043-1.789 8.015-4.198 11.634-6.738-3.078 3.175-6.083 6.719-8.485 10.431-8.529 13.179-8.823 21.818-6.234 23.494 0.377 0.243 0.862 0.371 1.443 0.371 3.418 0 10.147-4.418 17.436-15.682 2.3-3.554 4.23-7.548 5.826-11.487-0.8 4.174-1.35 8.576-1.35 12.809 0 15.698 4.447 23.111 7.531 23.111" fill="#fff"/></g><g transform="translate(170.27 495.24)"><path d="m0 0c-2.085 0-5.291-2.77-8.266-8.864 0.946-3.604 1.573-8.329 1.573-14.222 0-3.505-0.376-7.125-0.96-10.637 1.289 3.371 2.817 6.735 4.619 9.8 2.413 4.105 4.79 7.332 7.009 9.811 0.739 8.727-1.228 13.491-3.464 14.051-0.161 0.041-0.332 0.061-0.511 0.061m0-2h0.023c0.722-0.232 2.561-3.461 2.009-11.291-2.307-2.655-4.567-5.85-6.725-9.507-0.017 5.183-0.506 9.788-1.452 13.703 2.736 5.343 5.301 7.095 6.145 7.095" fill="#fff"/></g><g transform="translate(110.09 452.13)"><path d="m0 0c-6.463-0.746-9.822-2.863-10.075-4.823-0.319-2.471 4.053-6.441 13.951-8.936 2.233 0.648 4.741 1.235 7.552 1.721 3.633 0.628 7.463 0.867 11.198 0.867 1.057 0 2.106-0.019 3.141-0.054-4.59 0.986-9.385 2.357-13.711 4.271-5.207 2.303-9.166 4.699-12.056 6.954m-0.562-2.087c3.204-2.395 7.172-4.645 11.809-6.696 0.72-0.319 1.464-0.628 2.232-0.927-0.819-0.104-1.617-0.224-2.392-0.358-2.543-0.439-4.975-0.984-7.239-1.619-9.229 2.424-11.988 5.843-11.94 6.605 0.113 0.558 2.118 2.24 7.53 2.995" fill="#fff"/></g><g transform="translate(115.94 477.76)"><path d="m0 0c-1.397 0-2.39-0.359-2.92-0.985-1.576-1.861-0.145-7.373 6.432-14.61 2.631-0.742 5.556-1.78 8.792-3.211 4.043-1.788 8.014-4.198 11.633-6.738-3.077 3.175-6.082 6.719-8.485 10.431-3.007 4.647-4.973 8.715-6.167 12.127-3.933 2.109-7.102 2.986-9.285 2.986m0-2c1.139 0 3.609-0.321 7.668-2.397 1.371-3.691 3.423-7.657 6.105-11.803 0.338-0.522 0.692-1.047 1.061-1.576-0.579 0.281-1.153 0.548-1.721 0.799-2.911 1.288-5.766 2.344-8.497 3.145-6.023 6.776-6.442 10.964-6.012 11.552 0.07 0.073 0.478 0.28 1.396 0.28" fill="#fff"/></g><g transform="translate(196.11 479.46)"><path d="m0 0c-2.359 0-5.954-1.159-10.433-3.972-1.07-3.343-2.813-7.295-5.465-11.805-2.283-3.882-5.198-7.615-8.195-10.966 3.564 2.739 7.501 5.369 11.541 7.358 3.537 1.741 6.728 2.999 9.547 3.864 6.107 7.403 7.264 12.884 5.626 14.658-0.51 0.552-1.4 0.863-2.621 0.863m0-2c0.748 0 1.092-0.164 1.15-0.217 0.521-0.653 0.179-4.742-5.326-11.575-2.925-0.936-6.037-2.212-9.26-3.799-0.594-0.292-1.195-0.602-1.801-0.93 0.372 0.581 0.727 1.158 1.063 1.73 2.375 4.04 4.194 7.904 5.412 11.5 4.895 2.961 7.741 3.291 8.762 3.291" fill="#fff"/></g><g transform="translate(202.14 454.13)"><path d="m0 0c-2.807-2.409-6.72-5.015-11.925-7.576-4.18-2.058-8.837-3.609-13.321-4.776 2.089 0.155 4.237 0.248 6.391 0.248 2.609 0 5.226-0.136 7.758-0.463 2.991-0.386 5.652-0.898 8.006-1.491 10.054 2.921 14.367 7.15 13.938 9.637-0.347 2.003-3.989 4.03-10.847 4.421m0.669-2.05c6.318-0.495 8.117-2.353 8.206-2.709 0.083-0.786-2.611-4.396-12.013-7.227-2.398 0.58-4.986 1.052-7.703 1.403-0.74 0.095-1.501 0.177-2.281 0.244 0.716 0.315 1.409 0.638 2.081 0.968 4.649 2.289 8.584 4.749 11.71 7.321" fill="#fff"/></g><g transform="translate(140.94 494.65)"><path d="m0 0c-0.214 0-0.416-0.028-0.604-0.083-2.303-0.678-4.115-5.918-2.721-15.299 2.036-2.228 4.199-5.009 6.417-8.436 2.3-3.554 4.229-7.547 5.826-11.486-0.8 4.174-1.35 8.575-1.35 12.808 0 5.381 0.529 9.764 1.34 13.233-3.29 6.385-6.735 9.263-8.908 9.263m0-2c0.732 0 3.501-1.406 6.796-7.542-0.816-3.787-1.228-8.14-1.228-12.954 0-0.506 7e-3 -1.021 0.022-1.544-0.27 0.447-0.544 0.884-0.819 1.309-2.008 3.103-4.093 5.871-6.202 8.236-1.17 8.57 0.622 12.205 1.388 12.492 0 0 0.014 3e-3 0.043 3e-3" fill="#fff"/></g><g transform="translate(176.58 429.61)"><path d="m0 0c3.702-2.087 7.416-4.512 10.646-7.248 2.509-2.125 4.593-4.157 6.335-6.074 3.675-1.037 6.745-1.469 9.16-1.469 3.528 0 5.658 0.921 6.231 2.218 0.795 1.797-0.954 5.32-6.032 9.282-1.553-0.179-3.284-0.28-5.194-0.28-2.549 0-5.418 0.18-8.616 0.592-4.198 0.542-8.493 1.651-12.53 2.979m10.746-4.742c0.516-0.082 1.026-0.155 1.528-0.22 3.129-0.404 6.114-0.609 8.872-0.609 1.6 0 3.138 0.069 4.586 0.206 4.175-3.421 5.001-5.872 4.813-6.396-0.109-0.205-1.233-1.03-4.404-1.03-2.272 0-5.054 0.43-8.074 1.244-1.819 1.962-3.878 3.919-6.128 5.825-0.387 0.327-0.784 0.654-1.193 0.98" fill="#fff"/></g><g transform="translate(168.1 420.79)"><path d="m0 0c2.088-3.973 4.005-8.294 5.275-12.606 0.982-3.338 1.625-6.327 2.021-8.998 4.661-5.099 8.646-7.246 11.025-7.246 0.579 0 1.062 0.127 1.437 0.37 1.676 1.085 2.127 5.103-0.066 11.367-3.017 1.618-6.48 3.956-10.297 7.189-3.431 2.906-6.607 6.407-9.395 9.924m6.585-10.114c0.507-0.464 1.013-0.909 1.517-1.336 3.416-2.893 6.758-5.259 9.946-7.042 1.743-5.354 1.085-7.959 0.626-8.307-0.025-0.014-0.138-0.051-0.353-0.051-1.574 0-4.887 1.623-9.141 6.155-0.441 2.762-1.109 5.67-1.987 8.653-0.186 0.634-0.389 1.277-0.608 1.928" fill="#fff"/></g><g transform="translate(145.21 420.15)"><path d="m0 0c-2.607-3.577-5.589-7.146-8.841-10.149-3.291-3.039-6.32-5.332-9.034-7.036-2.139-6.688-1.531-10.892 0.242-11.935 0.348-0.204 0.782-0.311 1.29-0.311 2.191 0 5.769 1.983 9.907 6.606 0.25 2.95 0.807 6.35 1.77 10.197 1.075 4.295 2.777 8.624 4.666 12.628m-6.11-10.302c-0.179-0.622-0.345-1.236-0.496-1.841-0.87-3.475-1.461-6.778-1.761-9.832-3.97-4.292-6.865-5.456-7.976-5.456-0.168 0-0.259 0.027-0.274 0.034-0.315 0.218-1.447 2.63 0.435 8.92 2.84 1.844 5.762 4.148 8.697 6.858 0.458 0.423 0.917 0.862 1.375 1.317" fill="#fff"/></g><g transform="translate(156.82 414.6)"><path d="m0 0c-0.284-3.606-0.8-7.274-1.665-10.732-0.966-3.858-2.08-7.126-3.253-9.85 1.803-7.299 4.703-10.777 6.839-10.777 0.027 0 0.055 1e-3 0.083 2e-3 1.804 0.077 3.959 2.734 5.306 8.053-1.819 3.136-3.633 7.298-5.205 12.639-1.008 3.423-1.674 7.07-2.105 10.665m0.232-11.387c1.389-4.683 3.047-8.779 4.935-12.19-1.205-4.238-2.784-5.726-3.246-5.782-0.652 0.017-3.03 2.186-4.735 8.619 1.16 2.795 2.184 5.937 3.046 9.353" fill="#fff"/></g><g transform="translate(136.48 428.76)"><path d="m0 0c-3.977-1.499-8.22-2.791-12.391-3.512-4.109-0.711-7.682-1.006-10.737-1.006-0.866 0-1.69 0.024-2.473 0.069-4.789-4.11-6.343-7.643-5.484-9.388 0.581-1.179 2.48-1.986 5.559-1.986 2.329 0 5.334 0.462 8.955 1.573 1.692 2.051 3.742 4.242 6.245 6.553 3.11 2.871 6.717 5.453 10.326 7.697m-10.533-5.197c-0.395-0.344-0.778-0.687-1.15-1.031-2.238-2.066-4.267-4.176-6.039-6.279-2.945-0.862-5.633-1.316-7.804-1.316-2.711 0-3.66 0.688-3.763 0.867-0.21 0.509 0.486 2.944 4.401 6.471 0.576-0.022 1.165-0.033 1.76-0.033 3.38 0 7.107 0.349 11.077 1.035 0.5 0.086 1.006 0.181 1.518 0.286" fill="#fff"/></g><g transform="translate(167.03 439.24)"><path d="m0 0c0-5.814-4.713-10.527-10.527-10.527s-10.528 4.713-10.528 10.527 4.714 10.527 10.528 10.527 10.527-4.713 10.527-10.527" fill="#fff"/></g></g></g></svg>
