<svg width="1913.3" height="1066.7" version="1.1" viewBox="0 0 1913.3 1066.7" xml:space="preserve" xmlns="http://www.w3.org/2000/svg"><defs><clipPath id="clipPath10423"><path d="m0 800h1435v-800h-1435z"/></clipPath><clipPath id="clipPath10469"><path d="m0 800h1435v-800h-1435z"/></clipPath><clipPath id="clipPath10503"><path d="m0 800h1435v-800h-1435z"/></clipPath><clipPath id="clipPath10643"><path d="m0 800h1435v-800h-1435z"/></clipPath><clipPath id="clipPath10659"><path d="m0 800h1435v-800h-1435z"/></clipPath></defs><g transform="matrix(1.3333 0 0 -1.3333 0 1066.7)"><path d="m0 0h1435v800h-1435z" fill="#66cae0"/><g clip-path="url(#clipPath10423)"><g transform="translate(664.88 669.12)"><path d="m0 0s23.093 20.256 59.582 20.256 49.84-23.232 94.52-23.232c44.679 0 69.681 23.232 69.681 23.232" fill="none" stroke="#bae8ec" stroke-miterlimit="10" stroke-width="3"/></g><g transform="translate(888.67 667.31)"><path d="m0 0s-25.002-23.232-69.681-23.232c-44.68 0-58.031 23.232-94.52 23.232-21.734 0-38.715-7.186-48.895-12.998" fill="none" stroke="#bae8ec" stroke-miterlimit="10" stroke-width="3"/></g><g transform="translate(682.01 635.61)"><path d="m0 0c10.284 4.895 24.802 9.636 42.455 9.636 36.489 0 49.841-23.232 94.52-23.232 44.68 0 69.682 23.232 69.682 23.232" fill="none" stroke="#bae8ec" stroke-miterlimit="10" stroke-width="3"/></g><g transform="translate(683.06 614.04)"><path d="m0 0c10.212 4.715 24.344 9.143 41.404 9.143 36.489 0 49.84-23.232 94.52-23.232 44.679 0 69.681 23.232 69.681 23.232" fill="none" stroke="#bae8ec" stroke-miterlimit="10" stroke-width="3"/></g><g transform="translate(664.88 580.86)"><path d="m0 0s23.093 20.256 59.582 20.256 49.84-23.232 94.52-23.232c44.679 0 69.681 23.232 69.681 23.232" fill="none" stroke="#bae8ec" stroke-miterlimit="10" stroke-width="3"/></g></g><g fill="#ffffff"><text transform="matrix(1 0 0 -1 582.83 464)" font-family="'Siro Light'" font-size="36px" font-weight="300"><tspan x="0 21.204 42.335999 63.216 84.384003 96.984001 116.46 129.20399 150.26401 158.832 178.308 190.87199 199.44 220.57201 241.48801 258.51239" y="0">Congratulations!</tspan></text><g font-size="18px"><text transform="matrix(1 0 0 -1 545.12 424)" font-family="'Siro Light'" font-weight="300"><tspan x="0 8.6400003 19.205999 29.736 35.099998 43.596001 53.604 58.338001 66.870003 76.877998 87.318001 93.599998 98.334 108.072 112.806 121.356 131.09399 135.37801 139.662 150.246 159.98399 166.26601 170.55 181.116 191.556 196.28999 200.57401 210.5442 216.8262 223.1082 233.1162 239.5602 244.2942 250.5762 261.14221" y="0">You've sent a validation letter to </tspan></text><text transform="matrix(1 0 0 -1 810.99 424)" font-family="'Siro SemiBold'" font-weight="600"><tspan x="0 12.186 22.643999 34.830002 40.212002 44.658001 54.360001 63.685799" y="0">DCQ, LLC</tspan></text><text transform="matrix(1 0 0 -1 884.94 424)" font-family="'Siro Light'" font-weight="300"><tspan x="0" y="0">.</tspan><tspan x="-342.35999 -337.67999 -331.39801 -326.664 -318.20401 -307.76401 -297.198 -286.668 -282.384 -271.79999 -267.06601 -257.328 -250.884 -244.44 -240.15601 -231.6618 -221.65379 -216.9198 -207.18179 -200.88181 -190.3158 -179.7858 -169.34579 -158.7618 -154.0278 -142.2738 -131.7438 -121.1598 -110.6298 -102.2778 -95.995796 -91.261803 -80.0298 -68.797798 -62.5158 -52.075802 -47.125801 -42.3918 -31.1598 -19.927799 -8.6957998 2.5362" y="21.6">It should arrive around August 29th, 2016.</tspan></text></g></g><g clip-path="url(#clipPath10469)"><g transform="translate(841.69 530.28)"><path d="m0 0h-166.38c-3.313 0-6 2.686-6 6v91.112c0 3.314 2.687 6 6 6h166.38c3.314 0 6-2.686 6-6v-91.112c0-3.314-2.686-6-6-6" fill="#b9e8ec"/></g><g transform="translate(840.69 534.28)"><path d="m0 0h-168.38c-1.656 0-3 1.343-3 3v93.112c0 1.657 1.344 3 3 3h168.38c1.657 0 3-1.343 3-3v-93.112c0-1.657-1.343-3-3-3" fill="#fff"/></g><g><path d="m834.46 602.67h-21.089v21.089h21.089z" fill="#f7f128"/><path d="m744.73 575.38h-63.73v16.125h63.73z" fill="#e4f6f8"/><path d="m763.5 551.5h-82.5v16.125h82.5z" fill="#e4f6f8"/></g><g transform="translate(617.56 689.38)"><path d="m0 0c-36.175 0-65.5-29.325-65.5-65.5s29.325-65.5 65.5-65.5 65.5 29.325 65.5 65.5-29.325 65.5-65.5 65.5m0-3c34.463 0 62.5-28.037 62.5-62.5s-28.037-62.5-62.5-62.5-62.5 28.037-62.5 62.5 28.037 62.5 62.5 62.5" fill="#bae8ec"/></g></g><text transform="matrix(1 0 0 -1 571.96 632.61)" fill="#b9e8ec" font-family="'Siro SemiBold'" font-size="25.658px" font-weight="600"><tspan x="0 16.446714 33.868427 50.853958 57.19146 73.201988" y="0">AUG 29</tspan></text><text transform="matrix(1 0 0 -1 570.31 598.61)" fill="#b9e8ec" font-family="'Siro SemiBold'" font-size="37.061px" font-weight="600"><tspan x="0 23.126314 46.252628 69.378944" y="0">2016</tspan></text><g clip-path="url(#clipPath10503)"><path d="m957.5 199.43h-480v149.57h480z" fill="#418294"/><g transform="translate(518.55 250.44)"><path d="m0 0h1.433c2.3 0.049 3.212 0.946 3.212 3.276 0 2.119-1.142 3.145-3.212 3.145h-1.433zm-3.031 9.028h5.004c3.568 0 5.703-2.167 5.703-5.769 0-3.813-2.167-5.866-5.703-5.866h-5.004z" fill="#fff"/></g><g transform="translate(533.22 252.94)"><path d="m0 0c-0.048 0.947-0.717 1.729-1.646 1.729-0.978 0-1.63-0.701-1.792-1.729zm-3.438-1.547c0.047-1.158 0.716-1.924 1.89-1.924 0.669 0 1.319 0.311 1.581 0.929h2.591c-0.506-1.954-2.314-2.804-4.205-2.804-2.754 0-4.629 1.664-4.629 4.5 0 2.59 2.07 4.449 4.564 4.449 3.032 0 4.545-2.281 4.418-5.15z" fill="#fff"/></g><g transform="translate(539.71 252.16)"><path d="m0 0c0-1.484 0.424-2.446 1.68-2.446 1.239 0 1.663 1.288 1.663 2.446 0 1.074-0.424 2.264-1.645 2.264-0.752 0-1.698-0.521-1.698-2.264m-2.672 4.139h2.64v-0.979h0.032c0.539 0.8 1.353 1.223 2.332 1.223 2.657 0 3.781-2.282 3.781-4.66 0-2.201-1.174-4.288-3.569-4.288-1.043 0-1.842 0.392-2.412 1.158h-0.032v-3.748h-2.772z" fill="#fff"/></g><g transform="translate(550.42 249.3)"><path d="m0 0c1.319 0 1.758 0.748 1.693 2.493-0.389-0.245-1.108-0.293-1.71-0.457-0.62-0.147-1.141-0.406-1.141-1.076 0-0.684 0.539-0.96 1.158-0.96m-3.588 4.383c0.05 1.108 0.572 1.826 1.321 2.266 0.751 0.423 1.728 0.586 2.689 0.586 2.005 0 3.945-0.44 3.945-2.835v-3.699c0-0.718 0-1.501 0.325-2.168h-2.786c-0.098 0.26-0.13 0.52-0.163 0.797-0.719-0.749-1.775-1.044-2.787-1.044-1.613 0-2.884 0.817-2.884 2.561 0 2.754 2.999 2.542 4.922 2.931 0.472 0.099 0.732 0.263 0.732 0.784 0 0.636-0.767 0.881-1.336 0.881-0.767 0-1.254-0.343-1.386-1.06z" fill="#fff"/></g><g transform="translate(556.36 256.29)"><path d="m0 0h2.689v-1.483h0.033c0.407 1.076 1.351 1.647 2.542 1.647 0.21 0 0.439-0.017 0.652-0.067v-2.525c-0.36 0.098-0.685 0.162-1.061 0.162-1.369 0-2.086-0.946-2.086-2.004v-4.188h-2.769z" fill="#fff"/></g><g transform="translate(568.38 254.5)"><path d="m0 0h-1.713v-3.846c0-0.668 0.392-0.815 0.996-0.815 0.228 0 0.472 0.033 0.717 0.033v-2.037c-0.505-0.017-1.011-0.082-1.518-0.082-2.362 0-2.966 0.685-2.966 2.981v3.766h-1.399v1.794h1.399v2.557h2.771v-2.557h1.713z" fill="#fff"/></g><g transform="translate(569.44 256.29)"><path d="m0 0h2.687v-1.157h0.033c0.506 0.847 1.403 1.402 2.429 1.402 1.059 0 2.005-0.342 2.46-1.371 0.669 0.897 1.5 1.371 2.64 1.371 2.691 0 2.983-2.038 2.983-3.652v-5.051h-2.769v4.97c0 0.912-0.44 1.452-1.159 1.452-1.188 0-1.303-0.914-1.303-2.283v-4.139h-2.772v4.807c0 0.994-0.292 1.615-1.041 1.615-0.994 0-1.418-0.572-1.418-2.299v-4.123h-2.77z" fill="#fff"/></g><g transform="translate(589.98 252.94)"><path d="m0 0c-0.048 0.947-0.717 1.729-1.646 1.729-0.978 0-1.628-0.701-1.793-1.729zm-3.439-1.547c0.048-1.158 0.717-1.924 1.891-1.924 0.669 0 1.321 0.311 1.58 0.929h2.592c-0.504-1.954-2.314-2.804-4.205-2.804-2.754 0-4.627 1.664-4.627 4.5 0 2.59 2.068 4.449 4.562 4.449 3.032 0 4.547-2.281 4.415-5.15z" fill="#fff"/></g><g transform="translate(593.8 256.29)"><path d="m0 0h2.689v-1.157h0.033c0.504 0.865 1.645 1.402 2.657 1.402 2.819 0 3.046-2.054 3.046-3.276v-5.427h-2.769v4.09c0 1.156 0.13 2.332-1.386 2.332-1.044 0-1.498-0.882-1.498-1.81v-4.612h-2.772z" fill="#fff"/></g><g transform="translate(608.74 254.5)"><path d="m0 0h-1.713v-3.846c0-0.668 0.392-0.815 0.996-0.815 0.23 0 0.472 0.033 0.717 0.033v-2.037c-0.507-0.017-1.011-0.082-1.516-0.082-2.362 0-2.966 0.685-2.966 2.981v3.766h-1.401v1.794h1.401v2.557h2.769v-2.557h1.713z" fill="#fff"/></g><g transform="translate(618.5 249.71)"><path d="m0 0c1.286 0 1.693 1.271 1.693 2.347s-0.407 2.364-1.693 2.364c-1.288 0-1.68-1.288-1.68-2.364s0.392-2.347 1.68-2.347m0 6.828c2.622 0 4.465-1.938 4.465-4.481s-1.843-4.467-4.465-4.467c-2.624 0-4.45 1.924-4.45 4.467s1.826 4.481 4.45 4.481" fill="#fff"/></g><g transform="translate(624.52 254.5)"><path d="m0 0h-1.336v1.794h1.336c0 2.427 0.849 3.176 3.211 3.176 0.44 0 0.897-0.032 1.336-0.048v-1.955c-0.26 0.033-0.504 0.048-0.749 0.048-0.634 0-1.026-0.082-1.026-0.847v-0.374h1.663v-1.794h-1.663v-6.665h-2.772z" fill="#fff"/></g><g transform="translate(523.25 237.43)"><path d="m0 0c-0.164 1.173-1.076 1.793-2.347 1.793-1.958 0-2.707-1.728-2.707-3.456s0.749-3.454 2.707-3.454c1.418 0 2.232 0.814 2.347 2.15h3.031c-0.164-2.999-2.362-4.759-5.313-4.759-3.521 0-5.802 2.691-5.802 6.063 0 3.373 2.281 6.063 5.802 6.063 2.509 0 5.231-1.598 5.313-4.4z" fill="#fff"/></g><g transform="translate(531.46 231.82)"><path d="m0 0c1.288 0 1.695 1.271 1.695 2.347 0 1.075-0.407 2.363-1.695 2.363s-1.678-1.288-1.678-2.363c0-1.076 0.39-2.347 1.678-2.347m0 6.827c2.624 0 4.465-1.938 4.465-4.48 0-2.544-1.841-4.466-4.465-4.466s-4.45 1.922-4.45 4.466c0 2.542 1.826 4.48 4.45 4.48" fill="#fff"/></g><g transform="translate(537.04 238.4)"><path d="m0 0h2.689v-1.156h0.033c0.504 0.864 1.645 1.401 2.657 1.401 2.819 0 3.046-2.053 3.046-3.274v-5.429h-2.769v4.093c0 1.156 0.128 2.329-1.386 2.329-1.044 0-1.498-0.881-1.498-1.81v-4.612h-2.772z" fill="#fff"/></g><g transform="translate(549.17 232.73)"><path d="m0 0c0-0.423 0.178-0.733 0.455-0.946 0.259-0.196 0.636-0.294 1.026-0.294 0.539 0 1.304 0.229 1.304 0.898 0 0.652-0.862 0.783-1.352 0.895-1.745 0.441-3.927 0.49-3.927 2.77 0 2.037 2.2 2.594 3.862 2.594 1.858 0 3.796-0.541 3.894-2.739h-2.557c0 0.358-0.13 0.585-0.36 0.733-0.227 0.146-0.537 0.212-0.879 0.212-0.457 0-1.189-0.05-1.189-0.636 0-0.799 1.858-0.944 3.129-1.223 1.709-0.341 2.15-1.581 2.15-2.28 0-2.266-2.15-3.017-4.058-3.017-2.005 0-4.057 0.671-4.14 3.033z" fill="#fff"/></g><g transform="translate(564.16 229.94)"><path d="m0 0h-2.687v1.158h-0.035c-0.522-0.866-1.598-1.403-2.574-1.403-2.428 0-3.129 1.403-3.129 3.619v5.084h2.769v-4.904c0-1.125 0.49-1.516 1.369-1.516 0.604 0 1.518 0.391 1.518 1.89v4.53h2.769z" fill="#fff"/></g><g transform="translate(565.71 238.4)"><path d="m0 0h2.689v-1.156h0.033c0.506 0.846 1.403 1.401 2.427 1.401 1.061 0 2.007-0.342 2.462-1.369 0.669 0.897 1.501 1.369 2.642 1.369 2.689 0 2.981-2.036 2.981-3.651v-5.052h-2.769v4.972c0 0.912-0.44 1.45-1.158 1.45-1.189 0-1.304-0.913-1.304-2.281v-4.141h-2.769v4.808c0 0.994-0.295 1.614-1.046 1.614-0.992 0-1.416-0.571-1.416-2.297v-4.125h-2.772z" fill="#fff"/></g><g transform="translate(586.25 235.05)"><path d="m0 0c-0.048 0.946-0.717 1.728-1.646 1.728-0.978 0-1.628-0.702-1.793-1.728zm-3.439-1.548c0.048-1.158 0.717-1.923 1.891-1.923 0.669 0 1.321 0.31 1.58 0.929h2.592c-0.504-1.956-2.314-2.803-4.205-2.803-2.752 0-4.627 1.662-4.627 4.498 0 2.59 2.07 4.449 4.562 4.449 3.032 0 4.548-2.282 4.415-5.15z" fill="#fff"/></g><g transform="translate(590.12 238.4)"><path d="m0 0h2.689v-1.481h0.033c0.407 1.075 1.353 1.645 2.542 1.645 0.212 0 0.439-0.017 0.652-0.064v-2.527c-0.36 0.097-0.685 0.163-1.059 0.163-1.369 0-2.088-0.945-2.088-2.005v-4.189h-2.769z" fill="#fff"/></g><g transform="translate(604.91 234.28)"><path d="m0 0h2.642l-1.289 4.075h-0.032zm-0.195 7.301h3.079l4.352-11.636h-3.163l-0.715 2.085h-4.06l-0.734-2.085h-3.111z" fill="#fff"/></g><g transform="translate(613.02 236.61)"><path d="m0 0h-1.336v1.791h1.336c0 2.429 0.849 3.178 3.211 3.178 0.44 0 0.897-0.032 1.336-0.049v-1.956c-0.26 0.033-0.504 0.049-0.749 0.049-0.634 0-1.026-0.08-1.026-0.845v-0.377h1.663v-1.791h-1.663v-6.667h-2.772z" fill="#fff"/></g><g transform="translate(619.06 236.61)"><path d="m0 0h-1.334v1.791h1.334c0 2.429 0.849 3.178 3.213 3.178 0.44 0 0.897-0.032 1.334-0.049v-1.956c-0.26 0.033-0.504 0.049-0.749 0.049-0.637 0-1.026-0.08-1.026-0.845v-0.377h1.66v-1.791h-1.66v-6.667h-2.772z" fill="#fff"/></g><g transform="translate(627.61 231.41)"><path d="m0 0c1.321 0 1.76 0.747 1.695 2.492-0.389-0.244-1.108-0.292-1.71-0.454-0.619-0.148-1.141-0.409-1.141-1.077 0-0.684 0.539-0.961 1.156-0.961m-3.584 4.383c0.048 1.108 0.57 1.826 1.319 2.266 0.749 0.423 1.728 0.586 2.689 0.586 2.006 0 3.946-0.44 3.946-2.835v-3.699c0-0.717 0-1.5 0.324-2.169h-2.786c-0.096 0.262-0.13 0.522-0.163 0.799-0.719-0.749-1.777-1.044-2.786-1.044-1.614 0-2.887 0.817-2.887 2.56 0 2.753 2.999 2.543 4.922 2.933 0.472 0.097 0.734 0.261 0.734 0.782 0 0.637-0.764 0.881-1.336 0.881-0.767 0-1.254-0.344-1.386-1.06z" fill="#fff"/></g><path d="m633.55 238.4h2.77v-8.458h-2.77zm2.769 1.061h-2.77v2.118h2.77z" fill="#fff"/><g transform="translate(637.94 238.4)"><path d="m0 0h2.689v-1.481h0.033c0.407 1.075 1.353 1.645 2.542 1.645 0.212 0 0.439-0.017 0.654-0.064v-2.527c-0.36 0.097-0.687 0.163-1.061 0.163-1.369 0-2.088-0.945-2.088-2.005v-4.189h-2.769z" fill="#fff"/></g><g transform="translate(646.78 232.73)"><path d="m0 0c0-0.423 0.177-0.733 0.457-0.946 0.26-0.196 0.634-0.294 1.024-0.294 0.541 0 1.306 0.229 1.306 0.898 0 0.652-0.864 0.783-1.354 0.895-1.743 0.441-3.927 0.49-3.927 2.77 0 2.037 2.2 2.594 3.86 2.594 1.86 0 3.798-0.541 3.898-2.739h-2.56c0 0.358-0.129 0.585-0.359 0.733-0.227 0.146-0.537 0.212-0.879 0.212-0.457 0-1.189-0.05-1.189-0.636 0-0.799 1.856-0.944 3.129-1.223 1.711-0.341 2.152-1.581 2.152-2.28 0-2.266-2.152-3.017-4.06-3.017-2.005 0-4.057 0.671-4.14 3.033z" fill="#fff"/></g><g transform="translate(647.94 318.73)"><path d="m0 0h-29.506l-8.852-8.852v-29.507l8.852-8.852h29.506l8.853 8.852v8.853l-2.952 2.956h-14.751v-2.956h-11.805v11.803h11.805v-2.915h14.751l2.952 2.915v8.851z" fill="#fff"/></g><g transform="translate(559.42 318.73)"><path d="m0 0h-11.803l-2.95-2.951v-11.801l-14.753 14.752h-11.802l-2.952-2.951v-41.308l2.952-2.952h11.802l2.951 2.952v11.802l14.752-14.754h11.803l2.95 2.952v41.308z" fill="#fff"/></g><g transform="translate(580.08 271.52)"><path d="m0 0h11.803l2.951 2.951v8.851l14.752 14.751v17.706l-2.949 2.949h-11.803l-2.951-2.949v-5.903l-5.9-5.9-5.903 5.9v5.903l-2.95 2.949h-11.803l-2.951-2.949v-17.706l14.754-14.751v-8.851z" fill="#fff"/></g><g transform="translate(656.78 316.22)"><path d="m0 0h-0.454v2.021l-0.697-2.021h-0.4l-0.704 2.021v-2.021h-0.462v2.511h0.724l0.634-1.8 0.642 1.8h0.717v-2.511m-3.958 0h-0.503v2.09h-0.821v0.421h2.145v-0.421h-0.821z" fill="#fff"/></g></g><text transform="matrix(1 0 0 -1 706.5 285.51)" fill="#ffffff" font-family="'Siro Light'" font-size="18px" font-weight="300"><tspan x="0 16.146 26.153999 36.125999 42.408001 47.141998 60.785999 65.07 71.351997 81.792 86.526001 96.264 100.998 107.028 113.328 123.336 133.34399 138.078 148.392 158.7942 168.5322 178.9722 187.5042 191.78819 201.5262" y="0">Meet with a free fnancial</tspan><tspan x="0 10.602 21.167999 30.906 39.438 49.877998 54.612 60.641998 66.942001 77.508003 93.222 97.956001 104.238 114.678 124.686 129.42 139.842 145.87199 156.186 164.89799 174.90601 179.64 190.062 196.092" y="21.6">Coach from the offce of </tspan><tspan x="0 10.314 20.718 30.455999 40.896 49.428001 53.712002 63.450001 67.734001 72.468002 82.475998 98.190002 108.774 119.25 132.804 142.812 149.256 164.97 174.978 185.418 191.88" y="43.200001">fnancial empowerment.</tspan></text><g clip-path="url(#clipPath10643)"><path d="m957.5 39.859h-480v149.57h480z" fill="#418294"/></g><text transform="matrix(1 0 0 -1 706.5 118.48)" fill="#ffffff" font-family="'Siro Light'" font-size="18px" font-weight="300"><tspan x="0 10.224 20.232 30.672001 41.256001 45.990002 55.728001 60.462002 64.746002 74.718002 81 87.281998 97.290001 103.734 108.468 114.75 125.316 130.05 139.78799 150.37199 160.95599 165.24001 171.522 175.806 186.37199 196.776 206.51401" y="0">Send a letter to additional</tspan><tspan x="0 10.584 20.591999 30.996 37.278 42.012001 50.723999 61.290001 65.573997 69.858002 79.865997 88.432198 94.714203 98.998199 109.5642 120.0042 124.7382 134.4762 145.0602 155.06821 165.50819 174.04021 178.3242 188.36639 196.8264 201.7764" y="21.6">debt collection agencies. </tspan></text><g clip-path="url(#clipPath10659)"><g transform="translate(642.53 125.68)"><path d="m0 0-57.285 42.813-58.604-42.813z" fill="#b9e8ec"/></g><g transform="translate(640.14 59.682)"><path d="m0 0h-111.12c-1.657 0-3 1.343-3 3v60.571c0 1.657 1.343 3 3 3h111.12c1.657 0 3-1.343 3-3v-60.571c0-1.657-1.343-3-3-3" fill="#fff"/></g><g transform="translate(527.27 126.25)"><path d="m0 0 57.805-33.879 56.568 33.871z" fill="#b9e8ec"/></g><g transform="translate(585.08 95.061)"><path d="m0 0-43.467 25.475v37.929h88.046v-36.56z" fill="#fff"/></g><path d="m571.25 138.94h-19.926v8.819h19.926z" fill="#f7f128"/><path d="m571.25 131.05h-19.926v2.933h19.926z" fill="#f7f128"/><g transform="translate(585.08 95.061)"><path d="m0 0-33.752 19.781v8.897l68.728-8e-3v-7.609z" fill="#e4f6f8"/></g><g transform="translate(642.53 125.68)"><path d="m0 0-57.285 42.813-58.604-42.813z" fill="#b9e8ec"/></g><g transform="translate(640.14 59.682)"><path d="m0 0h-111.12c-1.657 0-3 1.343-3 3v60.571c0 1.657 1.343 3 3 3h111.12c1.657 0 3-1.343 3-3v-60.571c0-1.657-1.343-3-3-3" fill="#fff"/></g><g transform="translate(527.27 126.25)"><path d="m0 0 57.805-33.879 56.568 33.871z" fill="#b9e8ec"/></g><g transform="translate(585.08 95.061)"><path d="m0 0-43.467 25.475v37.929h88.046v-36.56z" fill="#fff"/></g><path d="m571.25 138.94h-19.926v8.819h19.926z" fill="#f7f128"/><path d="m571.25 131.05h-19.926v2.933h19.926z" fill="#f7f128"/><g transform="translate(585.08 95.061)"><path d="m0 0-33.752 19.781v8.897l68.728-8e-3v-7.609z" fill="#e4f6f8"/></g></g></g></svg>
