<svg width="873" height="164" viewBox="0 0 873 164" fill="none" xmlns="http://www.w3.org/2000/svg">
<path d="M446.505 68.3803L456 59.0104V30.5052L427.495 2H332.505L304 30.5052V11.5156L294.505 2H256.505L247.01 11.5156V30.5052L228 49.5156L209.01 30.5052V11.5156L199.495 2H161.495L152 11.5156L142.505 2H104.505L95.0104 11.5156V49.5156L47.4948 2H9.49479L0 11.5156V144.505L9.49479 154H47.4948L57.0104 144.505V106.505L104.505 154H142.505L152 144.505V68.5052L199.495 116V144.505L209.01 154H247.01L256.505 144.505V116L304 68.5052V125.516L332.505 154H427.495L456 125.516V97.0104L446.505 87.4948H398.99V97.0104H361.01V59.0104H398.99V68.3803H446.505Z" fill="#FFF"/>
<path d="M449.233 8.41318C450.128 8.41318 450.899 8.32989 450.899 7.2888C450.899 6.41427 450.045 6.31016 449.337 6.31016H447.9V8.41318H449.233ZM447.921 12.4943H446.734V5.31071H449.462C451.19 5.31071 452.085 5.91455 452.085 7.37208C452.085 8.68386 451.294 9.20441 450.211 9.32934L452.231 12.4943H450.899L449.045 9.41263H447.942V12.4943H447.921ZM449.191 3.41592C446.38 3.41592 444.194 5.62304 444.194 8.78797C444.194 11.7447 446.109 14.16 449.191 14.16C451.981 14.16 454.168 11.9737 454.168 8.78797C454.168 5.62304 451.981 3.41592 449.191 3.41592ZM449.191 15.2844C445.464 15.2844 442.799 12.4943 442.799 8.78797C442.799 4.87345 445.756 2.29153 449.191 2.29153C452.585 2.29153 455.542 4.87345 455.542 8.78797C455.563 12.6817 452.606 15.2844 449.191 15.2844Z" fill="#FFF"/>
<path d="M494.445 40H503.72V11.274H503.826L511.776 40H519.302L527.252 11.274H527.358V40H536.633V2.158H522.111L515.592 27.386H515.486L508.967 2.158H494.445V40ZM550.613 32.103C550.613 29.93 552.309 29.082 554.323 28.605C556.284 28.075 558.616 27.916 559.888 27.121C560.1 32.792 558.669 35.23 554.376 35.23C552.362 35.23 550.613 34.329 550.613 32.103ZM551.143 20.973C551.567 18.641 553.157 17.528 555.648 17.528C557.503 17.528 559.994 18.323 559.994 20.39C559.994 22.086 559.146 22.616 557.609 22.934C551.355 24.206 541.603 23.517 541.603 32.474C541.603 38.145 545.737 40.795 550.984 40.795C554.27 40.795 557.715 39.841 560.047 37.403C560.153 38.304 560.259 39.152 560.577 40H569.64C568.58 37.827 568.58 35.283 568.58 32.951V20.92C568.58 13.129 562.273 11.698 555.754 11.698C552.627 11.698 549.447 12.228 547.009 13.606C544.571 15.037 542.875 17.369 542.716 20.973H551.143ZM601.958 12.493H592.736L587.542 30.407H587.436L582.242 12.493H572.702L579.804 31.626C580.334 33.11 582.083 37.35 582.083 38.834C582.083 40.742 580.546 41.908 578.479 41.908H575.352V49.222H579.592C585.687 49.222 588.92 48.48 591.093 42.438L601.958 12.493ZM612.246 26.273C612.246 22.775 613.518 18.588 617.705 18.588C621.892 18.588 623.217 22.775 623.217 26.273C623.217 29.771 621.892 33.905 617.705 33.905C613.518 33.905 612.246 29.771 612.246 26.273ZM603.236 26.273C603.236 34.541 609.172 40.795 617.705 40.795C626.238 40.795 632.227 34.541 632.227 26.273C632.227 18.005 626.238 11.698 617.705 11.698C609.172 11.698 603.236 18.005 603.236 26.273ZM637.28 40H646.29V26.379C646.29 22.934 648.622 19.86 653.074 19.86C654.293 19.86 655.353 20.072 656.519 20.39V12.175C655.83 12.016 655.088 11.963 654.399 11.963C650.53 11.963 647.456 13.818 646.131 17.316H646.025V12.493H637.28V40ZM660.164 12.016H663.98C664.139 14.454 662.496 16.574 660.164 16.998V21.238C665.941 20.284 668.538 16.256 668.591 10.956V2.158H660.164V12.016ZM669.687 30.937C669.952 38.622 676.63 40.795 683.149 40.795C689.35 40.795 696.346 38.357 696.346 30.99C696.346 28.711 694.915 24.683 689.35 23.57C685.216 22.669 679.174 22.192 679.174 19.595C679.174 17.687 681.559 17.528 683.043 17.528C684.156 17.528 685.163 17.74 685.905 18.217C686.647 18.694 687.071 19.436 687.071 20.602H695.392C695.074 13.447 688.767 11.698 682.725 11.698C677.319 11.698 670.164 13.5 670.164 20.125C670.164 27.545 677.266 27.704 682.937 29.135C684.527 29.506 687.336 29.93 687.336 32.05C687.336 34.223 684.845 34.965 683.096 34.965C681.824 34.965 680.605 34.647 679.757 34.011C678.856 33.322 678.273 32.315 678.273 30.937H669.687ZM716.385 21.079C716.385 32.05 723.116 40.795 735.041 40.795C746.966 40.795 753.697 32.05 753.697 21.079C753.697 10.108 746.966 1.363 735.041 1.363C723.116 1.363 716.385 10.108 716.385 21.079ZM726.243 21.079C726.243 15.461 728.681 9.843 735.041 9.843C741.401 9.843 743.839 15.461 743.839 21.079C743.839 26.697 741.401 32.315 735.041 32.315C728.681 32.315 726.243 26.697 726.243 21.079ZM760.657 40H769.667V18.323H775.073V12.493H769.667V11.274C769.667 8.783 770.939 8.518 773.006 8.518C773.801 8.518 774.596 8.571 775.444 8.677V2.317C774.013 2.264 772.529 2.158 771.098 2.158C763.413 2.158 760.657 4.596 760.657 12.493H756.311V18.323H760.657V40ZM780.273 40H789.283V18.323H794.689V12.493H789.283V11.274C789.283 8.783 790.555 8.518 792.622 8.518C793.417 8.518 794.212 8.571 795.06 8.677V2.317C793.629 2.264 792.145 2.158 790.714 2.158C783.029 2.158 780.273 4.596 780.273 12.493H775.927V18.323H780.273V40ZM798.776 40H807.786V12.493H798.776V40ZM807.786 2.158H798.776V9.048H807.786V2.158ZM840.27 22.563C839.634 15.302 833.539 11.698 826.702 11.698C817.851 11.698 812.286 17.952 812.286 26.697C812.286 35.124 818.434 40.795 826.702 40.795C834.016 40.795 839.74 36.555 840.535 29.188H831.79C831.366 32.103 829.776 33.905 826.649 33.905C822.833 33.905 821.296 30.248 821.296 26.697C821.296 22.881 822.091 18.588 827.126 18.588C829.405 18.588 831.472 20.231 831.525 22.563H840.27ZM851.653 23.411C852.183 20.072 854.303 17.793 857.483 17.793C860.504 17.793 862.677 20.337 862.836 23.411H851.653ZM871.846 28.446C872.27 19.118 867.341 11.698 857.483 11.698C849.374 11.698 842.643 17.74 842.643 26.167C842.643 35.389 848.738 40.795 857.695 40.795C863.843 40.795 869.726 38.039 871.369 31.679H862.942C862.094 33.693 859.974 34.7 857.801 34.7C853.985 34.7 851.812 32.209 851.653 28.446H871.846ZM495.982 97H504.992V75.323H510.398V69.493H504.992V68.274C504.992 65.783 506.264 65.518 508.331 65.518C509.126 65.518 509.921 65.571 510.769 65.677V59.317C509.338 59.264 507.854 59.158 506.423 59.158C498.738 59.158 495.982 61.596 495.982 69.493H491.636V75.323H495.982V97ZM521.322 83.273C521.322 79.775 522.594 75.588 526.781 75.588C530.968 75.588 532.293 79.775 532.293 83.273C532.293 86.771 530.968 90.905 526.781 90.905C522.594 90.905 521.322 86.771 521.322 83.273ZM512.312 83.273C512.312 91.541 518.248 97.795 526.781 97.795C535.314 97.795 541.303 91.541 541.303 83.273C541.303 75.005 535.314 68.698 526.781 68.698C518.248 68.698 512.312 75.005 512.312 83.273ZM546.356 97H555.366V83.379C555.366 79.934 557.698 76.86 562.15 76.86C563.369 76.86 564.429 77.072 565.595 77.39V69.175C564.906 69.016 564.164 68.963 563.475 68.963C559.606 68.963 556.532 70.818 555.207 74.316H555.101V69.493H546.356V97ZM585.693 97H616.38V88.52H595.551V81.312H614.101V73.68H595.551V67.055H615.85V59.158H585.693V97ZM647.733 79.563C647.097 72.302 641.002 68.698 634.165 68.698C625.314 68.698 619.749 74.952 619.749 83.697C619.749 92.124 625.897 97.795 634.165 97.795C641.479 97.795 647.203 93.555 647.998 86.188H639.253C638.829 89.103 637.239 90.905 634.112 90.905C630.296 90.905 628.759 87.248 628.759 83.697C628.759 79.881 629.554 75.588 634.589 75.588C636.868 75.588 638.935 77.231 638.988 79.563H647.733ZM660.176 83.273C660.176 79.775 661.448 75.588 665.635 75.588C669.822 75.588 671.147 79.775 671.147 83.273C671.147 86.771 669.822 90.905 665.635 90.905C661.448 90.905 660.176 86.771 660.176 83.273ZM651.166 83.273C651.166 91.541 657.102 97.795 665.635 97.795C674.168 97.795 680.157 91.541 680.157 83.273C680.157 75.005 674.168 68.698 665.635 68.698C657.102 68.698 651.166 75.005 651.166 83.273ZM684.361 97H693.371V82.001C693.371 78.98 694.855 76.118 698.247 76.118C703.176 76.118 702.752 79.934 702.752 83.697V97H711.762V79.351C711.762 75.376 711.02 68.698 701.851 68.698C698.565 68.698 694.855 70.447 693.212 73.256H693.106V69.493H684.361V97ZM724.9 83.273C724.9 79.775 726.172 75.588 730.359 75.588C734.546 75.588 735.871 79.775 735.871 83.273C735.871 86.771 734.546 90.905 730.359 90.905C726.172 90.905 724.9 86.771 724.9 83.273ZM715.89 83.273C715.89 91.541 721.826 97.795 730.359 97.795C738.892 97.795 744.881 91.541 744.881 83.273C744.881 75.005 738.892 68.698 730.359 68.698C721.826 68.698 715.89 75.005 715.89 83.273ZM749.086 97H758.096V83.591C758.096 77.973 759.474 76.118 762.707 76.118C765.145 76.118 766.099 78.132 766.099 81.365V97H775.109V83.538C775.109 79.086 775.48 76.118 779.349 76.118C781.681 76.118 783.112 77.867 783.112 80.835V97H792.122V80.57C792.122 75.323 791.168 68.698 782.423 68.698C778.713 68.698 776.01 70.235 773.837 73.15C772.353 69.811 769.279 68.698 765.834 68.698C762.495 68.698 759.58 70.5 757.937 73.256H757.831V69.493H749.086V97ZM798.47 97H807.48V69.493H798.47V97ZM807.48 59.158H798.47V66.048H807.48V59.158ZM840.494 79.563C839.858 72.302 833.763 68.698 826.926 68.698C818.075 68.698 812.51 74.952 812.51 83.697C812.51 92.124 818.658 97.795 826.926 97.795C834.24 97.795 839.964 93.555 840.759 86.188H832.014C831.59 89.103 830 90.905 826.873 90.905C823.057 90.905 821.52 87.248 821.52 83.697C821.52 79.881 822.315 75.588 827.35 75.588C829.629 75.588 831.696 77.231 831.749 79.563H840.494ZM492.961 135.079C492.961 146.05 499.692 154.795 511.617 154.795C523.542 154.795 530.273 146.05 530.273 135.079C530.273 124.108 523.542 115.363 511.617 115.363C499.692 115.363 492.961 124.108 492.961 135.079ZM502.819 135.079C502.819 129.461 505.257 123.843 511.617 123.843C517.977 123.843 520.415 129.461 520.415 135.079C520.415 140.697 517.977 146.315 511.617 146.315C505.257 146.315 502.819 140.697 502.819 135.079ZM548.946 132.588C552.921 132.588 554.299 136.457 554.299 139.955C554.299 143.718 552.921 147.905 548.893 147.905C544.812 147.905 543.434 144.778 543.434 139.955C543.434 134.284 546.508 132.588 548.946 132.588ZM534.742 163.222H543.752V151.032H543.858C545.713 153.523 548.31 154.795 551.702 154.795C559.493 154.795 563.309 148.011 563.309 140.856C563.309 133.118 559.652 125.698 551.013 125.698C547.833 125.698 545.183 127.076 543.434 129.673H543.328V126.493H534.742V163.222ZM582.33 132.588C586.305 132.588 587.683 136.457 587.683 139.955C587.683 143.718 586.305 147.905 582.277 147.905C578.196 147.905 576.818 144.778 576.818 139.955C576.818 134.284 579.892 132.588 582.33 132.588ZM568.126 163.222H577.136V151.032H577.242C579.097 153.523 581.694 154.795 585.086 154.795C592.877 154.795 596.693 148.011 596.693 140.856C596.693 133.118 593.036 125.698 584.397 125.698C581.217 125.698 578.567 127.076 576.818 129.673H576.712V126.493H568.126V163.222ZM609.195 140.273C609.195 136.775 610.467 132.588 614.654 132.588C618.841 132.588 620.166 136.775 620.166 140.273C620.166 143.771 618.841 147.905 614.654 147.905C610.467 147.905 609.195 143.771 609.195 140.273ZM600.185 140.273C600.185 148.541 606.121 154.795 614.654 154.795C623.187 154.795 629.176 148.541 629.176 140.273C629.176 132.005 623.187 125.698 614.654 125.698C606.121 125.698 600.185 132.005 600.185 140.273ZM633.168 154H642.178V140.379C642.178 136.934 644.51 133.86 648.962 133.86C650.181 133.86 651.241 134.072 652.407 134.39V126.175C651.718 126.016 650.976 125.963 650.287 125.963C646.418 125.963 643.344 127.818 642.019 131.316H641.913V126.493H633.168V154ZM673.595 126.493H668.03V118.172H659.02V126.493H654.462V132.323H659.02V144.566C659.02 152.039 660.981 154.265 668.666 154.265C670.309 154.265 671.952 154.053 673.595 154V147.375C672.8 147.375 672.005 147.481 671.263 147.481C669.302 147.481 668.03 147.004 668.03 144.831V132.323H673.595V126.493ZM704.954 126.493H695.944V141.227C695.944 146.103 692.976 147.375 691.015 147.375C688.153 147.375 686.563 146.103 686.563 142.446V126.493H677.553V143.029C677.553 150.237 679.832 154.795 687.729 154.795C690.909 154.795 694.407 153.046 696.103 150.237H696.209V154H704.954V126.493ZM710.99 154H720V139.001C720 135.98 721.484 133.118 724.876 133.118C729.805 133.118 729.381 136.934 729.381 140.697V154H738.391V136.351C738.391 132.376 737.649 125.698 728.48 125.698C725.194 125.698 721.484 127.447 719.841 130.256H719.735V126.493H710.99V154ZM744.692 154H753.702V126.493H744.692V154ZM753.702 116.158H744.692V123.048H753.702V116.158ZM776.645 126.493H771.08V118.172H762.07V126.493H757.512V132.323H762.07V144.566C762.07 152.039 764.031 154.265 771.716 154.265C773.359 154.265 775.002 154.053 776.645 154V147.375C775.85 147.375 775.055 147.481 774.313 147.481C772.352 147.481 771.08 147.004 771.08 144.831V132.323H776.645V126.493ZM806.52 126.493H797.298L792.104 144.407H791.998L786.804 126.493H777.264L784.366 145.626C784.896 147.11 786.645 151.35 786.645 152.834C786.645 154.742 785.108 155.908 783.041 155.908H779.914V163.222H784.154C790.249 163.222 793.482 162.48 795.655 156.438L806.52 126.493Z" fill="#FFF"/>
</svg>
