<svg width="594" height="283" viewBox="0 0 594 283" fill="none" xmlns="http://www.w3.org/2000/svg">
<path d="M450.505 66.3803L460 57.0104V28.5052L431.495 0H336.505L308 28.5052V9.51562L298.505 0H260.505L251.01 9.51562V28.5052L232 47.5156L213.01 28.5052V9.51562L203.495 0H165.495L156 9.51562L146.505 0H108.505L99.0104 9.51562V47.5156L51.4948 0H13.4948L4 9.51562V142.505L13.4948 152H51.4948L61.0104 142.505V104.505L108.505 152H146.505L156 142.505V66.5052L203.495 114V142.505L213.01 152H251.01L260.505 142.505V114L308 66.5052V123.516L336.505 152H431.495L460 123.516V95.0104L450.505 85.4948H402.99V95.0104H365.01V57.0104H402.99V66.3803H450.505Z" fill="#FFF"/>
<path d="M453.233 6.41318C454.128 6.41318 454.899 6.32989 454.899 5.2888C454.899 4.41427 454.045 4.31016 453.337 4.31016H451.9V6.41318H453.233ZM451.921 10.4943H450.734V3.31071H453.462C455.19 3.31071 456.085 3.91455 456.085 5.37208C456.085 6.68386 455.294 7.20441 454.211 7.32934L456.231 10.4943H454.899L453.045 7.41263H451.942V10.4943H451.921ZM453.191 1.41592C450.38 1.41592 448.194 3.62304 448.194 6.78797C448.194 9.74469 450.109 12.16 453.191 12.16C455.981 12.16 458.168 9.97373 458.168 6.78797C458.168 3.62304 455.981 1.41592 453.191 1.41592ZM453.191 13.2844C449.464 13.2844 446.799 10.4943 446.799 6.78797C446.799 2.87345 449.756 0.291534 453.191 0.291534C456.585 0.291534 459.542 2.87345 459.542 6.78797C459.563 10.6817 456.606 13.2844 453.191 13.2844Z" fill="#FFF"/>
<path d="M3.445 209H12.72V180.274H12.826L20.776 209H28.302L36.252 180.274H36.358V209H45.633V171.158H31.111L24.592 196.386H24.486L17.967 171.158H3.445V209ZM59.6134 201.103C59.6134 198.93 61.3094 198.082 63.3234 197.605C65.2844 197.075 67.6164 196.916 68.8884 196.121C69.1004 201.792 67.6694 204.23 63.3764 204.23C61.3624 204.23 59.6134 203.329 59.6134 201.103ZM60.1434 189.973C60.5674 187.641 62.1574 186.528 64.6484 186.528C66.5034 186.528 68.9944 187.323 68.9944 189.39C68.9944 191.086 68.1464 191.616 66.6094 191.934C60.3554 193.206 50.6034 192.517 50.6034 201.474C50.6034 207.145 54.7374 209.795 59.9844 209.795C63.2704 209.795 66.7154 208.841 69.0474 206.403C69.1534 207.304 69.2594 208.152 69.5774 209H78.6404C77.5804 206.827 77.5804 204.283 77.5804 201.951V189.92C77.5804 182.129 71.2734 180.698 64.7544 180.698C61.6274 180.698 58.4474 181.228 56.0094 182.606C53.5714 184.037 51.8754 186.369 51.7164 189.973H60.1434ZM110.958 181.493H101.736L96.5424 199.407H96.4364L91.2424 181.493H81.7024L88.8044 200.626C89.3344 202.11 91.0834 206.35 91.0834 207.834C91.0834 209.742 89.5464 210.908 87.4794 210.908H84.3524V218.222H88.5924C94.6874 218.222 97.9204 217.48 100.093 211.438L110.958 181.493ZM121.246 195.273C121.246 191.775 122.518 187.588 126.705 187.588C130.892 187.588 132.217 191.775 132.217 195.273C132.217 198.771 130.892 202.905 126.705 202.905C122.518 202.905 121.246 198.771 121.246 195.273ZM112.236 195.273C112.236 203.541 118.172 209.795 126.705 209.795C135.238 209.795 141.227 203.541 141.227 195.273C141.227 187.005 135.238 180.698 126.705 180.698C118.172 180.698 112.236 187.005 112.236 195.273ZM146.28 209H155.29V195.379C155.29 191.934 157.622 188.86 162.074 188.86C163.293 188.86 164.353 189.072 165.519 189.39V181.175C164.83 181.016 164.088 180.963 163.399 180.963C159.53 180.963 156.456 182.818 155.131 186.316H155.025V181.493H146.28V209ZM169.164 181.016H172.98C173.139 183.454 171.496 185.574 169.164 185.998V190.238C174.941 189.284 177.538 185.256 177.591 179.956V171.158H169.164V181.016ZM178.687 199.937C178.952 207.622 185.63 209.795 192.149 209.795C198.35 209.795 205.346 207.357 205.346 199.99C205.346 197.711 203.915 193.683 198.35 192.57C194.216 191.669 188.174 191.192 188.174 188.595C188.174 186.687 190.559 186.528 192.043 186.528C193.156 186.528 194.163 186.74 194.905 187.217C195.647 187.694 196.071 188.436 196.071 189.602H204.392C204.074 182.447 197.767 180.698 191.725 180.698C186.319 180.698 179.164 182.5 179.164 189.125C179.164 196.545 186.266 196.704 191.937 198.135C193.527 198.506 196.336 198.93 196.336 201.05C196.336 203.223 193.845 203.965 192.096 203.965C190.824 203.965 189.605 203.647 188.757 203.011C187.856 202.322 187.273 201.315 187.273 199.937H178.687ZM225.385 190.079C225.385 201.05 232.116 209.795 244.041 209.795C255.966 209.795 262.697 201.05 262.697 190.079C262.697 179.108 255.966 170.363 244.041 170.363C232.116 170.363 225.385 179.108 225.385 190.079ZM235.243 190.079C235.243 184.461 237.681 178.843 244.041 178.843C250.401 178.843 252.839 184.461 252.839 190.079C252.839 195.697 250.401 201.315 244.041 201.315C237.681 201.315 235.243 195.697 235.243 190.079ZM269.657 209H278.667V187.323H284.073V181.493H278.667V180.274C278.667 177.783 279.939 177.518 282.006 177.518C282.801 177.518 283.596 177.571 284.444 177.677V171.317C283.013 171.264 281.529 171.158 280.098 171.158C272.413 171.158 269.657 173.596 269.657 181.493H265.311V187.323H269.657V209ZM289.273 209H298.283V187.323H303.689V181.493H298.283V180.274C298.283 177.783 299.555 177.518 301.622 177.518C302.417 177.518 303.212 177.571 304.06 177.677V171.317C302.629 171.264 301.145 171.158 299.714 171.158C292.029 171.158 289.273 173.596 289.273 181.493H284.927V187.323H289.273V209ZM307.776 209H316.786V181.493H307.776V209ZM316.786 171.158H307.776V178.048H316.786V171.158ZM349.27 191.563C348.634 184.302 342.539 180.698 335.702 180.698C326.851 180.698 321.286 186.952 321.286 195.697C321.286 204.124 327.434 209.795 335.702 209.795C343.016 209.795 348.74 205.555 349.535 198.188H340.79C340.366 201.103 338.776 202.905 335.649 202.905C331.833 202.905 330.296 199.248 330.296 195.697C330.296 191.881 331.091 187.588 336.126 187.588C338.405 187.588 340.472 189.231 340.525 191.563H349.27ZM360.653 192.411C361.183 189.072 363.303 186.793 366.483 186.793C369.504 186.793 371.677 189.337 371.836 192.411H360.653ZM380.846 197.446C381.27 188.118 376.341 180.698 366.483 180.698C358.374 180.698 351.643 186.74 351.643 195.167C351.643 204.389 357.738 209.795 366.695 209.795C372.843 209.795 378.726 207.039 380.369 200.679H371.942C371.094 202.693 368.974 203.7 366.801 203.7C362.985 203.7 360.812 201.209 360.653 197.446H380.846ZM404.047 209H413.057V187.323H418.463V181.493H413.057V180.274C413.057 177.783 414.329 177.518 416.396 177.518C417.191 177.518 417.986 177.571 418.834 177.677V171.317C417.403 171.264 415.919 171.158 414.488 171.158C406.803 171.158 404.047 173.596 404.047 181.493H399.701V187.323H404.047V209ZM429.387 195.273C429.387 191.775 430.659 187.588 434.846 187.588C439.033 187.588 440.358 191.775 440.358 195.273C440.358 198.771 439.033 202.905 434.846 202.905C430.659 202.905 429.387 198.771 429.387 195.273ZM420.377 195.273C420.377 203.541 426.313 209.795 434.846 209.795C443.379 209.795 449.368 203.541 449.368 195.273C449.368 187.005 443.379 180.698 434.846 180.698C426.313 180.698 420.377 187.005 420.377 195.273ZM454.421 209H463.431V195.379C463.431 191.934 465.763 188.86 470.215 188.86C471.434 188.86 472.494 189.072 473.66 189.39V181.175C472.971 181.016 472.229 180.963 471.54 180.963C467.671 180.963 464.597 182.818 463.272 186.316H463.166V181.493H454.421V209ZM3.392 266H34.079V257.52H13.25V250.312H31.8V242.68H13.25V236.055H33.549V228.158H3.392V266ZM65.4322 248.563C64.7962 241.302 58.7012 237.698 51.8642 237.698C43.0132 237.698 37.4482 243.952 37.4482 252.697C37.4482 261.124 43.5962 266.795 51.8642 266.795C59.1782 266.795 64.9022 262.555 65.6972 255.188H56.9522C56.5282 258.103 54.9382 259.905 51.8112 259.905C47.9952 259.905 46.4582 256.248 46.4582 252.697C46.4582 248.881 47.2532 244.588 52.2882 244.588C54.5672 244.588 56.6342 246.231 56.6872 248.563H65.4322ZM77.8752 252.273C77.8752 248.775 79.1472 244.588 83.3342 244.588C87.5212 244.588 88.8462 248.775 88.8462 252.273C88.8462 255.771 87.5212 259.905 83.3342 259.905C79.1472 259.905 77.8752 255.771 77.8752 252.273ZM68.8652 252.273C68.8652 260.541 74.8012 266.795 83.3342 266.795C91.8672 266.795 97.8562 260.541 97.8562 252.273C97.8562 244.005 91.8672 237.698 83.3342 237.698C74.8012 237.698 68.8652 244.005 68.8652 252.273ZM102.061 266H111.071V251.001C111.071 247.98 112.555 245.118 115.947 245.118C120.876 245.118 120.452 248.934 120.452 252.697V266H129.462V248.351C129.462 244.376 128.72 237.698 119.551 237.698C116.265 237.698 112.555 239.447 110.912 242.256H110.806V238.493H102.061V266ZM142.599 252.273C142.599 248.775 143.871 244.588 148.058 244.588C152.245 244.588 153.57 248.775 153.57 252.273C153.57 255.771 152.245 259.905 148.058 259.905C143.871 259.905 142.599 255.771 142.599 252.273ZM133.589 252.273C133.589 260.541 139.525 266.795 148.058 266.795C156.591 266.795 162.58 260.541 162.58 252.273C162.58 244.005 156.591 237.698 148.058 237.698C139.525 237.698 133.589 244.005 133.589 252.273ZM166.785 266H175.795V252.591C175.795 246.973 177.173 245.118 180.406 245.118C182.844 245.118 183.798 247.132 183.798 250.365V266H192.808V252.538C192.808 248.086 193.179 245.118 197.048 245.118C199.38 245.118 200.811 246.867 200.811 249.835V266H209.821V249.57C209.821 244.323 208.867 237.698 200.122 237.698C196.412 237.698 193.709 239.235 191.536 242.15C190.052 238.811 186.978 237.698 183.533 237.698C180.194 237.698 177.279 239.5 175.636 242.256H175.53V238.493H166.785V266ZM216.169 266H225.179V238.493H216.169V266ZM225.179 228.158H216.169V235.048H225.179V228.158ZM258.193 248.563C257.557 241.302 251.462 237.698 244.625 237.698C235.774 237.698 230.209 243.952 230.209 252.697C230.209 261.124 236.357 266.795 244.625 266.795C251.939 266.795 257.663 262.555 258.458 255.188H249.713C249.289 258.103 247.699 259.905 244.572 259.905C240.756 259.905 239.219 256.248 239.219 252.697C239.219 248.881 240.014 244.588 245.049 244.588C247.328 244.588 249.395 246.231 249.448 248.563H258.193ZM278.609 247.079C278.609 258.05 285.34 266.795 297.265 266.795C309.19 266.795 315.921 258.05 315.921 247.079C315.921 236.108 309.19 227.363 297.265 227.363C285.34 227.363 278.609 236.108 278.609 247.079ZM288.467 247.079C288.467 241.461 290.905 235.843 297.265 235.843C303.625 235.843 306.063 241.461 306.063 247.079C306.063 252.697 303.625 258.315 297.265 258.315C290.905 258.315 288.467 252.697 288.467 247.079ZM334.594 244.588C338.569 244.588 339.947 248.457 339.947 251.955C339.947 255.718 338.569 259.905 334.541 259.905C330.46 259.905 329.082 256.778 329.082 251.955C329.082 246.284 332.156 244.588 334.594 244.588ZM320.39 275.222H329.4V263.032H329.506C331.361 265.523 333.958 266.795 337.35 266.795C345.141 266.795 348.957 260.011 348.957 252.856C348.957 245.118 345.3 237.698 336.661 237.698C333.481 237.698 330.831 239.076 329.082 241.673H328.976V238.493H320.39V275.222ZM367.977 244.588C371.952 244.588 373.33 248.457 373.33 251.955C373.33 255.718 371.952 259.905 367.924 259.905C363.843 259.905 362.465 256.778 362.465 251.955C362.465 246.284 365.539 244.588 367.977 244.588ZM353.773 275.222H362.783V263.032H362.889C364.744 265.523 367.341 266.795 370.733 266.795C378.524 266.795 382.34 260.011 382.34 252.856C382.34 245.118 378.683 237.698 370.044 237.698C366.864 237.698 364.214 239.076 362.465 241.673H362.359V238.493H353.773V275.222ZM394.312 252.273C394.312 248.775 395.584 244.588 399.771 244.588C403.958 244.588 405.283 248.775 405.283 252.273C405.283 255.771 403.958 259.905 399.771 259.905C395.584 259.905 394.312 255.771 394.312 252.273ZM385.302 252.273C385.302 260.541 391.238 266.795 399.771 266.795C408.304 266.795 414.293 260.541 414.293 252.273C414.293 244.005 408.304 237.698 399.771 237.698C391.238 237.698 385.302 244.005 385.302 252.273ZM418.286 266H427.296V252.379C427.296 248.934 429.628 245.86 434.08 245.86C435.299 245.86 436.359 246.072 437.525 246.39V238.175C436.836 238.016 436.094 237.963 435.405 237.963C431.536 237.963 428.462 239.818 427.137 243.316H427.031V238.493H418.286V266ZM458.713 238.493H453.148V230.172H444.138V238.493H439.58V244.323H444.138V256.566C444.138 264.039 446.099 266.265 453.784 266.265C455.427 266.265 457.07 266.053 458.713 266V259.375C457.918 259.375 457.123 259.481 456.381 259.481C454.42 259.481 453.148 259.004 453.148 256.831V244.323H458.713V238.493ZM490.072 238.493H481.062V253.227C481.062 258.103 478.094 259.375 476.133 259.375C473.271 259.375 471.681 258.103 471.681 254.446V238.493H462.671V255.029C462.671 262.237 464.95 266.795 472.847 266.795C476.027 266.795 479.525 265.046 481.221 262.237H481.327V266H490.072V238.493ZM496.107 266H505.117V251.001C505.117 247.98 506.601 245.118 509.993 245.118C514.922 245.118 514.498 248.934 514.498 252.697V266H523.508V248.351C523.508 244.376 522.766 237.698 513.597 237.698C510.311 237.698 506.601 239.447 504.958 242.256H504.852V238.493H496.107V266ZM529.809 266H538.819V238.493H529.809V266ZM538.819 228.158H529.809V235.048H538.819V228.158ZM561.763 238.493H556.198V230.172H547.188V238.493H542.63V244.323H547.188V256.566C547.188 264.039 549.149 266.265 556.834 266.265C558.477 266.265 560.12 266.053 561.763 266V259.375C560.968 259.375 560.173 259.481 559.431 259.481C557.47 259.481 556.198 259.004 556.198 256.831V244.323H561.763V238.493ZM592.167 238.493H582.945L577.751 256.407H577.645L572.451 238.493H562.911L570.013 257.626C570.543 259.11 572.292 263.35 572.292 264.834C572.292 266.742 570.755 267.908 568.688 267.908H565.561V275.222H569.801C575.896 275.222 579.129 274.48 581.302 268.438L592.167 238.493Z" fill="#FFF"/>
</svg>
