<svg width="300" height="300" viewBox="0 0 300 300" fill="none" xmlns="http://www.w3.org/2000/svg">
<path fill-rule="evenodd" clip-rule="evenodd" d="M150.002 94C125.2 94 109.702 106.334 103.499 131.002C112.8 118.668 123.651 114.044 136.05 117.126C143.124 118.883 148.183 123.989 153.778 129.642C162.897 138.847 173.452 149.5 196.501 149.5C221.299 149.5 236.8 137.166 243 112.501C233.702 124.835 222.852 129.46 210.453 126.374C203.375 124.617 198.316 119.511 192.721 113.862C183.602 104.649 173.051 94 150.002 94ZM103.499 149.5C78.7005 149.5 63.1996 161.834 57 186.502C66.3013 174.168 77.1516 169.544 89.5472 172.626C96.6252 174.383 101.684 179.489 107.279 185.142C116.398 194.347 126.949 205 150.002 205C174.8 205 190.301 192.67 196.501 168.001C187.2 180.335 176.349 184.96 163.95 181.878C156.876 180.117 151.817 175.011 146.222 169.362C137.103 160.157 126.548 149.5 103.499 149.5V149.5Z" fill="#06B6D4"/>
</svg>
