<svg width="280" height="280" viewBox="0 0 280 280" fill="none" xmlns="http://www.w3.org/2000/svg">
<path d="M184.09 126.621C191.614 126.621 197.713 132.721 197.713 140.244C197.713 147.768 191.614 153.868 184.09 153.868C176.566 153.868 170.467 147.768 170.467 140.244C170.467 132.721 176.566 126.621 184.09 126.621Z" fill="#E6FEFA" stroke="#04A487" stroke-width="7.1951" stroke-linejoin="round"/>
<path d="M219.952 147.118C227.023 147.118 232.755 152.85 232.755 159.921C232.755 166.992 227.023 172.724 219.952 172.724C212.881 172.724 207.149 166.992 207.149 159.921C207.149 152.85 212.881 147.118 219.952 147.118Z" fill="#E6FEFA" stroke="#04A487" stroke-width="7.1951" stroke-linejoin="round"/>
<path d="M219.779 105.78C227.303 105.78 233.402 111.879 233.402 119.403C233.402 126.927 227.303 133.026 219.779 133.026C212.255 133.026 206.156 126.927 206.156 119.403C206.156 111.879 212.255 105.78 219.779 105.78Z" fill="#E6FEFA" stroke="#04A487" stroke-width="7.1951" stroke-linejoin="round"/>
<path d="M96.4765 153.574C88.9527 153.574 82.8534 147.475 82.8534 139.951C82.8534 132.427 88.9527 126.328 96.4765 126.328C104 126.328 110.1 132.427 110.1 139.951C110.1 147.475 104 153.574 96.4765 153.574Z" fill="#E6FEFA" stroke="#04A487" stroke-width="7.1951" stroke-linejoin="round"/>
<path d="M59.2993 132.733C51.7754 132.733 45.6761 126.634 45.6761 119.11C45.6761 111.586 51.7754 105.487 59.2993 105.487C66.8232 105.487 72.9225 111.586 72.9225 119.11C72.9225 126.634 66.8232 132.733 59.2993 132.733Z" fill="#E6FEFA" stroke="#04A487" stroke-width="7.1951" stroke-linejoin="round"/>
<path d="M59.2993 173.423C51.7754 173.423 45.6761 167.323 45.6761 159.8C45.6761 152.276 51.7754 146.176 59.2993 146.176C66.8232 146.176 72.9225 152.276 72.9225 159.8C72.9225 167.323 66.8232 173.423 59.2993 173.423Z" fill="#E6FEFA" stroke="#04A487" stroke-width="7.1951" stroke-linejoin="round"/>
<path d="M174.379 171.842C178.143 178.361 175.909 186.697 169.391 190.461C162.872 194.224 154.536 191.991 150.772 185.472C147.009 178.953 149.242 170.617 155.761 166.854C162.28 163.09 170.616 165.324 174.379 171.842Z" fill="#E6FEFA" stroke="#04A487" stroke-width="7.1951" stroke-linejoin="round"/>
<path d="M173.778 214.553C177.468 220.943 175.278 229.114 168.888 232.804C162.498 236.493 154.327 234.303 150.638 227.913C146.948 221.523 149.138 213.352 155.528 209.663C161.918 205.973 170.089 208.163 173.778 214.553Z" fill="#E6FEFA" stroke="#04A487" stroke-width="7.1951" stroke-linejoin="round"/>
<path d="M210.107 192.683C213.87 199.202 211.637 207.538 205.118 211.302C198.599 215.065 190.263 212.832 186.5 206.313C182.736 199.794 184.969 191.458 191.488 187.695C198.007 183.931 206.343 186.165 210.107 192.683Z" fill="#E6FEFA" stroke="#04A487" stroke-width="7.1951" stroke-linejoin="round"/>
<path d="M105.692 107.361C101.928 100.842 104.162 92.5059 110.681 88.7422C117.199 84.9785 125.535 87.2121 129.299 93.731C133.063 100.25 130.829 108.586 124.31 112.349C117.791 116.113 109.455 113.879 105.692 107.361Z" fill="#E6FEFA" stroke="#04A487" stroke-width="7.1951" stroke-linejoin="round"/>
<circle cx="117.863" cy="58.9624" r="13.3604" transform="rotate(150 117.863 58.9624)" fill="#E6FEFA" stroke="#04A487" stroke-width="7.1951" stroke-linejoin="round"/>
<path d="M67.9795 85.5272C64.2158 79.0083 66.4493 70.6726 72.9683 66.9089C79.4872 63.1452 87.8229 65.3788 91.5866 71.8977C95.3503 78.4166 93.1167 86.7523 86.5978 90.516C80.0789 94.2797 71.7432 92.0461 67.9795 85.5272Z" fill="#E6FEFA" stroke="#04A487" stroke-width="7.1951" stroke-linejoin="round"/>
<circle cx="162.51" cy="100.19" r="13.6295" transform="rotate(-150 162.51 100.19)" fill="#E6FEFA" stroke="#04A487" stroke-width="7.1951" stroke-linejoin="round"/>
<circle cx="198.234" cy="78.3574" r="13.6295" transform="rotate(-150 198.234 78.3574)" fill="#E6FEFA" stroke="#04A487" stroke-width="7.1951" stroke-linejoin="round"/>
<circle cx="162.51" cy="58.9292" r="13.6295" transform="rotate(-150 162.51 58.9292)" fill="#E6FEFA" stroke="#04A487" stroke-width="7.1951" stroke-linejoin="round"/>
<path d="M129.364 185.828C125.601 192.346 117.265 194.58 110.746 190.816C104.227 187.053 101.993 178.717 105.757 172.198C109.521 165.679 117.857 163.446 124.375 167.209C130.894 170.973 133.128 179.309 129.364 185.828Z" fill="#E6FEFA" stroke="#04A487" stroke-width="7.1951" stroke-linejoin="round"/>
<path d="M91.3204 206.167C87.631 212.557 79.46 214.746 73.0698 211.057C66.6796 207.367 64.4902 199.196 68.1796 192.806C71.8689 186.416 80.04 184.227 86.4302 187.916C92.8203 191.605 95.0098 199.776 91.3204 206.167Z" fill="#E6FEFA" stroke="#04A487" stroke-width="7.1951" stroke-linejoin="round"/>
<path d="M129.364 228.502C125.601 235.021 117.265 237.255 110.746 233.491C104.227 229.727 101.993 221.392 105.757 214.873C109.521 208.354 117.857 206.12 124.375 209.884C130.894 213.648 133.128 221.983 129.364 228.502Z" fill="#E6FEFA" stroke="#04A487" stroke-width="7.1951" stroke-linejoin="round"/>
<path d="M139.463 126.621C146.987 126.621 153.086 132.721 153.086 140.244C153.086 147.768 146.987 153.868 139.463 153.868C131.939 153.868 125.84 147.768 125.84 140.244C125.84 132.721 131.939 126.621 139.463 126.621Z" fill="#E6FEFA" stroke="#04A487" stroke-width="7.1951" stroke-linejoin="round"/>
</svg>
