<svg width="696" height="299" viewBox="0 0 696 299" fill="none" xmlns="http://www.w3.org/2000/svg">
<path d="M434.745 33.9017L498.903 144.76H370.587L434.745 33.9017Z" fill="#FFEECD" stroke="#FAA302" stroke-width="5.85357" stroke-linejoin="round"/>
<path d="M575.186 145.472L541.615 87.3251L575.186 29.178L642.329 29.178L675.9 87.3252L642.329 145.472L575.186 145.472Z" fill="#E7F2FE" stroke="#1642DF" stroke-width="5.75264"/>
<path d="M289.575 56.8303C289.575 72.5556 276.827 85.3034 261.102 85.3034C245.377 85.3034 232.629 72.5556 232.629 56.8303C232.629 41.105 245.377 28.3572 261.102 28.3572C276.827 28.3572 289.575 41.105 289.575 56.8303Z" fill="#FFF0FE" stroke="#F9A5DA" stroke-width="6.12401"/>
<circle cx="225.132" cy="119.408" r="27.9804" fill="#FFF0FE" stroke="#F9A5DA" stroke-width="6.12401"/>
<circle cx="296.579" cy="118.915" r="28.4731" fill="#FFF0FE" stroke="#F9A5DA" stroke-width="6.12401"/>
<path d="M114.399 79.3901C119.074 79.3901 122.865 83.1804 122.865 87.856C122.865 92.5315 119.074 96.3218 114.399 96.3218C109.723 96.3218 105.933 92.5315 105.933 87.856C105.933 83.1804 109.723 79.3901 114.399 79.3901Z" fill="#E6FEFA" stroke="#04A487" stroke-width="4.47124" stroke-linejoin="round"/>
<path d="M136.684 92.1272C141.078 92.1272 144.641 95.6893 144.641 100.083C144.641 104.478 141.078 108.04 136.684 108.04C132.29 108.04 128.728 104.478 128.728 100.083C128.728 95.6893 132.29 92.1272 136.684 92.1272Z" fill="#E6FEFA" stroke="#04A487" stroke-width="4.47124" stroke-linejoin="round"/>
<path d="M136.577 66.4389C141.253 66.4389 145.043 70.2292 145.043 74.9047C145.043 79.5803 141.253 83.3706 136.577 83.3706C131.902 83.3706 128.111 79.5803 128.111 74.9047C128.111 70.2292 131.902 66.4389 136.577 66.4389Z" fill="#E6FEFA" stroke="#04A487" stroke-width="4.47124" stroke-linejoin="round"/>
<path d="M59.9533 96.1394C55.2778 96.1394 51.4875 92.3492 51.4875 87.6736C51.4875 82.9981 55.2778 79.2078 59.9533 79.2078C64.6289 79.2078 68.4192 82.9981 68.4192 87.6736C68.4192 92.3492 64.6289 96.1394 59.9533 96.1394Z" fill="#E6FEFA" stroke="#04A487" stroke-width="4.47124" stroke-linejoin="round"/>
<path d="M36.8504 83.1883C32.1748 83.1883 28.3845 79.3981 28.3845 74.7225C28.3845 70.047 32.1748 66.2567 36.8504 66.2567C41.5259 66.2567 45.3162 70.047 45.3162 74.7225C45.3162 79.3981 41.5259 83.1883 36.8504 83.1883Z" fill="#E6FEFA" stroke="#04A487" stroke-width="4.47124" stroke-linejoin="round"/>
<path d="M36.8504 108.474C32.1748 108.474 28.3845 104.684 28.3845 100.008C28.3845 95.3326 32.1748 91.5423 36.8504 91.5423C41.5259 91.5423 45.3162 95.3326 45.3162 100.008C45.3162 104.684 41.5259 108.474 36.8504 108.474Z" fill="#E6FEFA" stroke="#04A487" stroke-width="4.47124" stroke-linejoin="round"/>
<path d="M108.364 107.492C110.703 111.543 109.315 116.723 105.264 119.062C101.213 121.401 96.0331 120.013 93.6942 115.962C91.3553 111.911 92.7433 106.731 96.7944 104.392C100.845 102.053 106.025 103.441 108.364 107.492Z" fill="#E6FEFA" stroke="#04A487" stroke-width="4.47124" stroke-linejoin="round"/>
<path d="M107.991 134.033C110.284 138.004 108.923 143.082 104.952 145.375C100.981 147.668 95.9032 146.307 93.6106 142.336C91.3179 138.365 92.6785 133.287 96.6495 130.994C100.621 128.702 105.698 130.062 107.991 134.033Z" fill="#E6FEFA" stroke="#04A487" stroke-width="4.47124" stroke-linejoin="round"/>
<path d="M130.566 120.443C132.905 124.494 131.517 129.674 127.466 132.013C123.415 134.352 118.235 132.964 115.896 128.913C113.557 124.862 114.945 119.682 118.996 117.343C123.047 115.004 128.227 116.392 130.566 120.443Z" fill="#E6FEFA" stroke="#04A487" stroke-width="4.47124" stroke-linejoin="round"/>
<path d="M65.6799 67.421C63.3411 63.37 64.7291 58.1899 68.7801 55.851C72.8311 53.5122 78.0112 54.9002 80.35 58.9512C82.6889 63.0022 81.3009 68.1823 77.2499 70.5212C73.1989 72.86 68.0188 71.472 65.6799 67.421Z" fill="#E6FEFA" stroke="#04A487" stroke-width="4.47124" stroke-linejoin="round"/>
<ellipse cx="73.2435" cy="37.345" rx="10.5381" ry="10.5381" transform="rotate(150 73.2435 37.345)" fill="#E6FEFA" stroke="#04A487" stroke-width="4.47124" stroke-linejoin="round"/>
<path d="M42.2445 53.8532C39.9056 49.8021 41.2936 44.6221 45.3446 42.2832C49.3957 39.9444 54.5757 41.3324 56.9146 45.3834C59.2534 49.4344 57.8654 54.6145 53.8144 56.9533C49.7634 59.2922 44.5833 57.9042 42.2445 53.8532Z" fill="#E6FEFA" stroke="#04A487" stroke-width="4.47124" stroke-linejoin="round"/>
<circle cx="100.989" cy="62.9651" r="8.46979" transform="rotate(-150 100.989 62.9651)" fill="#E6FEFA" stroke="#04A487" stroke-width="4.47124" stroke-linejoin="round"/>
<circle cx="123.189" cy="49.3976" r="8.46979" transform="rotate(-150 123.189 49.3976)" fill="#E6FEFA" stroke="#04A487" stroke-width="4.47124" stroke-linejoin="round"/>
<circle cx="100.989" cy="37.3244" r="8.46979" transform="rotate(-150 100.989 37.3244)" fill="#E6FEFA" stroke="#04A487" stroke-width="4.47124" stroke-linejoin="round"/>
<path d="M80.3907 116.183C78.0518 120.234 72.8718 121.622 68.8208 119.283C64.7697 116.944 63.3817 111.764 65.7206 107.713C68.0595 103.662 73.2395 102.274 77.2905 104.613C81.3416 106.952 82.7296 112.132 80.3907 116.183Z" fill="#E6FEFA" stroke="#04A487" stroke-width="4.47124" stroke-linejoin="round"/>
<path d="M56.7492 128.822C54.4565 132.793 49.3788 134.153 45.4077 131.861C41.4367 129.568 40.0761 124.49 42.3688 120.519C44.6615 116.548 49.7392 115.188 53.7103 117.48C57.6813 119.773 59.0419 124.851 56.7492 128.822Z" fill="#E6FEFA" stroke="#04A487" stroke-width="4.47124" stroke-linejoin="round"/>
<path d="M80.3907 142.702C78.0518 146.753 72.8718 148.141 68.8208 145.802C64.7697 143.463 63.3817 138.283 65.7206 134.232C68.0595 130.181 73.2395 128.793 77.2905 131.132C81.3416 133.471 82.7296 138.651 80.3907 142.702Z" fill="#E6FEFA" stroke="#04A487" stroke-width="4.47124" stroke-linejoin="round"/>
<path d="M86.6664 79.3901C91.3419 79.3901 95.1322 83.1804 95.1322 87.856C95.1322 92.5315 91.3419 96.3218 86.6664 96.3218C81.9908 96.3218 78.2005 92.5315 78.2005 87.856C78.2005 83.1804 81.9908 79.3901 86.6664 79.3901Z" fill="#E6FEFA" stroke="#04A487" stroke-width="4.47124" stroke-linejoin="round"/>
<path d="M84.972 261.096H75.4673V283.068C75.4673 287.77 73.7299 290.171 69.0799 290.171C64.4298 290.171 62.6924 287.77 62.6924 283.068V261.096H53.1878V282.507C53.1878 293.084 58.0423 298.347 69.0799 298.347C80.1175 298.347 84.972 293.084 84.972 282.507V261.096ZM91.3188 297.581H100.823V261.096H91.3188V297.581ZM123.556 297.581H133.061V285.419H140.878C148.901 285.419 154.062 281.893 154.062 272.848C154.062 264.212 147.675 261.096 140.878 261.096H123.556V297.581ZM133.061 268.71H139.448C142.36 268.71 144.557 270.089 144.557 273.513C144.557 276.835 142.412 278.061 139.448 278.061H133.061V268.71ZM165.435 289.967C165.435 287.872 167.07 287.054 169.012 286.594C170.903 286.083 173.151 285.93 174.378 285.164C174.582 290.631 173.203 292.982 169.063 292.982C167.122 292.982 165.435 292.113 165.435 289.967ZM165.947 279.236C166.355 276.987 167.888 275.914 170.29 275.914C172.078 275.914 174.48 276.681 174.48 278.674C174.48 280.309 173.663 280.82 172.181 281.127C166.151 282.353 156.749 281.689 156.749 290.324C156.749 295.792 160.734 298.347 165.793 298.347C168.962 298.347 172.283 297.427 174.531 295.077C174.634 295.946 174.735 296.763 175.042 297.581H183.78C182.758 295.486 182.758 293.033 182.758 290.784V279.185C182.758 271.673 176.678 270.293 170.392 270.293C167.377 270.293 164.311 270.805 161.961 272.133C159.61 273.513 157.975 275.761 157.822 279.236H165.947ZM204.464 271.06H199.099V263.038H190.411V271.06H186.017V276.681H190.411V288.485C190.411 295.69 192.303 297.836 199.712 297.836C201.296 297.836 202.88 297.632 204.464 297.581V291.193C203.698 291.193 202.931 291.296 202.216 291.296C200.325 291.296 199.099 290.836 199.099 288.74V276.681H204.464V271.06ZM224.325 271.06H218.96V263.038H210.272V271.06H205.878V276.681H210.272V288.485C210.272 295.69 212.164 297.836 219.573 297.836C221.157 297.836 222.741 297.632 224.325 297.581V291.193C223.559 291.193 222.792 291.296 222.076 291.296C220.186 291.296 218.96 290.836 218.96 288.74V276.681H224.325V271.06ZM235.601 281.586C236.113 278.367 238.157 276.17 241.222 276.17C244.135 276.17 246.23 278.622 246.383 281.586H235.601ZM255.07 286.441C255.479 277.448 250.727 270.293 241.222 270.293C233.404 270.293 226.914 276.119 226.914 284.244C226.914 293.135 232.791 298.347 241.427 298.347C247.354 298.347 253.026 295.69 254.611 289.558H246.486C245.668 291.5 243.624 292.471 241.529 292.471C237.85 292.471 235.755 290.069 235.601 286.441H255.07ZM259.737 297.581H268.424V284.448C268.424 281.127 270.673 278.163 274.965 278.163C276.14 278.163 277.162 278.367 278.287 278.674V270.754C277.622 270.6 276.907 270.549 276.242 270.549C272.512 270.549 269.548 272.338 268.271 275.71H268.169V271.06H259.737V297.581ZM281.188 297.581H289.875V283.12C289.875 280.207 291.306 277.448 294.576 277.448C299.329 277.448 298.92 281.127 298.92 284.755V297.581H307.606V280.565C307.606 276.732 306.891 270.293 298.051 270.293C294.883 270.293 291.306 271.98 289.721 274.688H289.62V271.06H281.188V297.581ZM311.841 288.843C312.097 296.252 318.535 298.347 324.821 298.347C330.8 298.347 337.545 295.997 337.545 288.894C337.545 286.696 336.165 282.813 330.8 281.74C326.814 280.871 320.989 280.411 320.989 277.907C320.989 276.068 323.288 275.914 324.719 275.914C325.792 275.914 326.763 276.119 327.479 276.578C328.194 277.039 328.602 277.754 328.602 278.878H336.625C336.318 271.98 330.238 270.293 324.412 270.293C319.2 270.293 312.302 272.031 312.302 278.418C312.302 285.573 319.149 285.726 324.616 287.105C326.15 287.463 328.858 287.872 328.858 289.916C328.858 292.011 326.457 292.726 324.77 292.726C323.543 292.726 322.368 292.42 321.55 291.806C320.682 291.142 320.12 290.171 320.12 288.843H311.841ZM358.245 297.581H367.749V283.529H382.773V276.17H367.749V268.71H385.123V261.096H358.245V297.581ZM389.432 297.581H398.12V284.448C398.12 281.127 400.368 278.163 404.66 278.163C405.836 278.163 406.858 278.367 407.982 278.674V270.754C407.317 270.6 406.602 270.549 405.938 270.549C402.207 270.549 399.244 272.338 397.966 275.71H397.864V271.06H389.432V297.581ZM418.139 289.967C418.139 287.872 419.775 287.054 421.717 286.594C423.607 286.083 425.855 285.93 427.082 285.164C427.286 290.631 425.906 292.982 421.768 292.982C419.825 292.982 418.139 292.113 418.139 289.967ZM418.651 279.236C419.06 276.987 420.592 275.914 422.994 275.914C424.783 275.914 427.184 276.681 427.184 278.674C427.184 280.309 426.367 280.82 424.884 281.127C418.855 282.353 409.452 281.689 409.452 290.324C409.452 295.792 413.438 298.347 418.497 298.347C421.665 298.347 424.987 297.427 427.235 295.077C427.337 295.946 427.44 296.763 427.746 297.581H436.485C435.463 295.486 435.463 293.033 435.463 290.784V279.185C435.463 271.673 429.382 270.293 423.097 270.293C420.082 270.293 417.016 270.805 414.665 272.133C412.314 273.513 410.679 275.761 410.526 279.236H418.651ZM441.174 297.581H449.861V284.652C449.861 279.236 451.19 277.448 454.306 277.448C456.657 277.448 457.577 279.389 457.577 282.507V297.581H466.264V284.601C466.264 280.309 466.622 277.448 470.352 277.448C472.6 277.448 473.98 279.134 473.98 281.995V297.581H482.667V281.74C482.667 276.681 481.747 270.293 473.316 270.293C469.738 270.293 467.132 271.776 465.037 274.586C463.607 271.367 460.643 270.293 457.321 270.293C454.102 270.293 451.291 272.031 449.708 274.688H449.605V271.06H441.174V297.581ZM495.891 281.586C496.401 278.367 498.445 276.17 501.511 276.17C504.424 276.17 506.519 278.622 506.673 281.586H495.891ZM515.36 286.441C515.769 277.448 511.016 270.293 501.511 270.293C493.693 270.293 487.204 276.119 487.204 284.244C487.204 293.135 493.08 298.347 501.716 298.347C507.643 298.347 513.315 295.69 514.899 289.558H506.775C505.957 291.5 503.913 292.471 501.818 292.471C498.139 292.471 496.044 290.069 495.891 286.441H515.36ZM559.373 271.06H550.533L546.189 288.179H546.087L542.204 271.06H533.925L530.144 288.23H530.042L525.596 271.06H516.807L525.085 297.581H533.874L538.013 279.951H538.116L542.306 297.581H551.095L559.373 271.06ZM569.696 284.346C569.696 280.973 570.922 276.936 574.959 276.936C578.996 276.936 580.273 280.973 580.273 284.346C580.273 287.718 578.996 291.704 574.959 291.704C570.922 291.704 569.696 287.718 569.696 284.346ZM561.009 284.346C561.009 292.318 566.732 298.347 574.959 298.347C583.186 298.347 588.96 292.318 588.96 284.346C588.96 276.374 583.186 270.293 574.959 270.293C566.732 270.293 561.009 276.374 561.009 284.346ZM593.832 297.581H602.519V284.448C602.519 281.127 604.767 278.163 609.059 278.163C610.235 278.163 611.257 278.367 612.38 278.674V270.754C611.716 270.6 611.001 270.549 610.337 270.549C606.607 270.549 603.642 272.338 602.365 275.71H602.263V271.06H593.832V297.581ZM615.282 297.581H623.969V289.098L626.218 286.901L632.707 297.581H643.183L632.248 281.076L641.956 271.06H631.89L623.969 279.9V261.096H615.282V297.581Z" fill="#031553"/>
<path d="M257.396 215.917C257.396 226.166 263.684 234.336 274.825 234.336C285.965 234.336 292.253 226.166 292.253 215.917C292.253 205.668 285.965 197.499 274.825 197.499C263.684 197.499 257.396 205.668 257.396 215.917ZM266.606 215.917C266.606 210.669 268.883 205.421 274.825 205.421C280.766 205.421 283.044 210.669 283.044 215.917C283.044 221.166 280.766 226.414 274.825 226.414C268.883 226.414 266.606 221.166 266.606 215.917ZM309.203 213.59C312.916 213.59 314.203 217.205 314.203 220.472C314.203 223.988 312.916 227.899 309.153 227.899C305.34 227.899 304.053 224.978 304.053 220.472C304.053 215.175 306.925 213.59 309.203 213.59ZM295.933 242.208H304.35V230.821H304.449C306.182 233.148 308.608 234.336 311.777 234.336C319.055 234.336 322.62 227.998 322.62 221.314C322.62 214.085 319.204 207.154 311.133 207.154C308.162 207.154 305.687 208.441 304.053 210.867H303.954V207.896H295.933V242.208ZM339.894 213.59C343.608 213.59 344.895 217.205 344.895 220.472C344.895 223.988 343.608 227.899 339.845 227.899C336.033 227.899 334.745 224.978 334.745 220.472C334.745 215.175 337.617 213.59 339.894 213.59ZM326.625 242.208H335.042V230.821H335.141C336.874 233.148 339.3 234.336 342.469 234.336C349.748 234.336 353.313 227.998 353.313 221.314C353.313 214.085 349.896 207.154 341.826 207.154C338.855 207.154 336.379 208.441 334.745 210.867H334.646V207.896H326.625V242.208ZM364.497 220.769C364.497 217.502 365.685 213.59 369.596 213.59C373.508 213.59 374.746 217.502 374.746 220.769C374.746 224.037 373.508 227.899 369.596 227.899C365.685 227.899 364.497 224.037 364.497 220.769ZM356.079 220.769C356.079 228.494 361.624 234.336 369.596 234.336C377.568 234.336 383.162 228.494 383.162 220.769C383.162 213.046 377.568 207.154 369.596 207.154C361.624 207.154 356.079 213.046 356.079 220.769ZM386.397 233.594H394.814V220.869C394.814 217.65 396.993 214.779 401.152 214.779C402.291 214.779 403.281 214.976 404.371 215.273V207.599C403.726 207.451 403.033 207.401 402.39 207.401C398.775 207.401 395.904 209.134 394.666 212.402H394.567V207.896H386.397V233.594ZM424.659 207.896H419.461V200.123H411.043V207.896H406.785V213.343H411.043V224.78C411.043 231.762 412.875 233.841 420.055 233.841C421.59 233.841 423.125 233.643 424.659 233.594V227.404C423.917 227.404 423.174 227.504 422.481 227.504C420.649 227.504 419.461 227.058 419.461 225.027V213.343H424.659V207.896ZM454.45 207.896H446.033V221.661C446.033 226.216 443.26 227.404 441.428 227.404C438.754 227.404 437.269 226.216 437.269 222.8V207.896H428.852V223.344C428.852 230.078 430.981 234.336 438.358 234.336C441.329 234.336 444.597 232.702 446.182 230.078H446.28V233.594H454.45V207.896ZM460.089 233.594H468.506V219.582C468.506 216.759 469.892 214.085 473.061 214.085C477.666 214.085 477.27 217.65 477.27 221.166V233.594H485.686V217.105C485.686 213.392 484.993 207.154 476.428 207.154C473.358 207.154 469.892 208.788 468.357 211.412H468.258V207.896H460.089V233.594ZM490.583 233.594H499V207.896H490.583V233.594ZM499 198.241H490.583V204.678H499V198.241ZM520.434 207.896H515.235V200.123H506.818V207.896H502.56V213.343H506.818V224.78C506.818 231.762 508.65 233.841 515.829 233.841C517.364 233.841 518.899 233.643 520.434 233.594V227.404C519.691 227.404 518.949 227.504 518.256 227.504C516.424 227.504 515.235 227.058 515.235 225.027V213.343H520.434V207.896ZM550.323 207.896H541.708L536.856 224.631H536.757L531.904 207.896H522.992L529.627 225.77C530.122 227.156 531.756 231.118 531.756 232.504C531.756 234.287 530.32 235.376 528.389 235.376H525.468V242.208H529.429C535.123 242.208 538.143 241.516 540.173 235.871L550.323 207.896Z" fill="#031553"/>
<path d="M245.971 213.799L248.221 211.58V204.827L241.467 198.074H218.964L212.211 204.827V200.328L209.962 198.074H200.959L198.71 200.328V204.827L194.207 209.33L189.708 204.827V200.328L187.453 198.074H178.451L176.202 200.328L173.953 198.074H164.95L162.701 200.328V209.33L151.445 198.074H142.442L140.193 200.328V231.834L142.442 234.083H151.445L153.699 231.834V222.831L164.95 234.083H173.953L176.202 231.834V213.829L187.453 225.081V231.834L189.708 234.083H198.71L200.959 231.834V225.081L212.211 213.829V227.335L218.964 234.083H241.467L248.221 227.335V220.582L245.971 218.328H234.715V220.582H225.717V211.58H234.715V213.799H245.971Z" fill="#031553"/>
<path d="M246.617 199.593C246.829 199.593 247.012 199.573 247.012 199.327C247.012 199.12 246.809 199.094 246.642 199.094H246.301V199.593H246.617ZM246.306 200.56H246.025V198.858H246.671C247.081 198.858 247.293 199.001 247.293 199.346C247.293 199.657 247.106 199.781 246.849 199.81L247.328 200.56H247.012L246.573 199.83H246.311V200.56H246.306ZM246.607 198.409C245.942 198.409 245.424 198.932 245.424 199.682C245.424 200.382 245.877 200.954 246.607 200.954C247.268 200.954 247.787 200.436 247.787 199.682C247.787 198.932 247.268 198.409 246.607 198.409ZM246.607 201.22C245.724 201.22 245.093 200.56 245.093 199.682C245.093 198.754 245.794 198.142 246.607 198.142C247.411 198.142 248.112 198.754 248.112 199.682C248.117 200.604 247.417 201.22 246.607 201.22Z" fill="#031553"/>
</svg>
