<svg width="584" height="135" viewBox="0 0 584 135" fill="none" xmlns="http://www.w3.org/2000/svg">
<path d="M330.677 129.998C329.798 129.998 328.986 129.853 328.241 129.564C327.496 129.264 326.85 128.847 326.305 128.313C325.76 127.779 325.332 127.15 325.02 126.427C324.72 125.704 324.57 124.914 324.57 124.058C324.57 123.201 324.72 122.411 325.02 121.688C325.332 120.965 325.76 120.336 326.305 119.802C326.862 119.268 327.512 118.857 328.258 118.568C329.003 118.267 329.815 118.117 330.694 118.117C331.539 118.117 332.335 118.262 333.08 118.551C333.825 118.829 334.454 119.252 334.966 119.819L334.181 120.603C333.703 120.114 333.175 119.764 332.596 119.552C332.018 119.33 331.395 119.218 330.727 119.218C330.026 119.218 329.376 119.341 328.775 119.586C328.174 119.819 327.651 120.158 327.206 120.603C326.761 121.037 326.411 121.549 326.155 122.139C325.91 122.717 325.788 123.357 325.788 124.058C325.788 124.758 325.91 125.404 326.155 125.993C326.411 126.572 326.761 127.083 327.206 127.528C327.651 127.962 328.174 128.302 328.775 128.546C329.376 128.78 330.026 128.897 330.727 128.897C331.395 128.897 332.018 128.785 332.596 128.563C333.175 128.341 333.703 127.985 334.181 127.495L334.966 128.279C334.454 128.847 333.825 129.275 333.08 129.564C332.335 129.853 331.534 129.998 330.677 129.998ZM340.528 129.981C339.682 129.981 338.92 129.792 338.242 129.414C337.574 129.025 337.046 128.496 336.656 127.829C336.267 127.15 336.072 126.377 336.072 125.509C336.072 124.63 336.267 123.857 336.656 123.19C337.046 122.522 337.574 122 338.242 121.621C338.909 121.243 339.671 121.054 340.528 121.054C341.395 121.054 342.163 121.243 342.83 121.621C343.509 122 344.037 122.522 344.416 123.19C344.805 123.857 345 124.63 345 125.509C345 126.377 344.805 127.15 344.416 127.829C344.037 128.496 343.509 129.025 342.83 129.414C342.152 129.792 341.384 129.981 340.528 129.981ZM340.528 128.93C341.162 128.93 341.724 128.791 342.213 128.513C342.702 128.224 343.086 127.823 343.364 127.311C343.654 126.789 343.798 126.188 343.798 125.509C343.798 124.82 343.654 124.219 343.364 123.707C343.086 123.195 342.702 122.801 342.213 122.522C341.724 122.233 341.167 122.089 340.544 122.089C339.921 122.089 339.365 122.233 338.876 122.522C338.386 122.801 337.997 123.195 337.708 123.707C337.418 124.219 337.274 124.82 337.274 125.509C337.274 126.188 337.418 126.789 337.708 127.311C337.997 127.823 338.386 128.224 338.876 128.513C339.365 128.791 339.916 128.93 340.528 128.93ZM351.891 121.054C352.603 121.054 353.225 121.193 353.759 121.471C354.305 121.738 354.727 122.15 355.028 122.706C355.339 123.262 355.495 123.963 355.495 124.808V129.898H354.31V124.925C354.31 124.002 354.077 123.307 353.609 122.839C353.153 122.361 352.508 122.122 351.674 122.122C351.051 122.122 350.506 122.25 350.038 122.506C349.582 122.75 349.226 123.112 348.97 123.59C348.726 124.058 348.603 124.625 348.603 125.292V129.898H347.418V121.137H348.553V123.54L348.37 123.09C348.648 122.456 349.093 121.961 349.705 121.605C350.316 121.238 351.045 121.054 351.891 121.054ZM361.048 129.981C360.325 129.981 359.641 129.881 358.995 129.681C358.35 129.47 357.844 129.208 357.477 128.897L358.011 127.962C358.367 128.229 358.823 128.463 359.379 128.663C359.935 128.852 360.52 128.947 361.131 128.947C361.966 128.947 362.566 128.819 362.934 128.563C363.301 128.296 363.484 127.946 363.484 127.512C363.484 127.189 363.379 126.939 363.167 126.761C362.967 126.572 362.7 126.433 362.366 126.344C362.032 126.244 361.66 126.16 361.248 126.093C360.837 126.027 360.425 125.949 360.013 125.86C359.613 125.771 359.246 125.643 358.912 125.476C358.578 125.298 358.306 125.059 358.094 124.758C357.894 124.458 357.794 124.058 357.794 123.557C357.794 123.079 357.927 122.65 358.194 122.272C358.461 121.894 358.851 121.599 359.363 121.388C359.885 121.165 360.52 121.054 361.265 121.054C361.832 121.054 362.4 121.132 362.967 121.288C363.534 121.432 364.001 121.627 364.369 121.872L363.851 122.823C363.462 122.556 363.045 122.367 362.6 122.255C362.155 122.133 361.71 122.072 361.265 122.072C360.475 122.072 359.891 122.211 359.513 122.489C359.146 122.756 358.962 123.101 358.962 123.524C358.962 123.857 359.062 124.119 359.262 124.308C359.474 124.497 359.746 124.647 360.08 124.758C360.425 124.859 360.798 124.942 361.198 125.009C361.61 125.075 362.016 125.159 362.416 125.259C362.828 125.348 363.201 125.476 363.534 125.643C363.879 125.799 364.152 126.027 364.352 126.327C364.563 126.616 364.669 127 364.669 127.478C364.669 127.99 364.524 128.435 364.235 128.813C363.957 129.18 363.545 129.47 363 129.681C362.466 129.881 361.816 129.981 361.048 129.981ZM369.613 129.981C368.79 129.981 368.156 129.759 367.711 129.314C367.266 128.869 367.043 128.24 367.043 127.428V119.202H368.228V127.362C368.228 127.873 368.356 128.268 368.612 128.546C368.879 128.824 369.257 128.963 369.746 128.963C370.269 128.963 370.703 128.813 371.048 128.513L371.465 129.364C371.232 129.575 370.948 129.731 370.614 129.831C370.292 129.931 369.958 129.981 369.613 129.981ZM365.475 122.122V121.137H370.898V122.122H365.475ZM373.622 129.898V121.137H374.757V123.524L374.64 123.106C374.885 122.439 375.296 121.933 375.875 121.588C376.453 121.232 377.171 121.054 378.027 121.054V122.205C377.983 122.205 377.938 122.205 377.894 122.205C377.849 122.194 377.805 122.189 377.76 122.189C376.837 122.189 376.114 122.472 375.591 123.04C375.068 123.596 374.807 124.391 374.807 125.426V129.898H373.622ZM383.94 129.981C383.195 129.981 382.544 129.842 381.988 129.564C381.432 129.286 380.998 128.869 380.687 128.313C380.386 127.756 380.236 127.061 380.236 126.227V121.137H381.421V126.093C381.421 127.028 381.649 127.734 382.105 128.213C382.572 128.68 383.223 128.913 384.057 128.913C384.669 128.913 385.198 128.791 385.643 128.546C386.099 128.29 386.443 127.923 386.677 127.445C386.922 126.967 387.044 126.394 387.044 125.726V121.137H388.229V129.898H387.094V127.495L387.278 127.929C387 128.574 386.566 129.08 385.976 129.447C385.398 129.803 384.719 129.981 383.94 129.981ZM395.169 129.981C394.301 129.981 393.522 129.792 392.832 129.414C392.154 129.025 391.62 128.496 391.231 127.829C390.841 127.15 390.646 126.377 390.646 125.509C390.646 124.63 390.841 123.857 391.231 123.19C391.62 122.522 392.154 122 392.832 121.621C393.522 121.243 394.301 121.054 395.169 121.054C395.914 121.054 396.587 121.199 397.188 121.488C397.788 121.777 398.261 122.211 398.606 122.789L397.722 123.39C397.421 122.945 397.049 122.617 396.604 122.406C396.159 122.194 395.675 122.089 395.152 122.089C394.529 122.089 393.967 122.233 393.467 122.522C392.966 122.801 392.571 123.195 392.282 123.707C391.993 124.219 391.848 124.82 391.848 125.509C391.848 126.199 391.993 126.8 392.282 127.311C392.571 127.823 392.966 128.224 393.467 128.513C393.967 128.791 394.529 128.93 395.152 128.93C395.675 128.93 396.159 128.824 396.604 128.613C397.049 128.402 397.421 128.079 397.722 127.645L398.606 128.246C398.261 128.813 397.788 129.247 397.188 129.548C396.587 129.837 395.914 129.981 395.169 129.981ZM403.801 129.981C402.978 129.981 402.344 129.759 401.899 129.314C401.454 128.869 401.231 128.24 401.231 127.428V119.202H402.416V127.362C402.416 127.873 402.544 128.268 402.8 128.546C403.067 128.824 403.445 128.963 403.935 128.963C404.458 128.963 404.891 128.813 405.236 128.513L405.653 129.364C405.42 129.575 405.136 129.731 404.802 129.831C404.48 129.931 404.146 129.981 403.801 129.981ZM399.663 122.122V121.137H405.086V122.122H399.663ZM407.81 129.898V121.137H408.995V129.898H407.81ZM408.411 119.202C408.166 119.202 407.96 119.118 407.794 118.951C407.627 118.785 407.543 118.584 407.543 118.351C407.543 118.117 407.627 117.922 407.794 117.767C407.96 117.6 408.166 117.516 408.411 117.516C408.656 117.516 408.862 117.594 409.028 117.75C409.195 117.906 409.279 118.1 409.279 118.334C409.279 118.579 409.195 118.785 409.028 118.951C408.873 119.118 408.667 119.202 408.411 119.202ZM415.863 129.981C415.017 129.981 414.255 129.792 413.576 129.414C412.909 129.025 412.381 128.496 411.991 127.829C411.602 127.15 411.407 126.377 411.407 125.509C411.407 124.63 411.602 123.857 411.991 123.19C412.381 122.522 412.909 122 413.576 121.621C414.244 121.243 415.006 121.054 415.863 121.054C416.73 121.054 417.498 121.243 418.165 121.621C418.844 122 419.372 122.522 419.751 123.19C420.14 123.857 420.335 124.63 420.335 125.509C420.335 126.377 420.14 127.15 419.751 127.829C419.372 128.496 418.844 129.025 418.165 129.414C417.487 129.792 416.719 129.981 415.863 129.981ZM415.863 128.93C416.497 128.93 417.058 128.791 417.548 128.513C418.037 128.224 418.421 127.823 418.699 127.311C418.989 126.789 419.133 126.188 419.133 125.509C419.133 124.82 418.989 124.219 418.699 123.707C418.421 123.195 418.037 122.801 417.548 122.522C417.058 122.233 416.502 122.089 415.879 122.089C415.256 122.089 414.7 122.233 414.211 122.522C413.721 122.801 413.332 123.195 413.042 123.707C412.753 124.219 412.609 124.82 412.609 125.509C412.609 126.188 412.753 126.789 413.042 127.311C413.332 127.823 413.721 128.224 414.211 128.513C414.7 128.791 415.251 128.93 415.863 128.93ZM427.225 121.054C427.937 121.054 428.56 121.193 429.094 121.471C429.639 121.738 430.062 122.15 430.363 122.706C430.674 123.262 430.83 123.963 430.83 124.808V129.898H429.645V124.925C429.645 124.002 429.411 123.307 428.944 122.839C428.488 122.361 427.843 122.122 427.009 122.122C426.386 122.122 425.84 122.25 425.373 122.506C424.917 122.75 424.561 123.112 424.305 123.59C424.061 124.058 423.938 124.625 423.938 125.292V129.898H422.753V121.137H423.888V123.54L423.705 123.09C423.983 122.456 424.428 121.961 425.039 121.605C425.651 121.238 426.38 121.054 427.225 121.054Z" fill="white"/>
<path d="M516.834 130.832C515.955 130.832 515.143 130.687 514.398 130.398C513.653 130.098 513.007 129.681 512.462 129.147C511.917 128.613 511.489 127.984 511.177 127.261C510.877 126.538 510.727 125.748 510.727 124.892C510.727 124.035 510.877 123.245 511.177 122.522C511.489 121.799 511.917 121.17 512.462 120.636C513.018 120.102 513.669 119.691 514.415 119.402C515.16 119.101 515.972 118.951 516.851 118.951C517.696 118.951 518.492 119.096 519.237 119.385C519.982 119.663 520.611 120.086 521.123 120.653L520.338 121.437C519.86 120.948 519.332 120.598 518.753 120.386C518.175 120.164 517.552 120.052 516.884 120.052C516.183 120.052 515.533 120.175 514.932 120.42C514.331 120.653 513.808 120.992 513.363 121.437C512.918 121.871 512.568 122.383 512.312 122.973C512.067 123.551 511.945 124.191 511.945 124.892C511.945 125.592 512.067 126.238 512.312 126.827C512.568 127.406 512.918 127.917 513.363 128.362C513.808 128.796 514.331 129.136 514.932 129.38C515.533 129.614 516.183 129.731 516.884 129.731C517.552 129.731 518.175 129.619 518.753 129.397C519.332 129.175 519.86 128.819 520.338 128.329L521.123 129.113C520.611 129.681 519.982 130.109 519.237 130.398C518.492 130.687 517.691 130.832 516.834 130.832ZM526.832 130.815C526.087 130.815 525.436 130.676 524.88 130.398C524.324 130.12 523.89 129.703 523.579 129.147C523.278 128.59 523.128 127.895 523.128 127.061V121.971H524.313V126.927C524.313 127.862 524.541 128.568 524.997 129.047C525.464 129.514 526.115 129.747 526.949 129.747C527.561 129.747 528.09 129.625 528.534 129.38C528.991 129.124 529.335 128.757 529.569 128.279C529.814 127.801 529.936 127.228 529.936 126.56V121.971H531.121V130.732H529.986V128.329L530.17 128.763C529.892 129.408 529.458 129.914 528.868 130.281C528.29 130.637 527.611 130.815 526.832 130.815ZM534.423 130.732V118.35H535.608V130.732H534.423ZM538.904 130.732V121.971H540.089V130.732H538.904ZM539.505 120.036C539.26 120.036 539.054 119.952 538.887 119.785C538.721 119.619 538.637 119.418 538.637 119.185C538.637 118.951 538.721 118.756 538.887 118.601C539.054 118.434 539.26 118.35 539.505 118.35C539.75 118.35 539.955 118.428 540.122 118.584C540.289 118.74 540.373 118.934 540.373 119.168C540.373 119.413 540.289 119.619 540.122 119.785C539.967 119.952 539.761 120.036 539.505 120.036ZM547.858 121.888C548.569 121.888 549.192 122.027 549.726 122.305C550.272 122.572 550.694 122.984 550.995 123.54C551.306 124.096 551.462 124.797 551.462 125.642V130.732H550.277V125.759C550.277 124.836 550.043 124.141 549.576 123.673C549.12 123.195 548.475 122.956 547.641 122.956C547.018 122.956 546.473 123.084 546.005 123.34C545.549 123.584 545.193 123.946 544.937 124.424C544.693 124.892 544.57 125.459 544.57 126.126V130.732H543.385V121.971H544.52V124.374L544.337 123.924C544.615 123.29 545.06 122.795 545.672 122.439C546.283 122.071 547.012 121.888 547.858 121.888ZM560.152 130.732V128.796L560.102 128.479V125.242C560.102 124.497 559.891 123.924 559.468 123.523C559.056 123.123 558.439 122.923 557.616 122.923C557.048 122.923 556.509 123.017 555.997 123.206C555.485 123.395 555.051 123.646 554.695 123.957L554.161 123.073C554.606 122.694 555.14 122.405 555.763 122.205C556.386 121.994 557.043 121.888 557.732 121.888C558.867 121.888 559.74 122.172 560.352 122.739C560.975 123.295 561.287 124.146 561.287 125.292V130.732H560.152ZM557.132 130.815C556.475 130.815 555.902 130.71 555.413 130.498C554.935 130.276 554.568 129.975 554.312 129.597C554.056 129.208 553.928 128.763 553.928 128.262C553.928 127.806 554.034 127.395 554.245 127.027C554.467 126.649 554.823 126.349 555.313 126.126C555.813 125.893 556.481 125.776 557.315 125.776H560.336V126.66H557.349C556.503 126.66 555.914 126.811 555.58 127.111C555.257 127.411 555.096 127.784 555.096 128.229C555.096 128.73 555.291 129.13 555.68 129.43C556.069 129.731 556.614 129.881 557.315 129.881C557.983 129.881 558.556 129.731 559.034 129.43C559.523 129.119 559.879 128.674 560.102 128.095L560.369 128.913C560.146 129.492 559.757 129.953 559.201 130.298C558.656 130.643 557.966 130.815 557.132 130.815ZM564.505 130.732V121.971H565.639V124.358L565.523 123.94C565.767 123.273 566.179 122.767 566.757 122.422C567.336 122.066 568.053 121.888 568.91 121.888V123.039C568.865 123.039 568.821 123.039 568.776 123.039C568.732 123.028 568.687 123.023 568.643 123.023C567.72 123.023 566.997 123.306 566.474 123.874C565.951 124.43 565.689 125.225 565.689 126.26V130.732H564.505ZM571.513 134.053C571.102 134.053 570.707 133.986 570.329 133.852C569.961 133.719 569.644 133.519 569.377 133.252L569.928 132.367C570.151 132.579 570.39 132.74 570.646 132.851C570.913 132.974 571.207 133.035 571.53 133.035C571.919 133.035 572.253 132.923 572.531 132.701C572.82 132.49 573.093 132.111 573.349 131.566L573.916 130.281L574.05 130.098L577.654 121.971H578.822L574.434 131.783C574.189 132.351 573.916 132.801 573.616 133.135C573.327 133.469 573.01 133.702 572.665 133.836C572.32 133.98 571.936 134.053 571.513 134.053ZM573.85 130.982L569.811 121.971H571.046L574.617 130.014L573.85 130.982Z" fill="white"/>
<path d="M4.22455 124.748V114.135H0.119604V113.067H9.56432V114.135H5.45937V124.748H4.22455ZM14.0953 124.831C13.1831 124.831 12.3821 124.642 11.6924 124.264C11.0027 123.874 10.4631 123.346 10.0738 122.678C9.68443 122 9.48975 121.227 9.48975 120.359C9.48975 119.491 9.6733 118.724 10.0404 118.056C10.4186 117.389 10.9304 116.866 11.5756 116.488C12.2319 116.098 12.9662 115.904 13.7782 115.904C14.6015 115.904 15.3301 116.093 15.9642 116.471C16.6094 116.838 17.1156 117.361 17.4827 118.039C17.8498 118.707 18.0334 119.48 18.0334 120.359C18.0334 120.415 18.0278 120.476 18.0167 120.542C18.0167 120.598 18.0167 120.659 18.0167 120.726H10.3908V119.842H17.3826L16.9154 120.192C16.9154 119.558 16.7763 118.996 16.4982 118.507C16.2312 118.006 15.8641 117.617 15.3969 117.339C14.9296 117.061 14.3901 116.921 13.7782 116.921C13.1775 116.921 12.638 117.061 12.1596 117.339C11.6813 117.617 11.3086 118.006 11.0416 118.507C10.7746 119.007 10.6411 119.58 10.6411 120.225V120.409C10.6411 121.076 10.7858 121.666 11.075 122.178C11.3754 122.678 11.787 123.073 12.3098 123.363C12.8438 123.641 13.4501 123.78 14.1287 123.78C14.6626 123.78 15.1577 123.685 15.6138 123.496C16.081 123.307 16.4815 123.018 16.8152 122.628L17.4827 123.396C17.0934 123.863 16.6039 124.219 16.0143 124.464C15.4358 124.709 14.7961 124.831 14.0953 124.831ZM24.0826 124.831C23.2149 124.831 22.4362 124.642 21.7464 124.264C21.0678 123.874 20.5339 123.346 20.1445 122.678C19.7552 122 19.5605 121.227 19.5605 120.359C19.5605 119.48 19.7552 118.707 20.1445 118.039C20.5339 117.372 21.0678 116.849 21.7464 116.471C22.4362 116.093 23.2149 115.904 24.0826 115.904C24.8279 115.904 25.501 116.048 26.1017 116.337C26.7024 116.627 27.1752 117.061 27.5201 117.639L26.6357 118.24C26.3353 117.795 25.9626 117.467 25.5177 117.255C25.0727 117.044 24.5888 116.938 24.0659 116.938C23.4429 116.938 22.8811 117.083 22.3805 117.372C21.8799 117.65 21.485 118.045 21.1958 118.557C20.9065 119.068 20.7619 119.669 20.7619 120.359C20.7619 121.049 20.9065 121.649 21.1958 122.161C21.485 122.673 21.8799 123.073 22.3805 123.363C22.8811 123.641 23.4429 123.78 24.0659 123.78C24.5888 123.78 25.0727 123.674 25.5177 123.463C25.9626 123.251 26.3353 122.929 26.6357 122.495L27.5201 123.096C27.1752 123.663 26.7024 124.097 26.1017 124.397C25.501 124.686 24.8279 124.831 24.0826 124.831ZM34.1892 115.904C34.9011 115.904 35.5241 116.043 36.0581 116.321C36.6032 116.588 37.0259 116.999 37.3263 117.556C37.6378 118.112 37.7935 118.813 37.7935 119.658V124.748H36.6087V119.775C36.6087 118.852 36.3751 118.156 35.9079 117.689C35.4518 117.211 34.8066 116.972 33.9722 116.972C33.3493 116.972 32.8042 117.099 32.3369 117.355C31.8808 117.6 31.5248 117.962 31.269 118.44C31.0242 118.907 30.9019 119.475 30.9019 120.142V124.748H29.7171V112.366H30.9019V118.39L30.6683 117.939C30.9464 117.305 31.3914 116.81 32.0032 116.454C32.615 116.087 33.3437 115.904 34.1892 115.904ZM45.4658 115.904C46.1777 115.904 46.8007 116.043 47.3347 116.321C47.8798 116.588 48.3025 116.999 48.6029 117.556C48.9144 118.112 49.0701 118.813 49.0701 119.658V124.748H47.8854V119.775C47.8854 118.852 47.6517 118.156 47.1845 117.689C46.7284 117.211 46.0832 116.972 45.2488 116.972C44.6259 116.972 44.0808 117.099 43.6135 117.355C43.1574 117.6 42.8015 117.962 42.5456 118.44C42.3008 118.907 42.1785 119.475 42.1785 120.142V124.748H40.9937V115.987H42.1284V118.39L41.9449 117.939C42.223 117.305 42.668 116.81 43.2798 116.454C43.8917 116.087 44.6203 115.904 45.4658 115.904ZM55.8413 124.831C54.9958 124.831 54.2338 124.642 53.5552 124.264C52.8877 123.874 52.3593 123.346 51.97 122.678C51.5806 122 51.3859 121.227 51.3859 120.359C51.3859 119.48 51.5806 118.707 51.97 118.039C52.3593 117.372 52.8877 116.849 53.5552 116.471C54.2227 116.093 54.9847 115.904 55.8413 115.904C56.709 115.904 57.4766 116.093 58.1441 116.471C58.8227 116.849 59.3511 117.372 59.7293 118.039C60.1187 118.707 60.3134 119.48 60.3134 120.359C60.3134 121.227 60.1187 122 59.7293 122.678C59.3511 123.346 58.8227 123.874 58.1441 124.264C57.4655 124.642 56.6979 124.831 55.8413 124.831ZM55.8413 123.78C56.4754 123.78 57.0372 123.641 57.5267 123.363C58.0161 123.073 58.3999 122.673 58.678 122.161C58.9673 121.638 59.1119 121.038 59.1119 120.359C59.1119 119.669 58.9673 119.068 58.678 118.557C58.3999 118.045 58.0161 117.65 57.5267 117.372C57.0372 117.083 56.481 116.938 55.858 116.938C55.235 116.938 54.6788 117.083 54.1893 117.372C53.6998 117.65 53.3105 118.045 53.0212 118.557C52.732 119.068 52.5874 119.669 52.5874 120.359C52.5874 121.038 52.732 121.638 53.0212 122.161C53.3105 122.673 53.6998 123.073 54.1893 123.363C54.6788 123.641 55.2294 123.78 55.8413 123.78ZM62.7322 124.748V112.366H63.9169V124.748H62.7322ZM70.7844 124.831C69.939 124.831 69.1769 124.642 68.4983 124.264C67.8309 123.874 67.3025 123.346 66.9131 122.678C66.5237 122 66.3291 121.227 66.3291 120.359C66.3291 119.48 66.5237 118.707 66.9131 118.039C67.3025 117.372 67.8309 116.849 68.4983 116.471C69.1658 116.093 69.9278 115.904 70.7844 115.904C71.6521 115.904 72.4197 116.093 73.0872 116.471C73.7658 116.849 74.2942 117.372 74.6724 118.039C75.0618 118.707 75.2565 119.48 75.2565 120.359C75.2565 121.227 75.0618 122 74.6724 122.678C74.2942 123.346 73.7658 123.874 73.0872 124.264C72.4086 124.642 71.641 124.831 70.7844 124.831ZM70.7844 123.78C71.4185 123.78 71.9803 123.641 72.4698 123.363C72.9593 123.073 73.3431 122.673 73.6212 122.161C73.9104 121.638 74.055 121.038 74.055 120.359C74.055 119.669 73.9104 119.068 73.6212 118.557C73.3431 118.045 72.9593 117.65 72.4698 117.372C71.9803 117.083 71.4241 116.938 70.8011 116.938C70.1781 116.938 69.6219 117.083 69.1324 117.372C68.643 117.65 68.2536 118.045 67.9644 118.557C67.6751 119.068 67.5305 119.669 67.5305 120.359C67.5305 121.038 67.6751 121.638 67.9644 122.161C68.2536 122.673 68.643 123.073 69.1324 123.363C69.6219 123.641 70.1726 123.78 70.7844 123.78ZM81.4131 128.068C80.6122 128.068 79.8446 127.951 79.1103 127.718C78.3761 127.484 77.781 127.15 77.3249 126.717L77.9256 125.816C78.3372 126.183 78.8434 126.472 79.4441 126.683C80.0559 126.906 80.7012 127.017 81.3797 127.017C82.4922 127.017 83.3098 126.756 83.8327 126.233C84.3556 125.721 84.617 124.92 84.617 123.83V121.644L84.7838 120.142L84.667 118.64V115.987H85.8017V123.68C85.8017 125.193 85.4291 126.299 84.6837 127C83.9495 127.712 82.8593 128.068 81.4131 128.068ZM81.1962 124.414C80.3619 124.414 79.6109 124.236 78.9435 123.88C78.276 123.513 77.7476 123.007 77.3582 122.361C76.98 121.716 76.7909 120.976 76.7909 120.142C76.7909 119.308 76.98 118.573 77.3582 117.939C77.7476 117.294 78.276 116.794 78.9435 116.438C79.6109 116.082 80.3619 115.904 81.1962 115.904C81.9749 115.904 82.6758 116.065 83.2987 116.387C83.9217 116.71 84.4167 117.188 84.7838 117.823C85.151 118.457 85.3345 119.23 85.3345 120.142C85.3345 121.054 85.151 121.827 84.7838 122.461C84.4167 123.096 83.9217 123.579 83.2987 123.913C82.6758 124.247 81.9749 124.414 81.1962 124.414ZM81.313 123.363C81.9582 123.363 82.5311 123.229 83.0317 122.962C83.5323 122.684 83.9273 122.306 84.2165 121.827C84.5057 121.338 84.6504 120.776 84.6504 120.142C84.6504 119.508 84.5057 118.952 84.2165 118.473C83.9273 117.995 83.5323 117.622 83.0317 117.355C82.5311 117.077 81.9582 116.938 81.313 116.938C80.6789 116.938 80.106 117.077 79.5943 117.355C79.0937 117.622 78.6987 117.995 78.4095 118.473C78.1314 118.952 77.9923 119.508 77.9923 120.142C77.9923 120.776 78.1314 121.338 78.4095 121.827C78.6987 122.306 79.0937 122.684 79.5943 122.962C80.106 123.229 80.6789 123.363 81.313 123.363ZM89.1653 128.068C88.7537 128.068 88.3588 128.001 87.9805 127.868C87.6134 127.734 87.2964 127.534 87.0294 127.267L87.5801 126.383C87.8025 126.594 88.0417 126.756 88.2976 126.867C88.5646 126.989 88.8594 127.05 89.182 127.05C89.5713 127.05 89.9051 126.939 90.1832 126.717C90.4724 126.505 90.745 126.127 91.0008 125.582L91.5682 124.297L91.7017 124.113L95.306 115.987H96.4741L92.0855 125.799C91.8407 126.366 91.5682 126.817 91.2678 127.15C90.9786 127.484 90.6615 127.718 90.3167 127.851C89.9718 127.996 89.588 128.068 89.1653 128.068ZM91.5014 124.998L87.4633 115.987H88.6981L92.269 124.03L91.5014 124.998Z" fill="white"/>
<path d="M180.183 116.548H181.401V128.229H180.183V116.548ZM172.874 128.229H171.639V116.548H172.874V128.229ZM180.3 122.839H172.741V121.755H180.3V122.839ZM188.684 128.312C187.772 128.312 186.971 128.123 186.282 127.745C185.592 127.356 185.052 126.827 184.663 126.16C184.274 125.481 184.079 124.708 184.079 123.84C184.079 122.973 184.263 122.205 184.63 121.538C185.008 120.87 185.52 120.347 186.165 119.969C186.821 119.58 187.555 119.385 188.367 119.385C189.191 119.385 189.919 119.574 190.553 119.952C191.199 120.319 191.705 120.842 192.072 121.521C192.439 122.188 192.623 122.962 192.623 123.84C192.623 123.896 192.617 123.957 192.606 124.024C192.606 124.08 192.606 124.141 192.606 124.207H184.98V123.323H191.972L191.505 123.674C191.505 123.039 191.366 122.478 191.087 121.988C190.82 121.488 190.453 121.098 189.986 120.82C189.519 120.542 188.979 120.403 188.367 120.403C187.767 120.403 187.227 120.542 186.749 120.82C186.27 121.098 185.898 121.488 185.631 121.988C185.364 122.489 185.23 123.062 185.23 123.707V123.89C185.23 124.558 185.375 125.148 185.664 125.659C185.965 126.16 186.376 126.555 186.899 126.844C187.433 127.122 188.039 127.261 188.718 127.261C189.252 127.261 189.747 127.167 190.203 126.977C190.67 126.788 191.071 126.499 191.404 126.11L192.072 126.877C191.683 127.345 191.193 127.701 190.603 127.945C190.025 128.19 189.385 128.312 188.684 128.312ZM200.28 128.229V126.293L200.23 125.976V122.739C200.23 121.994 200.018 121.421 199.595 121.02C199.184 120.62 198.566 120.42 197.743 120.42C197.176 120.42 196.636 120.514 196.125 120.703C195.613 120.892 195.179 121.143 194.823 121.454L194.289 120.57C194.734 120.192 195.268 119.902 195.891 119.702C196.514 119.491 197.17 119.385 197.86 119.385C198.995 119.385 199.868 119.669 200.48 120.236C201.103 120.792 201.414 121.643 201.414 122.789V128.229H200.28ZM197.259 128.312C196.603 128.312 196.03 128.207 195.541 127.995C195.062 127.773 194.695 127.473 194.439 127.094C194.183 126.705 194.055 126.26 194.055 125.759C194.055 125.303 194.161 124.892 194.372 124.525C194.595 124.146 194.951 123.846 195.44 123.623C195.941 123.39 196.608 123.273 197.443 123.273H200.463V124.157H197.476C196.631 124.157 196.041 124.308 195.707 124.608C195.385 124.908 195.223 125.281 195.223 125.726C195.223 126.227 195.418 126.627 195.808 126.927C196.197 127.228 196.742 127.378 197.443 127.378C198.11 127.378 198.683 127.228 199.162 126.927C199.651 126.616 200.007 126.171 200.23 125.592L200.497 126.41C200.274 126.989 199.885 127.45 199.328 127.795C198.783 128.14 198.094 128.312 197.259 128.312ZM207.402 128.312C206.579 128.312 205.945 128.09 205.5 127.645C205.055 127.2 204.832 126.571 204.832 125.759V117.533H206.017V125.693C206.017 126.204 206.145 126.599 206.401 126.877C206.668 127.155 207.046 127.295 207.536 127.295C208.059 127.295 208.492 127.144 208.837 126.844L209.254 127.695C209.021 127.906 208.737 128.062 208.403 128.162C208.081 128.262 207.747 128.312 207.402 128.312ZM203.264 120.453V119.468H208.687V120.453H203.264ZM215.883 119.385C216.595 119.385 217.218 119.524 217.752 119.802C218.297 120.069 218.72 120.481 219.02 121.037C219.332 121.593 219.488 122.294 219.488 123.14V128.229H218.303V123.256C218.303 122.333 218.069 121.638 217.602 121.17C217.146 120.692 216.501 120.453 215.666 120.453C215.043 120.453 214.498 120.581 214.031 120.837C213.575 121.082 213.219 121.443 212.963 121.921C212.718 122.389 212.596 122.956 212.596 123.623V128.229H211.411V115.847H212.596V121.871L212.362 121.421C212.64 120.787 213.085 120.292 213.697 119.936C214.309 119.569 215.038 119.385 215.883 119.385ZM226.326 128.312C225.458 128.312 224.679 128.123 223.989 127.745C223.311 127.356 222.777 126.827 222.387 126.16C221.998 125.481 221.803 124.708 221.803 123.84C221.803 122.962 221.998 122.188 222.387 121.521C222.777 120.853 223.311 120.331 223.989 119.952C224.679 119.574 225.458 119.385 226.326 119.385C227.071 119.385 227.744 119.53 228.345 119.819C228.945 120.108 229.418 120.542 229.763 121.12L228.879 121.721C228.578 121.276 228.206 120.948 227.761 120.737C227.316 120.525 226.832 120.42 226.309 120.42C225.686 120.42 225.124 120.564 224.624 120.853C224.123 121.132 223.728 121.526 223.439 122.038C223.15 122.55 223.005 123.151 223.005 123.84C223.005 124.53 223.15 125.131 223.439 125.643C223.728 126.154 224.123 126.555 224.624 126.844C225.124 127.122 225.686 127.261 226.309 127.261C226.832 127.261 227.316 127.155 227.761 126.944C228.206 126.733 228.578 126.41 228.879 125.976L229.763 126.577C229.418 127.144 228.945 127.578 228.345 127.879C227.744 128.168 227.071 128.312 226.326 128.312ZM237.58 128.229V126.293L237.53 125.976V122.739C237.53 121.994 237.319 121.421 236.896 121.02C236.485 120.62 235.867 120.42 235.044 120.42C234.477 120.42 233.937 120.514 233.425 120.703C232.914 120.892 232.48 121.143 232.124 121.454L231.59 120.57C232.035 120.192 232.569 119.902 233.192 119.702C233.815 119.491 234.471 119.385 235.161 119.385C236.296 119.385 237.169 119.669 237.781 120.236C238.404 120.792 238.715 121.643 238.715 122.789V128.229H237.58ZM234.56 128.312C233.904 128.312 233.331 128.207 232.841 127.995C232.363 127.773 231.996 127.473 231.74 127.094C231.484 126.705 231.356 126.26 231.356 125.759C231.356 125.303 231.462 124.892 231.673 124.525C231.896 124.146 232.252 123.846 232.741 123.623C233.242 123.39 233.909 123.273 234.744 123.273H237.764V124.157H234.777C233.932 124.157 233.342 124.308 233.008 124.608C232.686 124.908 232.524 125.281 232.524 125.726C232.524 126.227 232.719 126.627 233.108 126.927C233.498 127.228 234.043 127.378 234.744 127.378C235.411 127.378 235.984 127.228 236.462 126.927C236.952 126.616 237.308 126.171 237.53 125.592L237.797 126.41C237.575 126.989 237.185 127.45 236.629 127.795C236.084 128.14 235.394 128.312 234.56 128.312ZM241.933 128.229V119.468H243.068V121.855L242.951 121.437C243.196 120.77 243.607 120.264 244.186 119.919C244.764 119.563 245.482 119.385 246.338 119.385V120.536C246.294 120.536 246.249 120.536 246.205 120.536C246.16 120.525 246.116 120.52 246.071 120.52C245.148 120.52 244.425 120.803 243.902 121.371C243.379 121.927 243.118 122.722 243.118 123.757V128.229H241.933ZM252.14 128.312C251.228 128.312 250.427 128.123 249.737 127.745C249.047 127.356 248.508 126.827 248.118 126.16C247.729 125.481 247.534 124.708 247.534 123.84C247.534 122.973 247.718 122.205 248.085 121.538C248.463 120.87 248.975 120.347 249.62 119.969C250.277 119.58 251.011 119.385 251.823 119.385C252.646 119.385 253.375 119.574 254.009 119.952C254.654 120.319 255.16 120.842 255.527 121.521C255.894 122.188 256.078 122.962 256.078 123.84C256.078 123.896 256.072 123.957 256.061 124.024C256.061 124.08 256.061 124.141 256.061 124.207H248.435V123.323H255.427L254.96 123.674C254.96 123.039 254.821 122.478 254.543 121.988C254.276 121.488 253.909 121.098 253.441 120.82C252.974 120.542 252.435 120.403 251.823 120.403C251.222 120.403 250.683 120.542 250.204 120.82C249.726 121.098 249.353 121.488 249.086 121.988C248.819 122.489 248.686 123.062 248.686 123.707V123.89C248.686 124.558 248.83 125.148 249.12 125.659C249.42 126.16 249.832 126.555 250.354 126.844C250.888 127.122 251.495 127.261 252.173 127.261C252.707 127.261 253.202 127.167 253.658 126.977C254.126 126.788 254.526 126.499 254.86 126.11L255.527 126.877C255.138 127.345 254.648 127.701 254.059 127.945C253.48 128.19 252.841 128.312 252.14 128.312Z" fill="white"/>
<g clip-path="url(#clip0_1411_675)">
<path d="M351.131 21.8408L403.755 74.4653L412.604 65.6159L359.98 12.9914L351.131 21.8408Z" fill="#FFBE17"/>
<path d="M348.451 40.0484C347.783 40.0484 347.282 39.8815 346.782 39.3809L342.11 34.7086C341.108 33.7074 341.108 32.2056 342.11 31.3713L345.447 28.0339C345.948 27.5333 346.448 27.3665 347.116 27.3665C347.449 27.3665 347.616 27.3665 347.95 27.5333L346.615 26.1984C345.614 25.1972 345.614 23.6954 346.615 22.8611L360.799 8.67731L362.801 6.50805C367.974 1.33515 373.314 0.166992 376.651 0.166992C378.82 0.166992 380.155 0.667677 380.155 0.667677L382.825 1.50202L380.155 2.16943C380.155 2.16943 374.649 3.67123 372.646 8.00979C371.311 10.6797 371.478 13.8502 372.98 17.3544C373.814 18.3557 373.814 19.6905 372.813 20.5249L358.629 34.7086C358.129 35.2092 357.628 35.3761 356.961 35.3761C356.293 35.3761 355.793 35.2092 355.292 34.7086L353.957 33.3737C354.291 34.208 354.124 35.2093 353.457 35.8767L350.119 39.2141C349.619 39.7147 349.118 40.0484 348.451 40.0484Z" fill="#031837"/>
<path d="M376.651 0.834204C378.653 0.834204 379.988 1.16796 379.988 1.16796C379.988 1.16796 366.639 4.67212 372.313 17.6878C372.98 18.3553 372.98 19.1897 372.313 19.8572L358.129 34.0409C357.795 34.3747 357.461 34.5415 356.961 34.5415C356.46 34.5415 356.126 34.3747 355.793 34.0409L353.957 32.2053L352.789 33.3734C353.29 34.0409 353.29 34.8752 352.789 35.3758L349.452 38.7132C349.118 39.0469 348.784 39.2138 348.284 39.2138C347.783 39.2138 347.449 39.0469 347.115 38.7132L342.443 34.0409C341.776 33.3734 341.776 32.539 342.443 31.8716L345.781 28.5342C346.114 28.2005 346.448 28.0336 346.782 28.0336C347.115 28.0336 347.449 28.2005 347.783 28.3674L348.951 27.1993L347.115 25.3638C346.448 24.6963 346.448 23.862 347.115 23.1945L361.299 9.01076C362.134 8.17642 362.134 8.17634 363.302 6.8414C368.475 1.83537 373.481 0.834204 376.651 0.834204ZM376.651 -0.834473C372.98 -0.834473 367.64 0.333642 362.134 5.67341C361.466 6.34088 361.132 6.67459 360.799 7.00833C360.632 7.1752 360.298 7.50893 359.964 7.84267L345.781 22.0264C344.612 23.1945 344.612 25.1969 345.781 26.5319C345.28 26.6987 344.946 26.8656 344.612 27.3662L341.275 30.7036C340.608 31.371 340.274 32.0384 340.274 33.0397C340.274 33.874 340.608 34.7084 341.275 35.3758L345.947 40.0481C346.615 40.7156 347.282 41.0493 348.284 41.0493C349.118 41.0493 349.952 40.7156 350.62 40.0481L353.957 36.7108C354.291 36.377 354.625 35.8764 354.791 35.5427C355.459 36.0433 356.126 36.377 356.961 36.377C357.795 36.377 358.629 36.0433 359.297 35.3758L373.481 21.1921C374.148 20.5246 374.482 19.8571 374.482 18.8559C374.482 18.1884 374.315 17.5209 373.814 16.8535C372.479 13.5161 372.313 10.6794 373.481 8.34325C375.483 4.33843 380.489 3.00346 380.489 3.00346L385.996 1.50172L380.656 -0.166961C380.322 -0.333829 378.82 -0.834473 376.651 -0.834473Z" fill="#031837"/>
<path d="M379.988 1.33481C379.988 1.33481 371.812 -1.33504 363.469 7.00835C362.3 8.17642 362.3 8.34327 361.466 9.17761L347.282 23.3614C346.615 24.0288 346.615 24.8632 347.282 25.5306L349.118 27.3662L347.95 28.5342C347.282 28.0336 346.448 28.0336 345.947 28.5342L342.61 31.8716C341.943 32.539 341.943 33.3735 342.61 34.0409L347.282 38.7132C347.95 39.3807 348.784 39.3807 349.452 38.7132L352.789 35.3759C353.29 34.8753 353.29 33.874 352.789 33.3734L353.957 32.2053L355.793 34.0409C356.46 34.7084 357.294 34.7084 357.962 34.0409L372.146 19.8572C372.813 19.1897 372.813 18.3553 372.146 17.6878C366.639 4.83901 379.988 1.33481 379.988 1.33481Z" fill="#FFBE17"/>
<path d="M399.846 8.00968L413.362 21.526L356.627 78.261L343.111 64.7447L399.846 8.00968ZM399.846 3.3374L397.51 5.67359L340.775 62.4086L338.438 64.7447L340.775 67.0809L354.291 80.5971L356.627 82.9333L358.963 80.5971L415.698 23.8621L418.034 21.526L415.698 19.1898L402.182 5.67359L399.846 3.3374Z" fill="#031837"/>
<path d="M399.894 8.12469L343.14 64.8789L356.709 78.448L413.463 21.6938L399.894 8.12469Z" fill="#FFBE17"/>
<path d="M403.853 20.3342L402.673 21.5142L406.331 25.172L407.511 23.992L403.853 20.3342Z" fill="#031837" stroke="#031837" stroke-width="0.417169" stroke-miterlimit="10"/>
<path d="M394.413 29.8757L393.234 31.0557L396.891 34.7135L398.071 33.5335L394.413 29.8757Z" fill="#031837" stroke="#031837" stroke-width="0.417169" stroke-miterlimit="10"/>
<path d="M396.307 22.2507L395.127 23.4307L401.735 30.0382L402.915 28.8583L396.307 22.2507Z" fill="#031837" stroke="#031837" stroke-width="0.417169" stroke-miterlimit="10"/>
<path d="M384.974 39.4168L383.794 40.5967L387.452 44.2544L388.632 43.0745L384.974 39.4168Z" fill="#031837" stroke="#031837" stroke-width="0.417169" stroke-miterlimit="10"/>
<path d="M386.75 31.6736L385.57 32.8535L392.177 39.461L393.357 38.2811L386.75 31.6736Z" fill="#031837" stroke="#031837" stroke-width="0.417169" stroke-miterlimit="10"/>
<path d="M375.534 48.7214L374.354 49.9014L378.012 53.5592L379.192 52.3792L375.534 48.7214Z" fill="#031837" stroke="#031837" stroke-width="0.417169" stroke-miterlimit="10"/>
<path d="M377.428 41.0974L376.248 42.2773L382.856 48.8849L384.036 47.705L377.428 41.0974Z" fill="#031837" stroke="#031837" stroke-width="0.417169" stroke-miterlimit="10"/>
<path d="M356.656 67.5681L355.476 68.748L359.133 72.4058L360.313 71.2259L356.656 67.5681Z" fill="#031837" stroke="#031837" stroke-width="0.417169" stroke-miterlimit="10"/>
<path d="M366.095 58.2634L364.915 59.4434L368.573 63.1012L369.753 61.9212L366.095 58.2634Z" fill="#031837" stroke="#031837" stroke-width="0.417169" stroke-miterlimit="10"/>
<path d="M367.989 50.6389L366.809 51.8188L373.416 58.4264L374.596 57.2465L367.989 50.6389Z" fill="#031837" stroke="#031837" stroke-width="0.417169" stroke-miterlimit="10"/>
<path d="M358.431 60.0618L357.251 61.2417L363.859 67.8492L365.039 66.6693L358.431 60.0618Z" fill="#031837" stroke="#031837" stroke-width="0.417169" stroke-miterlimit="10"/>
</g>
<path d="M549.927 54.6323L571.048 75.7529L578.127 68.6734L557.007 47.5528L549.927 54.6323Z" fill="#4BAC4C"/>
<path d="M561.874 52.3966L548.191 66.0797C547.524 66.7472 546.355 66.9141 545.855 66.2466L532.672 53.064C518.822 39.214 513.149 16.3531 513.149 8.00976C513.149 6.50795 515.151 5.5068 516.152 6.50801L561.874 52.3966Z" stroke="#031837" stroke-width="3.33735" stroke-miterlimit="10"/>
<path d="M561.874 52.3966L548.191 66.0797C547.524 66.7472 546.355 66.9141 545.855 66.2466L532.672 53.064C518.822 39.214 513.149 16.3531 513.149 8.00976C513.149 6.50795 515.151 5.5068 516.152 6.50801L561.874 52.3966Z" fill="#4BAC4C"/>
<path d="M530.503 52.2297C536.177 57.9032 567.882 35.7098 573.722 29.8695C579.395 24.1959 579.395 14.8514 573.722 9.01099C568.048 3.33748 558.704 3.33748 552.864 9.01099C547.023 14.6845 524.663 46.3893 530.503 52.2297Z" stroke="#031837" stroke-width="6.67471" stroke-miterlimit="10"/>
<path d="M534.099 41.5042L508.73 66.8726L515.692 73.8341L541.06 48.4658L534.099 41.5042Z" stroke="#031837" stroke-width="3.33735" stroke-miterlimit="10"/>
<path d="M534.099 41.5042L508.73 66.8726L515.692 73.8341L541.06 48.4658L534.099 41.5042Z" fill="#4BAC4C"/>
<path d="M530.503 52.2297C536.177 57.9032 567.882 35.7098 573.722 29.8695C579.395 24.1959 579.395 14.8514 573.722 9.01099C568.048 3.33748 558.704 3.33748 552.864 9.01099C547.023 14.6845 524.663 46.3893 530.503 52.2297Z" fill="#031837"/>
<path d="M530.503 52.2297C529.669 51.3954 556.034 23.6954 561.707 18.0219C567.381 12.3483 572.721 8.34354 573.555 9.17788" stroke="#4BAC4C" stroke-width="1.66868" stroke-miterlimit="10"/>
<path d="M530.503 52.2298C526.332 48.0581 550.027 17.8551 555.867 12.0148C561.541 6.34125 569.55 5.00633 573.722 9.01115" stroke="#4BAC4C" stroke-width="1.66868" stroke-miterlimit="10"/>
<path d="M530.503 52.2293C528 49.7263 553.03 20.8582 558.704 15.0178C564.377 9.34429 571.052 6.67444 573.555 9.01059" stroke="#4BAC4C" stroke-width="1.66868" stroke-miterlimit="10"/>
<path d="M530.503 52.2296C531.338 53.0639 559.038 26.6988 564.711 21.0253C570.385 15.3518 574.389 10.0121 573.555 9.17773" stroke="#4BAC4C" stroke-width="1.66868" stroke-miterlimit="10"/>
<path d="M530.503 52.2294C534.675 56.4011 564.878 32.7059 570.718 26.8655C576.392 21.192 577.727 13.1824 573.722 9.01074" stroke="#4BAC4C" stroke-width="1.66868" stroke-miterlimit="10"/>
<path d="M530.503 52.2296C533.006 54.7326 561.874 29.7025 567.715 24.029C573.388 18.3555 576.058 11.6808 573.722 9.17773" stroke="#4BAC4C" stroke-width="1.66868" stroke-miterlimit="10"/>
<path d="M530.503 52.2297C536.177 57.9032 567.882 35.7098 573.722 29.8695C579.395 24.1959 579.395 14.8514 573.722 9.01099C568.048 3.33748 558.704 3.33748 552.864 9.01099C547.023 14.6845 524.663 46.3893 530.503 52.2297Z" stroke="#4BAC4C" stroke-width="1.66868" stroke-miterlimit="10"/>
<path d="M530.169 45.0543L537.512 52.3965L545.855 49.226L533.507 36.7109L530.169 45.0543Z" fill="#4BAC4C"/>
<path d="M73.7862 46.3887L45.7524 18.5218C44.2506 17.02 42.2482 16.3525 40.079 16.3525H21.056" stroke="#217CEB" stroke-width="3.33735" stroke-miterlimit="10"/>
<path d="M72.7849 64.7448L23.3921 15.3521" stroke="#217CEB" stroke-width="5.00603" stroke-miterlimit="10"/>
<path d="M24.5601 23.1946C22.7245 23.1946 21.0559 22.5271 19.7209 21.1922C18.386 19.8573 17.7185 18.1886 17.7185 16.5199C17.7185 14.6844 18.386 13.0156 19.7209 11.8475C21.0559 10.5126 22.7245 9.84521 24.3932 9.84521C26.2288 9.84521 27.8974 10.5126 29.2324 11.8475C30.5673 13.1825 31.2348 14.8512 31.2348 16.5199C31.2348 18.3555 30.5673 20.0241 29.2324 21.1922C27.8974 22.5271 26.2288 23.1946 24.5601 23.1946Z" fill="#031837"/>
<path d="M24.5601 12.1808C25.7282 12.1808 26.7294 12.6815 27.5637 13.3489C28.3981 14.1833 28.7318 15.1845 28.7318 16.3525C28.7318 17.5206 28.2312 18.5218 27.5637 19.3561C26.7294 20.1905 25.7282 20.5242 24.5601 20.5242C23.392 20.5242 22.3908 20.0236 21.5565 19.3561C20.7222 18.5218 20.3884 17.5206 20.3884 16.3525C20.3884 15.1845 20.889 14.1833 21.5565 13.3489C22.3908 12.6815 23.392 12.1808 24.5601 12.1808ZM24.5601 7.1748C22.224 7.1748 19.8878 8.0092 18.0523 9.84475C14.3812 13.5158 14.3812 19.3562 18.0523 22.8604C19.8878 24.696 22.224 25.5303 24.5601 25.5303C26.8963 25.5303 29.2324 24.696 31.0679 22.8604C34.739 19.1893 34.739 13.349 31.0679 9.84475C29.2324 8.17607 26.8963 7.1748 24.5601 7.1748Z" fill="#217CEB"/>
<path d="M24.7271 36.8779L50.7584 62.5756C52.2602 64.0774 54.2626 64.7449 56.4319 64.7449H75.4548" stroke="#217CEB" stroke-width="3.33735" stroke-miterlimit="10"/>
<path d="M72.7848 71.5862C70.9493 71.5862 69.2806 70.9187 67.9457 69.5838C66.6107 68.2489 65.9432 66.5802 65.9432 64.9115C65.9432 63.076 66.6107 61.4072 67.9457 60.2391C69.2806 58.9042 70.9493 58.2368 72.6179 58.2368C74.4535 58.2368 76.1222 58.9042 77.4571 60.2391C78.792 61.5741 79.4595 63.2428 79.4595 64.9115C79.4595 66.7471 78.792 68.4157 77.4571 69.5838C76.1222 70.9187 74.4535 71.5862 72.7848 71.5862Z" fill="#031837"/>
<path d="M72.785 60.5724C73.953 60.5724 74.9542 61.0731 75.7886 61.7405C77.4573 63.4092 77.4573 66.0791 75.7886 67.7477C74.9542 68.5821 73.953 68.9158 72.785 68.9158C71.6169 68.9158 70.6157 68.4152 69.7813 67.7477C68.1127 66.0791 68.1127 63.4092 69.7813 61.7405C70.6157 61.0731 71.6169 60.5724 72.785 60.5724ZM72.785 55.5664C70.4488 55.5664 68.1127 56.4008 66.2771 58.2364C62.606 61.9074 62.606 67.7478 66.2771 71.252C68.1127 73.0876 70.4488 73.9219 72.785 73.9219C75.1211 73.9219 77.4573 73.0876 79.2928 71.252C82.9639 67.5809 82.9639 61.7406 79.2928 58.2364C77.4573 56.5677 75.1211 55.5664 72.785 55.5664Z" fill="#217CEB"/>
<path d="M70.1151 8.67716L79.4597 18.0217L28.2313 69.2501L16.3837 71.7531L18.8867 59.9056L70.1151 8.67716ZM70.1151 4.00488L67.779 6.34097L16.5506 57.5694L15.8831 58.2369L15.7163 59.2381L13.2132 71.0856L12.212 76.0917L17.2181 75.0905L29.0657 72.5875L30.0669 72.4206L30.5675 71.7531L81.7959 20.5247L84.132 18.1886L81.7959 15.8524L72.4513 6.5079L70.1151 4.00488Z" fill="#031837"/>
<path d="M18.7198 59.9057L70.1151 8.67725L79.4597 18.1887L28.2313 69.417L16.3837 71.92L18.7198 59.9057Z" fill="#217CEB"/>
<path d="M19.8879 61.0737L27.0632 68.2491L18.0524 70.2515L19.8879 61.0737Z" fill="#031837"/>
<path d="M69.2807 47.057C67.9457 47.057 66.6108 46.5563 65.7765 45.5551C64.7753 44.5539 64.2747 43.3859 64.2747 42.051C64.2747 40.716 64.7753 39.381 65.7765 38.5467C66.7777 37.5455 67.9457 37.0449 69.2807 37.0449C70.6156 37.0449 71.9506 37.5455 72.7849 38.5467C73.7861 39.5479 74.2867 40.716 74.2867 42.051C74.2867 43.3859 73.7861 44.7208 72.7849 45.5551C71.9506 46.5563 70.6156 47.057 69.2807 47.057Z" fill="#031837"/>
<path d="M69.2807 38.7138C70.115 38.7138 70.9493 39.0475 71.6168 39.715C72.9517 41.0499 72.9517 43.0523 71.6168 44.3873C70.9493 45.0547 70.115 45.3885 69.2807 45.3885C68.4463 45.3885 67.612 45.0547 66.9445 44.3873C66.277 43.7198 65.9433 42.8855 65.9433 42.0512C65.9433 41.2168 66.277 40.3825 66.9445 39.715C67.612 39.0475 68.4463 38.7138 69.2807 38.7138ZM69.2807 35.3765C67.612 35.3765 65.9433 36.044 64.6084 37.3789C61.9385 40.0488 61.9385 44.2204 64.6084 46.8903C65.9433 48.2252 67.612 48.8927 69.2807 48.8927C70.9493 48.8927 72.618 48.2252 73.953 46.8903C76.6228 44.2204 76.6228 40.0488 73.953 37.3789C72.7849 36.044 70.9493 35.3765 69.2807 35.3765Z" fill="#217CEB"/>
<path d="M26.3957 43.5526C25.0607 43.5526 23.7258 43.052 22.8915 42.0508C21.8903 41.0496 21.3896 39.8815 21.3896 38.5466C21.3896 37.2116 21.8903 35.8767 22.8915 35.0424C23.8927 34.0412 25.0607 33.5405 26.3957 33.5405C27.7306 33.5405 29.0656 34.0412 29.8999 35.0424C31.9023 37.0448 31.9023 40.2153 29.8999 42.0508C29.0656 43.052 27.7306 43.5526 26.3957 43.5526Z" fill="#031837"/>
<path d="M26.3958 35.2094C27.2301 35.2094 28.0645 35.5432 28.7319 36.2107C29.3994 36.8782 29.7331 37.7124 29.7331 38.5468C29.7331 39.3811 29.3994 40.2155 28.7319 40.883C28.0645 41.5504 27.2301 41.8841 26.3958 41.8841C25.5614 41.8841 24.7271 41.5504 24.0596 40.883C23.3922 40.2155 23.0584 39.3811 23.0584 38.5468C23.0584 37.7124 23.3922 36.8782 24.0596 36.2107C24.7271 35.5432 25.5614 35.2094 26.3958 35.2094ZM26.3958 31.8721C24.7271 31.8721 23.0584 32.5396 21.7235 33.8745C19.0536 36.5444 19.0536 40.7161 21.7235 43.386C23.0584 44.7209 24.7271 45.3884 26.3958 45.3884C28.0645 45.3884 29.7331 44.7209 31.0681 43.386C33.738 40.7161 33.738 36.5444 31.0681 33.8745C29.9 32.5396 28.0645 31.8721 26.3958 31.8721Z" fill="#217CEB"/>
<path d="M231.643 66.58C229.641 66.58 227.805 65.7456 226.303 64.4107L186.255 24.3624C184.92 23.0275 184.086 21.0251 184.086 19.0227C184.086 17.0203 184.92 15.1847 186.255 13.6829C187.59 12.348 189.592 11.5137 191.595 11.5137C193.597 11.5137 195.433 12.348 196.935 13.6829L236.983 53.7312C239.82 56.5679 239.82 61.4071 236.983 64.2438C235.648 65.7456 233.646 66.58 231.643 66.58Z" fill="#031837"/>
<path d="M191.762 13.1826C193.264 13.1826 194.765 13.6832 195.933 14.8512L235.982 54.8995C238.318 57.2356 238.318 60.9067 235.982 63.076C234.814 64.244 233.312 64.7446 231.81 64.7446C230.308 64.7446 228.806 64.244 227.638 63.076L187.59 23.0277C185.254 20.6916 185.254 17.0205 187.59 14.8512C188.758 13.85 190.26 13.1826 191.762 13.1826ZM191.762 9.84521C189.259 9.84521 187.089 10.8464 185.254 12.5151C181.75 16.0193 181.75 21.8596 185.254 25.5307L225.302 65.579C226.971 67.2476 229.307 68.2489 231.81 68.2489C234.313 68.2489 236.482 67.2476 238.318 65.579C241.822 62.0747 241.822 56.2344 238.318 52.5633L198.27 12.5151C196.434 10.8464 194.098 9.84521 191.762 9.84521Z" fill="#F1647C"/>
<path d="M233.979 73.0876C240.43 73.0876 245.66 67.8579 245.66 61.4068C245.66 54.9557 240.43 49.7261 233.979 49.7261C227.528 49.7261 222.298 54.9557 222.298 61.4068C222.298 67.8579 227.528 73.0876 233.979 73.0876Z" fill="#031837"/>
<path d="M233.979 51.228C239.486 51.228 243.991 55.7334 243.991 61.24C243.991 66.7467 239.486 71.2521 233.979 71.2521C228.473 71.2521 223.967 66.7467 223.967 61.24C223.967 55.7334 228.473 51.228 233.979 51.228ZM233.979 47.8906C226.637 47.8906 220.63 53.8979 220.63 61.24C220.63 68.5822 226.637 74.5895 233.979 74.5895C241.321 74.5895 247.329 68.5822 247.329 61.24C247.329 53.8979 241.321 47.8906 233.979 47.8906Z" fill="#F1647C"/>
<path d="M233.312 65.7455C231.977 65.7455 230.642 65.2449 229.641 64.2437L187.924 22.5268C185.921 20.5243 185.921 17.3539 187.924 15.3515C188.925 14.3503 190.26 13.8496 191.595 13.8496C192.93 13.8496 194.265 14.3503 195.266 15.3515L236.983 57.0684C238.985 59.0708 238.985 62.2413 236.983 64.2437C235.982 65.2449 234.814 65.7455 233.312 65.7455Z" fill="#F1647C"/>
<path d="M191.762 15.5185C192.596 15.5185 193.597 15.8523 194.265 16.5198L235.982 58.2367C237.317 59.5716 237.317 61.7409 235.982 63.0758C235.314 63.7433 234.48 64.0771 233.479 64.0771C232.477 64.0771 231.643 63.7433 230.976 63.0758L189.259 21.3589C187.924 20.0239 187.924 17.8547 189.259 16.5198C189.926 15.8523 190.761 15.5185 191.762 15.5185ZM191.762 12.1812C189.926 12.1812 188.258 12.8486 186.923 14.1836C184.253 16.8535 184.253 21.192 186.923 23.8619L228.64 65.5788C229.974 66.9138 231.643 67.5813 233.479 67.5813C235.314 67.5813 236.983 66.9138 238.318 65.5788C239.653 64.2439 240.32 62.5753 240.32 60.7397C240.32 58.9042 239.653 57.2355 238.318 55.9005L196.601 14.1836C195.266 12.8486 193.43 12.1812 191.762 12.1812Z" fill="#031837"/>
<path d="M233.979 70.5849C239.048 70.5849 243.157 66.4759 243.157 61.4072C243.157 56.3385 239.048 52.2295 233.979 52.2295C228.911 52.2295 224.802 56.3385 224.802 61.4072C224.802 66.4759 228.911 70.5849 233.979 70.5849Z" fill="#F1647C"/>
<path d="M233.979 53.7309C238.151 53.7309 241.488 57.0683 241.488 61.24C241.488 65.4116 238.151 68.749 233.979 68.749C229.808 68.749 226.47 65.4116 226.47 61.24C226.47 57.2351 229.808 53.7309 233.979 53.7309ZM233.979 50.3936C227.972 50.3936 223.133 55.2327 223.133 61.24C223.133 67.2472 227.972 72.0864 233.979 72.0864C239.986 72.0864 244.826 67.2472 244.826 61.24C244.826 55.3996 239.986 50.3936 233.979 50.3936Z" fill="#031837"/>
<path d="M230.976 63.0758L189.259 21.3589C187.924 20.0239 187.924 17.8547 189.259 16.5198C190.594 15.1848 192.763 15.1848 194.098 16.5198L235.815 58.2367C237.15 59.5716 237.15 61.7408 235.815 63.0758C234.48 64.4107 232.311 64.4107 230.976 63.0758Z" fill="#F1647C"/>
<path d="M233.979 68.916C238.126 68.916 241.488 65.5541 241.488 61.407C241.488 57.2599 238.126 53.8979 233.979 53.8979C229.832 53.8979 226.47 57.2599 226.47 61.407C226.47 65.5541 229.832 68.916 233.979 68.916Z" fill="#F1647C"/>
<path d="M231.476 7.67622C232.144 7.67622 232.811 7.84313 233.312 8.34373L245.159 20.1913C246.161 21.1925 246.161 22.8612 245.159 23.8624L197.435 71.5866C196.935 72.0872 196.267 72.2541 195.6 72.2541C194.932 72.2541 194.265 72.0872 193.764 71.5866L181.917 59.739C180.915 58.7378 180.915 57.0691 181.917 56.0679L229.474 8.51056C230.141 8.00996 230.809 7.67622 231.476 7.67622ZM231.476 4.33887C229.974 4.33887 228.473 5.00634 227.305 6.00754L179.747 53.5648C177.411 55.901 177.411 59.5721 179.747 61.9082L191.595 73.7559C192.763 74.924 194.265 75.4246 195.767 75.4246C197.268 75.4246 198.77 74.7571 199.938 73.7559L247.496 26.1986C248.664 25.0305 249.164 23.5287 249.164 22.0269C249.164 20.5251 248.497 19.0233 247.496 17.8552L235.648 6.00754C234.48 5.00634 232.978 4.33887 231.476 4.33887Z" fill="#031837"/>
<path d="M210.785 53.2309C210.284 53.2309 209.95 53.064 209.616 52.7302L200.772 43.8862C200.105 43.2188 200.105 42.0507 200.772 41.3832L214.789 27.3664C215.123 27.0327 215.624 26.8657 215.957 26.8657C216.458 26.8657 216.792 27.0327 217.125 27.3664L225.969 36.2104C226.637 36.8778 226.637 38.0459 225.969 38.7134L211.953 52.7302C211.786 52.8971 211.285 53.2309 210.785 53.2309Z" fill="#F1647C"/>
<path d="M193.764 71.5863L181.916 59.7386C180.915 58.7374 180.915 57.0687 181.916 56.0675L229.474 8.51018C230.475 7.50898 232.144 7.50898 233.145 8.51018L244.992 20.3579C245.994 21.3591 245.994 23.0278 244.992 24.029L197.435 71.5863C196.434 72.5875 194.765 72.5875 193.764 71.5863Z" fill="#F1647C"/>
<path d="M216.124 27.7004C216.291 27.7004 216.625 27.8673 216.792 28.0342L225.636 36.8781C225.97 37.2119 225.97 37.7125 225.636 38.0462L211.619 52.0632C211.452 52.23 211.285 52.3969 210.951 52.3969C210.785 52.3969 210.451 52.23 210.284 52.0632L201.44 43.2192C201.273 43.0523 201.106 42.8854 201.106 42.5517C201.106 42.2179 201.273 42.051 201.44 41.8842L215.457 27.8673C215.791 27.8673 215.957 27.7004 216.124 27.7004ZM216.124 26.0317C215.457 26.0317 214.789 26.1986 214.289 26.6992L200.272 40.7162C199.271 41.7174 199.271 43.386 200.272 44.3872L209.116 53.2313C209.616 53.7319 210.284 53.8987 210.951 53.8987C211.619 53.8987 212.286 53.7319 212.787 53.2313L226.804 39.2143C227.805 38.2131 227.805 36.5444 226.804 35.5432L217.96 26.6992C217.459 26.3655 216.792 26.0317 216.124 26.0317Z" fill="#031837"/>
<path d="M196.267 58.5707C197.004 58.5707 197.602 57.9731 197.602 57.2358C197.602 56.4985 197.004 55.9009 196.267 55.9009C195.53 55.9009 194.932 56.4985 194.932 57.2358C194.932 57.9731 195.53 58.5707 196.267 58.5707Z" fill="#031837"/>
<path d="M202.274 58.7378C203.012 58.7378 203.609 58.1402 203.609 57.4029C203.609 56.6656 203.012 56.0679 202.274 56.0679C201.537 56.0679 200.939 56.6656 200.939 57.4029C200.939 58.1402 201.537 58.7378 202.274 58.7378Z" fill="#031837"/>
<path d="M190.427 58.4037C191.164 58.4037 191.762 57.8061 191.762 57.0688C191.762 56.3315 191.164 55.7339 190.427 55.7339C189.689 55.7339 189.092 56.3315 189.092 57.0688C189.092 57.8061 189.689 58.4037 190.427 58.4037Z" fill="#031837"/>
<path d="M196.1 52.7304C196.838 52.7304 197.435 52.1327 197.435 51.3955C197.435 50.6582 196.838 50.0605 196.1 50.0605C195.363 50.0605 194.765 50.6582 194.765 51.3955C194.765 52.1327 195.363 52.7304 196.1 52.7304Z" fill="#031837"/>
<path d="M196.434 64.5781C197.171 64.5781 197.769 63.9805 197.769 63.2432C197.769 62.506 197.171 61.9082 196.434 61.9082C195.697 61.9082 195.099 62.506 195.099 63.2432C195.099 63.9805 195.697 64.5781 196.434 64.5781Z" fill="#031837"/>
<path d="M230.809 24.0293C231.546 24.0293 232.144 23.4316 232.144 22.6943C232.144 21.957 231.546 21.3594 230.809 21.3594C230.071 21.3594 229.474 21.957 229.474 22.6943C229.474 23.4316 230.071 24.0293 230.809 24.0293Z" fill="#031837"/>
<path d="M236.816 24.1962C237.553 24.1962 238.151 23.5986 238.151 22.8613C238.151 22.124 237.553 21.5264 236.816 21.5264C236.079 21.5264 235.481 22.124 235.481 22.8613C235.481 23.5986 236.079 24.1962 236.816 24.1962Z" fill="#031837"/>
<path d="M224.801 23.8622C225.539 23.8622 226.136 23.2646 226.136 22.5273C226.136 21.79 225.539 21.1924 224.801 21.1924C224.064 21.1924 223.467 21.79 223.467 22.5273C223.467 23.2646 224.064 23.8622 224.801 23.8622Z" fill="#031837"/>
<path d="M230.642 18.0219C231.379 18.0219 231.977 17.4242 231.977 16.687C231.977 15.9497 231.379 15.3521 230.642 15.3521C229.905 15.3521 229.307 15.9497 229.307 16.687C229.307 17.4242 229.905 18.0219 230.642 18.0219Z" fill="#031837"/>
<path d="M230.975 30.037C231.713 30.037 232.31 29.4394 232.31 28.7021C232.31 27.9648 231.713 27.3672 230.975 27.3672C230.238 27.3672 229.641 27.9648 229.641 28.7021C229.641 29.4394 230.238 30.037 230.975 30.037Z" fill="#031837"/>
<defs>
<clipPath id="clip0_1411_675">
<rect width="80.0965" height="80.0965" fill="white" transform="translate(336.77)"/>
</clipPath>
</defs>
</svg>
