<svg width="1240" height="881" viewBox="0 0 1240 881" fill="none" xmlns="http://www.w3.org/2000/svg">
<path d="M0 454H308V654H0V454Z" fill="#FFBE17"/>
<path d="M308 454H622V654H308V454Z" fill="#FFD466"/>
<path d="M622 454H928V654H622V454Z" fill="#FFF0C7"/>
<path d="M928 454H1240V654H928V454Z" fill="#FFDF8D"/>
<path d="M308 227H622V427H308V227Z" fill="#008E46"/>
<path d="M622 227H928V427H622V227Z" fill="#4BAC4C"/>
<path d="M928 227H1240V427H928V227Z" fill="#A8DD7C"/>
<path d="M0 227H308V427H0V227Z" fill="#007539"/>
<path d="M119.621 322.17C119.541 322.31 119.454 322.413 119.361 322.48C119.274 322.54 119.164 322.57 119.031 322.57C118.891 322.57 118.737 322.52 118.571 322.42C118.411 322.313 118.217 322.197 117.991 322.07C117.764 321.943 117.497 321.83 117.191 321.73C116.891 321.623 116.534 321.57 116.121 321.57C115.747 321.57 115.421 321.617 115.141 321.71C114.861 321.797 114.624 321.92 114.431 322.08C114.244 322.24 114.104 322.433 114.011 322.66C113.917 322.88 113.871 323.123 113.871 323.39C113.871 323.73 113.964 324.013 114.151 324.24C114.344 324.467 114.597 324.66 114.911 324.82C115.224 324.98 115.581 325.123 115.981 325.25C116.381 325.377 116.791 325.513 117.211 325.66C117.631 325.8 118.041 325.967 118.441 326.16C118.841 326.347 119.197 326.587 119.511 326.88C119.824 327.167 120.074 327.52 120.261 327.94C120.454 328.36 120.551 328.87 120.551 329.47C120.551 330.123 120.437 330.737 120.211 331.31C119.991 331.877 119.664 332.373 119.231 332.8C118.804 333.22 118.281 333.553 117.661 333.8C117.041 334.04 116.331 334.16 115.531 334.16C115.071 334.16 114.617 334.113 114.171 334.02C113.724 333.933 113.294 333.807 112.881 333.64C112.474 333.473 112.091 333.273 111.731 333.04C111.371 332.807 111.051 332.547 110.771 332.26L111.561 330.97C111.627 330.877 111.714 330.8 111.821 330.74C111.927 330.673 112.041 330.64 112.161 330.64C112.327 330.64 112.507 330.71 112.701 330.85C112.894 330.983 113.124 331.133 113.391 331.3C113.657 331.467 113.967 331.62 114.321 331.76C114.681 331.893 115.111 331.96 115.611 331.96C116.377 331.96 116.971 331.78 117.391 331.42C117.811 331.053 118.021 330.53 118.021 329.85C118.021 329.47 117.924 329.16 117.731 328.92C117.544 328.68 117.294 328.48 116.981 328.32C116.667 328.153 116.311 328.013 115.911 327.9C115.511 327.787 115.104 327.663 114.691 327.53C114.277 327.397 113.871 327.237 113.471 327.05C113.071 326.863 112.714 326.62 112.401 326.32C112.087 326.02 111.834 325.647 111.641 325.2C111.454 324.747 111.361 324.19 111.361 323.53C111.361 323.003 111.464 322.49 111.671 321.99C111.884 321.49 112.191 321.047 112.591 320.66C112.991 320.273 113.484 319.963 114.071 319.73C114.657 319.497 115.331 319.38 116.091 319.38C116.944 319.38 117.731 319.513 118.451 319.78C119.171 320.047 119.784 320.42 120.291 320.9L119.621 322.17ZM129.078 327.69C129.078 327.37 129.031 327.07 128.938 326.79C128.851 326.503 128.718 326.253 128.538 326.04C128.358 325.827 128.128 325.66 127.848 325.54C127.575 325.413 127.255 325.35 126.888 325.35C126.175 325.35 125.611 325.553 125.198 325.96C124.791 326.367 124.531 326.943 124.418 327.69H129.078ZM124.368 329.18C124.408 329.707 124.501 330.163 124.648 330.55C124.795 330.93 124.988 331.247 125.228 331.5C125.468 331.747 125.751 331.933 126.078 332.06C126.411 332.18 126.778 332.24 127.178 332.24C127.578 332.24 127.921 332.193 128.208 332.1C128.501 332.007 128.755 331.903 128.968 331.79C129.188 331.677 129.378 331.573 129.538 331.48C129.705 331.387 129.865 331.34 130.018 331.34C130.225 331.34 130.378 331.417 130.478 331.57L131.188 332.47C130.915 332.79 130.608 333.06 130.268 333.28C129.928 333.493 129.571 333.667 129.198 333.8C128.831 333.927 128.455 334.017 128.068 334.07C127.688 334.123 127.318 334.15 126.958 334.15C126.245 334.15 125.581 334.033 124.968 333.8C124.355 333.56 123.821 333.21 123.368 332.75C122.915 332.283 122.558 331.71 122.298 331.03C122.038 330.343 121.908 329.55 121.908 328.65C121.908 327.95 122.021 327.293 122.248 326.68C122.475 326.06 122.798 325.523 123.218 325.07C123.645 324.61 124.161 324.247 124.768 323.98C125.381 323.713 126.071 323.58 126.838 323.58C127.485 323.58 128.081 323.683 128.628 323.89C129.175 324.097 129.645 324.4 130.038 324.8C130.431 325.193 130.738 325.68 130.958 326.26C131.185 326.833 131.298 327.49 131.298 328.23C131.298 328.603 131.258 328.857 131.178 328.99C131.098 329.117 130.945 329.18 130.718 329.18H124.368ZM140.502 325.91C140.428 326.003 140.355 326.077 140.282 326.13C140.215 326.183 140.115 326.21 139.982 326.21C139.855 326.21 139.732 326.173 139.612 326.1C139.492 326.02 139.348 325.933 139.182 325.84C139.015 325.74 138.815 325.653 138.582 325.58C138.355 325.5 138.072 325.46 137.732 325.46C137.298 325.46 136.918 325.54 136.592 325.7C136.265 325.853 135.992 326.077 135.772 326.37C135.558 326.663 135.398 327.02 135.292 327.44C135.185 327.853 135.132 328.323 135.132 328.85C135.132 329.397 135.188 329.883 135.302 330.31C135.422 330.737 135.592 331.097 135.812 331.39C136.032 331.677 136.298 331.897 136.612 332.05C136.925 332.197 137.278 332.27 137.672 332.27C138.065 332.27 138.382 332.223 138.622 332.13C138.868 332.03 139.075 331.923 139.242 331.81C139.408 331.69 139.552 331.583 139.672 331.49C139.798 331.39 139.938 331.34 140.092 331.34C140.292 331.34 140.442 331.417 140.542 331.57L141.252 332.47C140.978 332.79 140.682 333.06 140.362 333.28C140.042 333.493 139.708 333.667 139.362 333.8C139.022 333.927 138.668 334.017 138.302 334.07C137.942 334.123 137.582 334.15 137.222 334.15C136.588 334.15 135.992 334.033 135.432 333.8C134.872 333.56 134.382 333.213 133.962 332.76C133.542 332.307 133.208 331.753 132.962 331.1C132.722 330.44 132.602 329.69 132.602 328.85C132.602 328.097 132.708 327.4 132.922 326.76C133.142 326.113 133.462 325.557 133.882 325.09C134.302 324.617 134.822 324.247 135.442 323.98C136.062 323.713 136.775 323.58 137.582 323.58C138.348 323.58 139.018 323.703 139.592 323.95C140.172 324.197 140.692 324.55 141.152 325.01L140.502 325.91ZM147.164 323.58C147.924 323.58 148.614 323.703 149.234 323.95C149.861 324.197 150.394 324.547 150.834 325C151.281 325.453 151.624 326.007 151.864 326.66C152.104 327.313 152.224 328.043 152.224 328.85C152.224 329.663 152.104 330.397 151.864 331.05C151.624 331.703 151.281 332.26 150.834 332.72C150.394 333.18 149.861 333.533 149.234 333.78C148.614 334.027 147.924 334.15 147.164 334.15C146.398 334.15 145.701 334.027 145.074 333.78C144.448 333.533 143.911 333.18 143.464 332.72C143.024 332.26 142.681 331.703 142.434 331.05C142.194 330.397 142.074 329.663 142.074 328.85C142.074 328.043 142.194 327.313 142.434 326.66C142.681 326.007 143.024 325.453 143.464 325C143.911 324.547 144.448 324.197 145.074 323.95C145.701 323.703 146.398 323.58 147.164 323.58ZM147.164 332.25C148.018 332.25 148.648 331.963 149.054 331.39C149.468 330.817 149.674 329.977 149.674 328.87C149.674 327.763 149.468 326.92 149.054 326.34C148.648 325.76 148.018 325.47 147.164 325.47C146.298 325.47 145.654 325.763 145.234 326.35C144.821 326.93 144.614 327.77 144.614 328.87C144.614 329.97 144.821 330.81 145.234 331.39C145.654 331.963 146.298 332.25 147.164 332.25ZM156.419 325C156.625 324.793 156.842 324.603 157.069 324.43C157.302 324.25 157.545 324.1 157.799 323.98C158.059 323.853 158.335 323.757 158.629 323.69C158.922 323.617 159.242 323.58 159.589 323.58C160.149 323.58 160.645 323.677 161.079 323.87C161.512 324.057 161.872 324.323 162.159 324.67C162.452 325.01 162.672 325.42 162.819 325.9C162.972 326.373 163.049 326.897 163.049 327.47V334H160.579V327.47C160.579 326.843 160.435 326.36 160.149 326.02C159.862 325.673 159.425 325.5 158.839 325.5C158.412 325.5 158.012 325.597 157.639 325.79C157.265 325.983 156.912 326.247 156.579 326.58V334H154.109V323.74H155.619C155.939 323.74 156.149 323.89 156.249 324.19L156.419 325ZM171.838 326.36C171.558 326.02 171.251 325.78 170.918 325.64C170.591 325.5 170.238 325.43 169.858 325.43C169.484 325.43 169.148 325.5 168.848 325.64C168.548 325.78 168.291 325.993 168.078 326.28C167.864 326.56 167.701 326.92 167.588 327.36C167.474 327.793 167.418 328.307 167.418 328.9C167.418 329.5 167.464 330.01 167.558 330.43C167.658 330.843 167.798 331.183 167.978 331.45C168.158 331.71 168.378 331.9 168.638 332.02C168.898 332.133 169.188 332.19 169.508 332.19C170.021 332.19 170.458 332.083 170.818 331.87C171.178 331.657 171.518 331.353 171.838 330.96V326.36ZM174.308 319.14V334H172.798C172.471 334 172.264 333.85 172.178 333.55L171.968 332.56C171.554 333.033 171.078 333.417 170.538 333.71C170.004 334.003 169.381 334.15 168.668 334.15C168.108 334.15 167.594 334.033 167.128 333.8C166.661 333.567 166.258 333.23 165.918 332.79C165.584 332.343 165.324 331.793 165.138 331.14C164.958 330.487 164.868 329.74 164.868 328.9C164.868 328.14 164.971 327.433 165.178 326.78C165.384 326.127 165.681 325.56 166.068 325.08C166.454 324.6 166.918 324.227 167.458 323.96C167.998 323.687 168.604 323.55 169.278 323.55C169.851 323.55 170.341 323.64 170.748 323.82C171.154 324 171.518 324.243 171.838 324.55V319.14H174.308ZM182.165 329.62C181.452 329.653 180.852 329.717 180.365 329.81C179.879 329.897 179.489 330.01 179.195 330.15C178.902 330.29 178.692 330.453 178.565 330.64C178.439 330.827 178.375 331.03 178.375 331.25C178.375 331.683 178.502 331.993 178.755 332.18C179.015 332.367 179.352 332.46 179.765 332.46C180.272 332.46 180.709 332.37 181.075 332.19C181.449 332.003 181.812 331.723 182.165 331.35V329.62ZM176.505 325.17C177.685 324.09 179.105 323.55 180.765 323.55C181.365 323.55 181.902 323.65 182.375 323.85C182.849 324.043 183.249 324.317 183.575 324.67C183.902 325.017 184.149 325.433 184.315 325.92C184.489 326.407 184.575 326.94 184.575 327.52V334H183.455C183.222 334 183.042 333.967 182.915 333.9C182.789 333.827 182.689 333.683 182.615 333.47L182.395 332.73C182.135 332.963 181.882 333.17 181.635 333.35C181.389 333.523 181.132 333.67 180.865 333.79C180.599 333.91 180.312 334 180.005 334.06C179.705 334.127 179.372 334.16 179.005 334.16C178.572 334.16 178.172 334.103 177.805 333.99C177.439 333.87 177.122 333.693 176.855 333.46C176.589 333.227 176.382 332.937 176.235 332.59C176.089 332.243 176.015 331.84 176.015 331.38C176.015 331.12 176.059 330.863 176.145 330.61C176.232 330.35 176.372 330.103 176.565 329.87C176.765 329.637 177.022 329.417 177.335 329.21C177.649 329.003 178.032 328.823 178.485 328.67C178.945 328.517 179.479 328.393 180.085 328.3C180.692 328.2 181.385 328.14 182.165 328.12V327.52C182.165 326.833 182.019 326.327 181.725 326C181.432 325.667 181.009 325.5 180.455 325.5C180.055 325.5 179.722 325.547 179.455 325.64C179.195 325.733 178.965 325.84 178.765 325.96C178.565 326.073 178.382 326.177 178.215 326.27C178.055 326.363 177.875 326.41 177.675 326.41C177.502 326.41 177.355 326.367 177.235 326.28C177.115 326.187 177.019 326.08 176.945 325.96L176.505 325.17ZM189.232 325.52C189.552 324.907 189.932 324.427 190.372 324.08C190.812 323.727 191.332 323.55 191.932 323.55C192.405 323.55 192.785 323.653 193.072 323.86L192.912 325.71C192.878 325.83 192.828 325.917 192.762 325.97C192.702 326.017 192.618 326.04 192.512 326.04C192.412 326.04 192.262 326.023 192.062 325.99C191.868 325.957 191.678 325.94 191.492 325.94C191.218 325.94 190.975 325.98 190.762 326.06C190.548 326.14 190.355 326.257 190.182 326.41C190.015 326.557 189.865 326.737 189.732 326.95C189.605 327.163 189.485 327.407 189.372 327.68V334H186.902V323.74H188.352C188.605 323.74 188.782 323.787 188.882 323.88C188.982 323.967 189.048 324.127 189.082 324.36L189.232 325.52ZM203.683 323.74L198.093 336.82C198.019 336.993 197.923 337.123 197.803 337.21C197.689 337.303 197.513 337.35 197.273 337.35H195.433L197.353 333.23L193.203 323.74H195.373C195.566 323.74 195.716 323.787 195.823 323.88C195.936 323.973 196.019 324.08 196.073 324.2L198.253 329.52C198.326 329.7 198.386 329.88 198.433 330.06C198.486 330.24 198.536 330.423 198.583 330.61C198.643 330.423 198.703 330.24 198.763 330.06C198.823 329.873 198.889 329.69 198.963 329.51L201.023 324.2C201.076 324.067 201.163 323.957 201.283 323.87C201.409 323.783 201.549 323.74 201.703 323.74H203.683Z" fill="white"/>
<path d="M0 0H313.01V200H0V0Z" fill="#004CBE"/>
<path d="M313.01 0H621.003V200H313.01V0Z" fill="#217CEB"/>
<path d="M621.003 0H933.01V200H621.003V0Z" fill="#53B3FC"/>
<path d="M931.003 0H1240V200H931.003V0Z" fill="#C9EEFE"/>
<path d="M128.466 99.81C128.959 99.81 129.389 99.75 129.756 99.63C130.123 99.5033 130.426 99.3267 130.666 99.1C130.913 98.8667 131.096 98.5867 131.216 98.26C131.336 97.9267 131.396 97.5567 131.396 97.15C131.396 96.7633 131.336 96.4133 131.216 96.1C131.096 95.7867 130.916 95.52 130.676 95.3C130.436 95.08 130.133 94.9133 129.766 94.8C129.399 94.68 128.966 94.62 128.466 94.62H126.456V99.81H128.466ZM128.466 92.54C129.433 92.54 130.269 92.6533 130.976 92.88C131.683 93.1067 132.266 93.4233 132.726 93.83C133.186 94.2367 133.526 94.7233 133.746 95.29C133.973 95.8567 134.086 96.4767 134.086 97.15C134.086 97.85 133.969 98.4933 133.736 99.08C133.503 99.66 133.153 100.16 132.686 100.58C132.219 101 131.633 101.327 130.926 101.56C130.226 101.793 129.406 101.91 128.466 101.91H126.456V107H123.766V92.54H128.466ZM137.933 98.52C138.253 97.9067 138.633 97.4267 139.073 97.08C139.513 96.7267 140.033 96.55 140.633 96.55C141.106 96.55 141.486 96.6533 141.773 96.86L141.613 98.71C141.579 98.83 141.529 98.9167 141.463 98.97C141.403 99.0167 141.319 99.04 141.213 99.04C141.113 99.04 140.963 99.0233 140.763 98.99C140.569 98.9567 140.379 98.94 140.193 98.94C139.919 98.94 139.676 98.98 139.463 99.06C139.249 99.14 139.056 99.2567 138.883 99.41C138.716 99.5567 138.566 99.7367 138.433 99.95C138.306 100.163 138.186 100.407 138.073 100.68V107H135.603V96.74H137.053C137.306 96.74 137.483 96.7867 137.583 96.88C137.683 96.9667 137.749 97.1267 137.783 97.36L137.933 98.52ZM145.624 96.74V107H143.144V96.74H145.624ZM145.964 93.75C145.964 93.9633 145.92 94.1633 145.834 94.35C145.747 94.5367 145.63 94.7 145.484 94.84C145.344 94.98 145.177 95.0933 144.984 95.18C144.79 95.26 144.584 95.3 144.364 95.3C144.15 95.3 143.947 95.26 143.754 95.18C143.567 95.0933 143.404 94.98 143.264 94.84C143.124 94.7 143.01 94.5367 142.924 94.35C142.844 94.1633 142.804 93.9633 142.804 93.75C142.804 93.53 142.844 93.3233 142.924 93.13C143.01 92.9367 143.124 92.77 143.264 92.63C143.404 92.49 143.567 92.38 143.754 92.3C143.947 92.2133 144.15 92.17 144.364 92.17C144.584 92.17 144.79 92.2133 144.984 92.3C145.177 92.38 145.344 92.49 145.484 92.63C145.63 92.77 145.747 92.9367 145.834 93.13C145.92 93.3233 145.964 93.53 145.964 93.75ZM148.142 107V96.74H149.652C149.972 96.74 150.182 96.89 150.282 97.19L150.442 97.95C150.622 97.75 150.808 97.5667 151.002 97.4C151.202 97.2333 151.412 97.09 151.632 96.97C151.858 96.85 152.098 96.7567 152.352 96.69C152.612 96.6167 152.895 96.58 153.202 96.58C153.848 96.58 154.378 96.7567 154.792 97.11C155.212 97.4567 155.525 97.92 155.732 98.5C155.892 98.16 156.092 97.87 156.332 97.63C156.572 97.3833 156.835 97.1833 157.122 97.03C157.408 96.8767 157.712 96.7633 158.032 96.69C158.358 96.6167 158.685 96.58 159.012 96.58C159.578 96.58 160.082 96.6667 160.522 96.84C160.962 97.0133 161.332 97.2667 161.632 97.6C161.932 97.9333 162.158 98.34 162.312 98.82C162.472 99.3 162.552 99.85 162.552 100.47V107H160.082V100.47C160.082 99.8167 159.938 99.3267 159.652 99C159.365 98.6667 158.945 98.5 158.392 98.5C158.138 98.5 157.902 98.5433 157.682 98.63C157.468 98.7167 157.278 98.8433 157.112 99.01C156.952 99.17 156.825 99.3733 156.732 99.62C156.638 99.8667 156.592 100.15 156.592 100.47V107H154.112V100.47C154.112 99.7833 153.972 99.2833 153.692 98.97C153.418 98.6567 153.015 98.5 152.482 98.5C152.122 98.5 151.785 98.59 151.472 98.77C151.165 98.9433 150.878 99.1833 150.612 99.49V107H148.142ZM170.32 102.62C169.606 102.653 169.006 102.717 168.52 102.81C168.033 102.897 167.643 103.01 167.35 103.15C167.056 103.29 166.846 103.453 166.72 103.64C166.593 103.827 166.53 104.03 166.53 104.25C166.53 104.683 166.656 104.993 166.91 105.18C167.17 105.367 167.506 105.46 167.92 105.46C168.426 105.46 168.863 105.37 169.23 105.19C169.603 105.003 169.966 104.723 170.32 104.35V102.62ZM164.66 98.17C165.84 97.09 167.26 96.55 168.92 96.55C169.52 96.55 170.056 96.65 170.53 96.85C171.003 97.0433 171.403 97.3167 171.73 97.67C172.056 98.0167 172.303 98.4333 172.47 98.92C172.643 99.4067 172.73 99.94 172.73 100.52V107H171.61C171.376 107 171.196 106.967 171.07 106.9C170.943 106.827 170.843 106.683 170.77 106.47L170.55 105.73C170.29 105.963 170.036 106.17 169.79 106.35C169.543 106.523 169.286 106.67 169.02 106.79C168.753 106.91 168.466 107 168.16 107.06C167.86 107.127 167.526 107.16 167.16 107.16C166.726 107.16 166.326 107.103 165.96 106.99C165.593 106.87 165.276 106.693 165.01 106.46C164.743 106.227 164.536 105.937 164.39 105.59C164.243 105.243 164.17 104.84 164.17 104.38C164.17 104.12 164.213 103.863 164.3 103.61C164.386 103.35 164.526 103.103 164.72 102.87C164.92 102.637 165.176 102.417 165.49 102.21C165.803 102.003 166.186 101.823 166.64 101.67C167.1 101.517 167.633 101.393 168.24 101.3C168.846 101.2 169.54 101.14 170.32 101.12V100.52C170.32 99.8333 170.173 99.3267 169.88 99C169.586 98.6667 169.163 98.5 168.61 98.5C168.21 98.5 167.876 98.5467 167.61 98.64C167.35 98.7333 167.12 98.84 166.92 98.96C166.72 99.0733 166.536 99.1767 166.37 99.27C166.21 99.3633 166.03 99.41 165.83 99.41C165.656 99.41 165.51 99.3667 165.39 99.28C165.27 99.1867 165.173 99.08 165.1 98.96L164.66 98.17ZM177.386 98.52C177.706 97.9067 178.086 97.4267 178.526 97.08C178.966 96.7267 179.486 96.55 180.086 96.55C180.559 96.55 180.939 96.6533 181.226 96.86L181.066 98.71C181.032 98.83 180.982 98.9167 180.916 98.97C180.856 99.0167 180.772 99.04 180.666 99.04C180.566 99.04 180.416 99.0233 180.216 98.99C180.022 98.9567 179.832 98.94 179.646 98.94C179.372 98.94 179.129 98.98 178.916 99.06C178.702 99.14 178.509 99.2567 178.336 99.41C178.169 99.5567 178.019 99.7367 177.886 99.95C177.759 100.163 177.639 100.407 177.526 100.68V107H175.056V96.74H176.506C176.759 96.74 176.936 96.7867 177.036 96.88C177.136 96.9667 177.202 97.1267 177.236 97.36L177.386 98.52ZM191.837 96.74L186.247 109.82C186.173 109.993 186.077 110.123 185.957 110.21C185.843 110.303 185.667 110.35 185.427 110.35H183.587L185.507 106.23L181.357 96.74H183.527C183.72 96.74 183.87 96.7867 183.977 96.88C184.09 96.9733 184.173 97.08 184.227 97.2L186.407 102.52C186.48 102.7 186.54 102.88 186.587 103.06C186.64 103.24 186.69 103.423 186.737 103.61C186.797 103.423 186.857 103.24 186.917 103.06C186.977 102.873 187.043 102.69 187.117 102.51L189.177 97.2C189.23 97.0667 189.317 96.9567 189.437 96.87C189.563 96.7833 189.703 96.74 189.857 96.74H191.837Z" fill="white"/>
<path d="M928 681H1240V881H928V681Z" fill="#122F5A"/>
<path d="M0 681H308V881H0V681Z" fill="#031837"/>
<path d="M308 681H622V881H308V681Z" fill="#071F42"/>
<path d="M622 681H928V881H622V681Z" fill="#0C264D"/>
<path d="M110.2 785.9C110.7 785.9 111.12 785.84 111.46 785.72C111.8 785.6 112.07 785.44 112.27 785.24C112.476 785.04 112.623 784.807 112.71 784.54C112.803 784.273 112.85 783.99 112.85 783.69C112.85 783.377 112.8 783.097 112.7 782.85C112.6 782.597 112.443 782.383 112.23 782.21C112.016 782.03 111.74 781.893 111.4 781.8C111.066 781.707 110.663 781.66 110.19 781.66H107.48V785.9H110.2ZM107.48 775.62V779.8H109.62C110.54 779.8 111.233 779.633 111.7 779.3C112.173 778.967 112.41 778.437 112.41 777.71C112.41 776.957 112.196 776.42 111.77 776.1C111.343 775.78 110.676 775.62 109.77 775.62H107.48ZM109.77 773.54C110.716 773.54 111.526 773.63 112.2 773.81C112.873 773.99 113.423 774.247 113.85 774.58C114.283 774.913 114.6 775.317 114.8 775.79C115 776.263 115.1 776.797 115.1 777.39C115.1 777.73 115.05 778.057 114.95 778.37C114.85 778.677 114.693 778.967 114.48 779.24C114.273 779.507 114.006 779.75 113.68 779.97C113.36 780.19 112.976 780.377 112.53 780.53C114.516 780.977 115.51 782.05 115.51 783.75C115.51 784.363 115.393 784.93 115.16 785.45C114.926 785.97 114.586 786.42 114.14 786.8C113.693 787.173 113.143 787.467 112.49 787.68C111.836 787.893 111.09 788 110.25 788H104.79V773.54H109.77ZM122.828 783.62C122.114 783.653 121.514 783.717 121.028 783.81C120.541 783.897 120.151 784.01 119.858 784.15C119.564 784.29 119.354 784.453 119.228 784.64C119.101 784.827 119.038 785.03 119.038 785.25C119.038 785.683 119.164 785.993 119.418 786.18C119.678 786.367 120.014 786.46 120.428 786.46C120.934 786.46 121.371 786.37 121.738 786.19C122.111 786.003 122.474 785.723 122.828 785.35V783.62ZM117.168 779.17C118.348 778.09 119.768 777.55 121.428 777.55C122.028 777.55 122.564 777.65 123.038 777.85C123.511 778.043 123.911 778.317 124.238 778.67C124.564 779.017 124.811 779.433 124.978 779.92C125.151 780.407 125.238 780.94 125.238 781.52V788H124.118C123.884 788 123.704 787.967 123.578 787.9C123.451 787.827 123.351 787.683 123.278 787.47L123.058 786.73C122.798 786.963 122.544 787.17 122.298 787.35C122.051 787.523 121.794 787.67 121.528 787.79C121.261 787.91 120.974 788 120.668 788.06C120.368 788.127 120.034 788.16 119.668 788.16C119.234 788.16 118.834 788.103 118.468 787.99C118.101 787.87 117.784 787.693 117.518 787.46C117.251 787.227 117.044 786.937 116.898 786.59C116.751 786.243 116.678 785.84 116.678 785.38C116.678 785.12 116.721 784.863 116.808 784.61C116.894 784.35 117.034 784.103 117.228 783.87C117.428 783.637 117.684 783.417 117.998 783.21C118.311 783.003 118.694 782.823 119.148 782.67C119.608 782.517 120.141 782.393 120.748 782.3C121.354 782.2 122.048 782.14 122.828 782.12V781.52C122.828 780.833 122.681 780.327 122.388 780C122.094 779.667 121.671 779.5 121.118 779.5C120.718 779.5 120.384 779.547 120.118 779.64C119.858 779.733 119.628 779.84 119.428 779.96C119.228 780.073 119.044 780.177 118.878 780.27C118.718 780.363 118.538 780.41 118.338 780.41C118.164 780.41 118.018 780.367 117.898 780.28C117.778 780.187 117.681 780.08 117.608 779.96L117.168 779.17ZM134.914 779.91C134.841 780.003 134.767 780.077 134.694 780.13C134.627 780.183 134.527 780.21 134.394 780.21C134.267 780.21 134.144 780.173 134.024 780.1C133.904 780.02 133.761 779.933 133.594 779.84C133.427 779.74 133.227 779.653 132.994 779.58C132.767 779.5 132.484 779.46 132.144 779.46C131.711 779.46 131.331 779.54 131.004 779.7C130.677 779.853 130.404 780.077 130.184 780.37C129.971 780.663 129.811 781.02 129.704 781.44C129.597 781.853 129.544 782.323 129.544 782.85C129.544 783.397 129.601 783.883 129.714 784.31C129.834 784.737 130.004 785.097 130.224 785.39C130.444 785.677 130.711 785.897 131.024 786.05C131.337 786.197 131.691 786.27 132.084 786.27C132.477 786.27 132.794 786.223 133.034 786.13C133.281 786.03 133.487 785.923 133.654 785.81C133.821 785.69 133.964 785.583 134.084 785.49C134.211 785.39 134.351 785.34 134.504 785.34C134.704 785.34 134.854 785.417 134.954 785.57L135.664 786.47C135.391 786.79 135.094 787.06 134.774 787.28C134.454 787.493 134.121 787.667 133.774 787.8C133.434 787.927 133.081 788.017 132.714 788.07C132.354 788.123 131.994 788.15 131.634 788.15C131.001 788.15 130.404 788.033 129.844 787.8C129.284 787.56 128.794 787.213 128.374 786.76C127.954 786.307 127.621 785.753 127.374 785.1C127.134 784.44 127.014 783.69 127.014 782.85C127.014 782.097 127.121 781.4 127.334 780.76C127.554 780.113 127.874 779.557 128.294 779.09C128.714 778.617 129.234 778.247 129.854 777.98C130.474 777.713 131.187 777.58 131.994 777.58C132.761 777.58 133.431 777.703 134.004 777.95C134.584 778.197 135.104 778.55 135.564 779.01L134.914 779.91ZM139.682 773.14V781.65H140.142C140.309 781.65 140.439 781.63 140.532 781.59C140.632 781.543 140.732 781.453 140.832 781.32L143.382 778.17C143.489 778.03 143.606 777.923 143.732 777.85C143.866 777.777 144.036 777.74 144.242 777.74H146.502L143.312 781.55C143.086 781.85 142.839 782.08 142.572 782.24C142.712 782.34 142.836 782.457 142.942 782.59C143.056 782.723 143.162 782.867 143.262 783.02L146.682 788H144.452C144.259 788 144.092 787.97 143.952 787.91C143.812 787.843 143.696 787.727 143.602 787.56L140.982 783.67C140.889 783.517 140.792 783.417 140.692 783.37C140.592 783.323 140.442 783.3 140.242 783.3H139.682V788H137.212V773.14H139.682ZM151.646 782.62C151.953 782.62 152.219 782.58 152.446 782.5C152.673 782.413 152.859 782.297 153.006 782.15C153.159 782.003 153.273 781.827 153.346 781.62C153.426 781.413 153.466 781.187 153.466 780.94C153.466 780.433 153.313 780.033 153.006 779.74C152.706 779.44 152.253 779.29 151.646 779.29C151.039 779.29 150.583 779.44 150.276 779.74C149.976 780.033 149.826 780.433 149.826 780.94C149.826 781.18 149.863 781.403 149.936 781.61C150.016 781.817 150.129 781.997 150.276 782.15C150.429 782.297 150.619 782.413 150.846 782.5C151.079 782.58 151.346 782.62 151.646 782.62ZM154.436 788.46C154.436 788.26 154.376 788.097 154.256 787.97C154.136 787.843 153.973 787.747 153.766 787.68C153.559 787.607 153.316 787.553 153.036 787.52C152.763 787.487 152.469 787.463 152.156 787.45C151.849 787.43 151.529 787.413 151.196 787.4C150.869 787.387 150.549 787.36 150.236 787.32C149.963 787.473 149.739 787.653 149.566 787.86C149.399 788.067 149.316 788.307 149.316 788.58C149.316 788.76 149.359 788.927 149.446 789.08C149.539 789.24 149.683 789.377 149.876 789.49C150.076 789.603 150.333 789.69 150.646 789.75C150.959 789.817 151.343 789.85 151.796 789.85C152.256 789.85 152.653 789.813 152.986 789.74C153.319 789.673 153.593 789.577 153.806 789.45C154.026 789.33 154.186 789.183 154.286 789.01C154.386 788.843 154.436 788.66 154.436 788.46ZM156.896 778.09V779.01C156.896 779.303 156.719 779.483 156.366 779.55L155.446 779.72C155.586 780.073 155.656 780.46 155.656 780.88C155.656 781.387 155.553 781.847 155.346 782.26C155.146 782.667 154.866 783.013 154.506 783.3C154.146 783.587 153.719 783.81 153.226 783.97C152.739 784.123 152.213 784.2 151.646 784.2C151.446 784.2 151.253 784.19 151.066 784.17C150.879 784.15 150.696 784.123 150.516 784.09C150.196 784.283 150.036 784.5 150.036 784.74C150.036 784.947 150.129 785.1 150.316 785.2C150.509 785.293 150.763 785.36 151.076 785.4C151.389 785.44 151.746 785.467 152.146 785.48C152.546 785.487 152.956 785.507 153.376 785.54C153.796 785.573 154.206 785.633 154.606 785.72C155.006 785.8 155.363 785.93 155.676 786.11C155.989 786.29 156.239 786.537 156.426 786.85C156.619 787.157 156.716 787.553 156.716 788.04C156.716 788.493 156.603 788.933 156.376 789.36C156.156 789.787 155.833 790.167 155.406 790.5C154.986 790.833 154.466 791.1 153.846 791.3C153.233 791.507 152.533 791.61 151.746 791.61C150.973 791.61 150.299 791.533 149.726 791.38C149.153 791.233 148.676 791.033 148.296 790.78C147.916 790.533 147.633 790.247 147.446 789.92C147.259 789.593 147.166 789.253 147.166 788.9C147.166 788.42 147.309 788.02 147.596 787.7C147.889 787.373 148.289 787.113 148.796 786.92C148.523 786.78 148.306 786.593 148.146 786.36C147.986 786.127 147.906 785.82 147.906 785.44C147.906 785.287 147.933 785.13 147.986 784.97C148.046 784.803 148.129 784.64 148.236 784.48C148.349 784.32 148.489 784.17 148.656 784.03C148.823 783.883 149.019 783.753 149.246 783.64C148.726 783.36 148.316 782.987 148.016 782.52C147.723 782.053 147.576 781.507 147.576 780.88C147.576 780.373 147.676 779.917 147.876 779.51C148.083 779.097 148.366 778.747 148.726 778.46C149.093 778.167 149.523 777.943 150.016 777.79C150.516 777.637 151.059 777.56 151.646 777.56C152.086 777.56 152.499 777.607 152.886 777.7C153.273 777.787 153.626 777.917 153.946 778.09H156.896ZM160.792 779.52C161.112 778.907 161.492 778.427 161.932 778.08C162.372 777.727 162.892 777.55 163.492 777.55C163.966 777.55 164.346 777.653 164.632 777.86L164.472 779.71C164.439 779.83 164.389 779.917 164.322 779.97C164.262 780.017 164.179 780.04 164.072 780.04C163.972 780.04 163.822 780.023 163.622 779.99C163.429 779.957 163.239 779.94 163.052 779.94C162.779 779.94 162.536 779.98 162.322 780.06C162.109 780.14 161.916 780.257 161.742 780.41C161.576 780.557 161.426 780.737 161.292 780.95C161.166 781.163 161.046 781.407 160.932 781.68V788H158.462V777.74H159.912C160.166 777.74 160.342 777.787 160.442 777.88C160.542 777.967 160.609 778.127 160.642 778.36L160.792 779.52ZM170.17 777.58C170.93 777.58 171.62 777.703 172.24 777.95C172.867 778.197 173.4 778.547 173.84 779C174.287 779.453 174.63 780.007 174.87 780.66C175.11 781.313 175.23 782.043 175.23 782.85C175.23 783.663 175.11 784.397 174.87 785.05C174.63 785.703 174.287 786.26 173.84 786.72C173.4 787.18 172.867 787.533 172.24 787.78C171.62 788.027 170.93 788.15 170.17 788.15C169.404 788.15 168.707 788.027 168.08 787.78C167.454 787.533 166.917 787.18 166.47 786.72C166.03 786.26 165.687 785.703 165.44 785.05C165.2 784.397 165.08 783.663 165.08 782.85C165.08 782.043 165.2 781.313 165.44 780.66C165.687 780.007 166.03 779.453 166.47 779C166.917 778.547 167.454 778.197 168.08 777.95C168.707 777.703 169.404 777.58 170.17 777.58ZM170.17 786.25C171.024 786.25 171.654 785.963 172.06 785.39C172.474 784.817 172.68 783.977 172.68 782.87C172.68 781.763 172.474 780.92 172.06 780.34C171.654 779.76 171.024 779.47 170.17 779.47C169.304 779.47 168.66 779.763 168.24 780.35C167.827 780.93 167.62 781.77 167.62 782.87C167.62 783.97 167.827 784.81 168.24 785.39C168.66 785.963 169.304 786.25 170.17 786.25ZM185.955 777.74V788H184.445C184.118 788 183.911 787.85 183.825 787.55L183.655 786.73C183.235 787.157 182.771 787.503 182.265 787.77C181.758 788.03 181.161 788.16 180.475 788.16C179.915 788.16 179.418 788.067 178.985 787.88C178.558 787.687 178.198 787.417 177.905 787.07C177.611 786.723 177.388 786.313 177.235 785.84C177.088 785.36 177.015 784.833 177.015 784.26V777.74H179.485V784.26C179.485 784.887 179.628 785.373 179.915 785.72C180.208 786.06 180.645 786.23 181.225 786.23C181.651 786.23 182.051 786.137 182.425 785.95C182.798 785.757 183.151 785.493 183.485 785.16V777.74H185.955ZM190.714 779C190.92 778.793 191.137 778.603 191.364 778.43C191.597 778.25 191.84 778.1 192.094 777.98C192.354 777.853 192.63 777.757 192.924 777.69C193.217 777.617 193.537 777.58 193.884 777.58C194.444 777.58 194.94 777.677 195.374 777.87C195.807 778.057 196.167 778.323 196.454 778.67C196.747 779.01 196.967 779.42 197.114 779.9C197.267 780.373 197.344 780.897 197.344 781.47V788H194.874V781.47C194.874 780.843 194.73 780.36 194.444 780.02C194.157 779.673 193.72 779.5 193.134 779.5C192.707 779.5 192.307 779.597 191.934 779.79C191.56 779.983 191.207 780.247 190.874 780.58V788H188.404V777.74H189.914C190.234 777.74 190.444 777.89 190.544 778.19L190.714 779ZM206.133 780.36C205.853 780.02 205.546 779.78 205.213 779.64C204.886 779.5 204.533 779.43 204.153 779.43C203.779 779.43 203.443 779.5 203.143 779.64C202.843 779.78 202.586 779.993 202.373 780.28C202.159 780.56 201.996 780.92 201.883 781.36C201.769 781.793 201.713 782.307 201.713 782.9C201.713 783.5 201.759 784.01 201.853 784.43C201.953 784.843 202.093 785.183 202.273 785.45C202.453 785.71 202.673 785.9 202.933 786.02C203.193 786.133 203.483 786.19 203.803 786.19C204.316 786.19 204.753 786.083 205.113 785.87C205.473 785.657 205.813 785.353 206.133 784.96V780.36ZM208.603 773.14V788H207.093C206.766 788 206.559 787.85 206.473 787.55L206.263 786.56C205.849 787.033 205.373 787.417 204.833 787.71C204.299 788.003 203.676 788.15 202.963 788.15C202.403 788.15 201.889 788.033 201.423 787.8C200.956 787.567 200.553 787.23 200.213 786.79C199.879 786.343 199.619 785.793 199.433 785.14C199.253 784.487 199.163 783.74 199.163 782.9C199.163 782.14 199.266 781.433 199.473 780.78C199.679 780.127 199.976 779.56 200.363 779.08C200.749 778.6 201.213 778.227 201.753 777.96C202.293 777.687 202.899 777.55 203.573 777.55C204.146 777.55 204.636 777.64 205.043 777.82C205.449 778 205.813 778.243 206.133 778.55V773.14H208.603Z" fill="white"/>
<path d="M133.825 548.75H129.465V561H126.775V548.75H122.415V546.54H133.825V548.75ZM139.535 554.69C139.535 554.37 139.488 554.07 139.395 553.79C139.308 553.503 139.175 553.253 138.995 553.04C138.815 552.827 138.585 552.66 138.305 552.54C138.032 552.413 137.712 552.35 137.345 552.35C136.632 552.35 136.068 552.553 135.655 552.96C135.248 553.367 134.988 553.943 134.875 554.69H139.535ZM134.825 556.18C134.865 556.707 134.958 557.163 135.105 557.55C135.252 557.93 135.445 558.247 135.685 558.5C135.925 558.747 136.208 558.933 136.535 559.06C136.868 559.18 137.235 559.24 137.635 559.24C138.035 559.24 138.378 559.193 138.665 559.1C138.958 559.007 139.212 558.903 139.425 558.79C139.645 558.677 139.835 558.573 139.995 558.48C140.162 558.387 140.322 558.34 140.475 558.34C140.682 558.34 140.835 558.417 140.935 558.57L141.645 559.47C141.372 559.79 141.065 560.06 140.725 560.28C140.385 560.493 140.028 560.667 139.655 560.8C139.288 560.927 138.912 561.017 138.525 561.07C138.145 561.123 137.775 561.15 137.415 561.15C136.702 561.15 136.038 561.033 135.425 560.8C134.812 560.56 134.278 560.21 133.825 559.75C133.372 559.283 133.015 558.71 132.755 558.03C132.495 557.343 132.365 556.55 132.365 555.65C132.365 554.95 132.478 554.293 132.705 553.68C132.932 553.06 133.255 552.523 133.675 552.07C134.102 551.61 134.618 551.247 135.225 550.98C135.838 550.713 136.528 550.58 137.295 550.58C137.942 550.58 138.538 550.683 139.085 550.89C139.632 551.097 140.102 551.4 140.495 551.8C140.888 552.193 141.195 552.68 141.415 553.26C141.642 553.833 141.755 554.49 141.755 555.23C141.755 555.603 141.715 555.857 141.635 555.99C141.555 556.117 141.402 556.18 141.175 556.18H134.825ZM145.939 552.52C146.259 551.907 146.639 551.427 147.079 551.08C147.519 550.727 148.039 550.55 148.639 550.55C149.112 550.55 149.492 550.653 149.779 550.86L149.619 552.71C149.585 552.83 149.535 552.917 149.469 552.97C149.409 553.017 149.325 553.04 149.219 553.04C149.119 553.04 148.969 553.023 148.769 552.99C148.575 552.957 148.385 552.94 148.199 552.94C147.925 552.94 147.682 552.98 147.469 553.06C147.255 553.14 147.062 553.257 146.889 553.41C146.722 553.557 146.572 553.737 146.439 553.95C146.312 554.163 146.192 554.407 146.079 554.68V561H143.609V550.74H145.059C145.312 550.74 145.489 550.787 145.589 550.88C145.689 550.967 145.755 551.127 145.789 551.36L145.939 552.52ZM161.419 561H158.949V552.59H154.189V558.15C154.189 558.47 154.266 558.72 154.419 558.9C154.579 559.08 154.796 559.17 155.069 559.17C155.223 559.17 155.349 559.153 155.449 559.12C155.556 559.08 155.646 559.04 155.719 559C155.799 558.96 155.869 558.923 155.929 558.89C155.989 558.85 156.049 558.83 156.109 558.83C156.183 558.83 156.243 558.85 156.289 558.89C156.336 558.923 156.386 558.977 156.439 559.05L157.179 560.25C156.819 560.55 156.406 560.777 155.939 560.93C155.473 561.083 154.989 561.16 154.489 561.16C153.596 561.16 152.909 560.91 152.429 560.41C151.956 559.903 151.719 559.207 151.719 558.32V552.59H150.669C150.536 552.59 150.423 552.547 150.329 552.46C150.236 552.373 150.189 552.243 150.189 552.07V551.09L151.839 550.81L152.359 548.02C152.393 547.887 152.456 547.783 152.549 547.71C152.643 547.637 152.763 547.6 152.909 547.6H154.189V550.83H161.419V561ZM161.849 547.71C161.849 547.923 161.806 548.127 161.719 548.32C161.633 548.507 161.516 548.67 161.369 548.81C161.229 548.95 161.059 549.063 160.859 549.15C160.666 549.23 160.459 549.27 160.239 549.27C160.026 549.27 159.826 549.23 159.639 549.15C159.453 549.063 159.289 548.95 159.149 548.81C159.009 548.67 158.896 548.507 158.809 548.32C158.729 548.127 158.689 547.923 158.689 547.71C158.689 547.49 158.729 547.287 158.809 547.1C158.896 546.907 159.009 546.74 159.149 546.6C159.289 546.453 159.453 546.34 159.639 546.26C159.826 546.173 160.026 546.13 160.239 546.13C160.459 546.13 160.666 546.173 160.859 546.26C161.059 546.34 161.229 546.453 161.369 546.6C161.516 546.74 161.633 546.907 161.719 547.1C161.806 547.287 161.849 547.49 161.849 547.71ZM169.361 556.62C168.647 556.653 168.047 556.717 167.561 556.81C167.074 556.897 166.684 557.01 166.391 557.15C166.097 557.29 165.887 557.453 165.761 557.64C165.634 557.827 165.571 558.03 165.571 558.25C165.571 558.683 165.697 558.993 165.951 559.18C166.211 559.367 166.547 559.46 166.961 559.46C167.467 559.46 167.904 559.37 168.271 559.19C168.644 559.003 169.007 558.723 169.361 558.35V556.62ZM163.701 552.17C164.881 551.09 166.301 550.55 167.961 550.55C168.561 550.55 169.097 550.65 169.571 550.85C170.044 551.043 170.444 551.317 170.771 551.67C171.097 552.017 171.344 552.433 171.511 552.92C171.684 553.407 171.771 553.94 171.771 554.52V561H170.651C170.417 561 170.237 560.967 170.111 560.9C169.984 560.827 169.884 560.683 169.811 560.47L169.591 559.73C169.331 559.963 169.077 560.17 168.831 560.35C168.584 560.523 168.327 560.67 168.061 560.79C167.794 560.91 167.507 561 167.201 561.06C166.901 561.127 166.567 561.16 166.201 561.16C165.767 561.16 165.367 561.103 165.001 560.99C164.634 560.87 164.317 560.693 164.051 560.46C163.784 560.227 163.577 559.937 163.431 559.59C163.284 559.243 163.211 558.84 163.211 558.38C163.211 558.12 163.254 557.863 163.341 557.61C163.427 557.35 163.567 557.103 163.761 556.87C163.961 556.637 164.217 556.417 164.531 556.21C164.844 556.003 165.227 555.823 165.681 555.67C166.141 555.517 166.674 555.393 167.281 555.3C167.887 555.2 168.581 555.14 169.361 555.12V554.52C169.361 553.833 169.214 553.327 168.921 553C168.627 552.667 168.204 552.5 167.651 552.5C167.251 552.5 166.917 552.547 166.651 552.64C166.391 552.733 166.161 552.84 165.961 552.96C165.761 553.073 165.577 553.177 165.411 553.27C165.251 553.363 165.071 553.41 164.871 553.41C164.697 553.41 164.551 553.367 164.431 553.28C164.311 553.187 164.214 553.08 164.141 552.96L163.701 552.17ZM176.427 552.52C176.747 551.907 177.127 551.427 177.567 551.08C178.007 550.727 178.527 550.55 179.127 550.55C179.6 550.55 179.98 550.653 180.267 550.86L180.107 552.71C180.074 552.83 180.024 552.917 179.957 552.97C179.897 553.017 179.814 553.04 179.707 553.04C179.607 553.04 179.457 553.023 179.257 552.99C179.064 552.957 178.874 552.94 178.687 552.94C178.414 552.94 178.17 552.98 177.957 553.06C177.744 553.14 177.55 553.257 177.377 553.41C177.21 553.557 177.06 553.737 176.927 553.95C176.8 554.163 176.68 554.407 176.567 554.68V561H174.097V550.74H175.547C175.8 550.74 175.977 550.787 176.077 550.88C176.177 550.967 176.244 551.127 176.277 551.36L176.427 552.52ZM190.878 550.74L185.288 563.82C185.214 563.993 185.118 564.123 184.998 564.21C184.884 564.303 184.708 564.35 184.468 564.35H182.628L184.548 560.23L180.398 550.74H182.568C182.761 550.74 182.911 550.787 183.018 550.88C183.131 550.973 183.214 551.08 183.268 551.2L185.448 556.52C185.521 556.7 185.581 556.88 185.628 557.06C185.681 557.24 185.731 557.423 185.778 557.61C185.838 557.423 185.898 557.24 185.958 557.06C186.018 556.873 186.084 556.69 186.158 556.51L188.218 551.2C188.271 551.067 188.358 550.957 188.478 550.87C188.604 550.783 188.744 550.74 188.898 550.74H190.878Z" fill="#0C264D"/>
</svg>
