<svg width="713" height="61" viewBox="0 0 713 61" fill="none" xmlns="http://www.w3.org/2000/svg">
<path d="M652.8 34.3998L652.7 59.6998H645.7L636.1 48.0998L636 59.5998H627.7L627.8 34.2998H634.8L644.4 45.8998L644.5 34.3998H652.8Z" fill="#53B3FC"/>
<path d="M675.5 50.5999V59.7999H667V50.4999L657.5 34.3999H666.5L671.6 43.1999L676.9 34.4999H685.2L675.5 50.5999Z" fill="#53B3FC"/>
<path d="M693.4 58.7999C691.3 57.6999 689.6 56.0999 688.4 54.0999C687.2 52.0999 686.6 49.7999 686.6 47.1999C686.6 44.5999 687.2 42.3999 688.5 40.2999C689.7 38.2999 691.4 36.6999 693.6 35.5999C695.8 34.4999 698.2 33.8999 700.8 33.8999C703.3 33.8999 705.5 34.3999 707.4 35.1999C709.3 36.0999 710.9 37.2999 712.2 38.9999L706.8 43.7999C705.2 41.7999 703.4 40.7999 701.3 40.7999C699.5 40.7999 698.1 41.3999 697 42.4999C695.9 43.5999 695.4 45.1999 695.4 47.0999C695.4 48.9999 695.9 50.5999 697 51.6999C698.1 52.8999 699.5 53.3999 701.3 53.3999C703.4 53.3999 705.3 52.3999 706.9 50.4999L712.3 55.2999C711 56.8999 709.4 58.1999 707.5 58.9999C705.6 59.8999 703.4 60.2999 700.9 60.2999C698 60.4999 695.6 59.8999 693.4 58.7999Z" fill="#53B3FC"/>
<path d="M542.5 0.400208L534.1 25.7002H527.8L522.3 8.50021L516.5 25.6002H510.2L502 0.200195H508.1L513.7 18.0002L519.8 0.200195H525.2L530.9 18.2002L536.9 0.300201L542.5 0.400208Z" fill="white"/>
<path d="M552.8 24.5C550.7 23.4 549 21.8 547.9 19.8C546.7 17.8 546.1 15.6 546.1 13.1C546.1 10.6 546.7 8.39999 547.9 6.39999C549.1 4.39999 550.8 2.89998 552.9 1.69998C555 0.599982 557.4 0 560 0C562.6 0 565 0.599982 567.1 1.69998C569.2 2.79998 570.8 4.39999 572 6.39999C573.2 8.39999 573.8 10.6 573.8 13.1C573.8 15.6 573.2 17.8 572 19.8C570.8 21.8 569.1 23.3 567 24.5C564.9 25.6 562.5 26.2 559.9 26.2C557.3 26.2 554.9 25.7 552.8 24.5ZM564 20.2C565.2 19.5 566.2 18.6 566.9 17.3C567.6 16.1 567.9 14.7 568 13.1C568.1 11.5 567.7 10.1 567 8.89999C566.3 7.69999 565.4 6.7 564.2 6C563 5.3 561.6 4.99999 560.1 4.89999C558.6 4.89999 557.3 5.19999 556 5.89999C554.8 6.59999 553.8 7.49999 553.1 8.79999C552.4 9.99999 552.1 11.4 552 13C552 14.6 552.3 16 553 17.2C553.7 18.4 554.6 19.4 555.8 20.1C557 20.8 558.4 21.1 559.8 21.1C561.5 21.3 562.8 20.9 564 20.2Z" fill="white"/>
<path d="M596.5 26.0002L591.6 18.9002H591.3H586.2V26.0002H580.3L580.4 0.700195H591.4C593.6 0.700195 595.6 1.1002 597.2 1.8002C598.8 2.6002 600.1 3.60021 601 5.00021C601.9 6.40021 602.3 8.00021 602.3 9.90021C602.3 11.8002 601.8 13.4002 600.9 14.8002C600 16.2002 598.7 17.2002 597 17.9002L602.6 26.1002L596.5 26.0002ZM595.1 6.60019C594.2 5.80019 592.8 5.40021 591.1 5.40021H586.3V14.2002H591.1C592.9 14.2002 594.2 13.8002 595.1 13.1002C596 12.3002 596.5 11.2002 596.5 9.8002C596.5 8.4002 596.1 7.30019 595.1 6.60019Z" fill="white"/>
<path d="M619.5 16.1002L616.1 19.6002V26.0002H610.3L610.4 0.700195H616.2L616.1 12.5002L627.4 0.700195H633.9L623.4 11.9002L634.5 26.0002H627.7L619.5 16.1002Z" fill="white"/>
<path d="M641.4 0.899902H647.3L647.2 26.1999H641.3L641.4 0.899902Z" fill="white"/>
<path d="M679.8 1L679.7 26.3H674.9L662.3 10.9L662.2 26.3H656.4L656.5 1H661.4L673.9 16.4L674 1H679.8Z" fill="white"/>
<path d="M705.6 13.4002H711V23.7002C709.6 24.7002 708 25.5002 706.2 26.1002C704.4 26.7002 702.6 26.9002 700.7 26.9002C698.1 26.9002 695.7 26.3002 693.6 25.2002C691.5 24.1002 689.9 22.5002 688.7 20.5002C687.5 18.5002 686.9 16.3002 686.9 13.7002C686.9 11.1002 687.5 8.90021 688.7 7.00021C689.9 5.00021 691.6 3.50021 693.7 2.40021C695.8 1.30021 698.2 0.700195 700.9 0.700195C703.1 0.700195 705.1 1.1002 706.9 1.8002C708.7 2.6002 710.2 3.60019 711.4 5.10019L707.6 8.60019C705.8 6.70019 703.6 5.7002 701.1 5.7002C699.5 5.7002 698 6.0002 696.8 6.7002C695.5 7.4002 694.6 8.30021 693.9 9.50021C693.2 10.7002 692.8 12.1002 692.8 13.7002C692.8 15.3002 693.1 16.7002 693.8 17.9002C694.5 19.1002 695.5 20.1002 696.7 20.8002C697.9 21.5002 699.4 21.8002 700.9 21.9002C702.6 21.9002 704.1 21.6002 705.5 20.8002L705.6 13.4002Z" fill="white"/>
<path d="M246.9 17.2997L246.8 42.5997H239.8L230.2 30.9997L230.1 42.4997H221.8L221.9 17.1997H228.9L238.5 28.7997L238.6 17.2997H246.9Z" fill="#53B3FC"/>
<path d="M268.6 33.5999V42.7999H260.1V33.4999L250.6 17.3999H259.6L264.7 26.1999L270 17.4999H278.3L268.6 33.5999Z" fill="#53B3FC"/>
<path d="M285.5 41.6998C283.4 40.5998 281.7 38.9998 280.5 36.9998C279.3 34.9998 278.7 32.6998 278.7 30.0998C278.7 27.4998 279.3 25.2998 280.6 23.1998C281.8 21.1998 283.5 19.5998 285.7 18.4998C287.9 17.3998 290.3 16.7998 292.9 16.7998C295.4 16.7998 297.6 17.2998 299.5 18.0998C301.4 18.9998 303 20.1998 304.3 21.8998L298.9 26.6998C297.3 24.6998 295.5 23.6998 293.4 23.6998C291.6 23.6998 290.2 24.2998 289.1 25.3998C288 26.4998 287.5 28.0998 287.5 29.9998C287.5 31.8998 288 33.4998 289.1 34.5998C290.2 35.7998 291.6 36.2998 293.4 36.2998C295.5 36.2998 297.4 35.2998 299 33.3998L304.4 38.1998C303.1 39.7998 301.5 41.0998 299.6 41.8998C297.7 42.7998 295.5 43.1998 293 43.1998C290 43.3998 287.6 42.7998 285.5 41.6998Z" fill="#53B3FC"/>
<path d="M40.5 16.4002L32.1 41.7002H25.8L20.3 24.4002L14.5 41.5002H8.2L0 16.2002H6.1L11.7 34.0002L17.8 16.2002H23.2L28.9 34.2002L34.9 16.3002L40.5 16.4002Z" fill="white"/>
<path d="M50.8 40.5C48.7 39.4 47 37.8 45.9 35.8C44.7 33.8 44.1 31.6 44.1 29.1C44.1 26.6 44.7 24.4 45.9 22.4C47.1 20.4 48.8 18.9 50.9 17.7C53 16.5 55.4 16 58 16C60.6 16 63 16.6 65.1 17.7C67.2 18.8 68.8 20.4 70 22.4C71.2 24.4 71.8 26.6 71.8 29.1C71.8 31.6 71.2 33.8 70 35.8C68.8 37.8 67.1 39.3 65 40.5C62.9 41.6 60.5 42.2 57.9 42.2C55.2 42.2 52.9 41.6 50.8 40.5ZM62 36.2C63.2 35.5 64.2 34.6 64.9 33.3C65.6 32.1 65.9 30.7 66 29.1C66.1 27.5 65.7 26.1 65 24.9C64.3 23.7 63.4 22.7 62.2 22C61 21.3 59.6 21 58.1 20.9C56.6 20.9 55.3 21.2 54 21.9C52.8 22.6 51.8 23.5 51.1 24.8C50.4 26 50.1 27.4 50 29C50 30.6 50.3 32 51 33.2C51.7 34.4 52.6 35.4 53.8 36.1C55 36.8 56.4 37.1 57.8 37.1C59.4 37.2 60.7 36.9 62 36.2Z" fill="white"/>
<path d="M94.5 41.9001L89.6 34.8001H89.3H84.2001V41.9001H78.3L78.4 16.6001H89.4C91.6 16.6001 93.6001 17.0001 95.2001 17.7001C96.8001 18.5001 98.1001 19.5001 99.0001 20.9001C99.9001 22.3001 100.3 23.9001 100.3 25.8001C100.3 27.7001 99.8 29.3001 98.9 30.7001C98 32.1001 96.7 33.1001 95 33.8001L100.6 42.0001L94.5 41.9001ZM93.1 22.5001C92.2 21.7001 90.8 21.3001 89.1 21.3001H84.3V30.1001H89.1C90.9 30.1001 92.2 29.7001 93.1 29.0001C94 28.2001 94.5 27.1001 94.5 25.7001C94.4 24.4001 94 23.3001 93.1 22.5001Z" fill="white"/>
<path d="M117.6 32.1002L114.2 35.6002V42.0002H108.4L108.5 16.7002H114.3L114.2 28.5002L125.5 16.7002H132L121.4 28.0002L132.5 42.1002H125.7L117.6 32.1002Z" fill="white"/>
<path d="M139.4 16.7998H145.3L145.2 42.0998H139.3L139.4 16.7998Z" fill="white"/>
<path d="M177.8 17L177.7 42.3H172.9L160.3 26.9L160.2 42.3H154.4L154.5 17H159.4L171.9 32.4L172.1 17H177.8Z" fill="white"/>
<path d="M203.7 29.4002H209.1V39.7002C207.7 40.7002 206.1 41.5002 204.3 42.1002C202.5 42.7002 200.7 42.9002 198.8 42.9002C196.2 42.9002 193.8 42.3002 191.7 41.2002C189.6 40.1002 188 38.5002 186.8 36.5002C185.6 34.5002 185 32.3002 185 29.7002C185 27.1002 185.6 24.9002 186.8 23.0002C188 21.0002 189.7 19.5002 191.8 18.4002C193.9 17.3002 196.3 16.7002 199 16.7002C201.2 16.7002 203.2 17.1002 205 17.8002C206.8 18.6002 208.3 19.6002 209.5 21.1002L205.7 24.6002C203.9 22.7002 201.7 21.7002 199.2 21.7002C197.6 21.7002 196.1 22.0002 194.9 22.7002C193.6 23.4002 192.7 24.3002 192 25.5002C191.3 26.7002 190.9 28.1002 190.9 29.7002C190.9 31.3002 191.2 32.7002 191.9 33.9002C192.6 35.1002 193.6 36.1002 194.8 36.8002C196 37.5002 197.5 37.8002 199 37.9002C200.7 37.9002 202.2 37.6002 203.6 36.8002L203.7 29.4002Z" fill="white"/>
</svg>
