<svg width="552" height="86" viewBox="0 0 552 86" fill="none" xmlns="http://www.w3.org/2000/svg">
<path d="M216.012 37.9445L220.606 33.4115V19.6212L206.815 5.83081H160.861L147.071 19.6212V10.4343L142.477 5.83081H124.093L119.5 10.4343V19.6212L110.303 28.8181L101.116 19.6212V10.4343L96.5125 5.83081H78.1287L73.5353 10.4343L68.9419 5.83081H50.5581L45.9647 10.4343V28.8181L22.9774 5.83081H4.59355L0.00012207 10.4343V74.7726L4.59355 79.366H22.9774L27.5809 74.7726V56.3888L50.5581 79.366H68.9419L73.5353 74.7726V38.005L96.5125 60.9822V74.7726L101.116 79.366H119.5L124.093 74.7726V60.9822L147.071 38.005V65.5857L160.861 79.366H206.815L220.606 65.5857V51.7953L216.012 47.1918H193.025V51.7953H174.651V33.4115H193.025V37.9445H216.012Z" fill="white"/>
<path d="M217.332 8.93348C217.765 8.93348 218.138 8.89318 218.138 8.38952C218.138 7.96644 217.725 7.91607 217.382 7.91607H216.687V8.93348H217.332ZM216.697 10.9078H216.123V7.43255H217.443C218.279 7.43255 218.712 7.72468 218.712 8.42981C218.712 9.06443 218.329 9.31626 217.805 9.3767L218.782 10.9078H218.138L217.241 9.417H216.707V10.9078H216.697ZM217.312 6.51588C215.952 6.51588 214.894 7.58365 214.894 9.1148C214.894 10.5452 215.821 11.7137 217.312 11.7137C218.662 11.7137 219.719 10.656 219.719 9.1148C219.719 7.58365 218.662 6.51588 217.312 6.51588ZM217.312 12.2577C215.509 12.2577 214.219 10.9078 214.219 9.1148C214.219 7.22101 215.65 5.97192 217.312 5.97192C218.954 5.97192 220.384 7.22101 220.384 9.1148C220.394 10.9985 218.964 12.2577 217.312 12.2577Z" fill="white"/>
<path d="M252.773 78.1986C250.658 78.1986 248.854 77.8005 247.361 77.0042C245.868 76.183 244.599 75.0633 243.554 73.6449L245.868 71.7039C246.789 72.9232 247.809 73.8564 248.929 74.5034C250.048 75.1255 251.367 75.4365 252.885 75.4365C254.752 75.4365 256.17 74.9886 257.14 74.0928C258.136 73.1969 258.633 72.0025 258.633 70.5095C258.633 69.2653 258.26 68.3072 257.514 67.6354C256.767 66.9635 255.535 66.4285 253.818 66.0303L251.691 65.5451C249.302 64.9976 247.473 64.1765 246.204 63.0816C244.96 61.9618 244.338 60.3941 244.338 58.3785C244.338 57.2338 244.549 56.2136 244.972 55.3177C245.395 54.4219 245.98 53.6754 246.726 53.0782C247.498 52.481 248.406 52.033 249.451 51.7344C250.521 51.4109 251.691 51.2492 252.96 51.2492C254.926 51.2492 256.605 51.61 257.999 52.3317C259.417 53.0533 260.612 54.1109 261.582 55.5044L259.231 57.2214C258.509 56.226 257.638 55.4422 256.618 54.8698C255.598 54.2975 254.329 54.0113 252.811 54.0113C251.143 54.0113 249.824 54.3721 248.854 55.0938C247.908 55.7905 247.436 56.8481 247.436 58.2665C247.436 59.5107 247.834 60.4563 248.63 61.1033C249.451 61.7254 250.683 62.2231 252.325 62.5963L254.453 63.0816C257.016 63.6539 258.87 64.5248 260.015 65.6944C261.159 66.864 261.732 68.4192 261.732 70.3602C261.732 71.5546 261.52 72.6371 261.097 73.6075C260.699 74.578 260.114 75.3992 259.343 76.0711C258.571 76.7429 257.626 77.2655 256.506 77.6388C255.411 78.012 254.167 78.1986 252.773 78.1986ZM274.014 78.1986C272.67 78.1986 271.463 77.9622 270.393 77.4894C269.323 77.0167 268.415 76.3448 267.668 75.4738C266.947 74.6029 266.387 73.5453 265.989 72.3011C265.615 71.0569 265.429 69.6634 265.429 68.1206C265.429 66.5778 265.615 65.1843 265.989 63.9401C266.387 62.6959 266.947 61.6383 267.668 60.7674C268.415 59.8964 269.323 59.2245 270.393 58.7517C271.463 58.2789 272.67 58.0425 274.014 58.0425C275.93 58.0425 277.46 58.4656 278.605 59.3116C279.775 60.1328 280.645 61.2153 281.218 62.559L278.717 63.8281C278.369 62.8327 277.796 62.0613 277 61.5139C276.204 60.9664 275.208 60.6927 274.014 60.6927C273.118 60.6927 272.334 60.842 271.662 61.1406C270.99 61.4143 270.431 61.8125 269.983 62.335C269.535 62.8327 269.199 63.4424 268.975 64.164C268.751 64.8608 268.639 65.6322 268.639 66.4782V69.7629C268.639 71.4551 269.087 72.8486 269.983 73.9435C270.903 75.0135 272.247 75.5485 274.014 75.5485C276.428 75.5485 278.169 74.4287 279.24 72.1891L281.404 73.6449C280.782 75.0384 279.849 76.1457 278.605 76.9669C277.386 77.7881 275.855 78.1986 274.014 78.1986ZM285.62 77.7507V58.4905H288.606V62.0364H288.792C289.141 61.1157 289.763 60.2946 290.659 59.5729C291.554 58.8513 292.786 58.4905 294.354 58.4905H295.511V61.4765H293.757C292.139 61.4765 290.87 61.7876 289.949 62.4097C289.054 63.0069 288.606 63.7659 288.606 64.6866V77.7507H285.62ZM306.384 78.1986C305.065 78.1986 303.871 77.9622 302.801 77.4894C301.756 77.0167 300.848 76.3448 300.076 75.4738C299.33 74.578 298.745 73.5204 298.322 72.3011C297.924 71.0569 297.725 69.6634 297.725 68.1206C297.725 66.6027 297.924 65.2216 298.322 63.9774C298.745 62.7332 299.33 61.6756 300.076 60.8047C300.848 59.9089 301.756 59.2245 302.801 58.7517C303.871 58.2789 305.065 58.0425 306.384 58.0425C307.678 58.0425 308.835 58.2789 309.856 58.7517C310.876 59.2245 311.747 59.884 312.468 60.73C313.19 61.5512 313.738 62.5341 314.111 63.6788C314.509 64.8235 314.708 66.0801 314.708 67.4487V68.8671H300.86V69.7629C300.86 70.5841 300.984 71.3555 301.233 72.0772C301.507 72.7739 301.88 73.3836 302.353 73.9061C302.851 74.4287 303.448 74.8393 304.145 75.1379C304.866 75.4365 305.675 75.5858 306.571 75.5858C307.79 75.5858 308.848 75.2997 309.744 74.7273C310.664 74.155 311.374 73.3338 311.871 72.2638L313.999 73.7942C313.377 75.113 312.406 76.183 311.087 77.0042C309.769 77.8005 308.201 78.1986 306.384 78.1986ZM306.384 60.5434C305.563 60.5434 304.817 60.6927 304.145 60.9913C303.473 61.265 302.888 61.6632 302.39 62.1857C301.918 62.7083 301.544 63.3304 301.271 64.0521C300.997 64.7488 300.86 65.5202 300.86 66.3663V66.6276H311.498V66.217C311.498 64.5 311.025 63.1313 310.08 62.1111C309.159 61.066 307.927 60.5434 306.384 60.5434ZM326.87 78.1986C325.551 78.1986 324.357 77.9622 323.287 77.4894C322.242 77.0167 321.333 76.3448 320.562 75.4738C319.815 74.578 319.231 73.5204 318.808 72.3011C318.409 71.0569 318.21 69.6634 318.21 68.1206C318.21 66.6027 318.409 65.2216 318.808 63.9774C319.231 62.7332 319.815 61.6756 320.562 60.8047C321.333 59.9089 322.242 59.2245 323.287 58.7517C324.357 58.2789 325.551 58.0425 326.87 58.0425C328.164 58.0425 329.321 58.2789 330.341 58.7517C331.362 59.2245 332.232 59.884 332.954 60.73C333.676 61.5512 334.223 62.5341 334.596 63.6788C334.995 64.8235 335.194 66.0801 335.194 67.4487V68.8671H321.346V69.7629C321.346 70.5841 321.47 71.3555 321.719 72.0772C321.993 72.7739 322.366 73.3836 322.839 73.9061C323.336 74.4287 323.934 74.8393 324.63 75.1379C325.352 75.4365 326.161 75.5858 327.057 75.5858C328.276 75.5858 329.333 75.2997 330.229 74.7273C331.15 74.155 331.859 73.3338 332.357 72.2638L334.484 73.7942C333.862 75.113 332.892 76.183 331.573 77.0042C330.254 77.8005 328.686 78.1986 326.87 78.1986ZM326.87 60.5434C326.049 60.5434 325.302 60.6927 324.63 60.9913C323.959 61.265 323.374 61.6632 322.876 62.1857C322.403 62.7083 322.03 63.3304 321.756 64.0521C321.483 64.7488 321.346 65.5202 321.346 66.3663V66.6276H331.984V66.217C331.984 64.5 331.511 63.1313 330.565 62.1111C329.645 61.066 328.413 60.5434 326.87 60.5434ZM340.114 77.7507V58.4905H343.1V61.6259H343.25C343.722 60.531 344.382 59.66 345.228 59.013C346.099 58.366 347.256 58.0425 348.699 58.0425C350.69 58.0425 352.258 58.6895 353.402 59.9835C354.572 61.2526 355.157 63.0567 355.157 65.3958V77.7507H352.171V65.9184C352.171 62.4595 350.715 60.73 347.803 60.73C347.206 60.73 346.621 60.8047 346.049 60.954C345.502 61.1033 345.004 61.3272 344.556 61.6259C344.108 61.9245 343.747 62.3102 343.474 62.783C343.225 63.2309 343.1 63.7659 343.1 64.388V77.7507H340.114ZM362.822 53.974C362.175 53.974 361.702 53.8247 361.404 53.5261C361.13 53.2026 360.993 52.792 360.993 52.2943V51.8091C360.993 51.3114 361.13 50.9133 361.404 50.6147C361.702 50.2912 362.175 50.1294 362.822 50.1294C363.469 50.1294 363.929 50.2912 364.203 50.6147C364.502 50.9133 364.651 51.3114 364.651 51.8091V52.2943C364.651 52.792 364.502 53.2026 364.203 53.5261C363.929 53.8247 363.469 53.974 362.822 53.974ZM361.329 58.4905H364.315V77.7507H361.329V58.4905ZM370.66 77.7507V58.4905H373.647V61.6259H373.796C374.269 60.531 374.928 59.66 375.774 59.013C376.645 58.366 377.802 58.0425 379.245 58.0425C381.236 58.0425 382.804 58.6895 383.949 59.9835C385.118 61.2526 385.703 63.0567 385.703 65.3958V77.7507H382.717V65.9184C382.717 62.4595 381.261 60.73 378.35 60.73C377.752 60.73 377.168 60.8047 376.595 60.954C376.048 61.1033 375.55 61.3272 375.102 61.6259C374.654 61.9245 374.294 62.3102 374.02 62.783C373.771 63.2309 373.647 63.7659 373.647 64.388V77.7507H370.66ZM408.112 79.8783C408.112 81.869 407.328 83.3248 405.76 84.2455C404.218 85.1911 401.891 85.6639 398.78 85.6639C395.769 85.6639 393.605 85.2533 392.286 84.4321C390.967 83.6109 390.307 82.4414 390.307 80.9235C390.307 79.8783 390.581 79.0571 391.129 78.4599C391.676 77.8876 392.423 77.4646 393.368 77.1908V76.7803C392.223 76.2328 391.651 75.337 391.651 74.0928C391.651 73.1223 391.962 72.3882 392.584 71.8905C393.206 71.368 394.003 70.9823 394.973 70.7334V70.5841C393.829 70.0367 392.933 69.2528 392.286 68.2326C391.664 67.2123 391.353 66.0303 391.353 64.6866C391.353 63.7161 391.527 62.8203 391.875 61.9991C392.223 61.1779 392.709 60.4812 393.331 59.9089C393.978 59.3116 394.737 58.8513 395.608 58.5278C396.504 58.2043 397.499 58.0425 398.594 58.0425C399.962 58.0425 401.182 58.2914 402.252 58.7891V58.4531C402.252 57.7066 402.426 57.097 402.774 56.6242C403.123 56.1265 403.695 55.8776 404.491 55.8776H407.365V58.4905H403.707V59.7222C404.404 60.3194 404.939 61.0411 405.313 61.8871C405.711 62.7083 405.91 63.6415 405.91 64.6866C405.91 65.6571 405.736 66.5529 405.387 67.3741C405.039 68.1952 404.541 68.9044 403.894 69.5017C403.272 70.074 402.513 70.5219 401.617 70.8454C400.721 71.1689 399.726 71.3306 398.631 71.3306C398.009 71.3306 397.387 71.2684 396.765 71.144C396.118 71.3182 395.533 71.5795 395.011 71.9279C394.488 72.2514 394.227 72.7117 394.227 73.3089C394.227 73.8813 394.5 74.267 395.048 74.466C395.595 74.6651 396.304 74.7646 397.175 74.7646H401.281C403.67 74.7646 405.4 75.225 406.47 76.1457C407.565 77.0415 408.112 78.2857 408.112 79.8783ZM405.313 80.1023C405.313 79.3309 405.014 78.7088 404.417 78.236C403.844 77.7881 402.812 77.5641 401.319 77.5641H394.899C393.704 78.1116 393.107 78.9825 393.107 80.1769C393.107 81.023 393.418 81.7446 394.04 82.3418C394.687 82.9391 395.769 83.2377 397.287 83.2377H400.05C401.717 83.2377 403.011 82.9764 403.931 82.4538C404.852 81.9313 405.313 81.1474 405.313 80.1023ZM398.631 68.9418C399.9 68.9418 400.908 68.6432 401.655 68.0459C402.401 67.4238 402.774 66.4782 402.774 65.2092V64.164C402.774 62.8949 402.401 61.9618 401.655 61.3646C400.908 60.7425 399.9 60.4314 398.631 60.4314C397.362 60.4314 396.354 60.7425 395.608 61.3646C394.861 61.9618 394.488 62.8949 394.488 64.164V65.2092C394.488 66.4782 394.861 67.4238 395.608 68.0459C396.354 68.6432 397.362 68.9418 398.631 68.9418ZM437.027 77.7507L434.414 70.0616H423.888L421.275 77.7507H418.102L427.21 51.6971H431.204L440.311 77.7507H437.027ZM429.225 54.6085H429.039L424.634 67.2994H433.63L429.225 54.6085ZM444.627 77.7507V51.6971H455.004C457.343 51.6971 459.135 52.369 460.379 53.7127C461.648 55.0316 462.282 56.8481 462.282 59.1623C462.282 61.4765 461.648 63.3055 460.379 64.6493C459.135 65.9681 457.343 66.6276 455.004 66.6276H447.762V77.7507H444.627ZM447.762 63.8654H455.004C456.248 63.8654 457.206 63.5419 457.878 62.8949C458.575 62.248 458.923 61.3272 458.923 60.1328V58.1919C458.923 56.9974 458.575 56.0767 457.878 55.4297C457.206 54.7827 456.248 54.4592 455.004 54.4592H447.762V63.8654ZM466.032 77.7507V75.1379H469.69V54.3099H466.032V51.6971H476.483V54.3099H472.825V75.1379H476.483V77.7507H466.032Z" fill="white"/>
<path d="M244.86 5.94638H257.514C259.679 5.94638 261.358 6.55604 262.553 7.77535C263.772 8.99467 264.382 10.6121 264.382 12.6277C264.382 13.6231 264.245 14.4692 263.971 15.1659C263.722 15.8627 263.374 16.435 262.926 16.8829C262.503 17.3308 261.993 17.6668 261.396 17.8907C260.823 18.0898 260.201 18.2018 259.529 18.2267V18.4506C260.151 18.4506 260.798 18.5626 261.47 18.7866C262.167 19.0105 262.802 19.3713 263.374 19.869C263.946 20.3418 264.419 20.9639 264.792 21.7353C265.19 22.5067 265.389 23.4523 265.389 24.5721C265.389 25.5924 265.215 26.5628 264.867 27.4835C264.543 28.3794 264.083 29.1632 263.486 29.8351C262.889 30.507 262.179 31.042 261.358 31.4401C260.537 31.8134 259.641 32 258.671 32H244.86V5.94638ZM250.534 27.2223H257.066C257.812 27.2223 258.397 27.0232 258.82 26.625C259.268 26.202 259.492 25.6172 259.492 24.8707V23.6016C259.492 22.8551 259.268 22.2828 258.82 21.8846C258.397 21.4616 257.812 21.2501 257.066 21.2501H250.534V27.2223ZM250.534 16.6216H256.17C256.916 16.6216 257.501 16.4101 257.924 15.9871C258.347 15.5641 258.559 14.9793 258.559 14.2328V13.113C258.559 12.3665 258.347 11.7817 257.924 11.3587C257.501 10.9356 256.916 10.7241 256.17 10.7241H250.534V16.6216ZM277.632 32.4479C276.139 32.4479 274.808 32.2115 273.638 31.7387C272.469 31.241 271.473 30.5567 270.652 29.6858C269.856 28.79 269.246 27.7075 268.823 26.4384C268.425 25.1693 268.226 23.7509 268.226 22.1832C268.226 20.6404 268.425 19.2469 268.823 18.0027C269.221 16.7336 269.806 15.6512 270.578 14.7553C271.374 13.8595 272.344 13.1752 273.489 12.7024C274.634 12.2047 275.94 11.9559 277.408 11.9559C279.026 11.9559 280.407 12.2296 281.551 12.7771C282.721 13.3245 283.667 14.0586 284.388 14.9793C285.135 15.9 285.67 16.97 285.993 18.1893C286.342 19.3838 286.516 20.6404 286.516 21.9593V23.6016H273.937V23.9002C273.937 25.1942 274.285 26.2269 274.982 26.9983C275.679 27.7448 276.774 28.1181 278.267 28.1181C279.411 28.1181 280.345 27.8941 281.066 27.4462C281.788 26.9734 282.46 26.4135 283.082 25.7665L285.844 29.2005C284.973 30.2208 283.828 31.0171 282.41 31.5894C281.016 32.1617 279.424 32.4479 277.632 32.4479ZM277.52 16.0244C276.4 16.0244 275.517 16.3977 274.87 17.1442C274.248 17.8658 273.937 18.8363 273.937 20.0556V20.3543H280.805V20.0183C280.805 18.8239 280.531 17.8658 279.984 17.1442C279.461 16.3977 278.64 16.0244 277.52 16.0244ZM290.417 32V12.4038H295.941V15.7258H296.165C296.514 14.7056 297.123 13.8222 297.994 13.0757C298.865 12.3291 300.072 11.9559 301.615 11.9559C303.631 11.9559 305.149 12.6278 306.169 13.9715C307.214 15.3152 307.737 17.2313 307.737 19.7197V32H302.212V20.1676C302.212 18.8985 302.013 17.9654 301.615 17.3682C301.217 16.7461 300.508 16.435 299.487 16.435C299.04 16.435 298.604 16.4972 298.181 16.6216C297.758 16.7212 297.372 16.8954 297.024 17.1442C296.7 17.393 296.439 17.7041 296.24 18.0774C296.041 18.4257 295.941 18.8363 295.941 19.3091V32H290.417ZM320.827 32.4479C319.334 32.4479 318.003 32.2115 316.833 31.7387C315.663 31.241 314.668 30.5567 313.847 29.6858C313.051 28.79 312.441 27.7075 312.018 26.4384C311.62 25.1693 311.421 23.7509 311.421 22.1832C311.421 20.6404 311.62 19.2469 312.018 18.0027C312.416 16.7336 313.001 15.6512 313.772 14.7553C314.569 13.8595 315.539 13.1752 316.684 12.7024C317.828 12.2047 319.135 11.9559 320.603 11.9559C322.22 11.9559 323.601 12.2296 324.746 12.7771C325.916 13.3245 326.861 14.0586 327.583 14.9793C328.329 15.9 328.864 16.97 329.188 18.1893C329.536 19.3838 329.711 20.6404 329.711 21.9593V23.6016H317.132V23.9002C317.132 25.1942 317.48 26.2269 318.177 26.9983C318.874 27.7448 319.968 28.1181 321.461 28.1181C322.606 28.1181 323.539 27.8941 324.261 27.4462C324.983 26.9734 325.654 26.4135 326.277 25.7665L329.039 29.2005C328.168 30.2208 327.023 31.0171 325.605 31.5894C324.211 32.1617 322.619 32.4479 320.827 32.4479ZM320.715 16.0244C319.595 16.0244 318.712 16.3977 318.065 17.1442C317.443 17.8658 317.132 18.8363 317.132 20.0556V20.3543H324V20.0183C324 18.8239 323.726 17.8658 323.178 17.1442C322.656 16.3977 321.835 16.0244 320.715 16.0244ZM334.582 16.6963H331.82V12.4038H334.582V10.0896C334.582 8.19838 335.08 6.77999 336.076 5.8344C337.071 4.86392 338.527 4.37868 340.443 4.37868H344.026V8.67118H340.107V12.4038H352.611V32H347.087V16.6963H340.107V32H334.582V16.6963ZM349.849 10.3135C348.729 10.3135 347.908 10.0647 347.385 9.56701C346.888 9.04444 346.639 8.38501 346.639 7.58872V6.76755C346.639 5.97126 346.888 5.32427 347.385 4.82659C347.908 4.30403 348.729 4.04275 349.849 4.04275C350.969 4.04275 351.777 4.30403 352.275 4.82659C352.798 5.32427 353.059 5.97126 353.059 6.76755V7.58872C353.059 8.38501 352.798 9.04444 352.275 9.56701C351.777 10.0647 350.969 10.3135 349.849 10.3135ZM364.647 32C362.731 32 361.275 31.5148 360.28 30.5443C359.31 29.5738 358.824 28.1554 358.824 26.2891V16.6963H356.062V12.4038H357.443C358.19 12.4038 358.7 12.2296 358.974 11.8812C359.247 11.508 359.384 10.9854 359.384 10.3135V7.10348H364.349V12.4038H368.23V16.6963H364.349V27.7075H367.932V32H364.647ZM378.712 32.4479C376.821 32.4479 375.228 32.1493 373.934 31.5521C372.64 30.93 371.483 30.059 370.463 28.9393L373.71 25.6546C374.407 26.426 375.179 27.0356 376.025 27.4835C376.871 27.9315 377.829 28.1554 378.899 28.1554C379.994 28.1554 380.753 27.9937 381.176 27.6702C381.599 27.3218 381.81 26.8614 381.81 26.2891C381.81 25.3684 381.151 24.8209 379.832 24.6468L377.704 24.3855C373.3 23.838 371.098 21.8224 371.098 18.3386C371.098 17.393 371.272 16.5345 371.62 15.7631C371.993 14.9669 372.504 14.295 373.151 13.7475C373.822 13.1752 374.619 12.7397 375.539 12.4411C376.485 12.1176 377.543 11.9559 378.712 11.9559C379.732 11.9559 380.628 12.0305 381.4 12.1798C382.196 12.3043 382.893 12.5033 383.49 12.7771C384.112 13.0259 384.672 13.3494 385.17 13.7475C385.692 14.1208 386.202 14.5438 386.7 15.0166L383.527 18.264C382.905 17.6419 382.196 17.1567 381.4 16.8083C380.628 16.435 379.832 16.2484 379.011 16.2484C378.065 16.2484 377.393 16.3977 376.995 16.6963C376.597 16.9949 376.398 17.393 376.398 17.8907C376.398 18.4133 376.535 18.8239 376.808 19.1225C377.107 19.3962 377.655 19.5953 378.451 19.7197L380.653 20.0183C384.958 20.5907 387.11 22.5565 387.11 25.9158C387.11 26.8614 386.911 27.7324 386.513 28.5287C386.115 29.325 385.543 30.0217 384.796 30.6189C384.075 31.1913 383.191 31.6392 382.146 31.9627C381.126 32.2862 379.981 32.4479 378.712 32.4479ZM399.997 32V5.94638H412.314C413.534 5.94638 414.629 6.15789 415.599 6.58092C416.57 6.97907 417.391 7.53896 418.063 8.26059C418.759 8.98223 419.294 9.86562 419.668 10.9107C420.041 11.931 420.227 13.0508 420.227 14.2701C420.227 15.5143 420.041 16.6465 419.668 17.6668C419.294 18.687 418.759 19.558 418.063 20.2796C417.391 21.0012 416.57 21.5736 415.599 21.9966C414.629 22.3947 413.534 22.5938 412.314 22.5938H405.67V32H399.997ZM405.67 17.6668H411.642C412.489 17.6668 413.148 17.4553 413.621 17.0322C414.118 16.5843 414.367 15.9373 414.367 15.0913V13.4489C414.367 12.6029 414.118 11.9683 413.621 11.5453C413.148 11.0974 412.489 10.8734 411.642 10.8734H405.67V17.6668ZM429.68 32C427.789 32 426.396 31.5396 425.5 30.6189C424.629 29.6982 424.193 28.3669 424.193 26.625V4.37868H429.718V27.7075H432.181V32H429.68ZM449.976 32C448.98 32 448.147 31.6889 447.475 31.0668C446.828 30.4447 446.417 29.6111 446.243 28.566H446.019C445.721 29.8351 445.061 30.8056 444.041 31.4774C443.021 32.1244 441.764 32.4479 440.271 32.4479C438.305 32.4479 436.8 31.9253 435.755 30.8802C434.709 29.8351 434.187 28.454 434.187 26.737C434.187 24.6716 434.933 23.1413 436.426 22.1459C437.944 21.1257 439.997 20.6155 442.585 20.6155H445.683V19.3838C445.683 18.4382 445.434 17.6917 444.937 17.1442C444.439 16.5719 443.606 16.2857 442.436 16.2857C441.341 16.2857 440.47 16.5221 439.823 16.9949C439.176 17.4677 438.641 18.0027 438.218 18.5999L434.933 15.6885C435.73 14.5189 436.725 13.6107 437.919 12.9637C439.139 12.2918 440.781 11.9559 442.847 11.9559C445.634 11.9559 447.724 12.5655 449.117 13.7849C450.511 15.0042 451.208 16.7834 451.208 19.1225V27.7075H453.037V32H449.976ZM442.324 28.6033C443.245 28.6033 444.029 28.4043 444.676 28.0061C445.347 27.608 445.683 26.961 445.683 26.0651V23.7509H442.996C440.831 23.7509 439.748 24.485 439.748 25.9532V26.5131C439.748 27.2347 439.972 27.7697 440.42 28.1181C440.868 28.4416 441.503 28.6033 442.324 28.6033ZM463.394 32C461.478 32 460.022 31.5148 459.027 30.5443C458.056 29.5738 457.571 28.1554 457.571 26.2891V16.6963H454.809V12.4038H456.19C456.936 12.4038 457.446 12.2296 457.72 11.8812C457.994 11.508 458.131 10.9854 458.131 10.3135V7.10348H463.095V12.4038H466.977V16.6963H463.095V27.7075H466.678V32H463.394ZM471.785 16.6963H469.023V12.4038H471.785V10.0896C471.785 8.19838 472.283 6.77999 473.278 5.8344C474.273 4.86392 475.729 4.37868 477.645 4.37868H481.229V8.67118H477.309V12.4038H481.229V16.6963H477.309V32H471.785V16.6963ZM492.106 32.4479C490.663 32.4479 489.369 32.2115 488.224 31.7387C487.105 31.2659 486.146 30.5816 485.35 29.6858C484.579 28.79 483.982 27.7075 483.559 26.4384C483.136 25.1693 482.924 23.7509 482.924 22.1832C482.924 20.6155 483.136 19.1971 483.559 17.9281C483.982 16.659 484.579 15.589 485.35 14.718C486.146 13.8222 487.105 13.1379 488.224 12.6651C489.369 12.1923 490.663 11.9559 492.106 11.9559C493.549 11.9559 494.831 12.1923 495.951 12.6651C497.095 13.1379 498.054 13.8222 498.825 14.718C499.621 15.589 500.231 16.659 500.654 17.9281C501.077 19.1971 501.288 20.6155 501.288 22.1832C501.288 23.7509 501.077 25.1693 500.654 26.4384C500.231 27.7075 499.621 28.79 498.825 29.6858C498.054 30.5816 497.095 31.2659 495.951 31.7387C494.831 32.2115 493.549 32.4479 492.106 32.4479ZM492.106 28.0808C493.201 28.0808 494.047 27.7448 494.644 27.073C495.242 26.4011 495.54 25.443 495.54 24.1988V20.2049C495.54 18.9607 495.242 18.0027 494.644 17.3308C494.047 16.659 493.201 16.323 492.106 16.323C491.011 16.323 490.165 16.659 489.568 17.3308C488.971 18.0027 488.672 18.9607 488.672 20.2049V24.1988C488.672 25.443 488.971 26.4011 489.568 27.073C490.165 27.7448 491.011 28.0808 492.106 28.0808ZM505.225 32V12.4038H510.749V16.659H510.935C511.035 16.1115 511.209 15.589 511.458 15.0913C511.707 14.5687 512.03 14.1084 512.429 13.7102C512.852 13.3121 513.349 13.001 513.922 12.7771C514.494 12.5282 515.166 12.4038 515.937 12.4038H516.908V17.5548H515.527C513.909 17.5548 512.702 17.7663 511.906 18.1893C511.135 18.6124 510.749 19.3962 510.749 20.5409V32H505.225ZM520.315 32V12.4038H525.84V15.7258H526.064C526.412 14.6807 527.009 13.7973 527.855 13.0757C528.701 12.3291 529.858 11.9559 531.327 11.9559C532.67 11.9559 533.815 12.2918 534.761 12.9637C535.706 13.6356 536.391 14.6185 536.814 15.9124H536.926C537.1 15.365 537.361 14.8549 537.709 14.3821C538.083 13.8844 538.531 13.4614 539.053 13.113C539.576 12.7646 540.16 12.4909 540.807 12.2918C541.454 12.0679 542.151 11.9559 542.898 11.9559C544.789 11.9559 546.232 12.6278 547.228 13.9715C548.248 15.3152 548.758 17.2313 548.758 19.7197V32H543.234V20.1676C543.234 17.6792 542.338 16.435 540.546 16.435C539.725 16.435 538.978 16.6714 538.307 17.1442C537.635 17.617 537.299 18.3386 537.299 19.3091V32H531.775V20.1676C531.775 17.6792 530.879 16.435 529.087 16.435C528.689 16.435 528.291 16.4972 527.893 16.6216C527.519 16.7212 527.171 16.8954 526.847 17.1442C526.549 17.393 526.3 17.7041 526.101 18.0774C525.927 18.4257 525.84 18.8363 525.84 19.3091V32H520.315Z" fill="white"/>
</svg>
