<svg width="261" height="657" viewBox="0 0 261 657" fill="none" xmlns="http://www.w3.org/2000/svg">
<g clip-path="url(#clip0_1005_310)">
<path d="M203.422 608.456L187.176 614.247M223.343 610.786L238.045 620.353" stroke="#4157AA" stroke-width="14.6227" stroke-linecap="round"/>
<path d="M222.103 633.722L235.4 642.97M199.335 631.059L184.694 637.472" stroke="#4157AA" stroke-width="19.497" stroke-linecap="round"/>
<path d="M215.966 640.216L203.807 638.793C196.138 637.896 190.763 630.352 191.755 621.878L192.504 615.472C193.495 606.997 200.466 600.898 208.135 601.795L220.294 603.218C227.964 604.115 233.339 611.66 232.348 620.132L231.598 626.539C230.607 635.015 223.449 641.091 215.967 640.216L215.966 640.216Z" fill="#4157AA"/>
<path d="M211.644 636.826L208.797 636.493C203.32 635.852 196.664 629.222 197.503 622.052L198.137 616.63C198.976 609.46 204.063 604.204 209.54 604.844L218.226 605.86C223.703 606.501 227.438 612.79 226.599 619.96L225.965 625.382C225.126 632.552 216.989 637.451 211.643 636.826L211.644 636.826Z" fill="#CDD8EF"/>
<path d="M197.382 586.113C199.269 586.333 201.166 585.796 202.656 584.617C204.147 583.439 205.108 581.717 205.329 579.83C205.55 577.943 205.012 576.046 203.834 574.555C202.655 573.065 200.933 572.103 199.046 571.883C197.159 571.662 195.262 572.2 193.771 573.378C192.281 574.556 191.32 576.278 191.099 578.165C190.878 580.052 191.416 581.95 192.594 583.44C193.773 584.931 195.495 585.892 197.382 586.113ZM234.38 590.441C236.267 590.662 238.164 590.124 239.654 588.945C241.145 587.767 242.106 586.045 242.327 584.158C242.548 582.271 242.01 580.374 240.832 578.883C239.653 577.393 237.931 576.432 236.044 576.211C234.157 575.99 232.26 576.528 230.769 577.706C229.279 578.884 228.318 580.606 228.097 582.493C227.876 584.381 228.414 586.278 229.592 587.768C230.77 589.259 232.493 590.22 234.38 590.441Z" fill="#4157AA"/>
<path d="M213.548 608.199C205.88 607.302 194.506 598.361 195.381 590.879L196.043 585.221C196.918 577.738 203.796 572.438 211.464 573.335L223.623 574.758C231.293 575.655 236.762 582.399 235.886 589.882L235.224 595.54C234.349 603.022 221.032 609.074 213.548 608.199Z" fill="#4157AA"/>
<path d="M207.971 586.51C209.33 586.669 210.56 585.697 210.719 584.338C210.878 582.979 209.905 581.749 208.547 581.59C207.188 581.431 205.958 582.404 205.799 583.762C205.64 585.121 206.613 586.351 207.971 586.51Z" fill="#CDD8EF"/>
<path d="M224.371 588.429C225.73 588.588 226.96 587.615 227.119 586.256C227.278 584.898 226.305 583.668 224.947 583.509C223.588 583.35 222.358 584.322 222.199 585.681C222.04 587.04 223.012 588.27 224.371 588.429Z" fill="#CDD8EF"/>
<path d="M214.061 605.509C219.042 606.092 223.467 603.26 223.944 599.185C224.421 595.109 220.769 591.332 215.787 590.75C210.806 590.167 206.381 592.998 205.904 597.074C205.427 601.15 209.079 604.927 214.061 605.509Z" fill="#CDD8EF"/>
<path d="M214.828 598.949C216.187 599.108 217.417 598.136 217.576 596.777C217.735 595.419 216.762 594.188 215.404 594.029C214.045 593.871 212.815 594.843 212.656 596.202C212.497 597.56 213.47 598.79 214.828 598.949Z" fill="#4157AA"/>
</g>
<g clip-path="url(#clip1_1005_310)">
<path d="M179.182 311.162C194.564 315.592 209.569 310.381 212.696 299.523C215.823 288.665 205.888 276.272 190.506 271.842C175.124 267.412 160.12 272.623 156.992 283.481C153.865 294.338 163.8 306.732 179.182 311.162Z" fill="#4157AA"/>
<path d="M190.034 273.48C199.083 276.086 208.53 270.864 211.136 261.815C213.742 252.767 208.519 243.319 199.471 240.714C190.423 238.108 180.975 243.33 178.369 252.378C175.764 261.427 180.986 270.874 190.034 273.48Z" fill="#4157AA"/>
<path d="M201.683 318.511C210.844 321.15 220.411 315.859 223.049 306.697C225.688 297.536 220.4 287.97 211.238 285.332C202.077 282.693 192.511 287.983 189.872 297.144C187.234 306.306 192.522 315.871 201.683 318.51L201.683 318.511Z" fill="#CDD8EF" stroke="#4157AA" stroke-width="4.52595"/>
<path d="M206.565 302.495L204.517 301.905L204.267 302.773L204.718 303.556L206.565 302.495ZM204.718 303.556L210.064 312.845L213.758 310.719L208.413 301.432L204.718 303.556ZM208.613 303.084L212.273 290.376L208.177 289.196L204.518 301.903L208.614 303.083L208.613 303.084Z" fill="#4157AA"/>
</g>
<path d="M259.449 41.7352L260.627 52.2279C260.697 52.8562 260.592 53.4917 260.322 54.0634C260.052 54.6351 259.628 55.1205 259.098 55.4654L240.29 67.7108C239.845 68.0004 239.338 68.1821 238.81 68.2413C238.283 68.3005 237.749 68.2357 237.25 68.0519L216.195 60.2811C215.602 60.0623 215.081 59.683 214.691 59.1853C214.301 58.6877 214.057 58.0915 213.987 57.4632L212.809 46.9705L237.438 56.0129L259.449 41.7352ZM208.168 39.7985L206.473 39.9887L209.326 65.403L211.02 65.2128L208.168 39.7985ZM210.16 65.3094L215.096 75.0149L207.498 75.8676L210.16 65.3094Z" fill="#4157AA"/>
<path d="M232.783 18.2598C232.904 18.1827 233.042 18.1343 233.184 18.1183C233.327 18.1023 233.471 18.119 233.607 18.1674L269.493 30.961C270.263 31.2348 270.381 32.2991 269.688 32.7336L237.509 52.9599C237.388 53.0358 237.252 53.0835 237.111 53.0994C236.969 53.1153 236.826 53.0989 236.692 53.0516L200.831 40.4627C200.657 40.3993 200.504 40.2887 200.389 40.1434C200.275 39.9981 200.203 39.8237 200.182 39.6399C200.161 39.456 200.191 39.2699 200.27 39.1023C200.348 38.9348 200.472 38.7924 200.627 38.6911L232.785 18.2596L232.783 18.2598Z" fill="#4157AA"/>
<path d="M235.475 38.5228C235.8 38.4949 236.116 38.4022 236.405 38.2501C236.694 38.098 236.95 37.8895 237.157 37.6371C237.364 37.3846 237.518 37.0932 237.611 36.7801C237.703 36.467 237.732 36.1386 237.696 35.8141C237.659 35.4896 237.558 35.1758 237.399 34.891C237.239 34.6062 237.024 34.3563 236.766 34.156C236.508 33.9557 236.213 33.8091 235.897 33.7248C235.582 33.6405 235.253 33.6203 234.929 33.6653C234.298 33.753 233.726 34.0838 233.335 34.587C232.944 35.0903 232.765 35.7263 232.837 36.3595C232.908 36.9928 233.223 37.5733 233.716 37.9773C234.209 38.3814 234.84 38.5771 235.475 38.5228Z" fill="#CDD8EF"/>
<path d="M210.554 68.6965C211.957 68.539 212.967 67.2734 212.81 65.8698C212.652 64.4662 211.387 63.4561 209.983 63.6137C208.579 63.7712 207.569 65.0368 207.727 66.4404C207.884 67.8439 209.15 68.8541 210.554 68.6965Z" fill="#4157AA"/>
<path d="M95.4296 507.499C110.865 504.167 121.312 491.896 118.763 480.093C116.214 468.289 101.636 461.423 86.2004 464.755C70.7652 468.088 60.3184 480.358 62.867 492.162C65.4156 503.965 79.9944 510.832 95.4296 507.499Z" fill="#4157AA"/>
<path d="M86.9104 468.043C95.082 466.279 100.276 458.224 98.5116 450.053C96.7472 441.881 88.6925 436.687 80.5209 438.451C72.3493 440.216 67.1552 448.27 68.9196 456.442C70.684 464.614 78.7387 469.808 86.9104 468.043Z" fill="#4157AA"/>
<path fill-rule="evenodd" clip-rule="evenodd" d="M81.524 507.621C80.3757 506.415 79.5686 504.972 79.2168 503.343C77.908 497.282 83.3984 490.953 91.4786 489.208C99.5622 487.463 107.175 490.962 108.483 497.024C108.835 498.651 108.695 500.299 108.145 501.873C104.585 504.478 100.26 506.456 95.4297 507.499C90.5996 508.542 85.845 508.524 81.524 507.621Z" fill="#CDD8EF"/>
<path d="M91.8799 491.059C96.4197 490.079 99.3053 485.604 98.3251 481.064C97.3449 476.525 92.87 473.639 88.3302 474.619C83.7904 475.599 80.9049 480.074 81.8851 484.614C82.8653 489.154 87.3402 492.039 91.8799 491.059Z" fill="#CDD8EF"/>
<g clip-path="url(#clip2_1005_310)">
<path d="M55.9019 136.438L17.026 141.571L13.7164 116.502L31.3315 100.128L52.3106 111.137L52.5924 111.37L55.9019 136.438Z" fill="#4157AA"/>
<path d="M25.6054 128.4L26.498 135.161L33.2591 134.268L32.3665 127.507L25.6054 128.4ZM24.0434 116.568L24.936 123.329L31.697 122.436L30.8044 115.675L24.0434 116.568ZM37.4373 126.838L38.3299 133.599L45.0909 132.706L44.1983 125.945L37.4373 126.838ZM35.8752 115.006L36.7678 121.767L43.5288 120.874L42.6362 114.113L35.8752 115.006Z" fill="#CDD8EF"/>
<path d="M75.264 61.6535L43.1491 65.8933L52.5214 136.884L84.6363 132.644L75.264 61.6535Z" fill="#4157AA"/>
<path d="M76.3132 121.705L69.5522 122.598L70.4448 129.359L77.2058 128.466L76.3132 121.705ZM64.4814 123.267L57.7204 124.16L58.613 130.921L65.374 130.028L64.4814 123.267ZM74.528 108.183L67.767 109.076L68.6596 115.837L75.4206 114.944L74.528 108.183ZM62.6962 109.745L55.9352 110.638L56.8278 117.399L63.5888 116.506L62.6962 109.745ZM72.7428 94.661L65.9818 95.5536L66.8744 102.315L73.6354 101.422L72.7428 94.661ZM60.911 96.2231L54.15 97.1157L55.0426 103.877L61.8036 102.984L60.911 96.2231ZM70.9576 81.139L64.1966 82.0316L65.0892 88.7926L71.8502 87.9L70.9576 81.139ZM59.1258 82.701L52.3648 83.5936L53.2574 90.3546L60.0184 89.462L59.1258 82.701ZM69.1724 67.6169L62.4114 68.5095L63.304 75.2705L70.065 74.3779L69.1724 67.6169ZM57.3406 69.1789L50.5796 70.0715L51.4722 76.8326L58.2332 75.94L57.3406 69.1789Z" fill="#CDD8EF"/>
<path d="M39.3222 62.9592L78.1982 57.8268L78.6445 61.2073L39.7685 66.3397L39.3222 62.9592Z" fill="#4157AA"/>
</g>
<defs>
<clipPath id="clip0_1005_310">
<rect width="81.8364" height="81.8364" fill="white" transform="translate(177.509 566) rotate(6.67228)"/>
</clipPath>
<clipPath id="clip1_1005_310">
<rect width="81.8364" height="81.8364" fill="white" transform="translate(167.648 228) rotate(16.0664)"/>
</clipPath>
<clipPath id="clip2_1005_310">
<rect width="81.8364" height="81.8364" fill="white" transform="translate(0 64.7112) rotate(-7.52076)"/>
</clipPath>
</defs>
</svg>
