<svg width="290" height="627" viewBox="0 0 290 627" fill="none" xmlns="http://www.w3.org/2000/svg">
<g clip-path="url(#clip0_1005_309)">
<path d="M117.883 -18.746L56.9916 17.0608C56.1909 17.5316 55.9287 18.5713 56.406 19.383L78.8758 57.5941C79.3531 58.4057 80.3891 58.682 81.1898 58.2112L142.081 22.4044C142.882 21.9336 143.144 20.8939 142.667 20.0822L120.197 -18.1289C119.72 -18.9405 118.684 -19.2168 117.883 -18.746Z" fill="#4157AA"/>
<path d="M127.361 7.32627L105.614 20.1144L108.207 24.5234L129.954 11.7352L127.361 7.32627ZM121.312 -2.96133L99.5647 9.82681L102.157 14.2358L123.904 1.44764L121.312 -2.96133ZM65.6621 21.8516L90.3086 7.35835L105.865 33.8122L81.218 48.3054L65.6621 21.8516Z" fill="#CDD8EF"/>
<path d="M82.6679 47.4527L82.1191 46.5195C78.8238 40.9157 81.0194 33.6534 87.0882 30.0847C93.1571 26.5159 100.571 28.1275 103.866 33.7313L104.415 34.6646" fill="#4157AA"/>
<path d="M87.5497 30.8697C91.196 28.7255 92.3963 24.0046 90.2323 20.3246C88.0691 16.6461 83.3601 15.4001 79.7138 17.5443C76.0676 19.6884 74.8658 24.4102 77.029 28.0887C79.193 31.7687 83.9035 33.0138 87.5497 30.8697Z" fill="#4157AA"/>
</g>
<g clip-path="url(#clip1_1005_309)">
<path d="M245.15 133.268C254.497 131.376 260.52 122.161 258.603 112.686C256.686 103.211 247.554 97.0627 238.207 98.9539C228.86 100.845 222.836 110.06 224.753 119.535C226.67 129.01 235.803 135.159 245.15 133.268Z" fill="#4157AA"/>
<path d="M234.578 81.0183L236.945 92.7157M276.296 109.106L264.757 111.441M246.412 139.505L248.779 151.203M218.6 120.78L207.06 123.115M261.483 85.7L255.182 95.3382M227.509 137.673L221.207 147.312M271.815 136.326L262.263 129.893M220.309 101.648L210.755 95.2159" stroke="#4157AA" stroke-width="6.0346" stroke-linecap="round"/>
</g>
<path d="M27.1742 400.878C23.4834 394.06 15.3911 392.109 8.52088 394.375C10.4793 401.256 16.3004 406.877 23.6695 406.61C28.0006 406.455 29.2284 404.673 27.1745 400.88L27.1742 400.878ZM39.9621 406.336C34.0802 407.381 29.702 409.385 27.952 413.376C24.9347 410.232 20.134 409.858 14.2521 410.903C-20.5798 417.091 5.82619 468.823 27.286 465.01C32.055 464.163 34.0209 461.388 36.4063 460.964C38.7899 460.541 41.5913 462.469 46.3604 461.622C66.6283 458.021 74.794 400.148 39.9621 406.336Z" fill="#4157AA"/>
<g clip-path="url(#clip2_1005_309)">
<path d="M187.893 589.306L152.592 614.923L127.409 579.312C120.454 569.479 122.719 555.772 132.467 548.699C142.214 541.625 155.308 546.564 162.263 556.396C172.012 549.322 185.999 548.858 192.952 558.692C199.907 568.525 197.642 582.232 187.893 589.305L187.893 589.306Z" fill="#4157AA"/>
<path d="M155.566 565.978L165.522 567.624L161.135 594.174L151.179 592.528L155.566 565.978Z" fill="#CDD8EF"/>
<path d="M172.448 577.292L170.803 587.248L144.253 582.861L145.898 572.904L172.448 577.292Z" fill="#CDD8EF"/>
</g>
<path d="M87.1702 225.364L101.375 235.966L118.278 230.783L112.155 247.042L122.685 260.944L104.559 260.473L94.0272 274.138L89.1296 257.644L72.2283 252.225L86.9246 242.564L87.1702 225.364ZM61.5382 264.047L71.7204 271.582L84.1377 268.05L79.6673 279.588L87.3653 289.713L74.2028 289.242L66.5048 299.367L62.7811 287.358L50.3638 283.355L61.291 276.527L61.5382 264.047Z" fill="#4157AA"/>
<defs>
<clipPath id="clip0_1005_309">
<rect width="80.7305" height="81.8364" fill="white" transform="translate(44 4.92188) rotate(-30.4573)"/>
</clipPath>
<clipPath id="clip1_1005_309">
<rect width="80.7305" height="81.8364" fill="white" transform="translate(194 84.0103) rotate(-11.4385)"/>
</clipPath>
<clipPath id="clip2_1005_309">
<rect width="80.7305" height="80.7305" fill="white" transform="translate(125.106 533.67) rotate(9.38306)"/>
</clipPath>
</defs>
</svg>
