<svg width="474" height="131" viewBox="0 0 474 131" fill="none" xmlns="http://www.w3.org/2000/svg">
<path d="M156.926 68.1664C156.926 55.8779 162.103 49.3859 171.767 49.3859C176.484 49.3859 180.626 51.0089 184.078 54.139V33.6195H187.874V85.9036H184.653L184.423 80.9186C180.741 84.8602 176.369 86.7151 171.307 86.7151C161.988 86.7151 156.926 80.1071 156.926 68.1664ZM184.193 76.977V58.5443C180.971 54.7186 177.29 52.8638 172.573 52.8638C164.864 52.8638 160.953 57.9646 160.953 68.0505C160.953 78.0204 164.749 83.2372 172.228 83.2372C176.829 83.3531 180.741 81.2664 184.193 76.977Z" fill="white"/>
<path d="M197.998 76.0495C197.998 68.6301 202.946 64.9203 212.725 64.9203C215.026 64.9203 219.282 65.1522 223.309 65.7318V63.6451C223.309 55.8779 220.203 52.7478 212.38 52.7478C207.547 52.7478 203.981 53.9071 200.299 56.2256V52.4C203.751 50.3133 207.778 49.2699 212.725 49.2699C222.849 49.2699 227.106 53.4433 227.106 63.1814V85.7876H223.769L223.539 80.223C219.743 84.3964 215.141 86.5991 209.503 86.5991C202.14 86.715 197.998 82.7734 197.998 76.0495ZM223.424 76.3973V69.0938C219.513 68.5141 215.256 68.2823 213.07 68.2823C205.592 68.2823 202.025 70.8327 202.025 76.0495C202.025 80.8026 204.901 83.3531 210.309 83.3531C215.371 83.3531 219.743 81.0345 223.424 76.3973Z" fill="white"/>
<path d="M239.991 36.6337H244.363V41.8505H239.991V36.6337ZM240.106 50.1974H243.903V85.7876H240.106V50.1974Z" fill="white"/>
<path d="M256.443 83.3531V79.4115C259.895 81.9619 264.612 83.2372 269.904 83.2372C276.807 83.2372 280.258 80.9186 280.258 76.2814C280.258 72.6876 278.187 71.1805 272.32 69.9053L267.028 68.8619C260.125 67.4708 257.248 64.9203 257.248 59.7035C257.248 52.8637 262.08 49.2699 270.939 49.2699C275.081 49.2699 279.338 50.0814 282.214 51.7044V55.7619C279.108 53.7911 275.081 52.7478 270.939 52.7478C264.497 52.7478 261.16 55.0664 261.16 59.3557C261.16 62.4858 262.771 63.9929 268.638 65.1522L273.815 66.1956C281.179 67.7026 284.055 70.6009 284.055 76.0495C284.055 83.0053 279.338 86.5991 269.789 86.5991C264.612 86.715 259.549 85.5557 256.443 83.3531Z" fill="white"/>
<path d="M295.675 50.1974L307.41 80.339L319.029 50.1974H323.056L306.834 91.9319C304.533 97.7284 302.117 99.931 297.515 99.931C296.25 99.931 295.214 99.8151 294.294 99.4673V96.1053C295.099 96.3372 296.135 96.5691 297.055 96.5691C300.162 96.5691 301.657 95.1779 303.268 91.0045C305.109 86.1354 305.224 85.9036 305.224 85.3239C305.224 84.8602 305.109 84.6284 304.994 84.1646L291.648 50.3133H295.675V50.1974Z" fill="white"/>
<path d="M330.649 68.1664C330.649 55.8779 335.827 49.3859 345.491 49.3859C350.208 49.3859 354.349 51.0089 357.801 54.139V33.6195H361.597V85.9036H358.376L358.146 80.9186C354.464 84.8602 350.093 86.7151 345.03 86.7151C335.712 86.7151 330.649 80.1071 330.649 68.1664ZM357.801 76.977V58.5443C354.58 54.7186 350.898 52.8638 346.181 52.8638C338.473 52.8638 334.561 57.9646 334.561 68.0505C334.561 78.0204 338.358 83.2372 345.836 83.2372C350.553 83.3531 354.464 81.2664 357.801 76.977Z" fill="#A9E4ED"/>
<path d="M371.722 68.0505C371.722 55.646 377.359 49.3859 388.059 49.3859C398.183 49.3859 403.36 54.9505 403.36 65.5C403.36 66.6593 403.245 67.7027 403.13 68.746H375.633C375.748 78.6 380.35 83.2372 390.014 83.2372C394.616 83.2372 398.068 82.1938 401.289 80.1071V83.9328C398.183 85.6717 394.501 86.5991 389.899 86.5991C377.589 86.7151 371.722 80.6867 371.722 68.0505ZM399.563 65.3841C399.448 56.8053 395.997 52.7478 388.174 52.7478C380.235 52.7478 376.094 56.9213 375.518 65.3841H399.563Z" fill="#A9E4ED"/>
<path d="M416.936 81.4983L416.476 85.9036H413.484V33.6195H417.281V54.7186C420.847 51.1248 425.104 49.3859 429.936 49.3859C439.37 49.3859 444.432 55.9938 444.432 67.9346C444.432 80.1071 439.255 86.7151 429.591 86.7151C424.644 86.7151 420.502 84.9762 416.936 81.4983ZM440.636 67.9346C440.636 57.9646 436.839 52.7478 429.361 52.7478C424.644 52.7478 420.732 54.7186 417.281 59.008V77.5567C420.502 81.4983 424.184 83.3531 428.901 83.3531C436.724 83.3531 440.636 78.1363 440.636 67.9346Z" fill="#A9E4ED"/>
<path d="M458.123 77.2089V53.4434H450.99V50.1974H458.238L458.698 39.6478H461.92V50.1974H473.195V53.4434H461.92V76.7452C461.92 81.4983 463.53 83.2372 468.132 83.2372C470.088 83.2372 471.699 83.0053 473.195 82.1938V85.7876C471.584 86.3673 469.743 86.5992 467.672 86.5992C461.114 86.7151 458.123 83.9328 458.123 77.2089Z" fill="#A9E4ED"/>
<path d="M84.5607 28.1708C80.1888 45.908 66.7282 63.9929 66.7282 63.9929C66.7282 63.9929 63.2767 41.6186 67.7636 23.9973C72.2505 6.37611 79.1534 -0.811501 82.6049 0.115932C86.0563 1.04337 88.9325 10.5496 84.5607 28.1708Z" fill="#DDF4F7"/>
<path d="M63.3918 23.9974C68.4539 41.5027 66.0379 63.993 66.0379 63.993C66.0379 63.993 51.7719 46.3717 46.7097 28.9823C41.6476 11.593 44.1787 1.85491 47.5151 0.811549C50.8515 -0.231813 58.3296 6.60801 63.3918 23.9974Z" fill="#DDF4F7"/>
<path d="M41.9927 32.1124C55.7985 43.9372 66.0379 63.9929 66.0379 63.9929C66.0379 63.9929 44.6388 57.1531 30.833 45.3283C17.0272 33.5036 13.8058 24.1133 16.1068 21.4469C18.4078 18.7806 28.1869 20.2876 41.9927 32.1124Z" fill="#DDF4F7"/>
<path d="M28.6471 50.3133C46.5947 52.6319 66.0379 63.9929 66.0379 63.9929C66.0379 63.9929 44.2937 70.0213 26.4612 67.7027C8.62864 65.3841 0.690294 59.1239 1.15049 55.646C1.61068 52.1682 10.6995 47.9947 28.6471 50.3133Z" fill="#DDF4F7"/>
<path d="M27.3815 73.4992C43.6034 65.5 66.0379 64.1089 66.0379 64.1089C66.0379 64.1089 51.1966 81.1505 35.0898 89.1496C18.983 97.1487 8.97378 96.3372 7.3631 93.0912C5.75242 89.8452 11.1597 81.4983 27.3815 73.4992Z" fill="#DDF4F7"/>
<path d="M38.8864 93.323C48.0903 77.6726 66.0379 63.9929 66.0379 63.9929C66.0379 63.9929 63.0466 86.4832 53.8427 102.134C44.6388 117.784 36.0102 122.653 32.9039 120.798C29.7976 118.943 29.6825 108.973 38.8864 93.323Z" fill="#ABE5ED"/>
<path d="M59.0199 103.525C58.2146 85.3239 66.0379 64.1089 66.0379 64.1089C66.0379 64.1089 75.5869 84.6284 76.3922 102.829C77.1976 121.03 72.3655 129.725 68.799 129.957C65.2325 130.189 59.8252 121.61 59.0199 103.525Z" fill="#ABE5ED"/>
<path d="M80.534 101.554C70.7549 86.2513 66.7282 63.9929 66.7282 63.9929C66.7282 63.9929 85.251 76.7451 95.0301 92.0478C104.809 107.35 105.154 117.32 102.163 119.291C99.1719 121.262 90.3131 116.857 80.534 101.554Z" fill="#ABE5ED"/>
<path d="M98.7117 87.8743C82.1447 80.4549 66.7282 63.9929 66.7282 63.9929C66.7282 63.9929 89.1626 64.4566 105.73 71.8761C122.297 79.2956 127.934 87.4106 126.553 90.6566C125.173 93.9027 115.164 95.1779 98.7117 87.8743Z" fill="#ABE5ED"/>
<path d="M106.42 65.9637C88.5874 69.0938 66.7282 63.9929 66.7282 63.9929C66.7282 63.9929 85.7112 51.8204 103.544 48.6903C121.376 45.5602 130.58 49.154 131.27 52.7478C131.961 56.3416 124.252 62.8336 106.42 65.9637Z" fill="#ABE5ED"/>
<path d="M101.128 43.9372C87.782 56.2257 66.7282 63.9929 66.7282 63.9929C66.7282 63.9929 76.0471 43.3575 89.3927 31.069C102.738 18.7805 112.402 16.6938 114.818 19.3602C117.234 22.0266 114.358 31.5327 101.128 43.9372Z" fill="#ABE5ED"/>
<path d="M74.3214 26.7796C74.3214 44.9805 65.6927 65.8478 65.6927 65.8478C65.6927 65.8478 57.0641 44.9805 57.0641 26.7796C57.0641 8.57876 62.1262 0 65.5777 0C69.0291 0 74.3214 8.57876 74.3214 26.7796Z" fill="white"/>
<path d="M51.7718 28.2867C61.551 43.5894 65.5777 65.8478 65.5777 65.8478C65.5777 65.8478 47.0549 53.0956 37.2757 37.7929C27.4966 22.4903 27.1515 12.5204 30.1427 10.5496C33.134 8.57877 41.9927 12.9841 51.7718 28.2867Z" fill="white"/>
<path d="M33.5942 42.0823C50.1612 49.5018 65.5777 65.8478 65.5777 65.8478C65.5777 65.8478 43.1432 65.3841 26.5762 57.9646C10.0092 50.5452 4.37184 42.5461 5.75242 39.1841C7.133 35.8222 17.1422 34.7788 33.5942 42.0823Z" fill="white"/>
<path d="M25.8859 63.9929C43.7184 60.8629 65.5777 65.8478 65.5777 65.8478C65.5777 65.8478 46.5947 78.0204 28.8772 81.1505C11.1597 84.2806 1.84078 80.6868 1.15049 77.0929C0.460194 73.4991 8.0534 67.0071 25.8859 63.9929Z" fill="white"/>
<path d="M31.1782 86.0195C44.5238 73.615 65.5777 65.8478 65.5777 65.8478C65.5777 65.8478 56.2588 86.4832 43.0282 98.7717C29.7976 111.06 20.0185 113.147 17.6024 110.481C15.1864 107.814 17.9476 98.3079 31.1782 86.0195Z" fill="white"/>
<path d="M47.7451 101.67C52.232 84.0487 65.5777 65.8478 65.5777 65.8478C65.5777 65.8478 69.0291 88.2221 64.5422 105.959C60.0553 123.696 53.1524 130.652 49.701 129.841C46.2495 129.029 43.3733 119.407 47.7451 101.67Z" fill="white"/>
<path d="M68.9141 105.843C63.8519 88.3381 66.2679 65.8478 66.2679 65.8478C66.2679 65.8478 80.4189 83.469 85.5961 100.974C90.7733 118.48 88.2422 128.102 84.7908 129.145C81.3393 130.188 74.0913 123.349 68.9141 105.843Z" fill="white"/>
<path d="M90.3131 97.8443C76.5073 86.0195 66.2679 65.9637 66.2679 65.9637C66.2679 65.9637 87.667 72.8036 101.473 84.6283C115.279 96.4531 118.5 105.727 116.199 108.51C113.898 111.292 104.119 109.553 90.3131 97.8443Z" fill="white"/>
<path d="M103.659 79.5274C85.7111 77.2088 66.2679 65.8478 66.2679 65.8478C66.2679 65.8478 88.0121 59.8194 105.845 62.2539C123.677 64.6885 131.5 70.8327 131.155 74.3106C130.81 77.7885 121.606 81.846 103.659 79.5274Z" fill="white"/>
<path d="M104.924 56.4575C88.7024 64.4567 66.2679 65.8478 66.2679 65.8478C66.2679 65.8478 81.1092 48.8062 97.216 40.6912C113.323 32.5761 123.332 33.5035 124.943 36.6336C126.553 39.7637 121.146 48.4584 104.924 56.4575Z" fill="white"/>
<path d="M93.4194 36.6337C84.2155 52.2841 66.2679 65.9637 66.2679 65.9637C66.2679 65.9637 69.3743 43.4735 78.4631 27.823C87.5519 12.1726 96.4107 7.30357 99.4019 9.0425C102.393 10.7814 102.623 20.8673 93.4194 36.6337Z" fill="white"/>
<path d="M66.1529 77.0929C72.8246 77.0929 78.233 71.6431 78.233 64.9204C78.233 58.1976 72.8246 52.7478 66.1529 52.7478C59.4813 52.7478 54.0728 58.1976 54.0728 64.9204C54.0728 71.6431 59.4813 77.0929 66.1529 77.0929Z" fill="#FBF626"/>
</svg>
