<svg width="131" height="80" viewBox="0 0 131 80" fill="none" xmlns="http://www.w3.org/2000/svg">
<path d="M42.8675 47.982C47.1067 47.982 51.1723 49.6671 54.17 52.6665C57.1676 55.666 58.8516 59.7341 58.8516 63.976C58.8516 68.2179 57.1676 72.286 54.17 75.2855C51.1723 78.2849 47.1067 79.97 42.8675 79.97C51.3605 79.97 59.5058 76.5941 65.5113 70.5848C71.5168 64.5756 74.8907 56.4254 74.8907 47.927C74.8907 39.4287 71.5168 31.2784 65.5113 25.2692C59.5058 19.26 51.3605 15.884 42.8675 15.884H30.9693V0L0 30.9884L30.9693 61.9768V47.982H42.8675Z" fill="#AAE3EC"/>
<path d="M128.523 6.93768H44.8862C43.9262 6.93768 43.1479 7.71642 43.1479 8.67703V55.3795C43.1479 56.3401 43.9262 57.1189 44.8862 57.1189H128.523C129.483 57.1189 130.261 56.3401 130.261 55.3795V8.67703C130.261 7.71642 129.483 6.93768 128.523 6.93768Z" fill="white"/>
<path d="M128.532 7.67714C128.797 7.67714 129.052 7.78246 129.239 7.96992C129.426 8.15739 129.532 8.41165 129.532 8.67676V55.3792C129.532 55.6444 129.426 55.8986 129.239 56.0861C129.052 56.2736 128.797 56.3789 128.532 56.3789H44.8855C44.6205 56.3789 44.3664 56.2736 44.1791 56.0861C43.9917 55.8986 43.8865 55.6444 43.8865 55.3792V8.67676C43.8865 8.41165 43.9917 8.15739 44.1791 7.96992C44.3664 7.78246 44.6205 7.67714 44.8855 7.67714H128.522H128.532ZM128.522 6.19769H44.8855C44.2284 6.19769 43.5982 6.45888 43.1336 6.9238C42.669 7.38871 42.408 8.01927 42.408 8.67676V55.3792C42.408 56.0367 42.669 56.6673 43.1336 57.1322C43.5982 57.5971 44.2284 57.8583 44.8855 57.8583H128.522C129.18 57.8583 129.81 57.5971 130.274 57.1322C130.739 56.6673 131 56.0367 131 55.3792V8.67676C131 8.01927 130.739 7.38871 130.274 6.9238C129.81 6.45888 129.18 6.19769 128.522 6.19769Z" fill="#C8C6C5"/>
<path d="M124.996 12.4153H114.636V22.7815H124.996V12.4153Z" fill="#00C6E1"/>
<path d="M80.9298 28.2694H49.6309V36.1964H80.9298V28.2694Z" fill="#DCF3F7"/>
<path d="M90.1506 39.995H49.6309V47.922H90.1506V39.995Z" fill="#DCF3F7"/>
</svg>
