<svg width="300" height="300" viewBox="0 0 300 300" fill="none" xmlns="http://www.w3.org/2000/svg">
<path d="M237.576 161.913C229.936 161.953 223.296 163.793 217.736 166.513C215.695 162.473 213.655 158.873 213.295 156.233C212.895 153.153 212.415 151.273 212.895 147.593C213.375 143.912 215.535 138.672 215.495 138.272C215.455 137.872 215.015 135.992 210.615 135.952C206.215 135.912 202.415 136.792 201.975 137.952C201.535 139.112 200.695 141.752 200.135 144.472C199.375 148.473 191.335 162.753 186.735 170.233C185.255 167.313 183.975 164.753 183.695 162.713C183.295 159.633 182.815 157.753 183.295 154.073C183.775 150.393 185.935 145.153 185.895 144.753C185.855 144.352 185.415 142.472 181.014 142.432C176.614 142.392 172.814 143.272 172.374 144.432C171.934 145.593 171.454 148.313 170.534 150.953C169.614 153.593 158.934 177.433 156.134 183.594C154.694 186.754 153.454 189.274 152.574 190.994C152.574 190.994 152.534 191.114 152.414 191.314C151.654 192.794 151.214 193.594 151.214 193.594C151.214 193.594 151.214 193.594 151.214 193.634C150.614 194.714 149.974 195.714 149.654 195.714C149.414 195.714 148.973 192.834 149.734 188.914C151.334 180.634 155.134 167.753 155.094 167.313C155.094 167.073 155.814 164.833 152.614 163.673C149.494 162.513 148.373 164.433 148.093 164.433C147.813 164.433 147.613 165.113 147.613 165.113C147.613 165.113 151.094 150.633 140.973 150.633C134.653 150.633 125.933 157.553 121.613 163.793C118.893 165.273 113.092 168.433 106.892 171.833C104.532 173.153 102.092 174.473 99.812 175.713C99.652 175.553 99.492 175.353 99.332 175.193C87.0916 162.113 64.451 152.873 65.411 135.312C65.771 128.912 67.9711 112.112 108.892 91.7109C142.573 75.1104 169.374 79.7106 174.014 89.9109C180.654 104.471 159.654 131.512 124.853 135.432C111.572 136.912 104.612 131.792 102.852 129.872C101.012 127.872 100.732 127.752 100.052 128.152C98.932 128.752 99.652 130.552 100.052 131.592C101.092 134.312 105.372 139.112 112.612 141.472C119.013 143.552 134.573 144.713 153.414 137.432C174.494 129.272 190.975 106.591 186.135 87.5908C181.294 68.3102 149.293 61.95 119.013 72.7103C101.012 79.1105 81.4915 89.1908 67.451 102.311C50.7705 117.912 48.1305 131.472 49.2105 137.152C53.0906 157.313 80.8914 170.433 92.0118 180.154C91.4518 180.474 90.9317 180.754 90.4917 180.994C84.9316 183.754 63.7309 194.834 58.4508 206.554C52.4506 219.835 59.4108 229.355 64.0109 230.635C78.2914 234.595 92.9718 227.475 100.852 215.715C108.732 203.954 107.772 188.674 104.132 181.674C104.092 181.594 104.052 181.514 103.972 181.434C105.412 180.594 106.892 179.714 108.332 178.874C111.172 177.193 113.972 175.633 116.373 174.353C115.012 178.074 114.012 182.514 113.532 188.914C112.932 196.434 116.012 206.194 120.053 210.034C121.853 211.715 123.973 211.755 125.333 211.755C130.053 211.755 132.173 207.834 134.533 203.194C137.413 197.514 140.013 190.914 140.013 190.914C140.013 190.914 136.773 208.754 145.573 208.754C148.773 208.754 152.014 204.594 153.454 202.474V202.514C153.454 202.514 153.534 202.394 153.694 202.114C154.014 201.594 154.214 201.274 154.214 201.274V201.194C155.494 198.954 158.374 193.874 162.654 185.434C168.174 174.553 173.494 160.953 173.494 160.953C173.494 160.953 173.974 164.273 175.614 169.793C176.574 173.033 178.574 176.593 180.174 180.034C178.894 181.834 178.094 182.834 178.094 182.834C178.094 182.834 178.094 182.834 178.134 182.874C177.094 184.234 175.974 185.714 174.734 187.154C170.374 192.354 165.174 198.314 164.454 200.034C163.614 202.074 163.814 203.554 165.414 204.754C166.574 205.634 168.654 205.754 170.774 205.634C174.694 205.354 177.454 204.394 178.814 203.794C180.934 203.034 183.415 201.874 185.735 200.154C190.015 196.994 192.615 192.474 192.375 186.514C192.255 183.234 191.175 179.954 189.855 176.873C190.255 176.313 190.615 175.753 191.015 175.193C197.775 165.313 203.015 154.473 203.015 154.473C203.015 154.473 203.495 157.793 205.135 163.313C205.935 166.113 207.575 169.153 209.015 172.113C202.655 177.273 198.735 183.274 197.335 187.194C194.815 194.474 196.775 197.754 200.495 198.514C202.175 198.874 204.575 198.074 206.335 197.314C208.575 196.594 211.215 195.354 213.735 193.514C218.016 190.354 222.136 185.954 221.896 179.994C221.776 177.273 221.056 174.593 220.056 171.993C225.456 169.753 232.416 168.513 241.296 169.553C260.337 171.793 264.097 183.674 263.377 188.674C262.657 193.674 258.657 196.394 257.337 197.234C256.017 198.074 255.577 198.354 255.697 198.954C255.857 199.834 256.497 199.794 257.617 199.634C259.177 199.354 267.617 195.594 267.977 186.394C268.577 174.633 257.377 161.793 237.576 161.913ZM90.6917 211.435C84.3716 218.315 75.5713 220.915 71.7712 218.715C67.691 216.355 69.2911 206.194 77.0513 198.914C81.7715 194.474 87.8517 190.354 91.8918 187.834C92.8118 187.274 94.1718 186.474 95.8119 185.474C96.0919 185.314 96.2519 185.234 96.2519 185.234C96.5719 185.034 96.8919 184.834 97.2119 184.634C100.052 195.034 97.3319 204.194 90.6917 211.435ZM136.693 180.154C134.493 185.514 129.893 199.234 127.093 198.474C124.693 197.834 123.213 187.434 126.613 177.153C128.333 171.993 131.973 165.833 134.093 163.433C137.533 159.593 141.333 158.313 142.253 159.873C143.413 161.913 138.053 176.793 136.693 180.154ZM174.654 198.314C173.734 198.794 172.854 199.114 172.454 198.874C172.174 198.714 172.854 198.074 172.854 198.074C172.854 198.074 177.614 192.954 179.494 190.634C180.574 189.274 181.854 187.674 183.215 185.874V186.394C183.215 192.514 177.294 196.634 174.654 198.314ZM203.935 191.634C203.255 191.154 203.375 189.554 205.655 184.554C206.535 182.594 208.615 179.314 212.175 176.153C212.575 177.433 212.855 178.674 212.815 179.834C212.775 187.554 207.255 190.434 203.935 191.634Z" fill="#CD6799"/>
</svg>
