<svg width="300" height="300" viewBox="0 0 300 300" fill="none" xmlns="http://www.w3.org/2000/svg">
<path d="M107.751 66H92.2962C89.7672 66 87.8003 67.967 87.8003 70.4959V96.3473C87.8003 98.8762 89.7672 100.843 92.2962 100.843H107.751V230.381C107.751 232.91 109.718 234.877 112.247 234.877H143.156C145.685 234.877 147.652 232.91 147.652 230.381V70.4959C147.652 67.967 145.685 66 143.156 66H107.751V66Z" fill="#3498DB"/>
<path d="M172.099 66H156.644C154.115 66 152.148 67.967 152.148 70.4959V96.3473C152.148 98.8762 154.115 100.843 156.644 100.843H172.099V131.19C172.099 133.719 174.066 135.686 176.595 135.686H207.504C210.033 135.686 212 133.719 212 131.19V70.4959C212 67.967 210.033 66 207.504 66H172.099V66Z" fill="#F39C12"/>
<path opacity="0.4" d="M172.099 129.505L212 109.835L172.099 118.546V129.505Z" fill="black"/>
<g opacity="0.4">
<path opacity="0.4" d="M147.371 178.116L107.751 197.786L147.371 189.075V178.116Z" fill="black"/>
</g>
<path d="M212 109.554L107.751 153.67V198.067L209.19 155.356C210.876 154.794 212 153.108 212 151.422V109.554V109.554Z" fill="#E74C3C"/>
</svg>
