<svg width="300" height="300" viewBox="0 0 300 300" fill="none" xmlns="http://www.w3.org/2000/svg">
<path d="M213.269 122.104C213.269 112.43 210.735 103.359 206.272 95.4985C194.438 83.3185 168.696 80.4967 162.303 95.4409C155.738 110.759 173.331 127.806 181.019 126.452C190.81 124.725 179.292 102.265 179.292 102.265C194.265 130.484 190.81 121.845 163.743 147.76C136.676 173.675 109.034 228.355 105.003 230.659C104.83 230.774 104.657 230.86 104.456 230.947H210.62C212.492 230.947 213.701 228.96 212.866 227.29L185.108 172.35C184.504 171.17 184.935 169.701 186.087 169.039C202.327 159.71 213.269 142.203 213.269 122.104Z" fill="url(#paint0_linear_712_211)"/>
<path d="M213.269 122.104C213.269 112.43 210.735 103.359 206.272 95.4985C194.438 83.3185 168.696 80.4967 162.303 95.4409C155.738 110.759 173.331 127.806 181.019 126.452C190.81 124.725 179.292 102.265 179.292 102.265C194.265 130.484 190.81 121.845 163.743 147.76C136.676 173.675 109.034 228.355 105.003 230.659C104.83 230.774 104.657 230.86 104.456 230.947H210.62C212.492 230.947 213.701 228.96 212.866 227.29L185.108 172.35C184.504 171.17 184.935 169.701 186.087 169.039C202.327 159.71 213.269 142.203 213.269 122.104Z" fill="url(#paint1_linear_712_211)"/>
<path d="M105.003 230.659C109.034 228.355 136.676 173.646 163.743 147.731C190.81 121.816 194.265 130.455 179.292 102.236C179.292 102.236 121.991 182.572 101.26 222.308" fill="url(#paint2_linear_712_211)"/>
<path d="M113.065 158.673C151.765 87.5225 156.833 80.3527 176.989 80.3527C187.585 80.3527 198.267 85.1326 205.178 93.6269C195.762 78.4523 179.091 68.2879 160 68H94.2627C92.8805 68 91.7576 69.123 91.7576 70.5051V203.016C95.6736 192.909 102.325 178.455 113.065 158.673Z" fill="url(#paint3_linear_712_211)"/>
<path d="M163.743 147.731C136.676 173.646 109.034 228.355 105.003 230.659C100.972 232.962 94.2049 233.25 90.6056 229.219C86.776 224.929 80.8156 217.989 113.065 158.673C151.765 87.5225 156.832 80.3527 176.988 80.3527C187.585 80.3527 198.267 85.1326 205.178 93.6269C205.552 94.2316 205.927 94.865 206.301 95.4985C194.466 83.3185 168.724 80.4967 162.332 95.4409C155.767 110.759 173.36 127.806 181.048 126.452C190.838 124.725 179.321 102.265 179.321 102.265C194.265 130.455 190.81 121.816 163.743 147.731Z" fill="url(#paint4_linear_712_211)"/>
<path opacity="0.3" d="M116.233 161.84C154.932 90.6899 160 83.5201 180.156 83.5201C188.88 83.5201 197.663 86.7738 204.343 92.6479C197.432 84.7583 187.182 80.3527 176.988 80.3527C156.832 80.3527 151.765 87.5225 113.065 158.673C80.8156 217.989 86.776 224.929 90.6056 229.219C91.1527 229.824 91.7862 230.342 92.4485 230.774C89.0795 225.879 87.5822 214.505 116.233 161.84Z" fill="url(#paint5_linear_712_211)"/>
<defs>
<linearGradient id="paint0_linear_712_211" x1="133.644" y1="155.52" x2="178.575" y2="161.381" gradientUnits="userSpaceOnUse">
<stop stop-color="#FF6533"/>
<stop offset="0.157" stop-color="#FF5633"/>
<stop offset="0.434" stop-color="#FF4333"/>
<stop offset="0.714" stop-color="#FF3733"/>
<stop offset="1" stop-color="#FF3333"/>
</linearGradient>
<linearGradient id="paint1_linear_712_211" x1="126.708" y1="140.821" x2="216.107" y2="179.495" gradientUnits="userSpaceOnUse">
<stop stop-color="#BF3338"/>
<stop offset="1" stop-color="#FF3333"/>
</linearGradient>
<linearGradient id="paint2_linear_712_211" x1="129.301" y1="152.959" x2="143.38" y2="159.718" gradientUnits="userSpaceOnUse">
<stop stop-color="#FF6533"/>
<stop offset="0.157" stop-color="#FF5633"/>
<stop offset="0.434" stop-color="#FF4333"/>
<stop offset="0.714" stop-color="#FF3733"/>
<stop offset="1" stop-color="#FF3333"/>
</linearGradient>
<linearGradient id="paint3_linear_712_211" x1="150.242" y1="173.778" x2="145.359" y2="124.393" gradientUnits="userSpaceOnUse">
<stop stop-color="#FF6533"/>
<stop offset="0.157" stop-color="#FF5633"/>
<stop offset="0.434" stop-color="#FF4333"/>
<stop offset="0.714" stop-color="#FF3733"/>
<stop offset="1" stop-color="#FF3333"/>
</linearGradient>
<linearGradient id="paint4_linear_712_211" x1="135.273" y1="152.111" x2="153.167" y2="159.543" gradientUnits="userSpaceOnUse">
<stop stop-color="#FBB040"/>
<stop offset="1" stop-color="#FB8840"/>
</linearGradient>
<linearGradient id="paint5_linear_712_211" x1="152.033" y1="89.2093" x2="124.588" y2="271.297" gradientUnits="userSpaceOnUse">
<stop stop-color="white"/>
<stop offset="1" stop-color="white" stop-opacity="0"/>
</linearGradient>
</defs>
</svg>
