<svg width="382" height="120" viewBox="0 0 382 120" fill="none" xmlns="http://www.w3.org/2000/svg">
<path d="M174.738 83.1073L174.351 84.4633H168.539L162.921 77.1018C159.821 79.0391 156.141 80.0077 152.654 80.0077C142.774 80.0077 132.894 72.6462 132.894 57.9233C132.894 43.2003 142.774 35.8389 152.654 35.8389C162.533 35.8389 172.413 43.2003 172.413 57.9233C172.413 66.6408 168.926 72.6462 164.277 76.3269L169.508 83.1073H174.738ZM152.654 78.6516C155.947 78.6516 159.24 77.8767 161.952 75.9395L152.266 62.7663H154.203L163.308 74.9709C167.764 71.4839 170.864 65.8659 170.864 57.7295C170.864 43.9752 161.759 37.0012 152.654 37.0012C143.549 37.0012 134.444 43.9752 134.444 57.7295C134.444 71.4839 143.549 78.6516 152.654 78.6516V78.6516ZM202.44 72.4525C199.728 77.4893 195.273 80.2014 190.817 80.2014C185.393 80.2014 180.162 76.3269 180.162 68.578V48.6246H181.712V68.3843C181.712 75.1646 186.168 78.6516 190.817 78.6516C196.629 78.6516 202.828 73.6148 202.828 63.9287V48.8183H204.378V79.6202H202.828V72.4525H202.44V72.4525ZM213.87 56.9547C214.645 51.143 219.682 48.2371 224.719 48.2371C230.143 48.2371 235.567 51.7241 235.567 58.6982V78.2642H239.635L239.248 79.6202H234.017V73.4211H233.63C230.724 77.4893 226.849 80.2014 221.425 80.2014C215.807 80.2014 212.514 76.1332 212.514 72.065C212.514 67.8031 215.614 63.5412 222.394 63.5412H234.017V58.8919C234.017 52.6927 229.368 49.7869 224.719 49.7869C220.263 49.7869 216.001 52.3053 215.42 57.5358L213.87 56.9547V56.9547ZM234.017 66.2534V64.8973H222.394C216.582 64.8973 214.064 68.3843 214.064 72.065C214.064 75.3583 216.776 78.8453 221.232 78.8453C227.624 78.6516 234.017 73.8085 234.017 66.2534ZM270.437 73.0337H270.05C267.144 77.8767 262.688 80.2014 258.233 80.2014C251.259 80.2014 244.478 74.3897 244.478 64.1224C244.478 53.8551 251.259 48.0434 258.233 48.0434C262.688 48.0434 267.144 50.3681 270.05 55.2111H270.437V35.064H271.987V79.4265H270.437V73.0337ZM258.233 78.6516C264.432 78.6516 270.437 73.8085 270.437 64.1224C270.437 54.4363 264.238 49.5932 258.233 49.5932C252.033 49.5932 246.028 54.4363 246.028 64.1224C246.028 73.8085 252.227 78.6516 258.233 78.6516ZM284.191 53.8551C286.322 50.1744 289.035 48.6246 293.49 48.6246H295.621L295.234 50.1744H293.49C286.129 50.1744 283.804 55.4049 283.804 63.735V79.4265H282.254V48.6246H283.804V53.8551H284.191ZM302.401 56.9547C303.176 51.143 308.213 48.2371 313.25 48.2371C318.674 48.2371 324.098 51.7241 324.098 58.6982V78.2642H328.167L327.779 79.6202H322.549V73.4211H322.161C319.255 77.4893 315.381 80.2014 309.957 80.2014C304.339 80.2014 301.045 76.1332 301.045 72.065C301.045 67.8031 304.145 63.5412 310.925 63.5412H322.549V58.8919C322.549 52.6927 317.899 49.7869 313.25 49.7869C308.794 49.7869 304.532 52.3053 303.951 57.5358L302.401 56.9547V56.9547ZM322.549 66.2534V64.8973H310.925C305.114 64.8973 302.595 68.3843 302.595 72.065C302.595 75.3583 305.307 78.8453 309.763 78.8453C316.156 78.6516 322.549 73.8085 322.549 66.2534V66.2534ZM336.69 55.7923C339.402 50.7555 343.858 48.0434 348.314 48.0434C353.738 48.0434 358.969 51.9179 358.969 59.6668V79.4265H357.419V59.8605C357.419 53.0802 352.963 49.5932 348.314 49.5932C342.502 49.5932 336.303 54.63 336.303 64.5098V79.6202H334.753V48.6246H336.303V55.7923H336.69V55.7923ZM370.592 48.6246V41.2631H372.142V48.6246H381.634L381.247 49.9806H372.142V78.0704H379.891L379.503 79.4265H370.592V50.1744H364.974L365.361 48.8183H370.592V48.6246ZM183.649 101.317H181.325L181.518 100.542H184.618V100.93C184.618 103.254 183.262 104.998 181.325 104.998C179.387 104.998 177.644 103.642 177.644 100.93C177.644 98.2176 179.581 96.8616 181.325 96.8616C182.293 96.8616 183.456 97.249 184.037 98.2176L183.456 98.7988C182.874 98.0239 182.099 97.6365 181.325 97.6365C179.969 97.6365 178.419 98.7988 178.419 100.93C178.419 103.061 179.775 104.223 181.325 104.223C182.681 104.223 183.649 102.867 183.649 101.317V101.317ZM188.299 104.029H191.979L191.786 104.804H187.524V96.6679H188.299V104.029V104.029ZM197.21 104.998C195.273 104.998 193.335 103.642 193.335 100.93C193.335 98.2176 195.273 96.8616 197.21 96.8616C199.147 96.8616 201.084 98.2176 201.084 100.93C201.084 103.448 199.147 104.998 197.21 104.998ZM197.21 104.223C198.76 104.223 200.116 103.061 200.116 100.93C200.116 98.7988 198.566 97.6365 197.21 97.6365C195.66 97.6365 194.304 98.7988 194.304 100.93C194.304 103.061 195.66 104.223 197.21 104.223ZM207.671 100.736C208.64 101.123 209.027 101.898 209.027 102.673C209.027 103.836 208.058 104.804 206.509 104.804H203.603V96.6679H206.315C207.865 96.6679 208.833 97.6365 208.833 98.7988C208.833 99.5737 208.64 100.349 207.671 100.736V100.736ZM204.571 100.349H206.315C207.477 100.349 207.865 99.5737 207.865 98.7988C207.865 98.0239 207.477 97.249 206.315 97.249H204.571V100.349V100.349ZM204.571 101.123V104.029H206.509C207.477 104.029 208.058 103.254 208.058 102.673C208.058 101.898 207.477 101.317 206.509 101.317L204.571 101.123V101.123ZM216.388 102.867H212.708L211.933 104.804H211.158L214.451 96.6679H214.839L218.132 104.804H217.163L216.388 102.867V102.867ZM213.095 102.092H216.001L214.451 98.4114L213.095 102.092ZM221.619 104.029H225.3L225.106 104.804H220.844V96.6679H221.619V104.029V104.029ZM234.405 100.349H237.892V101.123H234.405V104.029H238.473L238.279 104.804H233.436V96.6679H238.279V97.4427H234.405V100.349V100.349ZM247.384 103.254C246.609 104.417 245.447 104.804 244.285 104.804C242.347 104.804 240.604 103.448 240.604 100.736C240.604 98.0239 242.541 96.6679 244.285 96.6679C245.253 96.6679 246.415 97.0553 246.997 98.0239L246.415 98.6051C245.834 97.8302 245.059 97.4427 244.285 97.4427C242.928 97.4427 241.379 98.6051 241.379 100.736C241.379 102.867 242.735 104.029 244.285 104.029C245.253 104.029 246.028 103.642 246.609 102.673L247.384 103.254V103.254ZM253.39 104.998C251.452 104.998 249.515 103.642 249.515 100.93C249.515 98.2176 251.452 96.8616 253.39 96.8616C255.327 96.8616 257.264 98.2176 257.264 100.93C257.264 103.448 255.327 104.998 253.39 104.998ZM253.39 104.223C254.939 104.223 256.295 103.061 256.295 100.93C256.295 98.7988 254.746 97.6365 253.39 97.6365C251.84 97.6365 250.484 98.7988 250.484 100.93C250.484 103.061 252.033 104.223 253.39 104.223ZM260.557 96.6679L265.4 102.867V96.6679H266.175V104.804H265.788L260.945 98.6051V104.804H260.17V96.6679H260.557ZM272.956 104.998C271.018 104.998 269.081 103.642 269.081 100.93C269.081 98.2176 271.018 96.8616 272.956 96.8616C274.893 96.8616 276.83 98.2176 276.83 100.93C276.83 103.448 274.893 104.998 272.956 104.998ZM272.956 104.223C274.505 104.223 275.861 103.061 275.861 100.93C275.861 98.7988 274.312 97.6365 272.956 97.6365C271.406 97.6365 270.05 98.7988 270.05 100.93C270.05 103.061 271.406 104.223 272.956 104.223ZM279.93 96.6679L283.029 103.254L286.129 96.6679H286.516V104.804H285.741V99.5737L283.223 104.804H282.835L280.317 99.5737V104.804H279.542V96.6679H279.93V96.6679ZM290.972 104.804H290.197V96.6679H290.972V104.804ZM300.852 103.254C300.077 104.417 298.914 104.804 297.752 104.804C295.815 104.804 294.071 103.448 294.071 100.736C294.071 98.0239 296.009 96.6679 297.752 96.6679C298.721 96.6679 299.883 97.0553 300.464 98.0239L299.883 98.6051C299.302 97.8302 298.527 97.4427 297.752 97.4427C296.396 97.4427 294.846 98.6051 294.846 100.736C294.846 102.867 296.202 104.029 297.752 104.029C298.721 104.029 299.496 103.642 300.077 102.673L300.852 103.254V103.254ZM311.7 96.6679C314.606 96.6679 315.768 98.6051 315.768 100.736C315.768 102.673 314.606 104.804 311.7 104.804H309.375V96.6679H311.7ZM311.7 104.029C314.025 104.029 314.993 102.48 314.993 100.736C314.993 99.1863 314.025 97.4427 311.7 97.4427H310.344V104.029H311.7V104.029ZM322.936 102.867H319.255L318.48 104.804H317.706L320.999 96.6679H321.386L324.68 104.804H323.711L322.936 102.867V102.867ZM319.643 102.092H322.549L320.999 98.4114L319.643 102.092ZM329.329 97.4427V104.804H328.554V97.4427H326.036V96.6679H332.041L331.847 97.4427H329.329ZM338.628 102.867H334.947L334.172 104.804H333.203L336.497 96.6679H336.884L340.177 104.804H339.209L338.628 102.867V102.867ZM335.334 102.092H338.24L336.69 98.4114L335.334 102.092Z" fill="#516C79"/>
<path d="M0.581169 29.6396C0.193723 30.2208 0 30.802 0 31.5769V87.9502C0 88.5314 0.193723 89.1126 0.387446 89.6937L52.3052 59.473L0.581169 29.6396Z" fill="#71A8B0"/>
<path d="M104.223 89.6936C104.61 89.1125 104.61 88.5313 104.61 87.9501V31.5768C104.61 30.9956 104.417 30.2207 104.029 29.8333L52.3052 59.4729L104.223 89.6936Z" fill="#52A191"/>
<path d="M52.3052 59.4729V119.14C52.6926 119.14 53.0801 119.14 53.4675 118.946L103.448 90.4686C103.835 90.2748 104.029 89.8874 104.223 89.5L52.3052 59.4729Z" fill="#70C09E"/>
<path d="M0.387344 89.6938C0.581067 90.0812 0.968513 90.4687 1.16224 90.6624L50.949 119.14C51.3365 119.333 51.7239 119.333 52.1114 119.333V59.6667L0.387344 89.6938Z" fill="#A2C6CB"/>
<path d="M104.223 29.6396C103.835 29.0584 103.448 28.671 102.867 28.4773L54.0487 0.387446C53.4675 0.193723 52.8864 0 52.3052 0V59.4729L104.223 29.6396V29.6396Z" fill="#1A7DB0"/>
<path d="M1.7434 28.4773C1.16224 28.8647 0.77479 29.2522 0.387344 29.6396L52.3051 59.4729V0C51.7239 0 51.1427 0.193723 50.5616 0.387446L1.7434 28.4773Z" fill="#005F90"/>
<path d="M52.3052 119.333C52.6926 119.333 53.0801 119.333 53.4675 119.14L103.448 90.6624C103.835 90.4686 104.029 90.0812 104.223 89.6937C104.61 89.1126 104.61 88.5314 104.61 87.9502V31.5769C104.61 30.9957 104.417 30.2208 104.029 29.8334V29.6396L52.3052 59.473V119.333V119.333Z" fill="url(#paint0_linear)"/>
<path d="M52.3052 59.473L0.581169 29.6396C0.193723 30.2208 0 30.802 0 31.5769V87.9502C0 88.5314 0.193723 89.1126 0.387446 89.6937C0.581169 90.0812 0.968615 90.4686 1.16234 90.6624L50.9491 119.14C51.3366 119.333 51.724 119.333 52.1115 119.333C52.3052 119.333 52.3052 59.473 52.3052 59.473V59.473Z" fill="url(#paint1_linear)"/>
<path d="M52.3053 59.4729L104.029 29.6396L102.867 28.4773L54.0488 0.387446C53.4676 0.193723 52.8865 0 52.3053 0C51.7241 0 51.143 0.193723 50.5618 0.387446L1.74361 28.4773C1.16244 28.671 0.774991 29.2522 0.581268 29.6396L52.3053 59.4729Z" fill="url(#paint2_linear)"/>
<defs>
<linearGradient id="paint0_linear" x1="53.328" y1="60.1045" x2="103.793" y2="89.1978" gradientUnits="userSpaceOnUse">
<stop stop-color="#70C09E"/>
<stop offset="1" stop-color="#70C09E" stop-opacity="0.5"/>
</linearGradient>
<linearGradient id="paint1_linear" x1="51.1022" y1="59.9108" x2="1.19915" y2="89.3451" gradientUnits="userSpaceOnUse">
<stop stop-color="#A2C6CB"/>
<stop offset="1" stop-color="#A2C6CB" stop-opacity="0.5"/>
</linearGradient>
<linearGradient id="paint2_linear" x1="52.3343" y1="59.5156" x2="52.3343" y2="0.842693" gradientUnits="userSpaceOnUse">
<stop stop-color="#005F90"/>
<stop offset="0.62" stop-color="#0F70A2" stop-opacity="0.69"/>
<stop offset="1" stop-color="#1A7DB0" stop-opacity="0.5"/>
</linearGradient>
</defs>
</svg>
