<svg width="1440" height="821" viewBox="0 0 1440 821" fill="none" xmlns="http://www.w3.org/2000/svg">
<rect width="1025" height="271.2" transform="translate(208 275.4)" fill="#53B3FC"/>
<path d="M306.4 438.333C321.496 438.333 333.733 426.096 333.733 411C333.733 395.904 321.496 383.667 306.4 383.667C291.304 383.667 279.067 395.904 279.067 411C279.067 426.096 291.304 438.333 306.4 438.333Z" stroke="#071F42" stroke-width="5.46667" stroke-linecap="round" stroke-linejoin="round"/>
<path d="M298.446 402.8C299.089 400.973 300.357 399.433 302.027 398.452C303.696 397.47 305.659 397.112 307.568 397.439C309.477 397.766 311.208 398.759 312.455 400.24C313.702 401.722 314.385 403.597 314.382 405.533C314.382 411 306.182 413.733 306.182 413.733" stroke="#071F42" stroke-width="5.46667" stroke-linecap="round" stroke-linejoin="round"/>
<path d="M306.4 424.667H306.427" stroke="#071F42" stroke-width="5.46667" stroke-linecap="round" stroke-linejoin="round"/>
<path d="M412.322 361.665V393H408.08V378.743H391.177V393H386.935V361.665H391.177V375.638H408.08V361.665H412.322ZM428.068 370.499C429.686 370.499 431.144 370.769 432.442 371.308C433.739 371.848 434.847 372.613 435.765 373.604C436.684 374.596 437.383 375.798 437.864 377.212C438.36 378.612 438.608 380.179 438.608 381.914C438.608 383.663 438.36 385.237 437.864 386.637C437.383 388.036 436.684 389.232 435.765 390.223C434.847 391.214 433.739 391.98 432.442 392.519C431.144 393.044 429.686 393.306 428.068 393.306C426.435 393.306 424.963 393.044 423.651 392.519C422.354 391.98 421.246 391.214 420.327 390.223C419.409 389.232 418.702 388.036 418.206 386.637C417.725 385.237 417.485 383.663 417.485 381.914C417.485 380.179 417.725 378.612 418.206 377.212C418.702 375.798 419.409 374.596 420.327 373.604C421.246 372.613 422.354 371.848 423.651 371.308C424.963 370.769 426.435 370.499 428.068 370.499ZM428.068 390.267C430.255 390.267 431.888 389.538 432.966 388.08C434.045 386.608 434.584 384.559 434.584 381.935C434.584 379.297 434.045 377.241 432.966 375.769C431.888 374.297 430.255 373.561 428.068 373.561C426.96 373.561 425.991 373.75 425.16 374.129C424.344 374.508 423.658 375.055 423.104 375.769C422.565 376.483 422.157 377.365 421.88 378.415C421.618 379.45 421.486 380.623 421.486 381.935C421.486 384.559 422.026 386.608 423.104 388.08C424.198 389.538 425.852 390.267 428.068 390.267ZM473.751 370.849L466.578 393H463.495C463.116 393 462.854 392.752 462.708 392.257L457.81 377.234C457.693 376.899 457.599 376.564 457.526 376.228C457.453 375.878 457.38 375.536 457.307 375.201C457.234 375.536 457.161 375.878 457.088 376.228C457.015 376.564 456.921 376.906 456.804 377.256L451.818 392.257C451.687 392.752 451.396 393 450.944 393H448.014L440.841 370.849H443.903C444.209 370.849 444.464 370.929 444.668 371.09C444.887 371.25 445.033 371.439 445.105 371.658L449.348 385.915C449.595 386.965 449.792 387.956 449.938 388.889C450.069 388.408 450.2 387.92 450.332 387.424C450.477 386.928 450.63 386.425 450.791 385.915L455.47 371.571C455.543 371.352 455.667 371.17 455.842 371.024C456.031 370.878 456.257 370.805 456.52 370.805H458.225C458.517 370.805 458.757 370.878 458.947 371.024C459.137 371.17 459.268 371.352 459.341 371.571L463.911 385.915C464.071 386.425 464.217 386.928 464.348 387.424C464.479 387.92 464.603 388.408 464.72 388.889C464.793 388.408 464.88 387.927 464.982 387.446C465.099 386.95 465.223 386.44 465.354 385.915L469.684 371.658C469.756 371.425 469.895 371.235 470.099 371.09C470.303 370.929 470.544 370.849 470.821 370.849H473.751ZM503.249 374.785C503.133 374.945 503.016 375.069 502.899 375.157C502.783 375.244 502.622 375.288 502.418 375.288C502.2 375.288 501.959 375.201 501.697 375.026C501.434 374.836 501.106 374.632 500.713 374.413C500.334 374.195 499.86 373.998 499.291 373.823C498.737 373.633 498.052 373.539 497.236 373.539C496.143 373.539 495.18 373.735 494.349 374.129C493.519 374.508 492.819 375.062 492.25 375.791C491.696 376.52 491.274 377.402 490.982 378.437C490.705 379.472 490.567 380.631 490.567 381.914C490.567 383.255 490.72 384.45 491.026 385.5C491.332 386.535 491.762 387.409 492.316 388.124C492.884 388.823 493.562 389.363 494.349 389.742C495.151 390.106 496.048 390.289 497.039 390.289C497.987 390.289 498.767 390.179 499.379 389.961C499.991 389.727 500.494 389.472 500.888 389.195C501.296 388.918 501.631 388.67 501.893 388.452C502.17 388.218 502.44 388.102 502.703 388.102C503.023 388.102 503.271 388.226 503.446 388.474L504.539 389.895C504.058 390.493 503.512 391.003 502.899 391.426C502.287 391.848 501.624 392.206 500.909 392.497C500.21 392.774 499.474 392.978 498.701 393.109C497.928 393.241 497.141 393.306 496.339 393.306C494.954 393.306 493.664 393.051 492.469 392.541C491.288 392.031 490.26 391.294 489.386 390.332C488.511 389.356 487.826 388.16 487.33 386.746C486.835 385.332 486.587 383.721 486.587 381.914C486.587 380.266 486.813 378.743 487.265 377.343C487.731 375.944 488.402 374.741 489.276 373.735C490.166 372.715 491.252 371.921 492.535 371.352C493.832 370.783 495.319 370.499 496.995 370.499C498.555 370.499 499.925 370.754 501.106 371.265C502.302 371.76 503.359 372.467 504.277 373.386L503.249 374.785ZM520.722 383.029C518.929 383.087 517.399 383.233 516.13 383.466C514.877 383.685 513.849 383.976 513.047 384.341C512.26 384.705 511.684 385.135 511.32 385.631C510.97 386.127 510.795 386.681 510.795 387.293C510.795 387.876 510.89 388.379 511.079 388.802C511.269 389.224 511.524 389.574 511.845 389.851C512.18 390.114 512.566 390.31 513.003 390.442C513.455 390.558 513.936 390.617 514.447 390.617C515.132 390.617 515.759 390.551 516.327 390.42C516.896 390.274 517.428 390.07 517.923 389.807C518.434 389.545 518.915 389.232 519.367 388.867C519.833 388.503 520.285 388.087 520.722 387.621V383.029ZM508.149 373.976C509.374 372.795 510.693 371.913 512.107 371.33C513.521 370.747 515.088 370.455 516.808 370.455C518.047 370.455 519.148 370.66 520.11 371.068C521.072 371.476 521.881 372.044 522.537 372.773C523.193 373.502 523.689 374.384 524.024 375.419C524.36 376.454 524.527 377.591 524.527 378.83V393H522.8C522.421 393 522.129 392.942 521.925 392.825C521.721 392.694 521.561 392.446 521.444 392.082L521.007 389.982C520.424 390.522 519.855 391.003 519.301 391.426C518.747 391.834 518.164 392.184 517.552 392.475C516.939 392.752 516.283 392.964 515.584 393.109C514.899 393.27 514.133 393.35 513.288 393.35C512.428 393.35 511.619 393.233 510.861 393C510.102 392.752 509.439 392.388 508.871 391.907C508.317 391.426 507.872 390.821 507.537 390.092C507.216 389.348 507.056 388.474 507.056 387.468C507.056 386.593 507.296 385.755 507.777 384.953C508.258 384.137 509.038 383.415 510.117 382.788C511.196 382.161 512.603 381.651 514.337 381.258C516.072 380.849 518.2 380.616 520.722 380.558V378.83C520.722 377.11 520.351 375.813 519.607 374.938C518.864 374.049 517.778 373.604 516.349 373.604C515.387 373.604 514.578 373.728 513.922 373.976C513.28 374.209 512.719 374.479 512.238 374.785C511.772 375.077 511.363 375.346 511.014 375.594C510.678 375.827 510.343 375.944 510.008 375.944C509.745 375.944 509.519 375.878 509.33 375.747C509.14 375.601 508.98 375.426 508.849 375.222L508.149 373.976ZM534.13 374.063C534.611 373.524 535.121 373.036 535.66 372.598C536.2 372.161 536.768 371.789 537.366 371.483C537.978 371.162 538.62 370.922 539.29 370.762C539.975 370.587 540.712 370.499 541.499 370.499C542.709 370.499 543.773 370.703 544.691 371.111C545.624 371.505 546.397 372.074 547.009 372.817C547.636 373.546 548.11 374.428 548.431 375.463C548.751 376.498 548.912 377.642 548.912 378.896V393H544.997V378.896C544.997 377.22 544.611 375.922 543.839 375.004C543.08 374.071 541.922 373.604 540.362 373.604C539.21 373.604 538.131 373.881 537.125 374.435C536.134 374.989 535.216 375.74 534.37 376.687V393H530.456V370.849H532.796C533.35 370.849 533.692 371.119 533.824 371.658L534.13 374.063ZM595.683 370.849L588.511 393H585.428C585.049 393 584.786 392.752 584.64 392.257L579.742 377.234C579.626 376.899 579.531 376.564 579.458 376.228C579.385 375.878 579.312 375.536 579.239 375.201C579.166 375.536 579.094 375.878 579.021 376.228C578.948 376.564 578.853 376.906 578.736 377.256L573.751 392.257C573.62 392.752 573.328 393 572.876 393H569.946L562.774 370.849H565.835C566.141 370.849 566.396 370.929 566.6 371.09C566.819 371.25 566.965 371.439 567.038 371.658L571.28 385.915C571.528 386.965 571.724 387.956 571.87 388.889C572.001 388.408 572.133 387.92 572.264 387.424C572.41 386.928 572.563 386.425 572.723 385.915L577.402 371.571C577.475 371.352 577.599 371.17 577.774 371.024C577.964 370.878 578.19 370.805 578.452 370.805H580.158C580.449 370.805 580.69 370.878 580.879 371.024C581.069 371.17 581.2 371.352 581.273 371.571L585.843 385.915C586.003 386.425 586.149 386.928 586.28 387.424C586.412 387.92 586.535 388.408 586.652 388.889C586.725 388.408 586.812 387.927 586.914 387.446C587.031 386.95 587.155 386.44 587.286 385.915L591.616 371.658C591.689 371.425 591.827 371.235 592.031 371.09C592.235 370.929 592.476 370.849 592.753 370.849H595.683ZM613.999 379.508C613.999 378.604 613.868 377.781 613.606 377.037C613.358 376.279 612.986 375.631 612.491 375.091C612.01 374.537 611.419 374.114 610.719 373.823C610.02 373.517 609.225 373.364 608.336 373.364C606.47 373.364 604.99 373.91 603.897 375.004C602.818 376.082 602.148 377.584 601.885 379.508H613.999ZM617.148 389.895C616.667 390.478 616.091 390.988 615.421 391.426C614.75 391.848 614.029 392.198 613.256 392.475C612.498 392.752 611.711 392.956 610.894 393.087C610.078 393.233 609.269 393.306 608.467 393.306C606.937 393.306 605.522 393.051 604.225 392.541C602.942 392.016 601.827 391.258 600.879 390.267C599.946 389.261 599.218 388.022 598.693 386.549C598.168 385.077 597.906 383.386 597.906 381.476C597.906 379.931 598.139 378.488 598.605 377.147C599.086 375.806 599.772 374.647 600.661 373.67C601.55 372.679 602.636 371.906 603.919 371.352C605.202 370.783 606.645 370.499 608.249 370.499C609.575 370.499 610.8 370.725 611.922 371.177C613.059 371.614 614.036 372.256 614.852 373.101C615.683 373.932 616.332 374.967 616.798 376.206C617.265 377.431 617.498 378.83 617.498 380.405C617.498 381.017 617.433 381.425 617.301 381.629C617.17 381.833 616.922 381.935 616.558 381.935H601.754C601.798 383.335 601.987 384.552 602.323 385.587C602.673 386.622 603.154 387.49 603.766 388.189C604.378 388.874 605.107 389.392 605.953 389.742C606.798 390.077 607.746 390.245 608.795 390.245C609.772 390.245 610.61 390.135 611.31 389.917C612.024 389.684 612.636 389.436 613.147 389.173C613.657 388.911 614.08 388.67 614.415 388.452C614.765 388.218 615.064 388.102 615.311 388.102C615.632 388.102 615.88 388.226 616.055 388.474L617.148 389.895ZM637.58 370.849V393H633.687V370.849H637.58ZM638.411 363.895C638.411 364.274 638.33 364.632 638.17 364.967C638.024 365.288 637.82 365.579 637.558 365.842C637.31 366.089 637.011 366.286 636.661 366.432C636.326 366.578 635.969 366.651 635.59 366.651C635.211 366.651 634.854 366.578 634.518 366.432C634.198 366.286 633.913 366.089 633.665 365.842C633.418 365.579 633.221 365.288 633.075 364.967C632.929 364.632 632.856 364.274 632.856 363.895C632.856 363.516 632.929 363.159 633.075 362.824C633.221 362.474 633.418 362.175 633.665 361.927C633.913 361.665 634.198 361.461 634.518 361.315C634.854 361.169 635.211 361.097 635.59 361.097C635.969 361.097 636.326 361.169 636.661 361.315C637.011 361.461 637.31 361.665 637.558 361.927C637.82 362.175 638.024 362.474 638.17 362.824C638.33 363.159 638.411 363.516 638.411 363.895ZM643.975 393V370.849H646.315C646.869 370.849 647.211 371.119 647.342 371.658L647.627 373.932C648.443 372.926 649.361 372.103 650.382 371.461C651.402 370.82 652.583 370.499 653.924 370.499C655.411 370.499 656.614 370.915 657.532 371.746C658.465 372.577 659.136 373.699 659.544 375.113C659.865 374.311 660.273 373.619 660.768 373.036C661.279 372.453 661.847 371.972 662.474 371.593C663.101 371.214 663.764 370.937 664.464 370.762C665.178 370.587 665.9 370.499 666.629 370.499C667.795 370.499 668.83 370.689 669.734 371.068C670.652 371.432 671.425 371.972 672.052 372.686C672.693 373.4 673.181 374.282 673.517 375.332C673.852 376.367 674.02 377.555 674.02 378.896V393H670.106V378.896C670.106 377.161 669.727 375.849 668.968 374.96C668.21 374.056 667.117 373.604 665.688 373.604C665.047 373.604 664.435 373.721 663.852 373.954C663.283 374.173 662.78 374.501 662.343 374.938C661.906 375.375 661.556 375.929 661.293 376.6C661.045 377.256 660.922 378.021 660.922 378.896V393H657.007V378.896C657.007 377.118 656.65 375.791 655.936 374.916C655.222 374.042 654.179 373.604 652.809 373.604C651.847 373.604 650.958 373.867 650.141 374.391C649.325 374.902 648.574 375.601 647.889 376.491V393H643.975ZM683.849 387.665C684.564 388.627 685.344 389.305 686.189 389.698C687.035 390.092 687.982 390.289 689.032 390.289C691.102 390.289 692.691 389.552 693.799 388.08C694.907 386.608 695.461 384.508 695.461 381.782C695.461 380.339 695.329 379.1 695.067 378.065C694.819 377.03 694.455 376.185 693.974 375.529C693.493 374.858 692.902 374.37 692.203 374.063C691.503 373.757 690.708 373.604 689.819 373.604C688.551 373.604 687.436 373.896 686.473 374.479C685.526 375.062 684.651 375.886 683.849 376.95V387.665ZM683.653 374.282C684.586 373.13 685.664 372.205 686.889 371.505C688.113 370.805 689.513 370.455 691.087 370.455C692.37 370.455 693.529 370.703 694.564 371.199C695.599 371.68 696.481 372.402 697.21 373.364C697.939 374.311 698.5 375.492 698.894 376.906C699.287 378.32 699.484 379.946 699.484 381.782C699.484 383.415 699.265 384.938 698.828 386.353C698.391 387.752 697.757 388.969 696.926 390.004C696.109 391.025 695.103 391.834 693.908 392.431C692.727 393.015 691.393 393.306 689.907 393.306C688.551 393.306 687.385 393.08 686.408 392.628C685.446 392.162 684.593 391.52 683.849 390.704V400.5H679.935V370.849H682.275C682.829 370.849 683.172 371.119 683.303 371.658L683.653 374.282ZM708.145 375.288C708.845 373.772 709.705 372.591 710.726 371.746C711.746 370.886 712.992 370.455 714.465 370.455C714.931 370.455 715.376 370.506 715.799 370.609C716.236 370.711 716.622 370.871 716.958 371.09L716.673 373.998C716.586 374.362 716.367 374.545 716.017 374.545C715.813 374.545 715.514 374.501 715.121 374.413C714.727 374.326 714.283 374.282 713.787 374.282C713.087 374.282 712.46 374.384 711.906 374.588C711.367 374.792 710.879 375.098 710.441 375.507C710.019 375.9 709.632 376.396 709.282 376.994C708.947 377.577 708.641 378.247 708.364 379.005V393H704.45V370.849H706.68C707.103 370.849 707.395 370.929 707.555 371.09C707.715 371.25 707.825 371.527 707.883 371.921L708.145 375.288ZM728.82 370.499C730.438 370.499 731.896 370.769 733.194 371.308C734.491 371.848 735.599 372.613 736.517 373.604C737.436 374.596 738.135 375.798 738.617 377.212C739.112 378.612 739.36 380.179 739.36 381.914C739.36 383.663 739.112 385.237 738.617 386.637C738.135 388.036 737.436 389.232 736.517 390.223C735.599 391.214 734.491 391.98 733.194 392.519C731.896 393.044 730.438 393.306 728.82 393.306C727.188 393.306 725.715 393.044 724.403 392.519C723.106 391.98 721.998 391.214 721.079 390.223C720.161 389.232 719.454 388.036 718.958 386.637C718.477 385.237 718.237 383.663 718.237 381.914C718.237 380.179 718.477 378.612 718.958 377.212C719.454 375.798 720.161 374.596 721.079 373.604C721.998 372.613 723.106 371.848 724.403 371.308C725.715 370.769 727.188 370.499 728.82 370.499ZM728.82 390.267C731.007 390.267 732.64 389.538 733.718 388.08C734.797 386.608 735.337 384.559 735.337 381.935C735.337 379.297 734.797 377.241 733.718 375.769C732.64 374.297 731.007 373.561 728.82 373.561C727.712 373.561 726.743 373.75 725.912 374.129C725.096 374.508 724.411 375.055 723.857 375.769C723.317 376.483 722.909 377.365 722.632 378.415C722.37 379.45 722.238 380.623 722.238 381.935C722.238 384.559 722.778 386.608 723.857 388.08C724.95 389.538 726.604 390.267 728.82 390.267ZM762.679 370.849L753.648 393H750.15L741.119 370.849H744.289C744.61 370.849 744.872 370.929 745.076 371.09C745.281 371.25 745.419 371.439 745.492 371.658L751.112 385.915C751.287 386.455 751.44 386.979 751.571 387.49C751.702 388 751.826 388.51 751.943 389.02C752.059 388.51 752.183 388 752.314 387.49C752.446 386.979 752.606 386.455 752.795 385.915L758.481 371.658C758.568 371.425 758.714 371.235 758.918 371.09C759.122 370.929 759.363 370.849 759.64 370.849H762.679ZM780.477 379.508C780.477 378.604 780.345 377.781 780.083 377.037C779.835 376.279 779.463 375.631 778.968 375.091C778.487 374.537 777.896 374.114 777.197 373.823C776.497 373.517 775.702 373.364 774.813 373.364C772.947 373.364 771.467 373.91 770.374 375.004C769.295 376.082 768.625 377.584 768.362 379.508H780.477ZM783.625 389.895C783.144 390.478 782.568 390.988 781.898 391.426C781.227 391.848 780.506 392.198 779.733 392.475C778.975 392.752 778.188 392.956 777.371 393.087C776.555 393.233 775.746 393.306 774.944 393.306C773.414 393.306 772 393.051 770.702 392.541C769.419 392.016 768.304 391.258 767.357 390.267C766.424 389.261 765.695 388.022 765.17 386.549C764.645 385.077 764.383 383.386 764.383 381.476C764.383 379.931 764.616 378.488 765.082 377.147C765.563 375.806 766.249 374.647 767.138 373.67C768.027 372.679 769.113 371.906 770.396 371.352C771.679 370.783 773.122 370.499 774.726 370.499C776.052 370.499 777.277 370.725 778.399 371.177C779.536 371.614 780.513 372.256 781.329 373.101C782.16 373.932 782.809 374.967 783.275 376.206C783.742 377.431 783.975 378.83 783.975 380.405C783.975 381.017 783.91 381.425 783.778 381.629C783.647 381.833 783.399 381.935 783.035 381.935H768.231C768.275 383.335 768.464 384.552 768.8 385.587C769.15 386.622 769.631 387.49 770.243 388.189C770.855 388.874 771.584 389.392 772.43 389.742C773.275 390.077 774.223 390.245 775.272 390.245C776.249 390.245 777.087 390.135 777.787 389.917C778.501 389.684 779.114 389.436 779.624 389.173C780.134 388.911 780.557 388.67 780.892 388.452C781.242 388.218 781.541 388.102 781.789 388.102C782.109 388.102 782.357 388.226 782.532 388.474L783.625 389.895ZM806.746 393.35C804.997 393.35 803.648 392.862 802.701 391.885C801.768 390.908 801.301 389.501 801.301 387.665V374.107H798.634C798.4 374.107 798.204 374.042 798.043 373.91C797.883 373.765 797.803 373.546 797.803 373.254V371.702L801.433 371.243L802.329 364.398C802.373 364.18 802.468 364.005 802.613 363.874C802.774 363.728 802.978 363.655 803.226 363.655H805.194V371.286H811.601V374.107H805.194V387.402C805.194 388.335 805.42 389.028 805.872 389.479C806.323 389.931 806.907 390.157 807.621 390.157C808.029 390.157 808.379 390.106 808.671 390.004C808.977 389.888 809.239 389.764 809.458 389.633C809.676 389.501 809.859 389.385 810.004 389.283C810.165 389.166 810.303 389.108 810.42 389.108C810.624 389.108 810.806 389.232 810.967 389.479L812.104 391.338C811.433 391.965 810.624 392.461 809.676 392.825C808.729 393.175 807.752 393.35 806.746 393.35ZM819.534 373.801C820.481 372.795 821.531 371.993 822.683 371.396C823.834 370.798 825.161 370.499 826.662 370.499C827.872 370.499 828.936 370.703 829.855 371.111C830.788 371.505 831.561 372.074 832.173 372.817C832.8 373.546 833.273 374.428 833.594 375.463C833.915 376.498 834.075 377.642 834.075 378.896V393H830.161V378.896C830.161 377.22 829.775 375.922 829.002 375.004C828.244 374.071 827.085 373.604 825.525 373.604C824.374 373.604 823.295 373.881 822.289 374.435C821.298 374.989 820.379 375.74 819.534 376.687V393H815.62V360.79H819.534V373.801ZM844.117 370.849V393H840.225V370.849H844.117ZM844.948 363.895C844.948 364.274 844.868 364.632 844.707 364.967C844.562 365.288 844.358 365.579 844.095 365.842C843.847 366.089 843.549 366.286 843.199 366.432C842.863 366.578 842.506 366.651 842.127 366.651C841.748 366.651 841.391 366.578 841.056 366.432C840.735 366.286 840.451 366.089 840.203 365.842C839.955 365.579 839.758 365.288 839.613 364.967C839.467 364.632 839.394 364.274 839.394 363.895C839.394 363.516 839.467 363.159 839.613 362.824C839.758 362.474 839.955 362.175 840.203 361.927C840.451 361.665 840.735 361.461 841.056 361.315C841.391 361.169 841.748 361.097 842.127 361.097C842.506 361.097 842.863 361.169 843.199 361.315C843.549 361.461 843.847 361.665 844.095 361.927C844.358 362.175 844.562 362.474 844.707 362.824C844.868 363.159 844.948 363.516 844.948 363.895ZM863.414 374.501C863.239 374.822 862.969 374.982 862.605 374.982C862.386 374.982 862.138 374.902 861.861 374.741C861.584 374.581 861.242 374.406 860.833 374.217C860.44 374.012 859.966 373.83 859.412 373.67C858.858 373.495 858.202 373.407 857.444 373.407C856.788 373.407 856.198 373.495 855.673 373.67C855.148 373.83 854.696 374.056 854.317 374.348C853.953 374.639 853.668 374.982 853.464 375.375C853.275 375.754 853.18 376.17 853.18 376.622C853.18 377.19 853.34 377.664 853.661 378.043C853.996 378.422 854.434 378.75 854.973 379.027C855.513 379.304 856.125 379.552 856.81 379.771C857.495 379.975 858.195 380.201 858.909 380.449C859.638 380.682 860.345 380.944 861.03 381.236C861.715 381.527 862.328 381.892 862.867 382.329C863.406 382.766 863.836 383.306 864.157 383.947C864.492 384.574 864.66 385.332 864.66 386.221C864.66 387.242 864.478 388.189 864.113 389.064C863.749 389.924 863.21 390.675 862.495 391.316C861.781 391.943 860.906 392.439 859.871 392.803C858.836 393.168 857.641 393.35 856.285 393.35C854.74 393.35 853.34 393.102 852.087 392.606C850.833 392.096 849.769 391.447 848.894 390.66L849.813 389.173C849.929 388.984 850.068 388.838 850.228 388.736C850.388 388.634 850.593 388.583 850.84 388.583C851.103 388.583 851.38 388.685 851.671 388.889C851.963 389.093 852.313 389.319 852.721 389.567C853.144 389.815 853.654 390.041 854.252 390.245C854.849 390.449 855.593 390.551 856.482 390.551C857.24 390.551 857.903 390.456 858.472 390.267C859.04 390.063 859.514 389.793 859.893 389.458C860.272 389.122 860.549 388.736 860.724 388.299C860.914 387.861 861.008 387.395 861.008 386.899C861.008 386.287 860.841 385.784 860.505 385.39C860.185 384.982 859.755 384.64 859.215 384.363C858.676 384.071 858.056 383.823 857.357 383.619C856.672 383.401 855.964 383.175 855.236 382.941C854.521 382.708 853.814 382.446 853.115 382.154C852.429 381.848 851.817 381.469 851.278 381.017C850.738 380.565 850.301 380.011 849.966 379.355C849.645 378.685 849.485 377.876 849.485 376.928C849.485 376.082 849.66 375.273 850.009 374.501C850.359 373.714 850.87 373.028 851.54 372.445C852.211 371.848 853.034 371.374 854.011 371.024C854.988 370.674 856.103 370.499 857.357 370.499C858.814 370.499 860.119 370.732 861.271 371.199C862.437 371.651 863.443 372.278 864.288 373.079L863.414 374.501ZM910.273 370.849L903.1 393H900.017C899.638 393 899.376 392.752 899.23 392.257L894.332 377.234C894.215 376.899 894.12 376.564 894.048 376.228C893.975 375.878 893.902 375.536 893.829 375.201C893.756 375.536 893.683 375.878 893.61 376.228C893.537 376.564 893.443 376.906 893.326 377.256L888.34 392.257C888.209 392.752 887.918 393 887.466 393H884.536L877.363 370.849H880.425C880.731 370.849 880.986 370.929 881.19 371.09C881.409 371.25 881.554 371.439 881.627 371.658L885.869 385.915C886.117 386.965 886.314 387.956 886.46 388.889C886.591 388.408 886.722 387.92 886.853 387.424C886.999 386.928 887.152 386.425 887.313 385.915L891.992 371.571C892.065 371.352 892.189 371.17 892.364 371.024C892.553 370.878 892.779 370.805 893.042 370.805H894.747C895.039 370.805 895.279 370.878 895.469 371.024C895.658 371.17 895.79 371.352 895.862 371.571L900.433 385.915C900.593 386.425 900.739 386.928 900.87 387.424C901.001 387.92 901.125 388.408 901.242 388.889C901.315 388.408 901.402 387.927 901.504 387.446C901.621 386.95 901.745 386.44 901.876 385.915L906.205 371.658C906.278 371.425 906.417 371.235 906.621 371.09C906.825 370.929 907.066 370.849 907.342 370.849H910.273ZM928.589 379.508C928.589 378.604 928.458 377.781 928.195 377.037C927.948 376.279 927.576 375.631 927.08 375.091C926.599 374.537 926.009 374.114 925.309 373.823C924.609 373.517 923.815 373.364 922.926 373.364C921.06 373.364 919.58 373.91 918.487 375.004C917.408 376.082 916.737 377.584 916.475 379.508H928.589ZM931.738 389.895C931.257 390.478 930.681 390.988 930.01 391.426C929.34 391.848 928.618 392.198 927.846 392.475C927.088 392.752 926.3 392.956 925.484 393.087C924.668 393.233 923.859 393.306 923.057 393.306C921.526 393.306 920.112 393.051 918.815 392.541C917.532 392.016 916.417 391.258 915.469 390.267C914.536 389.261 913.807 388.022 913.282 386.549C912.758 385.077 912.495 383.386 912.495 381.476C912.495 379.931 912.728 378.488 913.195 377.147C913.676 375.806 914.361 374.647 915.25 373.67C916.14 372.679 917.226 371.906 918.509 371.352C919.791 370.783 921.235 370.499 922.838 370.499C924.165 370.499 925.389 370.725 926.512 371.177C927.649 371.614 928.625 372.256 929.442 373.101C930.273 373.932 930.921 374.967 931.388 376.206C931.854 377.431 932.088 378.83 932.088 380.405C932.088 381.017 932.022 381.425 931.891 381.629C931.76 381.833 931.512 381.935 931.147 381.935H916.344C916.387 383.335 916.577 384.552 916.912 385.587C917.262 386.622 917.743 387.49 918.355 388.189C918.968 388.874 919.697 389.392 920.542 389.742C921.388 390.077 922.335 390.245 923.385 390.245C924.361 390.245 925.2 390.135 925.899 389.917C926.614 389.684 927.226 389.436 927.736 389.173C928.246 388.911 928.669 388.67 929.005 388.452C929.354 388.218 929.653 388.102 929.901 388.102C930.222 388.102 930.47 388.226 930.645 388.474L931.738 389.895ZM940.783 387.665C941.497 388.627 942.277 389.305 943.123 389.698C943.983 390.092 944.923 390.289 945.943 390.289C948.028 390.289 949.624 389.552 950.732 388.08C951.84 386.608 952.394 384.414 952.394 381.498C952.394 378.787 951.898 376.797 950.907 375.529C949.93 374.246 948.531 373.604 946.709 373.604C945.44 373.604 944.332 373.896 943.385 374.479C942.452 375.062 941.585 375.886 940.783 376.95V387.665ZM940.783 374.042C941.716 372.963 942.765 372.103 943.932 371.461C945.112 370.82 946.468 370.499 947.999 370.499C949.296 370.499 950.462 370.747 951.497 371.243C952.547 371.738 953.436 372.46 954.165 373.407C954.894 374.34 955.448 375.478 955.827 376.819C956.221 378.16 956.417 379.669 956.417 381.345C956.417 383.138 956.199 384.771 955.761 386.243C955.324 387.716 954.69 388.977 953.859 390.026C953.043 391.061 952.044 391.87 950.863 392.453C949.683 393.022 948.356 393.306 946.884 393.306C945.426 393.306 944.194 393.036 943.188 392.497C942.197 391.943 941.329 391.163 940.586 390.157L940.389 392.169C940.273 392.723 939.937 393 939.383 393H936.869V360.79H940.783V374.042ZM974.242 374.501C974.067 374.822 973.797 374.982 973.433 374.982C973.214 374.982 972.966 374.902 972.689 374.741C972.412 374.581 972.07 374.406 971.662 374.217C971.268 374.012 970.794 373.83 970.24 373.67C969.686 373.495 969.03 373.407 968.272 373.407C967.616 373.407 967.026 373.495 966.501 373.67C965.976 373.83 965.524 374.056 965.145 374.348C964.781 374.639 964.497 374.982 964.293 375.375C964.103 375.754 964.008 376.17 964.008 376.622C964.008 377.19 964.169 377.664 964.489 378.043C964.825 378.422 965.262 378.75 965.801 379.027C966.341 379.304 966.953 379.552 967.638 379.771C968.323 379.975 969.023 380.201 969.737 380.449C970.466 380.682 971.173 380.944 971.858 381.236C972.544 381.527 973.156 381.892 973.695 382.329C974.235 382.766 974.665 383.306 974.985 383.947C975.321 384.574 975.488 385.332 975.488 386.221C975.488 387.242 975.306 388.189 974.942 389.064C974.577 389.924 974.038 390.675 973.323 391.316C972.609 391.943 971.734 392.439 970.699 392.803C969.664 393.168 968.469 393.35 967.113 393.35C965.568 393.35 964.169 393.102 962.915 392.606C961.661 392.096 960.597 391.447 959.722 390.66L960.641 389.173C960.757 388.984 960.896 388.838 961.056 388.736C961.217 388.634 961.421 388.583 961.669 388.583C961.931 388.583 962.208 388.685 962.499 388.889C962.791 389.093 963.141 389.319 963.549 389.567C963.972 389.815 964.482 390.041 965.08 390.245C965.677 390.449 966.421 390.551 967.31 390.551C968.068 390.551 968.731 390.456 969.3 390.267C969.869 390.063 970.342 389.793 970.721 389.458C971.1 389.122 971.377 388.736 971.552 388.299C971.742 387.861 971.837 387.395 971.837 386.899C971.837 386.287 971.669 385.784 971.334 385.39C971.013 384.982 970.583 384.64 970.043 384.363C969.504 384.071 968.885 383.823 968.185 383.619C967.5 383.401 966.793 383.175 966.064 382.941C965.349 382.708 964.642 382.446 963.943 382.154C963.258 381.848 962.645 381.469 962.106 381.017C961.566 380.565 961.129 380.011 960.794 379.355C960.473 378.685 960.313 377.876 960.313 376.928C960.313 376.082 960.488 375.273 960.838 374.501C961.187 373.714 961.698 373.028 962.368 372.445C963.039 371.848 963.862 371.374 964.839 371.024C965.816 370.674 966.931 370.499 968.185 370.499C969.643 370.499 970.947 370.732 972.099 371.199C973.265 371.651 974.271 372.278 975.117 373.079L974.242 374.501ZM984.371 370.849V393H980.479V370.849H984.371ZM985.202 363.895C985.202 364.274 985.122 364.632 984.962 364.967C984.816 365.288 984.612 365.579 984.349 365.842C984.102 366.089 983.803 366.286 983.453 366.432C983.118 366.578 982.76 366.651 982.381 366.651C982.002 366.651 981.645 366.578 981.31 366.432C980.989 366.286 980.705 366.089 980.457 365.842C980.209 365.579 980.013 365.288 979.867 364.967C979.721 364.632 979.648 364.274 979.648 363.895C979.648 363.516 979.721 363.159 979.867 362.824C980.013 362.474 980.209 362.175 980.457 361.927C980.705 361.665 980.989 361.461 981.31 361.315C981.645 361.169 982.002 361.097 982.381 361.097C982.76 361.097 983.118 361.169 983.453 361.315C983.803 361.461 984.102 361.665 984.349 361.927C984.612 362.175 984.816 362.474 984.962 362.824C985.122 363.159 985.202 363.516 985.202 363.895ZM997.567 393.35C995.818 393.35 994.469 392.862 993.522 391.885C992.589 390.908 992.122 389.501 992.122 387.665V374.107H989.455C989.221 374.107 989.025 374.042 988.864 373.91C988.704 373.765 988.624 373.546 988.624 373.254V371.702L992.253 371.243L993.15 364.398C993.194 364.18 993.289 364.005 993.434 363.874C993.595 363.728 993.799 363.655 994.047 363.655H996.015V371.286H1002.42V374.107H996.015V387.402C996.015 388.335 996.241 389.028 996.692 389.479C997.144 389.931 997.727 390.157 998.442 390.157C998.85 390.157 999.2 390.106 999.491 390.004C999.797 389.888 1000.06 389.764 1000.28 389.633C1000.5 389.501 1000.68 389.385 1000.83 389.283C1000.99 389.166 1001.12 389.108 1001.24 389.108C1001.44 389.108 1001.63 389.232 1001.79 389.479L1002.92 391.338C1002.25 391.965 1001.44 392.461 1000.5 392.825C999.55 393.175 998.573 393.35 997.567 393.35ZM1021.14 379.508C1021.14 378.604 1021.01 377.781 1020.74 377.037C1020.5 376.279 1020.12 375.631 1019.63 375.091C1019.15 374.537 1018.56 374.114 1017.86 373.823C1017.16 373.517 1016.36 373.364 1015.47 373.364C1013.61 373.364 1012.13 373.91 1011.04 375.004C1009.96 376.082 1009.29 377.584 1009.02 379.508H1021.14ZM1024.29 389.895C1023.81 390.478 1023.23 390.988 1022.56 391.426C1021.89 391.848 1021.17 392.198 1020.39 392.475C1019.64 392.752 1018.85 392.956 1018.03 393.087C1017.22 393.233 1016.41 393.306 1015.61 393.306C1014.08 393.306 1012.66 393.051 1011.36 392.541C1010.08 392.016 1008.97 391.258 1008.02 390.267C1007.09 389.261 1006.36 388.022 1005.83 386.549C1005.31 385.077 1005.04 383.386 1005.04 381.476C1005.04 379.931 1005.28 378.488 1005.74 377.147C1006.22 375.806 1006.91 374.647 1007.8 373.67C1008.69 372.679 1009.77 371.906 1011.06 371.352C1012.34 370.783 1013.78 370.499 1015.39 370.499C1016.71 370.499 1017.94 370.725 1019.06 371.177C1020.2 371.614 1021.17 372.256 1021.99 373.101C1022.82 373.932 1023.47 374.967 1023.94 376.206C1024.4 377.431 1024.64 378.83 1024.64 380.405C1024.64 381.017 1024.57 381.425 1024.44 381.629C1024.31 381.833 1024.06 381.935 1023.7 381.935H1008.89C1008.94 383.335 1009.13 384.552 1009.46 385.587C1009.81 386.622 1010.29 387.49 1010.9 388.189C1011.52 388.874 1012.25 389.392 1013.09 389.742C1013.94 390.077 1014.88 390.245 1015.93 390.245C1016.91 390.245 1017.75 390.135 1018.45 389.917C1019.16 389.684 1019.77 389.436 1020.29 389.173C1020.8 388.911 1021.22 388.67 1021.55 388.452C1021.9 388.218 1022.2 388.102 1022.45 388.102C1022.77 388.102 1023.02 388.226 1023.19 388.474L1024.29 389.895ZM1028.11 364.464C1028.56 364.041 1029.05 363.64 1029.59 363.261C1030.15 362.882 1030.74 362.547 1031.39 362.255C1032.04 361.964 1032.74 361.738 1033.48 361.578C1034.24 361.403 1035.06 361.315 1035.93 361.315C1037.09 361.315 1038.15 361.483 1039.13 361.818C1040.12 362.153 1040.97 362.627 1041.68 363.239C1042.4 363.852 1042.96 364.595 1043.37 365.47C1043.78 366.345 1043.98 367.329 1043.98 368.422C1043.98 369.53 1043.81 370.485 1043.48 371.286C1043.16 372.088 1042.74 372.795 1042.23 373.407C1041.74 374.005 1041.19 374.53 1040.59 374.982C1040.01 375.419 1039.45 375.835 1038.93 376.228C1038.4 376.622 1037.95 377.015 1037.57 377.409C1037.21 377.803 1037 378.24 1036.94 378.721L1036.55 382.067H1033.88L1033.62 378.437C1033.56 377.781 1033.68 377.212 1033.99 376.731C1034.29 376.236 1034.69 375.776 1035.19 375.354C1035.69 374.916 1036.23 374.494 1036.83 374.085C1037.43 373.663 1037.98 373.196 1038.49 372.686C1039.02 372.176 1039.45 371.6 1039.8 370.958C1040.15 370.302 1040.33 369.522 1040.33 368.619C1040.33 367.992 1040.21 367.423 1039.96 366.913C1039.71 366.403 1039.37 365.973 1038.95 365.623C1038.53 365.258 1038.03 364.982 1037.44 364.792C1036.87 364.602 1036.26 364.508 1035.61 364.508C1034.72 364.508 1033.95 364.617 1033.31 364.836C1032.68 365.054 1032.15 365.295 1031.71 365.557C1031.28 365.82 1030.92 366.06 1030.64 366.279C1030.38 366.498 1030.16 366.607 1029.99 366.607C1029.62 366.607 1029.34 366.439 1029.13 366.104L1028.11 364.464ZM1032.37 390.595C1032.37 390.216 1032.44 389.858 1032.57 389.523C1032.71 389.188 1032.9 388.896 1033.13 388.649C1033.38 388.401 1033.67 388.204 1034.01 388.058C1034.34 387.912 1034.7 387.839 1035.08 387.839C1035.46 387.839 1035.82 387.912 1036.15 388.058C1036.49 388.204 1036.78 388.401 1037.03 388.649C1037.28 388.896 1037.47 389.188 1037.62 389.523C1037.76 389.858 1037.84 390.216 1037.84 390.595C1037.84 390.988 1037.76 391.353 1037.62 391.688C1037.47 392.009 1037.28 392.293 1037.03 392.541C1036.78 392.789 1036.49 392.978 1036.15 393.109C1035.82 393.255 1035.46 393.328 1035.08 393.328C1034.7 393.328 1034.34 393.255 1034.01 393.109C1033.67 392.978 1033.38 392.789 1033.13 392.541C1032.9 392.293 1032.71 392.009 1032.57 391.688C1032.44 391.353 1032.37 390.988 1032.37 390.595ZM1078.86 389.436V393H1061.09V361.665H1065.31V389.436H1078.86ZM1095.88 379.508C1095.88 378.604 1095.75 377.781 1095.48 377.037C1095.24 376.279 1094.86 375.631 1094.37 375.091C1093.89 374.537 1093.3 374.114 1092.6 373.823C1091.9 373.517 1091.1 373.364 1090.21 373.364C1088.35 373.364 1086.87 373.91 1085.78 375.004C1084.7 376.082 1084.03 377.584 1083.76 379.508H1095.88ZM1099.03 389.895C1098.55 390.478 1097.97 390.988 1097.3 391.426C1096.63 391.848 1095.91 392.198 1095.13 392.475C1094.38 392.752 1093.59 392.956 1092.77 393.087C1091.96 393.233 1091.15 393.306 1090.35 393.306C1088.81 393.306 1087.4 393.051 1086.1 392.541C1084.82 392.016 1083.71 391.258 1082.76 390.267C1081.82 389.261 1081.1 388.022 1080.57 386.549C1080.05 385.077 1079.78 383.386 1079.78 381.476C1079.78 379.931 1080.02 378.488 1080.48 377.147C1080.96 375.806 1081.65 374.647 1082.54 373.67C1083.43 372.679 1084.51 371.906 1085.8 371.352C1087.08 370.783 1088.52 370.499 1090.13 370.499C1091.45 370.499 1092.68 370.725 1093.8 371.177C1094.94 371.614 1095.91 372.256 1096.73 373.101C1097.56 373.932 1098.21 374.967 1098.68 376.206C1099.14 377.431 1099.38 378.83 1099.38 380.405C1099.38 381.017 1099.31 381.425 1099.18 381.629C1099.05 381.833 1098.8 381.935 1098.44 381.935H1083.63C1083.68 383.335 1083.87 384.552 1084.2 385.587C1084.55 386.622 1085.03 387.49 1085.64 388.189C1086.26 388.874 1086.99 389.392 1087.83 389.742C1088.68 390.077 1089.62 390.245 1090.67 390.245C1091.65 390.245 1092.49 390.135 1093.19 389.917C1093.9 389.684 1094.51 389.436 1095.02 389.173C1095.54 388.911 1095.96 388.67 1096.29 388.452C1096.64 388.218 1096.94 388.102 1097.19 388.102C1097.51 388.102 1097.76 388.226 1097.93 388.474L1099.03 389.895ZM1110.79 393.35C1109.04 393.35 1107.69 392.862 1106.74 391.885C1105.81 390.908 1105.34 389.501 1105.34 387.665V374.107H1102.67C1102.44 374.107 1102.24 374.042 1102.08 373.91C1101.92 373.765 1101.84 373.546 1101.84 373.254V371.702L1105.47 371.243L1106.37 364.398C1106.41 364.18 1106.51 364.005 1106.65 363.874C1106.81 363.728 1107.02 363.655 1107.27 363.655H1109.23V371.286H1115.64V374.107H1109.23V387.402C1109.23 388.335 1109.46 389.028 1109.91 389.479C1110.36 389.931 1110.95 390.157 1111.66 390.157C1112.07 390.157 1112.42 390.106 1112.71 390.004C1113.02 389.888 1113.28 389.764 1113.5 389.633C1113.72 389.501 1113.9 389.385 1114.05 389.283C1114.21 389.166 1114.34 389.108 1114.46 389.108C1114.66 389.108 1114.85 389.232 1115.01 389.479L1116.14 391.338C1115.47 391.965 1114.66 392.461 1113.72 392.825C1112.77 393.175 1111.79 393.35 1110.79 393.35ZM404.231 440.849V463H401.914C401.36 463 401.01 462.73 400.864 462.191L400.558 459.807C399.596 460.872 398.517 461.732 397.322 462.388C396.126 463.029 394.756 463.35 393.211 463.35C392.001 463.35 390.929 463.153 389.996 462.759C389.078 462.351 388.305 461.783 387.678 461.054C387.052 460.325 386.578 459.443 386.257 458.408C385.951 457.373 385.798 456.229 385.798 454.975V440.849H389.69V454.975C389.69 456.651 390.069 457.949 390.827 458.867C391.6 459.786 392.773 460.245 394.348 460.245C395.499 460.245 396.571 459.975 397.562 459.436C398.568 458.882 399.494 458.124 400.339 457.162V440.849H404.231ZM423.304 444.501C423.129 444.822 422.86 444.982 422.495 444.982C422.277 444.982 422.029 444.902 421.752 444.741C421.475 444.581 421.132 444.406 420.724 444.217C420.33 444.012 419.857 443.83 419.303 443.67C418.749 443.495 418.093 443.407 417.335 443.407C416.679 443.407 416.088 443.495 415.564 443.67C415.039 443.83 414.587 444.056 414.208 444.348C413.843 444.639 413.559 444.982 413.355 445.375C413.165 445.754 413.071 446.17 413.071 446.622C413.071 447.19 413.231 447.664 413.552 448.043C413.887 448.422 414.324 448.75 414.864 449.027C415.403 449.304 416.015 449.552 416.701 449.771C417.386 449.975 418.085 450.201 418.8 450.449C419.529 450.682 420.236 450.944 420.921 451.236C421.606 451.527 422.218 451.892 422.758 452.329C423.297 452.766 423.727 453.306 424.048 453.947C424.383 454.574 424.551 455.332 424.551 456.221C424.551 457.242 424.369 458.189 424.004 459.064C423.64 459.924 423.1 460.675 422.386 461.316C421.672 461.943 420.797 462.439 419.762 462.803C418.727 463.168 417.532 463.35 416.176 463.35C414.631 463.35 413.231 463.102 411.977 462.606C410.724 462.096 409.66 461.447 408.785 460.66L409.703 459.173C409.82 458.984 409.958 458.838 410.119 458.736C410.279 458.634 410.483 458.583 410.731 458.583C410.993 458.583 411.27 458.685 411.562 458.889C411.853 459.093 412.203 459.319 412.612 459.567C413.034 459.815 413.545 460.041 414.142 460.245C414.74 460.449 415.483 460.551 416.373 460.551C417.131 460.551 417.794 460.456 418.362 460.267C418.931 460.063 419.405 459.793 419.784 459.458C420.163 459.122 420.44 458.736 420.615 458.299C420.804 457.861 420.899 457.395 420.899 456.899C420.899 456.287 420.731 455.784 420.396 455.39C420.075 454.982 419.645 454.64 419.106 454.363C418.567 454.071 417.947 453.823 417.247 453.619C416.562 453.401 415.855 453.175 415.126 452.941C414.412 452.708 413.705 452.446 413.005 452.154C412.32 451.848 411.708 451.469 411.168 451.017C410.629 450.565 410.192 450.011 409.856 449.355C409.536 448.685 409.375 447.876 409.375 446.928C409.375 446.082 409.55 445.273 409.9 444.501C410.25 443.714 410.76 443.028 411.431 442.445C412.101 441.848 412.925 441.374 413.902 441.024C414.878 440.674 415.994 440.499 417.247 440.499C418.705 440.499 420.01 440.732 421.161 441.199C422.328 441.651 423.333 442.278 424.179 443.079L423.304 444.501ZM444.427 430.79V449.749H445.432C445.724 449.749 445.964 449.712 446.154 449.639C446.358 449.552 446.569 449.384 446.788 449.137L453.785 441.636C453.99 441.388 454.201 441.199 454.42 441.068C454.653 440.922 454.959 440.849 455.338 440.849H458.859L450.702 449.53C450.309 450.026 449.886 450.412 449.434 450.689C449.696 450.864 449.93 451.068 450.134 451.301C450.352 451.52 450.556 451.775 450.746 452.067L459.405 463H455.928C455.593 463 455.302 462.949 455.054 462.847C454.82 462.73 454.616 462.526 454.441 462.235L447.16 453.16C446.941 452.854 446.723 452.657 446.504 452.57C446.3 452.468 445.979 452.417 445.542 452.417H444.427V463H440.512V430.79H444.427ZM466.394 444.063C466.875 443.524 467.386 443.036 467.925 442.598C468.464 442.161 469.033 441.789 469.631 441.483C470.243 441.162 470.884 440.922 471.555 440.762C472.24 440.587 472.976 440.499 473.763 440.499C474.973 440.499 476.038 440.703 476.956 441.111C477.889 441.505 478.662 442.074 479.274 442.817C479.901 443.546 480.374 444.428 480.695 445.463C481.016 446.498 481.176 447.642 481.176 448.896V463H477.262V448.896C477.262 447.22 476.876 445.922 476.103 445.004C475.345 444.071 474.186 443.604 472.626 443.604C471.475 443.604 470.396 443.881 469.39 444.435C468.399 444.989 467.48 445.74 466.635 446.687V463H462.721V440.849H465.06C465.614 440.849 465.957 441.119 466.088 441.658L466.394 444.063ZM496.444 440.499C498.062 440.499 499.52 440.769 500.818 441.308C502.115 441.848 503.223 442.613 504.141 443.604C505.06 444.596 505.759 445.798 506.241 447.212C506.736 448.612 506.984 450.179 506.984 451.914C506.984 453.663 506.736 455.237 506.241 456.637C505.759 458.036 505.06 459.232 504.141 460.223C503.223 461.214 502.115 461.98 500.818 462.519C499.52 463.044 498.062 463.306 496.444 463.306C494.812 463.306 493.339 463.044 492.027 462.519C490.73 461.98 489.622 461.214 488.703 460.223C487.785 459.232 487.078 458.036 486.582 456.637C486.101 455.237 485.861 453.663 485.861 451.914C485.861 450.179 486.101 448.612 486.582 447.212C487.078 445.798 487.785 444.596 488.703 443.604C489.622 442.613 490.73 441.848 492.027 441.308C493.339 440.769 494.812 440.499 496.444 440.499ZM496.444 460.267C498.631 460.267 500.264 459.538 501.342 458.08C502.421 456.608 502.961 454.559 502.961 451.935C502.961 449.297 502.421 447.241 501.342 445.769C500.264 444.297 498.631 443.561 496.444 443.561C495.336 443.561 494.367 443.75 493.536 444.129C492.72 444.508 492.034 445.055 491.481 445.769C490.941 446.483 490.533 447.365 490.256 448.415C489.994 449.45 489.862 450.623 489.862 451.935C489.862 454.559 490.402 456.608 491.481 458.08C492.574 459.538 494.228 460.267 496.444 460.267ZM542.127 440.849L534.955 463H531.871C531.492 463 531.23 462.752 531.084 462.257L526.186 447.234C526.069 446.899 525.975 446.564 525.902 446.228C525.829 445.878 525.756 445.536 525.683 445.201C525.61 445.536 525.537 445.878 525.464 446.228C525.391 446.564 525.297 446.906 525.18 447.256L520.195 462.257C520.063 462.752 519.772 463 519.32 463H516.39L509.217 440.849H512.279C512.585 440.849 512.84 440.929 513.044 441.09C513.263 441.25 513.409 441.439 513.481 441.658L517.724 455.915C517.971 456.965 518.168 457.956 518.314 458.889C518.445 458.408 518.576 457.92 518.708 457.424C518.853 456.928 519.006 456.425 519.167 455.915L523.846 441.571C523.919 441.352 524.043 441.17 524.218 441.024C524.407 440.878 524.633 440.805 524.896 440.805H526.601C526.893 440.805 527.134 440.878 527.323 441.024C527.513 441.17 527.644 441.352 527.717 441.571L532.287 455.915C532.447 456.425 532.593 456.928 532.724 457.424C532.855 457.92 532.979 458.408 533.096 458.889C533.169 458.408 533.256 457.927 533.358 457.446C533.475 456.95 533.599 456.44 533.73 455.915L538.06 441.658C538.132 441.425 538.271 441.235 538.475 441.09C538.679 440.929 538.92 440.849 539.197 440.849H542.127ZM560.123 457.665C560.838 458.627 561.618 459.305 562.463 459.698C563.323 460.092 564.263 460.289 565.284 460.289C567.369 460.289 568.965 459.552 570.073 458.08C571.181 456.608 571.735 454.414 571.735 451.498C571.735 448.787 571.239 446.797 570.248 445.529C569.271 444.246 567.871 443.604 566.049 443.604C564.781 443.604 563.673 443.896 562.726 444.479C561.793 445.062 560.925 445.886 560.123 446.95V457.665ZM560.123 444.042C561.056 442.963 562.106 442.103 563.272 441.461C564.453 440.82 565.809 440.499 567.339 440.499C568.637 440.499 569.803 440.747 570.838 441.243C571.888 441.738 572.777 442.46 573.506 443.407C574.235 444.34 574.789 445.478 575.168 446.819C575.561 448.16 575.758 449.669 575.758 451.345C575.758 453.138 575.539 454.771 575.102 456.243C574.665 457.716 574.031 458.977 573.2 460.026C572.383 461.061 571.385 461.87 570.204 462.453C569.023 463.022 567.697 463.306 566.224 463.306C564.766 463.306 563.535 463.036 562.529 462.497C561.537 461.943 560.67 461.163 559.927 460.157L559.73 462.169C559.613 462.723 559.278 463 558.724 463H556.209V430.79H560.123V444.042ZM599.237 440.849L586.883 469.538C586.752 469.83 586.584 470.063 586.38 470.238C586.19 470.413 585.891 470.5 585.483 470.5H582.597L586.642 461.71L577.502 440.849H580.869C581.205 440.849 581.467 440.937 581.657 441.111C581.861 441.272 581.999 441.454 582.072 441.658L587.998 455.609C588.231 456.221 588.428 456.863 588.588 457.533C588.792 456.848 589.011 456.199 589.244 455.587L594.995 441.658C595.083 441.425 595.229 441.235 595.433 441.09C595.651 440.929 595.892 440.849 596.154 440.849H599.237ZM626.224 445.091C626.064 445.339 625.896 445.521 625.721 445.638C625.561 445.74 625.335 445.791 625.043 445.791C624.752 445.791 624.453 445.718 624.147 445.572C623.84 445.426 623.498 445.273 623.119 445.113C622.74 444.938 622.303 444.778 621.807 444.632C621.326 444.486 620.765 444.413 620.123 444.413C619.146 444.413 618.388 444.617 617.849 445.026C617.31 445.419 617.04 445.944 617.04 446.6C617.04 447.052 617.193 447.431 617.499 447.737C617.805 448.043 618.206 448.313 618.702 448.546C619.212 448.765 619.788 448.976 620.429 449.18C621.071 449.37 621.727 449.581 622.397 449.814C623.082 450.048 623.746 450.317 624.387 450.623C625.029 450.93 625.597 451.316 626.093 451.782C626.603 452.234 627.011 452.788 627.317 453.444C627.623 454.086 627.776 454.866 627.776 455.784C627.776 456.877 627.572 457.89 627.164 458.823C626.771 459.742 626.187 460.536 625.415 461.207C624.642 461.878 623.68 462.402 622.528 462.781C621.377 463.16 620.05 463.35 618.549 463.35C617.776 463.35 617.011 463.277 616.253 463.131C615.495 463 614.773 462.81 614.088 462.563C613.403 462.3 612.761 462.001 612.164 461.666C611.566 461.331 611.048 460.966 610.611 460.573L612.011 458.321C612.171 458.058 612.368 457.854 612.601 457.708C612.849 457.562 613.162 457.49 613.541 457.49C613.906 457.49 614.241 457.584 614.547 457.774C614.853 457.949 615.196 458.146 615.575 458.364C615.954 458.568 616.399 458.765 616.909 458.955C617.434 459.13 618.082 459.217 618.855 459.217C619.438 459.217 619.941 459.151 620.364 459.02C620.786 458.889 621.129 458.714 621.391 458.495C621.654 458.262 621.843 458.007 621.96 457.73C622.091 457.439 622.157 457.14 622.157 456.834C622.157 456.338 621.996 455.937 621.676 455.631C621.37 455.31 620.961 455.033 620.451 454.8C619.955 454.567 619.38 454.355 618.724 454.166C618.068 453.976 617.397 453.765 616.712 453.532C616.041 453.298 615.378 453.022 614.722 452.701C614.081 452.38 613.505 451.979 612.995 451.498C612.499 451.002 612.091 450.398 611.77 449.683C611.464 448.969 611.311 448.102 611.311 447.081C611.311 446.148 611.493 445.266 611.858 444.435C612.222 443.59 612.769 442.846 613.498 442.205C614.226 441.563 615.13 441.053 616.209 440.674C617.302 440.295 618.563 440.106 619.992 440.106C621.595 440.106 623.053 440.368 624.365 440.893C625.677 441.418 626.756 442.103 627.602 442.948L626.224 445.091ZM645.855 449.071C645.855 448.444 645.768 447.846 645.593 447.278C645.432 446.709 645.17 446.206 644.805 445.769C644.441 445.332 643.982 444.989 643.428 444.741C642.874 444.479 642.211 444.348 641.438 444.348C639.995 444.348 638.865 444.756 638.049 445.572C637.232 446.389 636.7 447.555 636.452 449.071H645.855ZM636.365 452.657C636.554 454.771 637.152 456.316 638.158 457.293C639.178 458.27 640.505 458.758 642.138 458.758C642.969 458.758 643.683 458.663 644.281 458.474C644.893 458.27 645.425 458.051 645.877 457.818C646.343 457.57 646.759 457.351 647.123 457.162C647.502 456.958 647.874 456.855 648.239 456.855C648.705 456.855 649.069 457.03 649.332 457.38L651.081 459.567C650.44 460.31 649.733 460.93 648.96 461.426C648.188 461.907 647.386 462.293 646.555 462.585C645.724 462.862 644.886 463.051 644.04 463.153C643.195 463.27 642.378 463.328 641.591 463.328C640.017 463.328 638.544 463.073 637.174 462.563C635.818 462.038 634.63 461.273 633.61 460.267C632.604 459.246 631.809 457.985 631.226 456.484C630.643 454.982 630.352 453.24 630.352 451.258C630.352 449.727 630.599 448.284 631.095 446.928C631.605 445.572 632.334 444.391 633.282 443.386C634.229 442.38 635.381 441.585 636.737 441.002C638.092 440.404 639.623 440.106 641.329 440.106C642.772 440.106 644.098 440.339 645.308 440.805C646.533 441.257 647.583 441.921 648.457 442.795C649.346 443.67 650.032 444.749 650.513 446.031C651.008 447.3 651.256 448.75 651.256 450.383C651.256 450.835 651.234 451.207 651.191 451.498C651.147 451.79 651.074 452.023 650.972 452.198C650.87 452.373 650.731 452.497 650.556 452.57C650.381 452.628 650.156 452.657 649.879 452.657H636.365ZM660.599 443.079C661.051 442.642 661.517 442.241 661.998 441.877C662.494 441.512 663.012 441.199 663.551 440.937C664.105 440.674 664.695 440.47 665.322 440.324C665.964 440.178 666.656 440.106 667.4 440.106C668.624 440.106 669.71 440.317 670.658 440.74C671.605 441.162 672.4 441.753 673.041 442.511C673.697 443.269 674.186 444.173 674.506 445.222C674.842 446.272 675.009 447.424 675.009 448.677V463H668.996V448.677C668.996 447.424 668.704 446.454 668.121 445.769C667.538 445.069 666.678 444.719 665.541 444.719C664.695 444.719 663.901 444.902 663.157 445.266C662.414 445.631 661.707 446.141 661.036 446.797V463H655.001V440.455H658.718C659.477 440.455 659.979 440.805 660.227 441.505L660.599 443.079ZM693.744 446.316C693.175 445.66 692.556 445.201 691.885 444.938C691.229 444.676 690.529 444.545 689.786 444.545C689.057 444.545 688.394 444.683 687.796 444.96C687.198 445.237 686.681 445.674 686.243 446.272C685.821 446.855 685.493 447.606 685.259 448.524C685.026 449.443 684.91 450.536 684.91 451.804C684.91 453.058 685.004 454.122 685.194 454.997C685.383 455.871 685.653 456.578 686.003 457.118C686.367 457.657 686.805 458.051 687.315 458.299C687.825 458.532 688.394 458.649 689.021 458.649C690.085 458.649 690.974 458.437 691.688 458.014C692.417 457.592 693.102 456.994 693.744 456.221V446.316ZM699.779 430.397V463H696.062C695.289 463 694.793 462.65 694.575 461.95L694.072 459.982C693.62 460.478 693.139 460.93 692.629 461.338C692.133 461.746 691.594 462.103 691.01 462.41C690.427 462.701 689.8 462.927 689.13 463.087C688.459 463.248 687.73 463.328 686.943 463.328C685.733 463.328 684.625 463.073 683.619 462.563C682.614 462.052 681.739 461.309 680.995 460.332C680.267 459.341 679.698 458.131 679.29 456.702C678.882 455.274 678.678 453.641 678.678 451.804C678.678 450.128 678.904 448.568 679.355 447.125C679.822 445.682 680.478 444.435 681.323 443.386C682.169 442.336 683.189 441.512 684.385 440.915C685.58 440.317 686.907 440.018 688.365 440.018C689.589 440.018 690.617 440.2 691.448 440.565C692.293 440.929 693.059 441.425 693.744 442.052V430.397H699.779ZM711.009 440.455V463H704.974V440.455H711.009ZM711.731 434.049C711.731 434.559 711.629 435.033 711.425 435.47C711.221 435.907 710.944 436.294 710.594 436.629C710.258 436.964 709.858 437.226 709.391 437.416C708.939 437.606 708.451 437.7 707.926 437.7C707.43 437.7 706.957 437.606 706.505 437.416C706.067 437.226 705.681 436.964 705.346 436.629C705.01 436.294 704.741 435.907 704.537 435.47C704.347 435.033 704.252 434.559 704.252 434.049C704.252 433.538 704.347 433.065 704.537 432.627C704.741 432.175 705.01 431.782 705.346 431.446C705.681 431.111 706.067 430.849 706.505 430.659C706.957 430.47 707.43 430.375 707.926 430.375C708.451 430.375 708.939 430.47 709.391 430.659C709.858 430.849 710.258 431.111 710.594 431.446C710.944 431.782 711.221 432.175 711.425 432.627C711.629 433.065 711.731 433.538 711.731 434.049ZM721.757 443.079C722.209 442.642 722.676 442.241 723.157 441.877C723.652 441.512 724.17 441.199 724.709 440.937C725.263 440.674 725.854 440.47 726.481 440.324C727.122 440.178 727.814 440.106 728.558 440.106C729.782 440.106 730.868 440.317 731.816 440.74C732.764 441.162 733.558 441.753 734.199 442.511C734.855 443.269 735.344 444.173 735.665 445.222C736 446.272 736.167 447.424 736.167 448.677V463H730.154V448.677C730.154 447.424 729.863 446.454 729.279 445.769C728.696 445.069 727.836 444.719 726.699 444.719C725.854 444.719 725.059 444.902 724.316 445.266C723.572 445.631 722.865 446.141 722.195 446.797V463H716.159V440.455H719.877C720.635 440.455 721.138 440.805 721.386 441.505L721.757 443.079ZM749.37 450.886C750.609 450.886 751.52 450.572 752.103 449.946C752.701 449.319 753 448.51 753 447.518C753 446.483 752.701 445.674 752.103 445.091C751.52 444.494 750.609 444.195 749.37 444.195C748.131 444.195 747.22 444.494 746.636 445.091C746.053 445.674 745.762 446.483 745.762 447.518C745.762 448.495 746.053 449.304 746.636 449.946C747.234 450.572 748.145 450.886 749.37 450.886ZM755.077 463.918C755.077 463.525 754.953 463.204 754.705 462.956C754.457 462.708 754.122 462.512 753.699 462.366C753.291 462.22 752.803 462.118 752.234 462.06C751.666 461.987 751.061 461.936 750.419 461.907C749.778 461.863 749.115 461.826 748.43 461.797C747.744 461.768 747.074 461.717 746.418 461.644C745.908 461.95 745.485 462.315 745.15 462.738C744.829 463.146 744.668 463.612 744.668 464.137C744.668 464.502 744.749 464.837 744.909 465.143C745.084 465.449 745.368 465.711 745.762 465.93C746.155 466.149 746.673 466.316 747.314 466.433C747.956 466.564 748.758 466.63 749.72 466.63C750.711 466.63 751.549 466.564 752.234 466.433C752.92 466.302 753.473 466.112 753.896 465.865C754.319 465.631 754.618 465.347 754.793 465.012C754.982 464.676 755.077 464.312 755.077 463.918ZM761.068 441.199V443.407C761.068 443.757 760.966 444.034 760.762 444.238C760.573 444.442 760.252 444.596 759.8 444.698L757.963 445.069C758.211 445.784 758.335 446.549 758.335 447.365C758.335 448.488 758.102 449.501 757.635 450.405C757.184 451.294 756.557 452.059 755.755 452.701C754.953 453.328 754.006 453.816 752.912 454.166C751.819 454.501 750.638 454.669 749.37 454.669C748.568 454.669 747.817 454.603 747.118 454.472C746.505 454.851 746.199 455.266 746.199 455.718C746.199 456.141 746.403 456.447 746.811 456.637C747.234 456.826 747.781 456.965 748.451 457.052C749.137 457.125 749.909 457.176 750.769 457.205C751.644 457.22 752.526 457.264 753.415 457.337C754.319 457.409 755.201 457.541 756.061 457.73C756.936 457.905 757.708 458.204 758.379 458.627C759.064 459.035 759.611 459.582 760.019 460.267C760.442 460.952 760.653 461.834 760.653 462.913C760.653 463.918 760.405 464.895 759.91 465.843C759.414 466.79 758.692 467.636 757.745 468.379C756.812 469.123 755.66 469.72 754.29 470.172C752.92 470.624 751.36 470.85 749.61 470.85C747.876 470.85 746.367 470.682 745.084 470.347C743.816 470.026 742.759 469.589 741.913 469.035C741.082 468.496 740.463 467.869 740.055 467.155C739.646 466.44 739.442 465.697 739.442 464.924C739.442 463.918 739.748 463.066 740.361 462.366C740.973 461.666 741.819 461.105 742.897 460.682C742.329 460.361 741.87 459.946 741.52 459.436C741.184 458.911 741.017 458.233 741.017 457.402C741.017 456.732 741.257 456.025 741.738 455.281C742.234 454.538 742.992 453.918 744.012 453.422C742.861 452.81 741.95 451.994 741.279 450.973C740.609 449.938 740.273 448.736 740.273 447.365C740.273 446.243 740.499 445.23 740.951 444.326C741.418 443.422 742.059 442.657 742.875 442.03C743.692 441.388 744.654 440.9 745.762 440.565C746.87 440.23 748.072 440.062 749.37 440.062C751.294 440.062 752.992 440.441 754.465 441.199H761.068ZM794.374 440.455V463H790.656C789.884 463 789.388 462.65 789.17 461.95L788.776 460.376C788.324 460.813 787.858 461.214 787.376 461.579C786.895 461.943 786.378 462.257 785.824 462.519C785.285 462.781 784.694 462.985 784.053 463.131C783.426 463.277 782.741 463.35 781.997 463.35C780.773 463.35 779.679 463.138 778.717 462.716C777.77 462.293 776.975 461.703 776.334 460.945C775.692 460.186 775.204 459.283 774.869 458.233C774.533 457.183 774.366 456.032 774.366 454.778V440.455H780.401V454.778C780.401 456.032 780.685 457.009 781.254 457.708C781.837 458.393 782.697 458.736 783.834 458.736C784.68 458.736 785.474 458.554 786.218 458.189C786.961 457.81 787.668 457.3 788.339 456.659V440.455H794.374ZM813.372 445.091C813.211 445.339 813.044 445.521 812.869 445.638C812.709 445.74 812.483 445.791 812.191 445.791C811.899 445.791 811.601 445.718 811.295 445.572C810.988 445.426 810.646 445.273 810.267 445.113C809.888 444.938 809.45 444.778 808.955 444.632C808.474 444.486 807.912 444.413 807.271 444.413C806.294 444.413 805.536 444.617 804.997 445.026C804.458 445.419 804.188 445.944 804.188 446.6C804.188 447.052 804.341 447.431 804.647 447.737C804.953 448.043 805.354 448.313 805.85 448.546C806.36 448.765 806.936 448.976 807.577 449.18C808.219 449.37 808.875 449.581 809.545 449.814C810.23 450.048 810.894 450.317 811.535 450.623C812.176 450.93 812.745 451.316 813.241 451.782C813.751 452.234 814.159 452.788 814.465 453.444C814.771 454.086 814.924 454.866 814.924 455.784C814.924 456.877 814.72 457.89 814.312 458.823C813.919 459.742 813.335 460.536 812.563 461.207C811.79 461.878 810.828 462.402 809.676 462.781C808.525 463.16 807.198 463.35 805.697 463.35C804.924 463.35 804.159 463.277 803.401 463.131C802.643 463 801.921 462.81 801.236 462.563C800.551 462.3 799.909 462.001 799.312 461.666C798.714 461.331 798.196 460.966 797.759 460.573L799.159 458.321C799.319 458.058 799.516 457.854 799.749 457.708C799.997 457.562 800.31 457.49 800.689 457.49C801.054 457.49 801.389 457.584 801.695 457.774C802.001 457.949 802.344 458.146 802.723 458.364C803.102 458.568 803.546 458.765 804.057 458.955C804.581 459.13 805.23 459.217 806.003 459.217C806.586 459.217 807.089 459.151 807.512 459.02C807.934 458.889 808.277 458.714 808.539 458.495C808.802 458.262 808.991 458.007 809.108 457.73C809.239 457.439 809.305 457.14 809.305 456.834C809.305 456.338 809.144 455.937 808.824 455.631C808.517 455.31 808.109 455.033 807.599 454.8C807.103 454.567 806.528 454.355 805.872 454.166C805.216 453.976 804.545 453.765 803.86 453.532C803.189 453.298 802.526 453.022 801.87 452.701C801.229 452.38 800.653 451.979 800.143 451.498C799.647 451.002 799.239 450.398 798.918 449.683C798.612 448.969 798.459 448.102 798.459 447.081C798.459 446.148 798.641 445.266 799.005 444.435C799.37 443.59 799.917 442.846 800.645 442.205C801.374 441.563 802.278 441.053 803.357 440.674C804.45 440.295 805.711 440.106 807.14 440.106C808.743 440.106 810.201 440.368 811.513 440.893C812.825 441.418 813.904 442.103 814.749 442.948L813.372 445.091ZM830.72 463V444.785L828.971 444.479C828.519 444.391 828.147 444.231 827.856 443.998C827.579 443.765 827.44 443.429 827.44 442.992V440.587H830.72V439.1C830.72 437.817 830.917 436.658 831.311 435.623C831.719 434.573 832.295 433.691 833.038 432.977C833.782 432.248 834.693 431.687 835.772 431.293C836.85 430.9 838.068 430.703 839.423 430.703C839.948 430.703 840.444 430.739 840.91 430.812C841.391 430.871 841.872 430.965 842.353 431.097L842.222 434.07C842.193 434.522 841.996 434.821 841.632 434.967C841.282 435.098 840.888 435.164 840.451 435.164C839.839 435.164 839.285 435.229 838.789 435.361C838.308 435.492 837.9 435.718 837.565 436.038C837.229 436.345 836.974 436.767 836.799 437.307C836.624 437.831 836.537 438.487 836.537 439.275V440.587H842.135V444.785H836.734V463H830.72ZM858.713 449.071C858.713 448.444 858.626 447.846 858.451 447.278C858.291 446.709 858.028 446.206 857.664 445.769C857.299 445.332 856.84 444.989 856.286 444.741C855.732 444.479 855.069 444.348 854.296 444.348C852.853 444.348 851.723 444.756 850.907 445.572C850.091 446.389 849.559 447.555 849.311 449.071H858.713ZM849.223 452.657C849.413 454.771 850.01 456.316 851.016 457.293C852.037 458.27 853.363 458.758 854.996 458.758C855.827 458.758 856.541 458.663 857.139 458.474C857.751 458.27 858.283 458.051 858.735 457.818C859.202 457.57 859.617 457.351 859.982 457.162C860.361 456.958 860.732 456.855 861.097 456.855C861.563 456.855 861.928 457.03 862.19 457.38L863.94 459.567C863.298 460.31 862.591 460.93 861.818 461.426C861.046 461.907 860.244 462.293 859.413 462.585C858.582 462.862 857.744 463.051 856.898 463.153C856.053 463.27 855.237 463.328 854.449 463.328C852.875 463.328 851.403 463.073 850.032 462.563C848.677 462.038 847.489 461.273 846.468 460.267C845.462 459.246 844.668 457.985 844.085 456.484C843.501 454.982 843.21 453.24 843.21 451.258C843.21 449.727 843.458 448.284 843.953 446.928C844.464 445.572 845.193 444.391 846.14 443.386C847.088 442.38 848.239 441.585 849.595 441.002C850.951 440.404 852.481 440.106 854.187 440.106C855.63 440.106 856.957 440.339 858.167 440.805C859.391 441.257 860.441 441.921 861.316 442.795C862.205 443.67 862.89 444.749 863.371 446.031C863.867 447.3 864.114 448.75 864.114 450.383C864.114 450.835 864.093 451.207 864.049 451.498C864.005 451.79 863.932 452.023 863.83 452.198C863.728 452.373 863.59 452.497 863.415 452.57C863.24 452.628 863.014 452.657 862.737 452.657H849.223ZM882.16 449.071C882.16 448.444 882.073 447.846 881.898 447.278C881.738 446.709 881.475 446.206 881.111 445.769C880.746 445.332 880.287 444.989 879.733 444.741C879.179 444.479 878.516 444.348 877.743 444.348C876.3 444.348 875.17 444.756 874.354 445.572C873.538 446.389 873.005 447.555 872.758 449.071H882.16ZM872.67 452.657C872.86 454.771 873.457 456.316 874.463 457.293C875.484 458.27 876.81 458.758 878.443 458.758C879.274 458.758 879.988 458.663 880.586 458.474C881.198 458.27 881.73 458.051 882.182 457.818C882.649 457.57 883.064 457.351 883.429 457.162C883.808 456.958 884.179 456.855 884.544 456.855C885.01 456.855 885.375 457.03 885.637 457.38L887.386 459.567C886.745 460.31 886.038 460.93 885.265 461.426C884.493 461.907 883.691 462.293 882.86 462.585C882.029 462.862 881.191 463.051 880.345 463.153C879.5 463.27 878.683 463.328 877.896 463.328C876.322 463.328 874.85 463.073 873.479 462.563C872.123 462.038 870.935 461.273 869.915 460.267C868.909 459.246 868.115 457.985 867.531 456.484C866.948 454.982 866.657 453.24 866.657 451.258C866.657 449.727 866.905 448.284 867.4 446.928C867.911 445.572 868.639 444.391 869.587 443.386C870.535 442.38 871.686 441.585 873.042 441.002C874.398 440.404 875.928 440.106 877.634 440.106C879.077 440.106 880.404 440.339 881.614 440.805C882.838 441.257 883.888 441.921 884.762 442.795C885.652 443.67 886.337 444.749 886.818 446.031C887.314 447.3 887.561 448.75 887.561 450.383C887.561 450.835 887.54 451.207 887.496 451.498C887.452 451.79 887.379 452.023 887.277 452.198C887.175 452.373 887.037 452.497 886.862 452.57C886.687 452.628 886.461 452.657 886.184 452.657H872.67ZM905.235 446.316C904.667 445.66 904.047 445.201 903.377 444.938C902.721 444.676 902.021 444.545 901.278 444.545C900.549 444.545 899.885 444.683 899.288 444.96C898.69 445.237 898.173 445.674 897.735 446.272C897.312 446.855 896.984 447.606 896.751 448.524C896.518 449.443 896.401 450.536 896.401 451.804C896.401 453.058 896.496 454.122 896.686 454.997C896.875 455.871 897.145 456.578 897.495 457.118C897.859 457.657 898.296 458.051 898.807 458.299C899.317 458.532 899.885 458.649 900.512 458.649C901.576 458.649 902.466 458.437 903.18 458.014C903.909 457.592 904.594 456.994 905.235 456.221V446.316ZM911.271 430.397V463H907.553C906.781 463 906.285 462.65 906.066 461.95L905.563 459.982C905.112 460.478 904.63 460.93 904.12 461.338C903.625 461.746 903.085 462.103 902.502 462.41C901.919 462.701 901.292 462.927 900.622 463.087C899.951 463.248 899.222 463.328 898.435 463.328C897.225 463.328 896.117 463.073 895.111 462.563C894.105 462.052 893.231 461.309 892.487 460.332C891.758 459.341 891.19 458.131 890.782 456.702C890.373 455.274 890.169 453.641 890.169 451.804C890.169 450.128 890.395 448.568 890.847 447.125C891.314 445.682 891.97 444.435 892.815 443.386C893.661 442.336 894.681 441.512 895.877 440.915C897.072 440.317 898.398 440.018 899.856 440.018C901.081 440.018 902.109 440.2 902.939 440.565C903.785 440.929 904.55 441.425 905.235 442.052V430.397H911.271ZM922.326 457.052C922.894 457.708 923.507 458.167 924.163 458.43C924.833 458.692 925.526 458.823 926.24 458.823C926.984 458.823 927.654 458.692 928.252 458.43C928.864 458.153 929.389 457.723 929.826 457.14C930.264 456.542 930.599 455.769 930.832 454.822C931.065 453.874 931.182 452.73 931.182 451.389C931.182 450.193 931.087 449.18 930.898 448.349C930.708 447.504 930.424 446.811 930.045 446.272C929.68 445.733 929.228 445.339 928.689 445.091C928.15 444.843 927.523 444.719 926.809 444.719C925.861 444.719 925.037 444.931 924.338 445.354C923.652 445.762 922.982 446.367 922.326 447.169V457.052ZM922.326 443.058C923.215 442.168 924.199 441.454 925.278 440.915C926.357 440.375 927.567 440.106 928.908 440.106C930.205 440.106 931.371 440.368 932.406 440.893C933.456 441.403 934.345 442.139 935.074 443.101C935.818 444.063 936.386 445.23 936.78 446.6C937.188 447.956 937.392 449.479 937.392 451.17C937.392 452.992 937.159 454.654 936.692 456.156C936.24 457.643 935.592 458.918 934.746 459.982C933.901 461.047 932.888 461.87 931.707 462.453C930.54 463.036 929.236 463.328 927.793 463.328C927.093 463.328 926.466 463.255 925.912 463.109C925.358 462.978 924.848 462.789 924.381 462.541C923.915 462.293 923.485 462.001 923.091 461.666C922.698 461.316 922.326 460.93 921.976 460.507L921.736 461.863C921.633 462.286 921.466 462.585 921.233 462.759C920.999 462.92 920.686 463 920.292 463H916.291V430.397H922.326V443.058ZM953.061 453.575C951.589 453.648 950.364 453.78 949.388 453.969C948.411 454.144 947.631 454.377 947.048 454.669C946.479 454.96 946.071 455.296 945.823 455.675C945.59 456.039 945.473 456.44 945.473 456.877C945.473 457.752 945.714 458.372 946.195 458.736C946.691 459.1 947.376 459.283 948.251 459.283C949.256 459.283 950.124 459.108 950.853 458.758C951.596 458.393 952.332 457.832 953.061 457.074V453.575ZM940.772 443.582C942.099 442.387 943.564 441.498 945.167 440.915C946.771 440.317 948.506 440.018 950.372 440.018C951.713 440.018 952.908 440.237 953.958 440.674C955.022 441.111 955.918 441.724 956.647 442.511C957.391 443.284 957.959 444.209 958.353 445.288C958.747 446.367 958.943 447.548 958.943 448.83V463H956.188C955.62 463 955.182 462.92 954.876 462.759C954.585 462.599 954.344 462.264 954.155 461.754L953.673 460.31C953.105 460.806 952.551 461.243 952.012 461.622C951.487 462.001 950.94 462.322 950.372 462.585C949.803 462.832 949.191 463.022 948.535 463.153C947.893 463.284 947.172 463.35 946.37 463.35C945.379 463.35 944.475 463.219 943.659 462.956C942.842 462.694 942.135 462.308 941.537 461.797C940.954 461.273 940.502 460.624 940.182 459.851C939.861 459.079 939.701 458.189 939.701 457.183C939.701 456.353 939.912 455.522 940.335 454.691C940.758 453.86 941.479 453.109 942.5 452.438C943.535 451.753 944.905 451.192 946.611 450.755C948.331 450.303 950.481 450.048 953.061 449.989V448.83C953.061 447.416 952.762 446.381 952.165 445.725C951.567 445.055 950.707 444.719 949.584 444.719C948.753 444.719 948.061 444.822 947.507 445.026C946.953 445.215 946.465 445.426 946.042 445.66C945.634 445.878 945.248 446.09 944.883 446.294C944.519 446.483 944.096 446.578 943.615 446.578C943.192 446.578 942.835 446.476 942.543 446.272C942.266 446.053 942.033 445.798 941.844 445.507L940.772 443.582ZM980.011 445.485C979.836 445.718 979.661 445.9 979.486 446.031C979.311 446.148 979.063 446.206 978.742 446.206C978.451 446.206 978.166 446.126 977.89 445.966C977.627 445.791 977.321 445.609 976.971 445.419C976.621 445.215 976.206 445.033 975.725 444.873C975.244 444.698 974.646 444.61 973.932 444.61C973.028 444.61 972.241 444.778 971.57 445.113C970.914 445.434 970.367 445.9 969.93 446.513C969.493 447.125 969.165 447.868 968.946 448.743C968.742 449.618 968.64 450.602 968.64 451.695C968.64 453.998 969.099 455.762 970.017 456.987C970.95 458.211 972.219 458.823 973.822 458.823C974.376 458.823 974.85 458.78 975.244 458.692C975.652 458.59 976.002 458.466 976.293 458.321C976.599 458.175 976.862 458.014 977.08 457.839C977.299 457.665 977.503 457.504 977.693 457.358C977.897 457.213 978.094 457.096 978.283 457.009C978.487 456.906 978.713 456.855 978.961 456.855C979.427 456.855 979.792 457.03 980.054 457.38L981.782 459.567C981.14 460.31 980.455 460.93 979.726 461.426C978.997 461.907 978.239 462.293 977.452 462.585C976.68 462.862 975.892 463.051 975.091 463.153C974.289 463.27 973.494 463.328 972.707 463.328C971.322 463.328 970.01 463.073 968.771 462.563C967.532 462.038 966.446 461.28 965.513 460.289C964.58 459.297 963.837 458.08 963.283 456.637C962.743 455.194 962.473 453.546 962.473 451.695C962.473 450.048 962.714 448.517 963.195 447.103C963.676 445.689 964.383 444.464 965.316 443.429C966.249 442.394 967.401 441.585 968.771 441.002C970.156 440.404 971.752 440.106 973.56 440.106C975.28 440.106 976.789 440.383 978.086 440.937C979.384 441.49 980.55 442.292 981.585 443.342L980.011 445.485ZM990.873 430.397V448.896H991.879C992.258 448.896 992.557 448.845 992.775 448.743C992.994 448.626 993.213 448.422 993.431 448.131L998.417 441.483C998.665 441.148 998.942 440.893 999.248 440.718C999.568 440.543 999.969 440.455 1000.45 440.455H1005.96L999.488 448.677C998.978 449.362 998.388 449.902 997.717 450.295C998.052 450.529 998.344 450.798 998.592 451.105C998.84 451.411 999.08 451.753 999.313 452.132L1006.29 463H1000.87C1000.4 463 999.998 462.927 999.663 462.781C999.328 462.621 999.051 462.344 998.832 461.95L993.759 453.663C993.555 453.313 993.344 453.087 993.125 452.985C992.906 452.883 992.578 452.832 992.141 452.832H990.873V463H984.838V430.397H990.873Z" fill="#071F42"/>
<path d="M609.715 474.152H1006.2V476.317H609.715V474.152Z" fill="#071F42"/>
<a href="https://airtable.com/shrfQGpXvo9mmmHpJ">
<rect fill="black" fill-opacity="0" x="226.781" y="78.72" width="396.487" height="52.48"/>
</a>
<path d="M1064.9 449.039V464.072C1064.9 465.401 1064.37 466.676 1063.43 467.616C1062.49 468.555 1061.22 469.083 1059.89 469.083H1032.33C1031 469.083 1029.72 468.555 1028.78 467.616C1027.84 466.676 1027.32 465.401 1027.32 464.072V436.511C1027.32 435.182 1027.84 433.908 1028.78 432.968C1029.72 432.028 1031 431.5 1032.33 431.5H1047.36M1057.38 423.983H1072.42M1072.42 423.983V439.017M1072.42 423.983L1044.86 451.545" stroke="#071F42" stroke-width="5.46667" stroke-linecap="round" stroke-linejoin="round"/>
</svg>
